%TF.GenerationSoftware,KiCad,Pcbnew,(6.0.2)*%
%TF.CreationDate,2022-03-10T12:52:18+01:00*%
%TF.ProjectId,SolarCharger,536f6c61-7243-4686-9172-6765722e6b69,rev?*%
%TF.SameCoordinates,Original*%
%TF.FileFunction,Copper,L4,Bot*%
%TF.FilePolarity,Positive*%
%FSLAX46Y46*%
G04 Gerber Fmt 4.6, Leading zero omitted, Abs format (unit mm)*
G04 Created by KiCad (PCBNEW (6.0.2)) date 2022-03-10 12:52:18*
%MOMM*%
%LPD*%
G01*
G04 APERTURE LIST*
%TA.AperFunction,ComponentPad*%
%ADD10R,1.800000X1.800000*%
%TD*%
%TA.AperFunction,ComponentPad*%
%ADD11C,1.800000*%
%TD*%
%TA.AperFunction,SMDPad,CuDef*%
%ADD12R,0.750000X1.450000*%
%TD*%
%TA.AperFunction,SMDPad,CuDef*%
%ADD13R,1.000000X1.450000*%
%TD*%
%TA.AperFunction,ViaPad*%
%ADD14C,0.800000*%
%TD*%
%TA.AperFunction,Conductor*%
%ADD15C,0.300000*%
%TD*%
%TA.AperFunction,Conductor*%
%ADD16C,0.250000*%
%TD*%
G04 APERTURE END LIST*
D10*
%TO.P,J1,1,1*%
%TO.N,gnd*%
X82500000Y-47460000D03*
D11*
%TO.P,J1,2,2*%
%TO.N,Vin+*%
X82500000Y-50000000D03*
%TD*%
D10*
%TO.P,J2,1,1*%
%TO.N,gnd*%
X116900000Y-45400000D03*
D11*
%TO.P,J2,2,2*%
%TO.N,5V*%
X116900000Y-42860000D03*
%TD*%
D12*
%TO.P,RT1,1,1*%
%TO.N,gnd*%
X99000000Y-49200000D03*
%TO.P,RT1,2,2*%
%TO.N,Net-(IC1-Pad5)*%
X101200000Y-49200000D03*
%TD*%
D13*
%TO.P,R14,1*%
%TO.N,5V_BF*%
X111510000Y-43950000D03*
%TO.P,R14,2*%
%TO.N,5V*%
X113410000Y-43950000D03*
%TD*%
D14*
%TO.N,Vin+*%
X83600000Y-45500000D03*
%TO.N,gnd*%
X103200000Y-52500000D03*
X95200000Y-46900000D03*
X111800000Y-52600000D03*
X117200000Y-52500000D03*
%TO.N,BAT-*%
X93000000Y-46500000D03*
X93930331Y-51830331D03*
X90000000Y-51825000D03*
%TO.N,BAT+*%
X98550001Y-51895735D03*
X101600000Y-44400000D03*
X106675000Y-48289369D03*
X92000000Y-46500000D03*
%TO.N,Net-(C7-Pad2)*%
X107737764Y-52679577D03*
X104300000Y-52200000D03*
%TO.N,5V*%
X119600000Y-53100000D03*
%TO.N,5V_BF*%
X110800000Y-42300000D03*
X101600000Y-46900000D03*
X110800000Y-52374998D03*
X115750000Y-52300000D03*
%TO.N,Net-(D1-Pad2)*%
X102700000Y-46300000D03*
X105900000Y-49500000D03*
%TO.N,Net-(IC1-Pad8)*%
X89736401Y-46263599D03*
X92400000Y-48600000D03*
%TO.N,Net-(IC1-Pad6)*%
X84100000Y-42300000D03*
X91964998Y-49517501D03*
%TO.N,Net-(IC1-Pad5)*%
X88069998Y-52500000D03*
%TO.N,Net-(IC1-Pad2)*%
X84200000Y-52000000D03*
X84500000Y-46710000D03*
%TO.N,Net-(IC2-Pad5)*%
X97147624Y-46263478D03*
X95400000Y-51830332D03*
%TO.N,Net-(IC3-Pad2)*%
X100100000Y-52300000D03*
X106700000Y-45000000D03*
%TO.N,Net-(IC3-Pad1)*%
X108574998Y-45725000D03*
X102544998Y-47600000D03*
%TO.N,Net-(IC4-Pad8)*%
X119600000Y-46900000D03*
X113200000Y-46100000D03*
%TO.N,Net-(IC4-Pad7)*%
X118149498Y-47668922D03*
X113786658Y-52706671D03*
%TO.N,Net-(IC4-Pad3)*%
X108200000Y-49200000D03*
X113327531Y-50779998D03*
%TD*%
D15*
%TO.N,Vin+*%
X82029998Y-45500000D02*
X81249999Y-46279999D01*
X81249999Y-48749999D02*
X82500000Y-50000000D01*
X83600000Y-45500000D02*
X82029998Y-45500000D01*
X81249999Y-46279999D02*
X81249999Y-48749999D01*
%TO.N,gnd*%
X103200000Y-52500000D02*
X102200000Y-51500000D01*
X102200000Y-51500000D02*
X102200000Y-48469998D01*
X112800000Y-53600000D02*
X117000000Y-53600000D01*
X97500000Y-49200000D02*
X95200000Y-46900000D01*
X110970422Y-53429578D02*
X104129578Y-53429578D01*
X117000000Y-53600000D02*
X117200000Y-53400000D01*
X104129578Y-53429578D02*
X103200000Y-52500000D01*
X101730002Y-48000000D02*
X100200000Y-48000000D01*
X100200000Y-48000000D02*
X99000000Y-49200000D01*
X99000000Y-49200000D02*
X97500000Y-49200000D01*
X117200000Y-53400000D02*
X117200000Y-52500000D01*
X111800000Y-52600000D02*
X112800000Y-53600000D01*
X102200000Y-48469998D02*
X101730002Y-48000000D01*
X111800000Y-52600000D02*
X110970422Y-53429578D01*
%TO.N,BAT-*%
X90005331Y-51830331D02*
X90000000Y-51825000D01*
X93930331Y-51830331D02*
X90005331Y-51830331D01*
D16*
%TO.N,Net-(C7-Pad2)*%
X107200000Y-52200000D02*
X107679577Y-52679577D01*
X107679577Y-52679577D02*
X107737764Y-52679577D01*
X104300000Y-52200000D02*
X107200000Y-52200000D01*
D15*
%TO.N,5V*%
X113410000Y-43950000D02*
X115810000Y-43950000D01*
X115810000Y-43950000D02*
X116900000Y-42860000D01*
%TO.N,5V_BF*%
X115750000Y-52300000D02*
X115299999Y-51849999D01*
X111324999Y-51849999D02*
X110800000Y-52374998D01*
X111510000Y-43010000D02*
X110800000Y-42300000D01*
X111510000Y-43950000D02*
X111510000Y-43010000D01*
X101600000Y-46900000D02*
X101600000Y-46289998D01*
X115299999Y-51849999D02*
X111324999Y-51849999D01*
X101600000Y-46289998D02*
X105589998Y-42300000D01*
X105589998Y-42300000D02*
X110800000Y-42300000D01*
D16*
%TO.N,Net-(IC1-Pad8)*%
X92400000Y-48600000D02*
X90063599Y-46263599D01*
X90063599Y-46263599D02*
X89736401Y-46263599D01*
%TO.N,Net-(IC1-Pad6)*%
X91964998Y-49517501D02*
X84747497Y-42300000D01*
X84747497Y-42300000D02*
X84100000Y-42300000D01*
%TO.N,Net-(IC1-Pad5)*%
X89469998Y-51100000D02*
X99300000Y-51100000D01*
X99300000Y-51100000D02*
X101200000Y-49200000D01*
X88069998Y-52500000D02*
X89469998Y-51100000D01*
%TO.N,Net-(IC1-Pad2)*%
X84500000Y-46710000D02*
X84500000Y-51700000D01*
X84500000Y-51700000D02*
X84200000Y-52000000D01*
%TO.N,Net-(IC3-Pad1)*%
X103200000Y-47600000D02*
X102544998Y-47600000D01*
X108574998Y-45725000D02*
X106325000Y-45725000D01*
X105100000Y-45700000D02*
X103200000Y-47600000D01*
X106300000Y-45700000D02*
X105100000Y-45700000D01*
X106325000Y-45725000D02*
X106300000Y-45700000D01*
%TO.N,Net-(IC4-Pad8)*%
X114000000Y-46900000D02*
X119600000Y-46900000D01*
X113200000Y-46100000D02*
X114000000Y-46900000D01*
%TO.N,Net-(IC4-Pad3)*%
X109779998Y-50779998D02*
X113327531Y-50779998D01*
X108200000Y-49200000D02*
X109779998Y-50779998D01*
%TD*%
%TA.AperFunction,Conductor*%
%TO.N,gnd*%
G36*
X83375734Y-41528002D02*
G01*
X83422227Y-41581658D01*
X83432331Y-41651932D01*
X83401251Y-41718309D01*
X83360960Y-41763056D01*
X83265473Y-41928444D01*
X83206458Y-42110072D01*
X83186496Y-42300000D01*
X83187186Y-42306565D01*
X83193570Y-42367301D01*
X83206458Y-42489928D01*
X83265473Y-42671556D01*
X83268776Y-42677278D01*
X83268777Y-42677279D01*
X83293100Y-42719407D01*
X83360960Y-42836944D01*
X83365378Y-42841851D01*
X83365379Y-42841852D01*
X83484325Y-42973955D01*
X83488747Y-42978866D01*
X83643248Y-43091118D01*
X83649276Y-43093802D01*
X83649278Y-43093803D01*
X83794975Y-43158671D01*
X83817712Y-43168794D01*
X83911113Y-43188647D01*
X83998056Y-43207128D01*
X83998061Y-43207128D01*
X84004513Y-43208500D01*
X84195487Y-43208500D01*
X84201939Y-43207128D01*
X84201944Y-43207128D01*
X84288887Y-43188647D01*
X84382288Y-43168794D01*
X84388315Y-43166111D01*
X84388323Y-43166108D01*
X84537121Y-43099859D01*
X84607488Y-43090425D01*
X84671785Y-43120532D01*
X84677464Y-43125871D01*
X87847798Y-46296206D01*
X91017876Y-49466284D01*
X91051902Y-49528596D01*
X91054091Y-49542209D01*
X91069617Y-49689928D01*
X91071456Y-49707429D01*
X91130471Y-49889057D01*
X91133774Y-49894779D01*
X91133775Y-49894780D01*
X91144808Y-49913889D01*
X91225958Y-50054445D01*
X91230376Y-50059352D01*
X91230377Y-50059353D01*
X91341483Y-50182749D01*
X91353745Y-50196367D01*
X91359087Y-50200248D01*
X91359089Y-50200250D01*
X91411824Y-50238564D01*
X91455178Y-50294786D01*
X91461253Y-50365523D01*
X91428121Y-50428314D01*
X91366301Y-50463226D01*
X91337763Y-50466500D01*
X89548765Y-50466500D01*
X89537582Y-50465973D01*
X89530089Y-50464298D01*
X89522163Y-50464547D01*
X89522162Y-50464547D01*
X89462012Y-50466438D01*
X89458053Y-50466500D01*
X89430142Y-50466500D01*
X89426208Y-50466997D01*
X89426207Y-50466997D01*
X89426142Y-50467005D01*
X89414305Y-50467938D01*
X89382047Y-50468952D01*
X89378028Y-50469078D01*
X89370109Y-50469327D01*
X89350655Y-50474979D01*
X89331298Y-50478987D01*
X89319068Y-50480532D01*
X89319067Y-50480532D01*
X89311201Y-50481526D01*
X89303830Y-50484445D01*
X89303828Y-50484445D01*
X89270086Y-50497804D01*
X89258856Y-50501649D01*
X89224015Y-50511771D01*
X89224014Y-50511771D01*
X89216405Y-50513982D01*
X89209586Y-50518015D01*
X89209581Y-50518017D01*
X89198970Y-50524293D01*
X89181222Y-50532988D01*
X89162381Y-50540448D01*
X89155965Y-50545110D01*
X89155964Y-50545110D01*
X89126611Y-50566436D01*
X89116691Y-50572952D01*
X89085463Y-50591420D01*
X89085460Y-50591422D01*
X89078636Y-50595458D01*
X89064315Y-50609779D01*
X89049282Y-50622619D01*
X89032891Y-50634528D01*
X89027841Y-50640632D01*
X89027836Y-50640637D01*
X89004705Y-50668598D01*
X88996715Y-50677379D01*
X88119497Y-51554596D01*
X88057185Y-51588621D01*
X88030402Y-51591500D01*
X87974511Y-51591500D01*
X87968059Y-51592872D01*
X87968054Y-51592872D01*
X87881111Y-51611353D01*
X87787710Y-51631206D01*
X87781680Y-51633891D01*
X87781679Y-51633891D01*
X87619276Y-51706197D01*
X87619274Y-51706198D01*
X87613246Y-51708882D01*
X87607905Y-51712762D01*
X87607904Y-51712763D01*
X87595960Y-51721441D01*
X87458745Y-51821134D01*
X87330958Y-51963056D01*
X87235471Y-52128444D01*
X87176456Y-52310072D01*
X87175766Y-52316633D01*
X87175766Y-52316635D01*
X87168942Y-52381563D01*
X87156494Y-52500000D01*
X87157184Y-52506565D01*
X87175568Y-52681476D01*
X87176456Y-52689928D01*
X87235471Y-52871556D01*
X87238774Y-52877278D01*
X87238775Y-52877279D01*
X87263765Y-52920563D01*
X87330958Y-53036944D01*
X87335376Y-53041851D01*
X87335377Y-53041852D01*
X87447265Y-53166116D01*
X87458745Y-53178866D01*
X87517328Y-53221429D01*
X87600870Y-53282126D01*
X87613246Y-53291118D01*
X87619274Y-53293802D01*
X87619276Y-53293803D01*
X87781679Y-53366109D01*
X87787710Y-53368794D01*
X87881110Y-53388647D01*
X87968054Y-53407128D01*
X87968059Y-53407128D01*
X87974511Y-53408500D01*
X88165485Y-53408500D01*
X88171937Y-53407128D01*
X88171942Y-53407128D01*
X88258886Y-53388647D01*
X88352286Y-53368794D01*
X88358317Y-53366109D01*
X88520720Y-53293803D01*
X88520722Y-53293802D01*
X88526750Y-53291118D01*
X88539127Y-53282126D01*
X88622668Y-53221429D01*
X88681251Y-53178866D01*
X88692731Y-53166116D01*
X88804619Y-53041852D01*
X88804620Y-53041851D01*
X88809038Y-53036944D01*
X88876231Y-52920563D01*
X88901221Y-52877279D01*
X88901222Y-52877278D01*
X88904525Y-52871556D01*
X88963540Y-52689928D01*
X88964429Y-52681476D01*
X88980905Y-52524707D01*
X89007918Y-52459050D01*
X89017120Y-52448782D01*
X89092686Y-52373216D01*
X89154998Y-52339190D01*
X89225813Y-52344255D01*
X89275417Y-52378000D01*
X89388747Y-52503866D01*
X89470215Y-52563056D01*
X89514957Y-52595563D01*
X89543248Y-52616118D01*
X89549276Y-52618802D01*
X89549278Y-52618803D01*
X89711681Y-52691109D01*
X89717712Y-52693794D01*
X89809179Y-52713236D01*
X89898056Y-52732128D01*
X89898061Y-52732128D01*
X89904513Y-52733500D01*
X90095487Y-52733500D01*
X90101939Y-52732128D01*
X90101944Y-52732128D01*
X90190821Y-52713236D01*
X90282288Y-52693794D01*
X90288319Y-52691109D01*
X90450722Y-52618803D01*
X90450724Y-52618802D01*
X90456752Y-52616118D01*
X90467554Y-52608270D01*
X90598826Y-52512895D01*
X90665694Y-52489036D01*
X90672887Y-52488831D01*
X93250107Y-52488831D01*
X93318228Y-52508833D01*
X93324165Y-52512893D01*
X93324424Y-52513081D01*
X93466242Y-52616118D01*
X93473579Y-52621449D01*
X93479607Y-52624133D01*
X93479609Y-52624134D01*
X93642012Y-52696440D01*
X93648043Y-52699125D01*
X93714430Y-52713236D01*
X93828387Y-52737459D01*
X93828392Y-52737459D01*
X93834844Y-52738831D01*
X94025818Y-52738831D01*
X94032270Y-52737459D01*
X94032275Y-52737459D01*
X94146232Y-52713236D01*
X94212619Y-52699125D01*
X94218650Y-52696440D01*
X94381053Y-52624134D01*
X94381055Y-52624133D01*
X94387083Y-52621449D01*
X94394421Y-52616118D01*
X94451563Y-52574601D01*
X94541584Y-52509197D01*
X94571530Y-52475938D01*
X94631975Y-52438700D01*
X94702959Y-52440052D01*
X94758800Y-52475938D01*
X94788747Y-52509198D01*
X94943248Y-52621450D01*
X94949276Y-52624134D01*
X94949278Y-52624135D01*
X95111679Y-52696440D01*
X95117712Y-52699126D01*
X95211113Y-52718979D01*
X95298056Y-52737460D01*
X95298061Y-52737460D01*
X95304513Y-52738832D01*
X95495487Y-52738832D01*
X95501939Y-52737460D01*
X95501944Y-52737460D01*
X95588887Y-52718979D01*
X95682288Y-52699126D01*
X95688321Y-52696440D01*
X95850722Y-52624135D01*
X95850724Y-52624134D01*
X95856752Y-52621450D01*
X96011253Y-52509198D01*
X96041200Y-52475939D01*
X96134621Y-52372184D01*
X96134622Y-52372183D01*
X96139040Y-52367276D01*
X96234527Y-52201888D01*
X96293542Y-52020260D01*
X96294649Y-52009727D01*
X96311823Y-51846329D01*
X96338836Y-51780673D01*
X96397058Y-51740043D01*
X96437133Y-51733500D01*
X97513611Y-51733500D01*
X97581732Y-51753502D01*
X97628225Y-51807158D01*
X97638921Y-51872669D01*
X97637799Y-51883346D01*
X97636497Y-51895735D01*
X97637187Y-51902300D01*
X97648146Y-52006565D01*
X97656459Y-52085663D01*
X97715474Y-52267291D01*
X97718777Y-52273013D01*
X97718778Y-52273014D01*
X97739487Y-52308882D01*
X97810961Y-52432679D01*
X97815379Y-52437586D01*
X97815380Y-52437587D01*
X97930347Y-52565271D01*
X97938748Y-52574601D01*
X98007223Y-52624351D01*
X98080072Y-52677279D01*
X98093249Y-52686853D01*
X98099277Y-52689537D01*
X98099279Y-52689538D01*
X98240194Y-52752277D01*
X98267713Y-52764529D01*
X98361114Y-52784382D01*
X98448057Y-52802863D01*
X98448062Y-52802863D01*
X98454514Y-52804235D01*
X98645488Y-52804235D01*
X98651940Y-52802863D01*
X98651945Y-52802863D01*
X98738889Y-52784382D01*
X98832289Y-52764529D01*
X98859808Y-52752277D01*
X99000723Y-52689538D01*
X99000725Y-52689537D01*
X99006753Y-52686853D01*
X99019931Y-52677279D01*
X99082074Y-52632129D01*
X99148942Y-52608270D01*
X99218093Y-52624351D01*
X99264510Y-52672112D01*
X99265473Y-52671556D01*
X99360960Y-52836944D01*
X99365378Y-52841851D01*
X99365379Y-52841852D01*
X99436251Y-52920563D01*
X99488747Y-52978866D01*
X99579563Y-53044848D01*
X99616855Y-53071942D01*
X99643248Y-53091118D01*
X99649276Y-53093802D01*
X99649278Y-53093803D01*
X99802980Y-53162235D01*
X99817712Y-53168794D01*
X99883365Y-53182749D01*
X99998056Y-53207128D01*
X99998061Y-53207128D01*
X100004513Y-53208500D01*
X100195487Y-53208500D01*
X100201939Y-53207128D01*
X100201944Y-53207128D01*
X100316635Y-53182749D01*
X100382288Y-53168794D01*
X100397020Y-53162235D01*
X100550722Y-53093803D01*
X100550724Y-53093802D01*
X100556752Y-53091118D01*
X100583146Y-53071942D01*
X100620437Y-53044848D01*
X100711253Y-52978866D01*
X100763749Y-52920563D01*
X100834621Y-52841852D01*
X100834622Y-52841851D01*
X100839040Y-52836944D01*
X100918044Y-52700106D01*
X100931223Y-52677279D01*
X100931224Y-52677278D01*
X100934527Y-52671556D01*
X100993542Y-52489928D01*
X100996788Y-52459050D01*
X101012814Y-52306565D01*
X101013504Y-52300000D01*
X101002994Y-52200000D01*
X103386496Y-52200000D01*
X103387186Y-52206565D01*
X103405129Y-52377279D01*
X103406458Y-52389928D01*
X103465473Y-52571556D01*
X103468776Y-52577278D01*
X103468777Y-52577279D01*
X103557658Y-52731225D01*
X103560960Y-52736944D01*
X103565378Y-52741851D01*
X103565379Y-52741852D01*
X103679678Y-52868794D01*
X103688747Y-52878866D01*
X103746138Y-52920563D01*
X103826385Y-52978866D01*
X103843248Y-52991118D01*
X103849276Y-52993802D01*
X103849278Y-52993803D01*
X103992900Y-53057747D01*
X104017712Y-53068794D01*
X104104479Y-53087237D01*
X104198056Y-53107128D01*
X104198061Y-53107128D01*
X104204513Y-53108500D01*
X104395487Y-53108500D01*
X104401939Y-53107128D01*
X104401944Y-53107128D01*
X104495521Y-53087237D01*
X104582288Y-53068794D01*
X104607100Y-53057747D01*
X104750722Y-52993803D01*
X104750724Y-52993802D01*
X104756752Y-52991118D01*
X104773616Y-52978866D01*
X104895879Y-52890036D01*
X104911253Y-52878866D01*
X104915668Y-52873963D01*
X104920580Y-52869540D01*
X104921705Y-52870789D01*
X104975014Y-52837949D01*
X105008200Y-52833500D01*
X106740979Y-52833500D01*
X106809100Y-52853502D01*
X106855593Y-52907158D01*
X106860811Y-52920561D01*
X106903237Y-53051133D01*
X106906540Y-53056855D01*
X106906541Y-53056856D01*
X106914226Y-53070166D01*
X106998724Y-53216521D01*
X107003142Y-53221428D01*
X107003143Y-53221429D01*
X107122089Y-53353532D01*
X107126511Y-53358443D01*
X107163803Y-53385537D01*
X107273547Y-53465271D01*
X107281012Y-53470695D01*
X107287040Y-53473379D01*
X107287042Y-53473380D01*
X107341866Y-53497789D01*
X107455476Y-53548371D01*
X107548877Y-53568224D01*
X107635820Y-53586705D01*
X107635825Y-53586705D01*
X107642277Y-53588077D01*
X107833251Y-53588077D01*
X107839703Y-53586705D01*
X107839708Y-53586705D01*
X107926652Y-53568224D01*
X108020052Y-53548371D01*
X108133662Y-53497789D01*
X108188486Y-53473380D01*
X108188488Y-53473379D01*
X108194516Y-53470695D01*
X108201982Y-53465271D01*
X108311725Y-53385537D01*
X108349017Y-53358443D01*
X108353439Y-53353532D01*
X108472385Y-53221429D01*
X108472386Y-53221428D01*
X108476804Y-53216521D01*
X108561302Y-53070166D01*
X108568987Y-53056856D01*
X108568988Y-53056855D01*
X108572291Y-53051133D01*
X108631306Y-52869505D01*
X108634213Y-52841852D01*
X108650578Y-52686142D01*
X108651268Y-52679577D01*
X108645159Y-52621449D01*
X108631996Y-52496212D01*
X108631995Y-52496206D01*
X108631306Y-52489649D01*
X108572291Y-52308021D01*
X108548776Y-52267291D01*
X108507386Y-52195603D01*
X108476804Y-52142633D01*
X108349017Y-52000711D01*
X108241673Y-51922721D01*
X108199858Y-51892340D01*
X108199857Y-51892339D01*
X108194516Y-51888459D01*
X108188488Y-51885775D01*
X108188486Y-51885774D01*
X108026083Y-51813468D01*
X108026082Y-51813468D01*
X108020052Y-51810783D01*
X107926652Y-51790930D01*
X107839708Y-51772449D01*
X107839703Y-51772449D01*
X107833251Y-51771077D01*
X107719172Y-51771077D01*
X107651051Y-51751075D01*
X107630077Y-51734172D01*
X107619770Y-51723865D01*
X107616573Y-51721385D01*
X107607551Y-51713680D01*
X107575321Y-51683414D01*
X107568375Y-51679595D01*
X107568372Y-51679593D01*
X107557566Y-51673652D01*
X107541047Y-51662801D01*
X107535048Y-51658148D01*
X107525041Y-51650386D01*
X107517772Y-51647241D01*
X107517768Y-51647238D01*
X107484463Y-51632826D01*
X107473813Y-51627609D01*
X107435060Y-51606305D01*
X107415437Y-51601267D01*
X107396734Y-51594863D01*
X107385420Y-51589967D01*
X107385419Y-51589967D01*
X107378145Y-51586819D01*
X107370322Y-51585580D01*
X107370312Y-51585577D01*
X107334476Y-51579901D01*
X107322856Y-51577495D01*
X107287711Y-51568472D01*
X107287710Y-51568472D01*
X107280030Y-51566500D01*
X107259776Y-51566500D01*
X107240065Y-51564949D01*
X107227886Y-51563020D01*
X107220057Y-51561780D01*
X107212165Y-51562526D01*
X107176039Y-51565941D01*
X107164181Y-51566500D01*
X105008200Y-51566500D01*
X104940079Y-51546498D01*
X104920853Y-51530157D01*
X104920580Y-51530460D01*
X104915668Y-51526037D01*
X104911253Y-51521134D01*
X104889671Y-51505454D01*
X104762094Y-51412763D01*
X104762093Y-51412762D01*
X104756752Y-51408882D01*
X104750724Y-51406198D01*
X104750722Y-51406197D01*
X104588319Y-51333891D01*
X104588318Y-51333891D01*
X104582288Y-51331206D01*
X104467557Y-51306819D01*
X104401944Y-51292872D01*
X104401939Y-51292872D01*
X104395487Y-51291500D01*
X104204513Y-51291500D01*
X104198061Y-51292872D01*
X104198056Y-51292872D01*
X104132443Y-51306819D01*
X104017712Y-51331206D01*
X104011682Y-51333891D01*
X104011681Y-51333891D01*
X103849278Y-51406197D01*
X103849276Y-51406198D01*
X103843248Y-51408882D01*
X103837907Y-51412762D01*
X103837906Y-51412763D01*
X103836125Y-51414057D01*
X103688747Y-51521134D01*
X103684326Y-51526044D01*
X103684325Y-51526045D01*
X103575203Y-51647238D01*
X103560960Y-51663056D01*
X103505119Y-51759776D01*
X103475670Y-51810783D01*
X103465473Y-51828444D01*
X103406458Y-52010072D01*
X103405768Y-52016633D01*
X103405768Y-52016635D01*
X103395948Y-52110072D01*
X103386496Y-52200000D01*
X101002994Y-52200000D01*
X101000765Y-52178792D01*
X100994232Y-52116635D01*
X100994232Y-52116633D01*
X100993542Y-52110072D01*
X100934527Y-51928444D01*
X100915643Y-51895735D01*
X100882340Y-51838054D01*
X100839040Y-51763056D01*
X100827157Y-51749858D01*
X100715675Y-51626045D01*
X100715674Y-51626044D01*
X100711253Y-51621134D01*
X100608526Y-51546498D01*
X100562094Y-51512763D01*
X100562093Y-51512762D01*
X100556752Y-51508882D01*
X100550724Y-51506198D01*
X100550722Y-51506197D01*
X100388319Y-51433891D01*
X100388318Y-51433891D01*
X100382288Y-51431206D01*
X100195487Y-51391500D01*
X100192824Y-51391500D01*
X100128519Y-51365041D01*
X100087890Y-51306819D01*
X100085189Y-51235874D01*
X100118251Y-51177653D01*
X100825502Y-50470403D01*
X100887812Y-50436379D01*
X100914595Y-50433500D01*
X101623134Y-50433500D01*
X101685316Y-50426745D01*
X101821705Y-50375615D01*
X101938261Y-50288261D01*
X102025615Y-50171705D01*
X102076745Y-50035316D01*
X102083500Y-49973134D01*
X102083500Y-49500000D01*
X104986496Y-49500000D01*
X104987186Y-49506565D01*
X104989502Y-49528596D01*
X105006458Y-49689928D01*
X105065473Y-49871556D01*
X105068776Y-49877278D01*
X105068777Y-49877279D01*
X105075577Y-49889057D01*
X105160960Y-50036944D01*
X105165378Y-50041851D01*
X105165379Y-50041852D01*
X105282299Y-50171705D01*
X105288747Y-50178866D01*
X105443248Y-50291118D01*
X105449276Y-50293802D01*
X105449278Y-50293803D01*
X105570421Y-50347739D01*
X105617712Y-50368794D01*
X105711112Y-50388647D01*
X105798056Y-50407128D01*
X105798061Y-50407128D01*
X105804513Y-50408500D01*
X105995487Y-50408500D01*
X106001939Y-50407128D01*
X106001944Y-50407128D01*
X106088888Y-50388647D01*
X106182288Y-50368794D01*
X106229579Y-50347739D01*
X106350722Y-50293803D01*
X106350724Y-50293802D01*
X106356752Y-50291118D01*
X106511253Y-50178866D01*
X106517701Y-50171705D01*
X106634621Y-50041852D01*
X106634622Y-50041851D01*
X106639040Y-50036944D01*
X106724423Y-49889057D01*
X106731223Y-49877279D01*
X106731224Y-49877278D01*
X106734527Y-49871556D01*
X106793542Y-49689928D01*
X106810499Y-49528596D01*
X106812814Y-49506565D01*
X106813504Y-49500000D01*
X106793542Y-49310072D01*
X106796139Y-49309799D01*
X106800642Y-49250652D01*
X106843448Y-49194012D01*
X106892297Y-49171977D01*
X106957288Y-49158163D01*
X106963315Y-49155480D01*
X106963323Y-49155477D01*
X107109938Y-49090200D01*
X107180305Y-49080766D01*
X107244602Y-49110873D01*
X107282415Y-49170962D01*
X107286449Y-49200005D01*
X107286496Y-49200000D01*
X107306458Y-49389928D01*
X107365473Y-49571556D01*
X107460960Y-49736944D01*
X107588747Y-49878866D01*
X107743248Y-49991118D01*
X107749276Y-49993802D01*
X107749278Y-49993803D01*
X107885483Y-50054445D01*
X107917712Y-50068794D01*
X108011113Y-50088647D01*
X108098056Y-50107128D01*
X108098061Y-50107128D01*
X108104513Y-50108500D01*
X108160406Y-50108500D01*
X108228527Y-50128502D01*
X108249501Y-50145405D01*
X109276341Y-51172245D01*
X109283885Y-51180535D01*
X109287998Y-51187016D01*
X109293775Y-51192441D01*
X109337665Y-51233656D01*
X109340507Y-51236411D01*
X109360229Y-51256133D01*
X109363353Y-51258556D01*
X109363357Y-51258560D01*
X109363422Y-51258610D01*
X109372443Y-51266315D01*
X109404677Y-51296584D01*
X109411625Y-51300403D01*
X109411627Y-51300405D01*
X109422430Y-51306344D01*
X109438957Y-51317200D01*
X109448696Y-51324755D01*
X109448698Y-51324756D01*
X109454958Y-51329612D01*
X109495538Y-51347172D01*
X109506186Y-51352389D01*
X109520051Y-51360011D01*
X109544938Y-51373693D01*
X109552614Y-51375664D01*
X109552617Y-51375665D01*
X109564560Y-51378731D01*
X109583265Y-51385135D01*
X109601853Y-51393179D01*
X109609676Y-51394418D01*
X109609686Y-51394421D01*
X109645522Y-51400097D01*
X109657142Y-51402503D01*
X109691080Y-51411216D01*
X109699968Y-51413498D01*
X109720222Y-51413498D01*
X109739932Y-51415049D01*
X109759941Y-51418218D01*
X109767833Y-51417472D01*
X109803959Y-51414057D01*
X109815817Y-51413498D01*
X110189971Y-51413498D01*
X110258092Y-51433500D01*
X110304585Y-51487156D01*
X110314689Y-51557430D01*
X110285195Y-51622010D01*
X110264032Y-51641434D01*
X110188747Y-51696132D01*
X110184326Y-51701042D01*
X110184325Y-51701043D01*
X110069463Y-51828611D01*
X110060960Y-51838054D01*
X110012077Y-51922721D01*
X109969292Y-51996828D01*
X109965473Y-52003442D01*
X109906458Y-52185070D01*
X109905768Y-52191631D01*
X109905768Y-52191633D01*
X109889727Y-52344255D01*
X109886496Y-52374998D01*
X109887186Y-52381563D01*
X109905746Y-52558148D01*
X109906458Y-52564926D01*
X109965473Y-52746554D01*
X110060960Y-52911942D01*
X110065378Y-52916849D01*
X110065379Y-52916850D01*
X110124715Y-52982749D01*
X110188747Y-53053864D01*
X110343248Y-53166116D01*
X110349276Y-53168800D01*
X110349278Y-53168801D01*
X110511681Y-53241107D01*
X110517712Y-53243792D01*
X110611112Y-53263645D01*
X110698056Y-53282126D01*
X110698061Y-53282126D01*
X110704513Y-53283498D01*
X110895487Y-53283498D01*
X110901939Y-53282126D01*
X110901944Y-53282126D01*
X110988888Y-53263645D01*
X111082288Y-53243792D01*
X111088319Y-53241107D01*
X111250722Y-53168801D01*
X111250724Y-53168800D01*
X111256752Y-53166116D01*
X111411253Y-53053864D01*
X111475285Y-52982749D01*
X111534621Y-52916850D01*
X111534622Y-52916849D01*
X111539040Y-52911942D01*
X111634527Y-52746554D01*
X111683588Y-52595562D01*
X111723660Y-52536957D01*
X111789057Y-52509320D01*
X111803420Y-52508499D01*
X112754045Y-52508499D01*
X112822166Y-52528501D01*
X112868659Y-52582157D01*
X112879355Y-52647669D01*
X112875312Y-52686142D01*
X112873154Y-52706671D01*
X112873844Y-52713236D01*
X112890194Y-52868794D01*
X112893116Y-52896599D01*
X112952131Y-53078227D01*
X112955434Y-53083949D01*
X112955435Y-53083950D01*
X112960911Y-53093435D01*
X113047618Y-53243615D01*
X113052036Y-53248522D01*
X113052037Y-53248523D01*
X113161565Y-53370166D01*
X113175405Y-53385537D01*
X113207011Y-53408500D01*
X113301677Y-53477279D01*
X113329906Y-53497789D01*
X113335934Y-53500473D01*
X113335936Y-53500474D01*
X113446597Y-53549743D01*
X113504370Y-53575465D01*
X113597770Y-53595318D01*
X113684714Y-53613799D01*
X113684719Y-53613799D01*
X113691171Y-53615171D01*
X113882145Y-53615171D01*
X113888597Y-53613799D01*
X113888602Y-53613799D01*
X113975546Y-53595318D01*
X114068946Y-53575465D01*
X114126719Y-53549743D01*
X114237380Y-53500474D01*
X114237382Y-53500473D01*
X114243410Y-53497789D01*
X114271640Y-53477279D01*
X114366305Y-53408500D01*
X114397911Y-53385537D01*
X114411751Y-53370166D01*
X114521279Y-53248523D01*
X114521280Y-53248522D01*
X114525698Y-53243615D01*
X114612405Y-53093435D01*
X114617881Y-53083950D01*
X114617882Y-53083949D01*
X114621185Y-53078227D01*
X114680200Y-52896599D01*
X114683123Y-52868794D01*
X114691694Y-52787237D01*
X114695909Y-52747132D01*
X114722922Y-52681476D01*
X114781143Y-52640846D01*
X114852089Y-52638143D01*
X114913233Y-52674225D01*
X114930338Y-52697303D01*
X115010960Y-52836944D01*
X115015378Y-52841851D01*
X115015379Y-52841852D01*
X115086251Y-52920563D01*
X115138747Y-52978866D01*
X115229563Y-53044848D01*
X115266855Y-53071942D01*
X115293248Y-53091118D01*
X115299276Y-53093802D01*
X115299278Y-53093803D01*
X115452980Y-53162235D01*
X115467712Y-53168794D01*
X115533365Y-53182749D01*
X115648056Y-53207128D01*
X115648061Y-53207128D01*
X115654513Y-53208500D01*
X115845487Y-53208500D01*
X115851939Y-53207128D01*
X115851944Y-53207128D01*
X115966635Y-53182749D01*
X116032288Y-53168794D01*
X116047020Y-53162235D01*
X116200722Y-53093803D01*
X116200724Y-53093802D01*
X116206752Y-53091118D01*
X116233146Y-53071942D01*
X116270437Y-53044848D01*
X116361253Y-52978866D01*
X116413749Y-52920563D01*
X116484621Y-52841852D01*
X116484622Y-52841851D01*
X116489040Y-52836944D01*
X116568044Y-52700106D01*
X116581223Y-52677279D01*
X116581224Y-52677278D01*
X116584527Y-52671556D01*
X116643542Y-52489928D01*
X116646788Y-52459050D01*
X116662814Y-52306565D01*
X116663504Y-52300000D01*
X116650765Y-52178792D01*
X116644232Y-52116635D01*
X116644232Y-52116633D01*
X116643542Y-52110072D01*
X116584527Y-51928444D01*
X116565643Y-51895735D01*
X116532340Y-51838054D01*
X116489040Y-51763056D01*
X116477157Y-51749858D01*
X116365675Y-51626045D01*
X116365674Y-51626044D01*
X116361253Y-51621134D01*
X116258526Y-51546498D01*
X116212094Y-51512763D01*
X116212093Y-51512762D01*
X116206752Y-51508882D01*
X116200724Y-51506198D01*
X116200722Y-51506197D01*
X116038319Y-51433891D01*
X116038318Y-51433891D01*
X116032288Y-51431206D01*
X115938243Y-51411216D01*
X115851944Y-51392872D01*
X115851939Y-51392872D01*
X115845487Y-51391500D01*
X115824886Y-51391500D01*
X115756765Y-51371498D01*
X115741557Y-51360011D01*
X115739140Y-51357880D01*
X115736332Y-51355072D01*
X115732825Y-51352352D01*
X115723803Y-51344646D01*
X115712350Y-51333891D01*
X115690132Y-51313027D01*
X115683180Y-51309205D01*
X115671341Y-51302696D01*
X115654817Y-51291842D01*
X115644131Y-51283554D01*
X115637867Y-51278695D01*
X115630595Y-51275548D01*
X115630593Y-51275547D01*
X115595464Y-51260345D01*
X115584804Y-51255123D01*
X115551283Y-51236694D01*
X115551281Y-51236693D01*
X115544336Y-51232875D01*
X115523558Y-51227540D01*
X115504868Y-51221141D01*
X115485175Y-51212619D01*
X115439551Y-51205393D01*
X115427928Y-51202986D01*
X115399927Y-51195797D01*
X115383187Y-51191499D01*
X115361740Y-51191499D01*
X115342030Y-51189948D01*
X115328676Y-51187833D01*
X115320847Y-51186593D01*
X115274858Y-51190940D01*
X115263003Y-51191499D01*
X114322503Y-51191499D01*
X114254382Y-51171497D01*
X114207889Y-51117841D01*
X114197785Y-51047567D01*
X114202668Y-51026570D01*
X114221073Y-50969926D01*
X114227182Y-50911808D01*
X114240345Y-50786563D01*
X114241035Y-50779998D01*
X114235561Y-50727917D01*
X114221763Y-50596633D01*
X114221763Y-50596631D01*
X114221073Y-50590070D01*
X114162058Y-50408442D01*
X114149272Y-50386295D01*
X114117602Y-50331442D01*
X114066571Y-50243054D01*
X114008799Y-50178891D01*
X113943206Y-50106043D01*
X113943205Y-50106042D01*
X113938784Y-50101132D01*
X113784283Y-49988880D01*
X113778255Y-49986196D01*
X113778253Y-49986195D01*
X113615850Y-49913889D01*
X113615849Y-49913889D01*
X113609819Y-49911204D01*
X113505626Y-49889057D01*
X113429475Y-49872870D01*
X113429470Y-49872870D01*
X113423018Y-49871498D01*
X113232044Y-49871498D01*
X113225592Y-49872870D01*
X113225587Y-49872870D01*
X113149436Y-49889057D01*
X113045243Y-49911204D01*
X113039213Y-49913889D01*
X113039212Y-49913889D01*
X112876809Y-49986195D01*
X112876807Y-49986196D01*
X112870779Y-49988880D01*
X112865438Y-49992760D01*
X112865437Y-49992761D01*
X112796682Y-50042715D01*
X112716278Y-50101132D01*
X112711863Y-50106035D01*
X112706951Y-50110458D01*
X112705826Y-50109209D01*
X112652517Y-50142049D01*
X112619331Y-50146498D01*
X110094593Y-50146498D01*
X110026472Y-50126496D01*
X110005497Y-50109593D01*
X109147121Y-49251216D01*
X109113096Y-49188904D01*
X109110907Y-49175291D01*
X109094232Y-49016635D01*
X109094232Y-49016633D01*
X109093542Y-49010072D01*
X109034527Y-48828444D01*
X109025798Y-48813324D01*
X108965498Y-48708882D01*
X108939040Y-48663056D01*
X108826184Y-48537716D01*
X108815675Y-48526045D01*
X108815674Y-48526044D01*
X108811253Y-48521134D01*
X108656752Y-48408882D01*
X108650724Y-48406198D01*
X108650722Y-48406197D01*
X108488319Y-48333891D01*
X108488318Y-48333891D01*
X108482288Y-48331206D01*
X108388888Y-48311353D01*
X108301944Y-48292872D01*
X108301939Y-48292872D01*
X108295487Y-48291500D01*
X108104513Y-48291500D01*
X108098061Y-48292872D01*
X108098056Y-48292872D01*
X108011112Y-48311353D01*
X107917712Y-48331206D01*
X107911685Y-48333889D01*
X107911677Y-48333892D01*
X107765062Y-48399169D01*
X107694695Y-48408603D01*
X107630398Y-48378496D01*
X107592585Y-48318407D01*
X107588551Y-48289364D01*
X107588504Y-48289369D01*
X107588357Y-48287973D01*
X107587400Y-48278866D01*
X107569232Y-48106004D01*
X107569232Y-48106002D01*
X107568542Y-48099441D01*
X107509527Y-47917813D01*
X107414040Y-47752425D01*
X107394935Y-47731206D01*
X107290675Y-47615414D01*
X107290674Y-47615413D01*
X107286253Y-47610503D01*
X107152301Y-47513181D01*
X107137094Y-47502132D01*
X107137093Y-47502131D01*
X107131752Y-47498251D01*
X107125724Y-47495567D01*
X107125722Y-47495566D01*
X106963319Y-47423260D01*
X106963318Y-47423260D01*
X106957288Y-47420575D01*
X106863887Y-47400722D01*
X106776944Y-47382241D01*
X106776939Y-47382241D01*
X106770487Y-47380869D01*
X106579513Y-47380869D01*
X106573061Y-47382241D01*
X106573056Y-47382241D01*
X106486113Y-47400722D01*
X106392712Y-47420575D01*
X106386682Y-47423260D01*
X106386681Y-47423260D01*
X106224278Y-47495566D01*
X106224276Y-47495567D01*
X106218248Y-47498251D01*
X106212907Y-47502131D01*
X106212906Y-47502132D01*
X106197699Y-47513181D01*
X106063747Y-47610503D01*
X106059326Y-47615413D01*
X106059325Y-47615414D01*
X105955066Y-47731206D01*
X105935960Y-47752425D01*
X105840473Y-47917813D01*
X105781458Y-48099441D01*
X105780768Y-48106002D01*
X105780768Y-48106004D01*
X105762600Y-48278866D01*
X105761496Y-48289369D01*
X105762186Y-48295934D01*
X105781458Y-48479297D01*
X105778861Y-48479570D01*
X105774358Y-48538717D01*
X105731552Y-48595357D01*
X105682703Y-48617392D01*
X105617712Y-48631206D01*
X105611682Y-48633891D01*
X105611681Y-48633891D01*
X105449278Y-48706197D01*
X105449276Y-48706198D01*
X105443248Y-48708882D01*
X105288747Y-48821134D01*
X105284326Y-48826044D01*
X105284325Y-48826045D01*
X105180347Y-48941525D01*
X105160960Y-48963056D01*
X105110869Y-49049816D01*
X105075618Y-49110873D01*
X105065473Y-49128444D01*
X105006458Y-49310072D01*
X105005768Y-49316633D01*
X105005768Y-49316635D01*
X104998755Y-49383365D01*
X104986496Y-49500000D01*
X102083500Y-49500000D01*
X102083500Y-48583028D01*
X102103502Y-48514907D01*
X102157158Y-48468414D01*
X102227432Y-48458310D01*
X102250141Y-48464860D01*
X102250398Y-48464068D01*
X102256678Y-48466108D01*
X102262710Y-48468794D01*
X102356110Y-48488647D01*
X102443054Y-48507128D01*
X102443059Y-48507128D01*
X102449511Y-48508500D01*
X102640485Y-48508500D01*
X102646937Y-48507128D01*
X102646942Y-48507128D01*
X102733886Y-48488647D01*
X102827286Y-48468794D01*
X102837901Y-48464068D01*
X102995720Y-48393803D01*
X102995722Y-48393802D01*
X103001750Y-48391118D01*
X103156251Y-48278866D01*
X103160673Y-48273954D01*
X103165575Y-48269541D01*
X103166470Y-48270535D01*
X103220817Y-48237058D01*
X103239894Y-48233887D01*
X103239845Y-48233502D01*
X103243856Y-48232995D01*
X103255693Y-48232062D01*
X103287951Y-48231048D01*
X103291970Y-48230922D01*
X103299889Y-48230673D01*
X103319343Y-48225021D01*
X103338700Y-48221013D01*
X103350930Y-48219468D01*
X103350931Y-48219468D01*
X103358797Y-48218474D01*
X103366168Y-48215555D01*
X103366170Y-48215555D01*
X103399912Y-48202196D01*
X103411142Y-48198351D01*
X103445983Y-48188229D01*
X103445984Y-48188229D01*
X103453593Y-48186018D01*
X103460412Y-48181985D01*
X103460417Y-48181983D01*
X103471028Y-48175707D01*
X103488776Y-48167012D01*
X103507617Y-48159552D01*
X103543387Y-48133564D01*
X103553307Y-48127048D01*
X103584535Y-48108580D01*
X103584538Y-48108578D01*
X103591362Y-48104542D01*
X103605683Y-48090221D01*
X103620717Y-48077380D01*
X103630694Y-48070131D01*
X103637107Y-48065472D01*
X103665298Y-48031395D01*
X103673288Y-48022616D01*
X105325500Y-46370405D01*
X105387812Y-46336379D01*
X105414595Y-46333500D01*
X106116371Y-46333500D01*
X106145675Y-46337670D01*
X106146855Y-46338181D01*
X106168699Y-46341641D01*
X106190519Y-46345097D01*
X106202140Y-46347504D01*
X106237289Y-46356528D01*
X106244970Y-46358500D01*
X106265231Y-46358500D01*
X106284940Y-46360051D01*
X106304943Y-46363219D01*
X106312835Y-46362473D01*
X106318062Y-46361979D01*
X106348954Y-46359059D01*
X106360811Y-46358500D01*
X107866798Y-46358500D01*
X107934919Y-46378502D01*
X107954145Y-46394843D01*
X107954418Y-46394540D01*
X107959330Y-46398963D01*
X107963745Y-46403866D01*
X107970123Y-46408500D01*
X108096062Y-46500000D01*
X108118246Y-46516118D01*
X108124274Y-46518802D01*
X108124276Y-46518803D01*
X108160047Y-46534729D01*
X108292710Y-46593794D01*
X108386110Y-46613647D01*
X108473054Y-46632128D01*
X108473059Y-46632128D01*
X108479511Y-46633500D01*
X108670485Y-46633500D01*
X108676937Y-46632128D01*
X108676942Y-46632128D01*
X108763886Y-46613647D01*
X108857286Y-46593794D01*
X108989949Y-46534729D01*
X109025720Y-46518803D01*
X109025722Y-46518802D01*
X109031750Y-46516118D01*
X109053935Y-46500000D01*
X109127098Y-46446843D01*
X109186251Y-46403866D01*
X109209089Y-46378502D01*
X109309619Y-46266852D01*
X109309620Y-46266851D01*
X109314038Y-46261944D01*
X109380794Y-46146319D01*
X109406221Y-46102279D01*
X109406222Y-46102278D01*
X109409525Y-46096556D01*
X109468540Y-45914928D01*
X109469393Y-45906817D01*
X109487812Y-45731565D01*
X109488502Y-45725000D01*
X109478199Y-45626973D01*
X109469230Y-45541635D01*
X109469230Y-45541633D01*
X109468540Y-45535072D01*
X109409525Y-45353444D01*
X109389708Y-45319119D01*
X109338179Y-45229869D01*
X109314038Y-45188056D01*
X109272142Y-45141525D01*
X109190673Y-45051045D01*
X109190672Y-45051044D01*
X109186251Y-45046134D01*
X109052576Y-44949013D01*
X109037092Y-44937763D01*
X109037091Y-44937762D01*
X109031750Y-44933882D01*
X109025722Y-44931198D01*
X109025720Y-44931197D01*
X108863317Y-44858891D01*
X108863316Y-44858891D01*
X108857286Y-44856206D01*
X108763885Y-44836353D01*
X108676942Y-44817872D01*
X108676937Y-44817872D01*
X108670485Y-44816500D01*
X108479511Y-44816500D01*
X108473059Y-44817872D01*
X108473054Y-44817872D01*
X108386111Y-44836353D01*
X108292710Y-44856206D01*
X108286680Y-44858891D01*
X108286679Y-44858891D01*
X108124276Y-44931197D01*
X108124274Y-44931198D01*
X108118246Y-44933882D01*
X108112905Y-44937762D01*
X108112904Y-44937763D01*
X108060898Y-44975548D01*
X107963745Y-45046134D01*
X107959330Y-45051037D01*
X107954418Y-45055460D01*
X107953293Y-45054211D01*
X107899984Y-45087051D01*
X107866798Y-45091500D01*
X107736572Y-45091500D01*
X107668451Y-45071498D01*
X107621958Y-45017842D01*
X107611262Y-44978670D01*
X107594232Y-44816635D01*
X107594232Y-44816633D01*
X107593542Y-44810072D01*
X107534527Y-44628444D01*
X107513990Y-44592872D01*
X107442341Y-44468774D01*
X107439040Y-44463056D01*
X107432085Y-44455331D01*
X107315675Y-44326045D01*
X107315674Y-44326044D01*
X107311253Y-44321134D01*
X107156752Y-44208882D01*
X107150724Y-44206198D01*
X107150722Y-44206197D01*
X106988319Y-44133891D01*
X106988318Y-44133891D01*
X106982288Y-44131206D01*
X106888887Y-44111353D01*
X106801944Y-44092872D01*
X106801939Y-44092872D01*
X106795487Y-44091500D01*
X106604513Y-44091500D01*
X106598061Y-44092872D01*
X106598056Y-44092872D01*
X106511112Y-44111353D01*
X106417712Y-44131206D01*
X106411682Y-44133891D01*
X106411681Y-44133891D01*
X106249278Y-44206197D01*
X106249276Y-44206198D01*
X106243248Y-44208882D01*
X106088747Y-44321134D01*
X106084326Y-44326044D01*
X106084325Y-44326045D01*
X105967916Y-44455331D01*
X105960960Y-44463056D01*
X105957659Y-44468774D01*
X105886011Y-44592872D01*
X105865473Y-44628444D01*
X105806458Y-44810072D01*
X105805768Y-44816633D01*
X105805768Y-44816635D01*
X105791365Y-44953671D01*
X105764352Y-45019328D01*
X105706130Y-45059957D01*
X105666055Y-45066500D01*
X105178768Y-45066500D01*
X105167585Y-45065973D01*
X105160092Y-45064298D01*
X105152166Y-45064547D01*
X105152165Y-45064547D01*
X105092002Y-45066438D01*
X105088044Y-45066500D01*
X105060144Y-45066500D01*
X105056154Y-45067004D01*
X105044320Y-45067936D01*
X105000111Y-45069326D01*
X104992497Y-45071538D01*
X104992492Y-45071539D01*
X104980659Y-45074977D01*
X104961296Y-45078988D01*
X104941203Y-45081526D01*
X104933836Y-45084443D01*
X104933831Y-45084444D01*
X104900092Y-45097802D01*
X104888865Y-45101646D01*
X104846407Y-45113982D01*
X104839581Y-45118019D01*
X104828972Y-45124293D01*
X104811224Y-45132988D01*
X104792383Y-45140448D01*
X104785967Y-45145110D01*
X104785966Y-45145110D01*
X104756613Y-45166436D01*
X104746693Y-45172952D01*
X104715465Y-45191420D01*
X104715462Y-45191422D01*
X104708638Y-45195458D01*
X104694317Y-45209779D01*
X104679284Y-45222619D01*
X104662893Y-45234528D01*
X104657842Y-45240634D01*
X104634702Y-45268605D01*
X104626712Y-45277384D01*
X103788096Y-46115999D01*
X103725786Y-46150024D01*
X103654971Y-46144959D01*
X103598135Y-46102412D01*
X103579170Y-46065840D01*
X103569489Y-46036045D01*
X103534527Y-45928444D01*
X103529007Y-45918882D01*
X103493376Y-45857168D01*
X103439040Y-45763056D01*
X103338607Y-45651513D01*
X103307890Y-45587506D01*
X103316655Y-45517053D01*
X103343149Y-45478109D01*
X105825852Y-42995405D01*
X105888164Y-42961380D01*
X105914947Y-42958500D01*
X110119776Y-42958500D01*
X110187897Y-42978502D01*
X110193834Y-42982562D01*
X110343248Y-43091118D01*
X110349277Y-43093802D01*
X110349280Y-43093804D01*
X110379560Y-43107285D01*
X110426749Y-43128295D01*
X110480844Y-43174274D01*
X110501500Y-43243401D01*
X110501500Y-44723134D01*
X110508255Y-44785316D01*
X110559385Y-44921705D01*
X110646739Y-45038261D01*
X110763295Y-45125615D01*
X110899684Y-45176745D01*
X110961866Y-45183500D01*
X112058134Y-45183500D01*
X112120316Y-45176745D01*
X112256705Y-45125615D01*
X112373261Y-45038261D01*
X112374187Y-45037026D01*
X112433217Y-45004792D01*
X112504032Y-45009857D01*
X112545355Y-45036414D01*
X112546739Y-45038261D01*
X112581480Y-45064298D01*
X112617776Y-45091500D01*
X112663295Y-45125615D01*
X112671699Y-45128765D01*
X112679391Y-45132977D01*
X112729536Y-45183236D01*
X112744549Y-45252627D01*
X112719663Y-45319119D01*
X112692941Y-45345432D01*
X112673263Y-45359729D01*
X112588747Y-45421134D01*
X112584326Y-45426044D01*
X112584325Y-45426045D01*
X112480248Y-45541635D01*
X112460960Y-45563056D01*
X112420063Y-45633891D01*
X112369340Y-45721747D01*
X112365473Y-45728444D01*
X112306458Y-45910072D01*
X112305768Y-45916633D01*
X112305768Y-45916635D01*
X112300288Y-45968774D01*
X112286496Y-46100000D01*
X112287186Y-46106565D01*
X112304053Y-46267042D01*
X112306458Y-46289928D01*
X112365473Y-46471556D01*
X112368776Y-46477278D01*
X112368777Y-46477279D01*
X112457658Y-46631225D01*
X112460960Y-46636944D01*
X112465378Y-46641851D01*
X112465379Y-46641852D01*
X112508667Y-46689928D01*
X112588747Y-46778866D01*
X112743248Y-46891118D01*
X112749276Y-46893802D01*
X112749278Y-46893803D01*
X112858304Y-46942344D01*
X112917712Y-46968794D01*
X113011113Y-46988647D01*
X113098056Y-47007128D01*
X113098061Y-47007128D01*
X113104513Y-47008500D01*
X113160405Y-47008500D01*
X113228526Y-47028502D01*
X113249500Y-47045405D01*
X113496348Y-47292253D01*
X113503888Y-47300539D01*
X113508000Y-47307018D01*
X113513777Y-47312443D01*
X113557651Y-47353643D01*
X113560493Y-47356398D01*
X113580230Y-47376135D01*
X113583427Y-47378615D01*
X113592447Y-47386318D01*
X113624679Y-47416586D01*
X113631625Y-47420405D01*
X113631628Y-47420407D01*
X113642434Y-47426348D01*
X113658953Y-47437199D01*
X113674959Y-47449614D01*
X113682228Y-47452759D01*
X113682232Y-47452762D01*
X113715537Y-47467174D01*
X113726187Y-47472391D01*
X113764940Y-47493695D01*
X113782685Y-47498251D01*
X113784562Y-47498733D01*
X113803267Y-47505137D01*
X113821855Y-47513181D01*
X113829678Y-47514420D01*
X113829688Y-47514423D01*
X113865524Y-47520099D01*
X113877144Y-47522505D01*
X113912289Y-47531528D01*
X113919970Y-47533500D01*
X113940224Y-47533500D01*
X113959934Y-47535051D01*
X113979943Y-47538220D01*
X113987835Y-47537474D01*
X114023961Y-47534059D01*
X114035819Y-47533500D01*
X117110684Y-47533500D01*
X117178805Y-47553502D01*
X117225298Y-47607158D01*
X117236684Y-47659500D01*
X117236684Y-47662357D01*
X117235994Y-47668922D01*
X117236684Y-47675487D01*
X117244255Y-47747517D01*
X117255956Y-47858850D01*
X117314971Y-48040478D01*
X117410458Y-48205866D01*
X117414876Y-48210773D01*
X117414877Y-48210774D01*
X117525732Y-48333891D01*
X117538245Y-48347788D01*
X117543588Y-48351670D01*
X117642411Y-48423469D01*
X117692746Y-48460040D01*
X117698774Y-48462724D01*
X117698776Y-48462725D01*
X117829966Y-48521134D01*
X117867210Y-48537716D01*
X117960611Y-48557569D01*
X118047554Y-48576050D01*
X118047559Y-48576050D01*
X118054011Y-48577422D01*
X118244985Y-48577422D01*
X118251437Y-48576050D01*
X118251442Y-48576050D01*
X118338385Y-48557569D01*
X118431786Y-48537716D01*
X118469030Y-48521134D01*
X118600220Y-48462725D01*
X118600222Y-48462724D01*
X118606250Y-48460040D01*
X118656586Y-48423469D01*
X118755408Y-48351670D01*
X118760751Y-48347788D01*
X118773264Y-48333891D01*
X118884119Y-48210774D01*
X118884120Y-48210773D01*
X118888538Y-48205866D01*
X118984025Y-48040478D01*
X119043040Y-47858850D01*
X119046233Y-47828470D01*
X119073246Y-47762813D01*
X119131468Y-47722183D01*
X119202413Y-47719480D01*
X119222791Y-47726533D01*
X119317712Y-47768794D01*
X119385614Y-47783227D01*
X119498056Y-47807128D01*
X119498061Y-47807128D01*
X119504513Y-47808500D01*
X119695487Y-47808500D01*
X119701939Y-47807128D01*
X119701944Y-47807128D01*
X119839803Y-47777825D01*
X119910594Y-47783227D01*
X119967227Y-47826044D01*
X119991720Y-47892682D01*
X119992000Y-47901072D01*
X119992000Y-52098928D01*
X119971998Y-52167049D01*
X119918342Y-52213542D01*
X119848068Y-52223646D01*
X119839803Y-52222175D01*
X119701944Y-52192872D01*
X119701939Y-52192872D01*
X119695487Y-52191500D01*
X119504513Y-52191500D01*
X119498061Y-52192872D01*
X119498056Y-52192872D01*
X119433638Y-52206565D01*
X119317712Y-52231206D01*
X119311682Y-52233891D01*
X119311681Y-52233891D01*
X119149278Y-52306197D01*
X119149276Y-52306198D01*
X119143248Y-52308882D01*
X119137907Y-52312762D01*
X119137906Y-52312763D01*
X119132577Y-52316635D01*
X118988747Y-52421134D01*
X118984326Y-52426044D01*
X118984325Y-52426045D01*
X118884460Y-52536957D01*
X118860960Y-52563056D01*
X118827247Y-52621449D01*
X118783951Y-52696440D01*
X118765473Y-52728444D01*
X118706458Y-52910072D01*
X118705768Y-52916633D01*
X118705768Y-52916635D01*
X118692293Y-53044848D01*
X118686496Y-53100000D01*
X118687186Y-53106565D01*
X118699259Y-53221429D01*
X118706458Y-53289928D01*
X118765473Y-53471556D01*
X118860960Y-53636944D01*
X118988747Y-53778866D01*
X119143248Y-53891118D01*
X119149276Y-53893802D01*
X119149278Y-53893803D01*
X119207999Y-53919947D01*
X119317712Y-53968794D01*
X119385614Y-53983227D01*
X119498056Y-54007128D01*
X119498061Y-54007128D01*
X119504513Y-54008500D01*
X119695487Y-54008500D01*
X119701939Y-54007128D01*
X119701944Y-54007128D01*
X119839803Y-53977825D01*
X119910594Y-53983227D01*
X119967227Y-54026044D01*
X119991720Y-54092682D01*
X119992000Y-54101072D01*
X119992000Y-54366000D01*
X119971998Y-54434121D01*
X119918342Y-54480614D01*
X119866000Y-54492000D01*
X79734000Y-54492000D01*
X79665879Y-54471998D01*
X79619386Y-54418342D01*
X79608000Y-54366000D01*
X79608000Y-46259151D01*
X80586593Y-46259151D01*
X80587339Y-46267042D01*
X80590940Y-46305137D01*
X80591499Y-46316995D01*
X80591499Y-48667943D01*
X80590940Y-48679799D01*
X80589211Y-48687536D01*
X80590004Y-48712763D01*
X80591437Y-48758368D01*
X80591499Y-48762326D01*
X80591499Y-48791431D01*
X80592055Y-48795831D01*
X80592987Y-48807663D01*
X80594437Y-48853830D01*
X80596649Y-48861443D01*
X80596649Y-48861444D01*
X80600418Y-48874415D01*
X80604429Y-48893781D01*
X80607117Y-48915063D01*
X80610033Y-48922428D01*
X80610034Y-48922432D01*
X80624125Y-48958020D01*
X80627964Y-48969230D01*
X80640854Y-49013599D01*
X80651774Y-49032064D01*
X80660465Y-49049804D01*
X80668364Y-49069755D01*
X80676364Y-49080766D01*
X80695515Y-49107125D01*
X80702032Y-49117047D01*
X80721506Y-49149976D01*
X80721509Y-49149980D01*
X80725546Y-49156806D01*
X80740710Y-49171970D01*
X80753550Y-49187003D01*
X80766158Y-49204356D01*
X80801751Y-49233801D01*
X80810531Y-49241791D01*
X81101477Y-49532737D01*
X81135503Y-49595049D01*
X81133800Y-49655502D01*
X81111707Y-49735169D01*
X81087095Y-49965469D01*
X81087392Y-49970622D01*
X81087392Y-49970625D01*
X81094693Y-50097249D01*
X81100427Y-50196697D01*
X81101564Y-50201743D01*
X81101565Y-50201749D01*
X81122311Y-50293803D01*
X81151346Y-50422642D01*
X81153288Y-50427424D01*
X81153289Y-50427428D01*
X81235492Y-50629869D01*
X81238484Y-50637237D01*
X81359501Y-50834719D01*
X81511147Y-51009784D01*
X81689349Y-51157730D01*
X81889322Y-51274584D01*
X81894147Y-51276426D01*
X81894148Y-51276427D01*
X81912812Y-51283554D01*
X82105694Y-51357209D01*
X82110760Y-51358240D01*
X82110761Y-51358240D01*
X82119466Y-51360011D01*
X82332656Y-51403385D01*
X82463324Y-51408176D01*
X82558949Y-51411683D01*
X82558953Y-51411683D01*
X82564113Y-51411872D01*
X82569233Y-51411216D01*
X82569235Y-51411216D01*
X82656030Y-51400097D01*
X82793847Y-51382442D01*
X82798795Y-51380957D01*
X82798802Y-51380956D01*
X83010747Y-51317369D01*
X83015690Y-51315886D01*
X83035168Y-51306344D01*
X83219049Y-51216262D01*
X83219052Y-51216260D01*
X83223684Y-51213991D01*
X83412243Y-51079494D01*
X83576303Y-50916005D01*
X83638177Y-50829898D01*
X83694172Y-50786250D01*
X83764875Y-50779804D01*
X83827840Y-50812607D01*
X83863074Y-50874243D01*
X83866500Y-50903424D01*
X83866500Y-51072181D01*
X83846498Y-51140302D01*
X83791749Y-51187288D01*
X83749278Y-51206197D01*
X83749276Y-51206198D01*
X83743248Y-51208882D01*
X83737907Y-51212762D01*
X83737906Y-51212763D01*
X83709150Y-51233656D01*
X83588747Y-51321134D01*
X83584326Y-51326044D01*
X83584325Y-51326045D01*
X83501058Y-51418523D01*
X83460960Y-51463056D01*
X83429668Y-51517255D01*
X83369188Y-51622010D01*
X83365473Y-51628444D01*
X83306458Y-51810072D01*
X83305768Y-51816633D01*
X83305768Y-51816635D01*
X83294618Y-51922721D01*
X83286496Y-52000000D01*
X83287186Y-52006565D01*
X83305288Y-52178792D01*
X83306458Y-52189928D01*
X83365473Y-52371556D01*
X83368776Y-52377278D01*
X83368777Y-52377279D01*
X83372291Y-52383365D01*
X83460960Y-52536944D01*
X83465378Y-52541851D01*
X83465379Y-52541852D01*
X83546665Y-52632129D01*
X83588747Y-52678866D01*
X83681911Y-52746554D01*
X83706652Y-52764529D01*
X83743248Y-52791118D01*
X83749276Y-52793802D01*
X83749278Y-52793803D01*
X83857199Y-52841852D01*
X83917712Y-52868794D01*
X83983365Y-52882749D01*
X84098056Y-52907128D01*
X84098061Y-52907128D01*
X84104513Y-52908500D01*
X84295487Y-52908500D01*
X84301939Y-52907128D01*
X84301944Y-52907128D01*
X84416635Y-52882749D01*
X84482288Y-52868794D01*
X84542801Y-52841852D01*
X84650722Y-52793803D01*
X84650724Y-52793802D01*
X84656752Y-52791118D01*
X84693349Y-52764529D01*
X84718089Y-52746554D01*
X84811253Y-52678866D01*
X84853335Y-52632129D01*
X84934621Y-52541852D01*
X84934622Y-52541851D01*
X84939040Y-52536944D01*
X85027709Y-52383365D01*
X85031223Y-52377279D01*
X85031224Y-52377278D01*
X85034527Y-52371556D01*
X85093542Y-52189928D01*
X85094713Y-52178792D01*
X85112814Y-52006565D01*
X85113504Y-52000000D01*
X85106322Y-51931670D01*
X85110560Y-51884203D01*
X85113181Y-51878145D01*
X85114420Y-51870321D01*
X85114422Y-51870315D01*
X85120099Y-51834476D01*
X85122505Y-51822856D01*
X85131528Y-51787711D01*
X85131528Y-51787710D01*
X85133500Y-51780030D01*
X85133500Y-51759776D01*
X85135051Y-51740065D01*
X85135055Y-51740043D01*
X85138220Y-51720057D01*
X85134059Y-51676038D01*
X85133500Y-51664181D01*
X85133500Y-47412524D01*
X85153502Y-47344403D01*
X85165858Y-47328221D01*
X85239040Y-47246944D01*
X85326069Y-47096206D01*
X85331223Y-47087279D01*
X85331224Y-47087278D01*
X85334527Y-47081556D01*
X85393542Y-46899928D01*
X85395923Y-46877279D01*
X85412814Y-46716565D01*
X85413504Y-46710000D01*
X85410705Y-46683365D01*
X85394232Y-46526635D01*
X85394232Y-46526633D01*
X85393542Y-46520072D01*
X85334527Y-46338444D01*
X85322144Y-46316995D01*
X85263106Y-46214739D01*
X85239040Y-46173056D01*
X85213742Y-46144959D01*
X85115675Y-46036045D01*
X85115674Y-46036044D01*
X85111253Y-46031134D01*
X84993892Y-45945866D01*
X84962094Y-45922763D01*
X84962093Y-45922762D01*
X84956752Y-45918882D01*
X84950724Y-45916198D01*
X84950722Y-45916197D01*
X84788319Y-45843891D01*
X84788318Y-45843891D01*
X84782288Y-45841206D01*
X84595487Y-45801500D01*
X84596116Y-45798539D01*
X84542600Y-45776496D01*
X84501993Y-45718258D01*
X84496156Y-45665060D01*
X84512814Y-45506565D01*
X84513504Y-45500000D01*
X84502435Y-45394684D01*
X84494232Y-45316635D01*
X84494232Y-45316633D01*
X84493542Y-45310072D01*
X84434527Y-45128444D01*
X84339040Y-44963056D01*
X84301808Y-44921705D01*
X84215675Y-44826045D01*
X84215674Y-44826044D01*
X84211253Y-44821134D01*
X84056752Y-44708882D01*
X84050724Y-44706198D01*
X84050722Y-44706197D01*
X83888319Y-44633891D01*
X83888318Y-44633891D01*
X83882288Y-44631206D01*
X83786229Y-44610788D01*
X83701944Y-44592872D01*
X83701939Y-44592872D01*
X83695487Y-44591500D01*
X83504513Y-44591500D01*
X83498061Y-44592872D01*
X83498056Y-44592872D01*
X83413771Y-44610788D01*
X83317712Y-44631206D01*
X83311682Y-44633891D01*
X83311681Y-44633891D01*
X83149278Y-44706197D01*
X83149276Y-44706198D01*
X83143248Y-44708882D01*
X83137907Y-44712762D01*
X83137906Y-44712763D01*
X83056985Y-44771556D01*
X82994092Y-44817251D01*
X82993837Y-44817436D01*
X82926969Y-44841294D01*
X82919776Y-44841500D01*
X82112054Y-44841500D01*
X82100198Y-44840941D01*
X82100195Y-44840941D01*
X82092461Y-44839212D01*
X82037444Y-44840941D01*
X82021629Y-44841438D01*
X82017671Y-44841500D01*
X81988566Y-44841500D01*
X81984166Y-44842056D01*
X81972334Y-44842988D01*
X81926167Y-44844438D01*
X81905577Y-44850420D01*
X81886216Y-44854430D01*
X81883015Y-44854834D01*
X81872794Y-44856125D01*
X81872793Y-44856125D01*
X81864934Y-44857118D01*
X81857569Y-44860034D01*
X81857565Y-44860035D01*
X81821977Y-44874126D01*
X81810767Y-44877965D01*
X81766398Y-44890855D01*
X81747941Y-44901771D01*
X81730191Y-44910466D01*
X81710242Y-44918365D01*
X81703831Y-44923023D01*
X81703829Y-44923024D01*
X81672862Y-44945523D01*
X81662944Y-44952038D01*
X81623191Y-44975548D01*
X81608030Y-44990709D01*
X81592998Y-45003548D01*
X81575641Y-45016159D01*
X81563297Y-45031081D01*
X81546196Y-45051752D01*
X81538206Y-45060533D01*
X80842390Y-45756348D01*
X80833611Y-45764336D01*
X80826919Y-45768583D01*
X80821494Y-45774360D01*
X80778394Y-45820257D01*
X80775639Y-45823099D01*
X80755072Y-45843666D01*
X80752355Y-45847169D01*
X80744647Y-45856194D01*
X80713027Y-45889866D01*
X80709206Y-45896817D01*
X80709205Y-45896818D01*
X80702696Y-45908657D01*
X80691842Y-45925181D01*
X80684439Y-45934726D01*
X80678695Y-45942131D01*
X80675548Y-45949403D01*
X80675547Y-45949405D01*
X80660345Y-45984534D01*
X80655123Y-45995194D01*
X80632875Y-46035662D01*
X80627540Y-46056440D01*
X80621141Y-46075130D01*
X80612619Y-46094823D01*
X80607294Y-46128444D01*
X80605393Y-46140447D01*
X80602986Y-46152070D01*
X80601335Y-46158500D01*
X80591499Y-46196811D01*
X80591499Y-46218258D01*
X80589948Y-46237968D01*
X80586593Y-46259151D01*
X79608000Y-46259151D01*
X79608000Y-41634000D01*
X79628002Y-41565879D01*
X79681658Y-41519386D01*
X79734000Y-41508000D01*
X83307613Y-41508000D01*
X83375734Y-41528002D01*
G37*
%TD.AperFunction*%
%TA.AperFunction,Conductor*%
G36*
X105240118Y-41528002D02*
G01*
X105286611Y-41581658D01*
X105296715Y-41651932D01*
X105267221Y-41716512D01*
X105246060Y-41735935D01*
X105239614Y-41740618D01*
X105232860Y-41745525D01*
X105222944Y-41752038D01*
X105183191Y-41775548D01*
X105168030Y-41790709D01*
X105152998Y-41803548D01*
X105135641Y-41816159D01*
X105110659Y-41846357D01*
X105106191Y-41851758D01*
X105098201Y-41860538D01*
X102701498Y-44257240D01*
X102639186Y-44291266D01*
X102568370Y-44286201D01*
X102511535Y-44243654D01*
X102492570Y-44207081D01*
X102436569Y-44034729D01*
X102434527Y-44028444D01*
X102339040Y-43863056D01*
X102211253Y-43721134D01*
X102056752Y-43608882D01*
X102050724Y-43606198D01*
X102050722Y-43606197D01*
X101888319Y-43533891D01*
X101888318Y-43533891D01*
X101882288Y-43531206D01*
X101788888Y-43511353D01*
X101701944Y-43492872D01*
X101701939Y-43492872D01*
X101695487Y-43491500D01*
X101504513Y-43491500D01*
X101498061Y-43492872D01*
X101498056Y-43492872D01*
X101411113Y-43511353D01*
X101317712Y-43531206D01*
X101311682Y-43533891D01*
X101311681Y-43533891D01*
X101149278Y-43606197D01*
X101149276Y-43606198D01*
X101143248Y-43608882D01*
X100988747Y-43721134D01*
X100860960Y-43863056D01*
X100765473Y-44028444D01*
X100706458Y-44210072D01*
X100705768Y-44216633D01*
X100705768Y-44216635D01*
X100697924Y-44291266D01*
X100686496Y-44400000D01*
X100687186Y-44406565D01*
X100703223Y-44559145D01*
X100706458Y-44589928D01*
X100765473Y-44771556D01*
X100860960Y-44936944D01*
X100865378Y-44941851D01*
X100865379Y-44941852D01*
X100978060Y-45066997D01*
X100988747Y-45078866D01*
X101143248Y-45191118D01*
X101149276Y-45193802D01*
X101149278Y-45193803D01*
X101254463Y-45240634D01*
X101317712Y-45268794D01*
X101324167Y-45270166D01*
X101324170Y-45270167D01*
X101362214Y-45278253D01*
X101397702Y-45285796D01*
X101460175Y-45319524D01*
X101494496Y-45381673D01*
X101489769Y-45452512D01*
X101460600Y-45498138D01*
X101192395Y-45766343D01*
X101183615Y-45774333D01*
X101183613Y-45774335D01*
X101176920Y-45778582D01*
X101171494Y-45784360D01*
X101171493Y-45784361D01*
X101128396Y-45830255D01*
X101125641Y-45833097D01*
X101105073Y-45853665D01*
X101102356Y-45857168D01*
X101094648Y-45866193D01*
X101063028Y-45899865D01*
X101059207Y-45906816D01*
X101059206Y-45906817D01*
X101052697Y-45918656D01*
X101041843Y-45935180D01*
X101036452Y-45942131D01*
X101028696Y-45952130D01*
X101025549Y-45959402D01*
X101025548Y-45959404D01*
X101010346Y-45994533D01*
X101005124Y-46005193D01*
X100988163Y-46036045D01*
X100982876Y-46045661D01*
X100977541Y-46066439D01*
X100971142Y-46085129D01*
X100962620Y-46104822D01*
X100960850Y-46115998D01*
X100955394Y-46150446D01*
X100952987Y-46162069D01*
X100950166Y-46173056D01*
X100941500Y-46206810D01*
X100941500Y-46225241D01*
X100921498Y-46293362D01*
X100909136Y-46309551D01*
X100883068Y-46338503D01*
X100860960Y-46363056D01*
X100808796Y-46453406D01*
X100770307Y-46520072D01*
X100765473Y-46528444D01*
X100706458Y-46710072D01*
X100705768Y-46716633D01*
X100705768Y-46716635D01*
X100698819Y-46782749D01*
X100686496Y-46900000D01*
X100687186Y-46906565D01*
X100704918Y-47075271D01*
X100706458Y-47089928D01*
X100765473Y-47271556D01*
X100860960Y-47436944D01*
X100865378Y-47441851D01*
X100865379Y-47441852D01*
X100952149Y-47538220D01*
X100988747Y-47578866D01*
X101143248Y-47691118D01*
X101149276Y-47693802D01*
X101149278Y-47693803D01*
X101220231Y-47725393D01*
X101274327Y-47771373D01*
X101294976Y-47839300D01*
X101275624Y-47907609D01*
X101222413Y-47954610D01*
X101168982Y-47966500D01*
X100776866Y-47966500D01*
X100714684Y-47973255D01*
X100578295Y-48024385D01*
X100461739Y-48111739D01*
X100374385Y-48228295D01*
X100323255Y-48364684D01*
X100316500Y-48426866D01*
X100316500Y-49135406D01*
X100296498Y-49203527D01*
X100279595Y-49224501D01*
X100051856Y-49452240D01*
X99989544Y-49486266D01*
X99918729Y-49481201D01*
X99880248Y-49458369D01*
X99877135Y-49455671D01*
X99869452Y-49454000D01*
X98135116Y-49454000D01*
X98119877Y-49458475D01*
X98118672Y-49459865D01*
X98117001Y-49467548D01*
X98117001Y-49969669D01*
X98117371Y-49976490D01*
X98122895Y-50027352D01*
X98126521Y-50042604D01*
X98171676Y-50163054D01*
X98180214Y-50178649D01*
X98244882Y-50264935D01*
X98269730Y-50331442D01*
X98254677Y-50400824D01*
X98204503Y-50451054D01*
X98144056Y-50466500D01*
X92592233Y-50466500D01*
X92524112Y-50446498D01*
X92477619Y-50392842D01*
X92467515Y-50322568D01*
X92497009Y-50257988D01*
X92518172Y-50238564D01*
X92570907Y-50200250D01*
X92570909Y-50200248D01*
X92576251Y-50196367D01*
X92588513Y-50182749D01*
X92699619Y-50059353D01*
X92699620Y-50059352D01*
X92704038Y-50054445D01*
X92785188Y-49913889D01*
X92796221Y-49894780D01*
X92796222Y-49894779D01*
X92799525Y-49889057D01*
X92858540Y-49707429D01*
X92860380Y-49689928D01*
X92877812Y-49524066D01*
X92878502Y-49517501D01*
X92872222Y-49457751D01*
X92884994Y-49387912D01*
X92923471Y-49342644D01*
X92968302Y-49310072D01*
X93011253Y-49278866D01*
X93036657Y-49250652D01*
X93134621Y-49141852D01*
X93134622Y-49141851D01*
X93139040Y-49136944D01*
X93234527Y-48971556D01*
X93248717Y-48927885D01*
X98117000Y-48927885D01*
X98121475Y-48943124D01*
X98122865Y-48944329D01*
X98130548Y-48946000D01*
X98727885Y-48946000D01*
X98743124Y-48941525D01*
X98744329Y-48940135D01*
X98746000Y-48932452D01*
X98746000Y-48927885D01*
X99254000Y-48927885D01*
X99258475Y-48943124D01*
X99259865Y-48944329D01*
X99267548Y-48946000D01*
X99864884Y-48946000D01*
X99880123Y-48941525D01*
X99881328Y-48940135D01*
X99882999Y-48932452D01*
X99882999Y-48430331D01*
X99882629Y-48423510D01*
X99877105Y-48372648D01*
X99873479Y-48357396D01*
X99828324Y-48236946D01*
X99819786Y-48221351D01*
X99743285Y-48119276D01*
X99730724Y-48106715D01*
X99628649Y-48030214D01*
X99613054Y-48021676D01*
X99492606Y-47976522D01*
X99477351Y-47972895D01*
X99426486Y-47967369D01*
X99419672Y-47967000D01*
X99272115Y-47967000D01*
X99256876Y-47971475D01*
X99255671Y-47972865D01*
X99254000Y-47980548D01*
X99254000Y-48927885D01*
X98746000Y-48927885D01*
X98746000Y-47985116D01*
X98741525Y-47969877D01*
X98740135Y-47968672D01*
X98732452Y-47967001D01*
X98580331Y-47967001D01*
X98573510Y-47967371D01*
X98522648Y-47972895D01*
X98507396Y-47976521D01*
X98386946Y-48021676D01*
X98371351Y-48030214D01*
X98269276Y-48106715D01*
X98256715Y-48119276D01*
X98180214Y-48221351D01*
X98171676Y-48236946D01*
X98126522Y-48357394D01*
X98122895Y-48372649D01*
X98117369Y-48423514D01*
X98117000Y-48430328D01*
X98117000Y-48927885D01*
X93248717Y-48927885D01*
X93293542Y-48789928D01*
X93307393Y-48658148D01*
X93312814Y-48606565D01*
X93313504Y-48600000D01*
X93312814Y-48593435D01*
X93294232Y-48416635D01*
X93294232Y-48416633D01*
X93293542Y-48410072D01*
X93234527Y-48228444D01*
X93230955Y-48222256D01*
X93171499Y-48119276D01*
X93139040Y-48063056D01*
X93110533Y-48031395D01*
X93015675Y-47926045D01*
X93015674Y-47926044D01*
X93011253Y-47921134D01*
X92898619Y-47839300D01*
X92862094Y-47812763D01*
X92862093Y-47812762D01*
X92856752Y-47808882D01*
X92850724Y-47806198D01*
X92850722Y-47806197D01*
X92688319Y-47733891D01*
X92688318Y-47733891D01*
X92682288Y-47731206D01*
X92588887Y-47711353D01*
X92501944Y-47692872D01*
X92501939Y-47692872D01*
X92495487Y-47691500D01*
X92439594Y-47691500D01*
X92371473Y-47671498D01*
X92350499Y-47654595D01*
X92261365Y-47565461D01*
X92227339Y-47503149D01*
X92232404Y-47432334D01*
X92274951Y-47375498D01*
X92299212Y-47361259D01*
X92448752Y-47294680D01*
X92519118Y-47285246D01*
X92551247Y-47294680D01*
X92717712Y-47368794D01*
X92781041Y-47382255D01*
X92898056Y-47407128D01*
X92898061Y-47407128D01*
X92904513Y-47408500D01*
X93095487Y-47408500D01*
X93101939Y-47407128D01*
X93101944Y-47407128D01*
X93218959Y-47382255D01*
X93282288Y-47368794D01*
X93316318Y-47353643D01*
X93450722Y-47293803D01*
X93450724Y-47293802D01*
X93456752Y-47291118D01*
X93500001Y-47259696D01*
X93525422Y-47241226D01*
X93611253Y-47178866D01*
X93651971Y-47133644D01*
X93734621Y-47041852D01*
X93734622Y-47041851D01*
X93739040Y-47036944D01*
X93834527Y-46871556D01*
X93893542Y-46689928D01*
X93913504Y-46500000D01*
X93903400Y-46403866D01*
X93894232Y-46316635D01*
X93894232Y-46316633D01*
X93893542Y-46310072D01*
X93878403Y-46263478D01*
X96234120Y-46263478D01*
X96234810Y-46270043D01*
X96241972Y-46338181D01*
X96254082Y-46453406D01*
X96313097Y-46635034D01*
X96408584Y-46800422D01*
X96413002Y-46805329D01*
X96413003Y-46805330D01*
X96498244Y-46900000D01*
X96536371Y-46942344D01*
X96574665Y-46970166D01*
X96678222Y-47045405D01*
X96690872Y-47054596D01*
X96696900Y-47057280D01*
X96696902Y-47057281D01*
X96770229Y-47089928D01*
X96865336Y-47132272D01*
X96958737Y-47152125D01*
X97045680Y-47170606D01*
X97045685Y-47170606D01*
X97052137Y-47171978D01*
X97243111Y-47171978D01*
X97249563Y-47170606D01*
X97249568Y-47170606D01*
X97336511Y-47152125D01*
X97429912Y-47132272D01*
X97525019Y-47089928D01*
X97598346Y-47057281D01*
X97598348Y-47057280D01*
X97604376Y-47054596D01*
X97617027Y-47045405D01*
X97720583Y-46970166D01*
X97758877Y-46942344D01*
X97797004Y-46900000D01*
X97882245Y-46805330D01*
X97882246Y-46805329D01*
X97886664Y-46800422D01*
X97982151Y-46635034D01*
X98041166Y-46453406D01*
X98053277Y-46338181D01*
X98060438Y-46270043D01*
X98061128Y-46263478D01*
X98055172Y-46206810D01*
X98041856Y-46080113D01*
X98041856Y-46080111D01*
X98041166Y-46073550D01*
X97982151Y-45891922D01*
X97970272Y-45871346D01*
X97928236Y-45798539D01*
X97886664Y-45726534D01*
X97825384Y-45658475D01*
X97763299Y-45589523D01*
X97763298Y-45589522D01*
X97758877Y-45584612D01*
X97612289Y-45478109D01*
X97609718Y-45476241D01*
X97609717Y-45476240D01*
X97604376Y-45472360D01*
X97598348Y-45469676D01*
X97598346Y-45469675D01*
X97435943Y-45397369D01*
X97435942Y-45397369D01*
X97429912Y-45394684D01*
X97336512Y-45374831D01*
X97249568Y-45356350D01*
X97249563Y-45356350D01*
X97243111Y-45354978D01*
X97052137Y-45354978D01*
X97045685Y-45356350D01*
X97045680Y-45356350D01*
X96958737Y-45374831D01*
X96865336Y-45394684D01*
X96859306Y-45397369D01*
X96859305Y-45397369D01*
X96696902Y-45469675D01*
X96696900Y-45469676D01*
X96690872Y-45472360D01*
X96685531Y-45476240D01*
X96685530Y-45476241D01*
X96682959Y-45478109D01*
X96536371Y-45584612D01*
X96531950Y-45589522D01*
X96531949Y-45589523D01*
X96469865Y-45658475D01*
X96408584Y-45726534D01*
X96367012Y-45798539D01*
X96324977Y-45871346D01*
X96313097Y-45891922D01*
X96254082Y-46073550D01*
X96253392Y-46080111D01*
X96253392Y-46080113D01*
X96240076Y-46206810D01*
X96234120Y-46263478D01*
X93878403Y-46263478D01*
X93834527Y-46128444D01*
X93819498Y-46102412D01*
X93786732Y-46045661D01*
X93739040Y-45963056D01*
X93713941Y-45935180D01*
X93615675Y-45826045D01*
X93615674Y-45826044D01*
X93611253Y-45821134D01*
X93512157Y-45749136D01*
X93462094Y-45712763D01*
X93462093Y-45712762D01*
X93456752Y-45708882D01*
X93450724Y-45706198D01*
X93450722Y-45706197D01*
X93288319Y-45633891D01*
X93288318Y-45633891D01*
X93282288Y-45631206D01*
X93188888Y-45611353D01*
X93101944Y-45592872D01*
X93101939Y-45592872D01*
X93095487Y-45591500D01*
X92904513Y-45591500D01*
X92898061Y-45592872D01*
X92898056Y-45592872D01*
X92811112Y-45611353D01*
X92717712Y-45631206D01*
X92711682Y-45633891D01*
X92711681Y-45633891D01*
X92649911Y-45661393D01*
X92551248Y-45705320D01*
X92480882Y-45714754D01*
X92448753Y-45705320D01*
X92350089Y-45661393D01*
X92288319Y-45633891D01*
X92288318Y-45633891D01*
X92282288Y-45631206D01*
X92188888Y-45611353D01*
X92101944Y-45592872D01*
X92101939Y-45592872D01*
X92095487Y-45591500D01*
X91904513Y-45591500D01*
X91898061Y-45592872D01*
X91898056Y-45592872D01*
X91811112Y-45611353D01*
X91717712Y-45631206D01*
X91711682Y-45633891D01*
X91711681Y-45633891D01*
X91549278Y-45706197D01*
X91549276Y-45706198D01*
X91543248Y-45708882D01*
X91537907Y-45712762D01*
X91537906Y-45712763D01*
X91487843Y-45749136D01*
X91388747Y-45821134D01*
X91384326Y-45826044D01*
X91384325Y-45826045D01*
X91286060Y-45935180D01*
X91260960Y-45963056D01*
X91213268Y-46045661D01*
X91180503Y-46102412D01*
X91165473Y-46128444D01*
X91152572Y-46168148D01*
X91145354Y-46190363D01*
X91105280Y-46248969D01*
X91039883Y-46276605D01*
X90969926Y-46264498D01*
X90936426Y-46240521D01*
X90567251Y-45871346D01*
X90559713Y-45863063D01*
X90555599Y-45856581D01*
X90549817Y-45851152D01*
X90548292Y-45849308D01*
X90536256Y-45831990D01*
X90531123Y-45823099D01*
X90475441Y-45726655D01*
X90389499Y-45631206D01*
X90352076Y-45589644D01*
X90352073Y-45589641D01*
X90347654Y-45584733D01*
X90221994Y-45493435D01*
X90198495Y-45476362D01*
X90198494Y-45476361D01*
X90193153Y-45472481D01*
X90187125Y-45469797D01*
X90187123Y-45469796D01*
X90024720Y-45397490D01*
X90024719Y-45397490D01*
X90018689Y-45394805D01*
X89925289Y-45374952D01*
X89838345Y-45356471D01*
X89838340Y-45356471D01*
X89831888Y-45355099D01*
X89640914Y-45355099D01*
X89634462Y-45356471D01*
X89634457Y-45356471D01*
X89547513Y-45374952D01*
X89454113Y-45394805D01*
X89448083Y-45397490D01*
X89448082Y-45397490D01*
X89285679Y-45469796D01*
X89285677Y-45469797D01*
X89279649Y-45472481D01*
X89274308Y-45476361D01*
X89274307Y-45476362D01*
X89250808Y-45493435D01*
X89125148Y-45584733D01*
X89120641Y-45589739D01*
X89120578Y-45589778D01*
X89115824Y-45594058D01*
X89115041Y-45593188D01*
X89060193Y-45626973D01*
X88989209Y-45625616D01*
X88937917Y-45594515D01*
X85251149Y-41907747D01*
X85243609Y-41899461D01*
X85239497Y-41892982D01*
X85189845Y-41846356D01*
X85187004Y-41843602D01*
X85167267Y-41823865D01*
X85164070Y-41821385D01*
X85155048Y-41813680D01*
X85144262Y-41803551D01*
X85122818Y-41783414D01*
X85115872Y-41779595D01*
X85115869Y-41779593D01*
X85105063Y-41773652D01*
X85088544Y-41762801D01*
X85082553Y-41758154D01*
X85072538Y-41750386D01*
X85065267Y-41747239D01*
X85058440Y-41743202D01*
X85059968Y-41740618D01*
X85016235Y-41704230D01*
X84994873Y-41636523D01*
X85013507Y-41568016D01*
X85066221Y-41520458D01*
X85120848Y-41508000D01*
X105171997Y-41508000D01*
X105240118Y-41528002D01*
G37*
%TD.AperFunction*%
%TA.AperFunction,Conductor*%
G36*
X119934121Y-41528002D02*
G01*
X119980614Y-41581658D01*
X119992000Y-41634000D01*
X119992000Y-45898928D01*
X119971998Y-45967049D01*
X119918342Y-46013542D01*
X119848068Y-46023646D01*
X119839803Y-46022175D01*
X119701944Y-45992872D01*
X119701939Y-45992872D01*
X119695487Y-45991500D01*
X119504513Y-45991500D01*
X119498061Y-45992872D01*
X119498056Y-45992872D01*
X119411112Y-46011353D01*
X119317712Y-46031206D01*
X119311682Y-46033891D01*
X119311681Y-46033891D01*
X119149278Y-46106197D01*
X119149276Y-46106198D01*
X119143248Y-46108882D01*
X119137907Y-46112762D01*
X119137906Y-46112763D01*
X119086621Y-46150024D01*
X118988747Y-46221134D01*
X118984332Y-46226037D01*
X118979420Y-46230460D01*
X118978295Y-46229211D01*
X118924986Y-46262051D01*
X118891800Y-46266500D01*
X118434000Y-46266500D01*
X118365879Y-46246498D01*
X118319386Y-46192842D01*
X118308000Y-46140500D01*
X118308000Y-45672115D01*
X118303525Y-45656876D01*
X118302135Y-45655671D01*
X118294452Y-45654000D01*
X115510116Y-45654000D01*
X115494877Y-45658475D01*
X115493672Y-45659865D01*
X115492001Y-45667548D01*
X115492001Y-46140500D01*
X115471999Y-46208621D01*
X115418343Y-46255114D01*
X115366001Y-46266500D01*
X114314594Y-46266500D01*
X114246473Y-46246498D01*
X114225499Y-46229595D01*
X114147122Y-46151218D01*
X114113096Y-46088906D01*
X114110907Y-46075293D01*
X114109976Y-46066430D01*
X114099712Y-45968774D01*
X114094232Y-45916635D01*
X114094232Y-45916633D01*
X114093542Y-45910072D01*
X114034527Y-45728444D01*
X114030661Y-45721747D01*
X113979937Y-45633891D01*
X113939040Y-45563056D01*
X113919753Y-45541635D01*
X113815675Y-45426045D01*
X113815674Y-45426044D01*
X113811253Y-45421134D01*
X113797905Y-45411436D01*
X113754551Y-45355213D01*
X113748476Y-45284477D01*
X113781608Y-45221685D01*
X113843428Y-45186774D01*
X113871966Y-45183500D01*
X113958134Y-45183500D01*
X114020316Y-45176745D01*
X114156705Y-45125615D01*
X114273261Y-45038261D01*
X114360615Y-44921705D01*
X114411745Y-44785316D01*
X114418500Y-44723134D01*
X114419639Y-44723258D01*
X114441711Y-44660766D01*
X114497794Y-44617232D01*
X114543884Y-44608500D01*
X115366000Y-44608500D01*
X115434121Y-44628502D01*
X115480614Y-44682158D01*
X115492000Y-44734500D01*
X115492000Y-45127885D01*
X115496475Y-45143124D01*
X115497865Y-45144329D01*
X115505548Y-45146000D01*
X118289884Y-45146000D01*
X118305123Y-45141525D01*
X118306328Y-45140135D01*
X118307999Y-45132452D01*
X118307999Y-44455331D01*
X118307629Y-44448510D01*
X118302105Y-44397648D01*
X118298479Y-44382396D01*
X118253324Y-44261946D01*
X118244786Y-44246351D01*
X118168285Y-44144276D01*
X118155724Y-44131715D01*
X118053649Y-44055214D01*
X118038052Y-44046675D01*
X117979415Y-44024693D01*
X117922650Y-43982052D01*
X117897950Y-43915490D01*
X117913157Y-43846141D01*
X117934703Y-43817461D01*
X117972641Y-43779654D01*
X117976303Y-43776005D01*
X118111458Y-43587917D01*
X118214078Y-43380280D01*
X118281408Y-43158671D01*
X118311640Y-42929041D01*
X118312467Y-42895208D01*
X118313245Y-42863365D01*
X118313245Y-42863361D01*
X118313327Y-42860000D01*
X118302313Y-42726029D01*
X118294773Y-42634318D01*
X118294772Y-42634312D01*
X118294349Y-42629167D01*
X118237925Y-42404533D01*
X118235866Y-42399797D01*
X118147630Y-42196868D01*
X118147628Y-42196865D01*
X118145570Y-42192131D01*
X118019764Y-41997665D01*
X117863887Y-41826358D01*
X117859836Y-41823159D01*
X117859832Y-41823155D01*
X117745525Y-41732882D01*
X117704462Y-41674965D01*
X117701230Y-41604042D01*
X117736855Y-41542631D01*
X117800026Y-41510228D01*
X117823617Y-41508000D01*
X119866000Y-41508000D01*
X119934121Y-41528002D01*
G37*
%TD.AperFunction*%
%TD*%
M02*
