%TF.GenerationSoftware,KiCad,Pcbnew,(6.0.2)*%
%TF.CreationDate,2022-03-10T12:52:18+01:00*%
%TF.ProjectId,SolarCharger,536f6c61-7243-4686-9172-6765722e6b69,rev?*%
%TF.SameCoordinates,Original*%
%TF.FileFunction,Copper,L1,Top*%
%TF.FilePolarity,Positive*%
%FSLAX46Y46*%
G04 Gerber Fmt 4.6, Leading zero omitted, Abs format (unit mm)*
G04 Created by KiCad (PCBNEW (6.0.2)) date 2022-03-10 12:52:18*
%MOMM*%
%LPD*%
G01*
G04 APERTURE LIST*
%TA.AperFunction,SMDPad,CuDef*%
%ADD10R,1.000000X1.450000*%
%TD*%
%TA.AperFunction,SMDPad,CuDef*%
%ADD11R,1.470000X1.020000*%
%TD*%
%TA.AperFunction,SMDPad,CuDef*%
%ADD12R,1.020000X1.470000*%
%TD*%
%TA.AperFunction,SMDPad,CuDef*%
%ADD13R,2.300000X1.400000*%
%TD*%
%TA.AperFunction,SMDPad,CuDef*%
%ADD14R,1.250000X1.400000*%
%TD*%
%TA.AperFunction,SMDPad,CuDef*%
%ADD15R,2.000000X3.500000*%
%TD*%
%TA.AperFunction,SMDPad,CuDef*%
%ADD16R,0.700000X0.300000*%
%TD*%
%TA.AperFunction,SMDPad,CuDef*%
%ADD17R,0.940000X2.500000*%
%TD*%
%TA.AperFunction,SMDPad,CuDef*%
%ADD18R,1.200000X0.500000*%
%TD*%
%TA.AperFunction,SMDPad,CuDef*%
%ADD19R,0.400000X0.500000*%
%TD*%
%TA.AperFunction,SMDPad,CuDef*%
%ADD20R,2.210000X2.400000*%
%TD*%
%TA.AperFunction,SMDPad,CuDef*%
%ADD21R,0.450000X1.400000*%
%TD*%
%TA.AperFunction,SMDPad,CuDef*%
%ADD22R,1.525000X0.650000*%
%TD*%
%TA.AperFunction,SMDPad,CuDef*%
%ADD23R,2.400000X3.100000*%
%TD*%
%TA.AperFunction,ComponentPad*%
%ADD24R,1.800000X1.800000*%
%TD*%
%TA.AperFunction,ComponentPad*%
%ADD25C,1.800000*%
%TD*%
%TA.AperFunction,SMDPad,CuDef*%
%ADD26R,2.010000X6.000000*%
%TD*%
%TA.AperFunction,SMDPad,CuDef*%
%ADD27R,0.900000X1.400000*%
%TD*%
%TA.AperFunction,SMDPad,CuDef*%
%ADD28R,1.450000X1.000000*%
%TD*%
%TA.AperFunction,ViaPad*%
%ADD29C,0.800000*%
%TD*%
%TA.AperFunction,Conductor*%
%ADD30C,0.300000*%
%TD*%
%TA.AperFunction,Conductor*%
%ADD31C,0.250000*%
%TD*%
G04 APERTURE END LIST*
D10*
%TO.P,R6,1*%
%TO.N,Net-(IC2-Pad5)*%
X94750000Y-53700000D03*
%TO.P,R6,2*%
%TO.N,gnd*%
X92850000Y-53700000D03*
%TD*%
D11*
%TO.P,C1,1*%
%TO.N,gnd*%
X87200000Y-48100000D03*
%TO.P,C1,2*%
%TO.N,Vin+*%
X87200000Y-49700000D03*
%TD*%
D12*
%TO.P,C2,1*%
%TO.N,BAT-*%
X89180000Y-53700000D03*
%TO.P,C2,2*%
%TO.N,Net-(C2-Pad2)*%
X90780000Y-53700000D03*
%TD*%
D11*
%TO.P,C3,1*%
%TO.N,BAT+*%
X93720000Y-48100000D03*
%TO.P,C3,2*%
%TO.N,gnd*%
X93720000Y-49700000D03*
%TD*%
D12*
%TO.P,C4,1*%
%TO.N,gnd*%
X103100000Y-53700000D03*
%TO.P,C4,2*%
%TO.N,Net-(C4-Pad2)*%
X101500000Y-53700000D03*
%TD*%
%TO.P,C5,1*%
%TO.N,gnd*%
X105100000Y-53700000D03*
%TO.P,C5,2*%
%TO.N,BAT+*%
X106700000Y-53700000D03*
%TD*%
D11*
%TO.P,C6,1*%
%TO.N,gnd*%
X112000000Y-51400000D03*
%TO.P,C6,2*%
%TO.N,Net-(C6-Pad2)*%
X112000000Y-49800000D03*
%TD*%
%TO.P,C7,1*%
%TO.N,gnd*%
X104140000Y-49190000D03*
%TO.P,C7,2*%
%TO.N,Net-(C7-Pad2)*%
X104140000Y-50790000D03*
%TD*%
D12*
%TO.P,C8,1*%
%TO.N,gnd*%
X116500000Y-53700000D03*
%TO.P,C8,2*%
%TO.N,5V*%
X118100000Y-53700000D03*
%TD*%
D11*
%TO.P,C9,1*%
%TO.N,gnd*%
X112400000Y-44000000D03*
%TO.P,C9,2*%
%TO.N,5V_BF*%
X112400000Y-42400000D03*
%TD*%
D13*
%TO.P,D1,1*%
%TO.N,5V_BF*%
X108700000Y-43700000D03*
D14*
%TO.P,D1,2*%
%TO.N,Net-(D1-Pad2)*%
X106375000Y-43700000D03*
%TD*%
D15*
%TO.P,H1,1,1*%
%TO.N,BAT+*%
X96900000Y-43600000D03*
%TD*%
%TO.P,H2,1,1*%
%TO.N,BAT-*%
X93700000Y-43600000D03*
%TD*%
D16*
%TO.P,IC1,1,VBUS*%
%TO.N,Vin+*%
X89250000Y-47767500D03*
%TO.P,IC1,2,ISET*%
%TO.N,Net-(IC1-Pad2)*%
X89250000Y-48267500D03*
%TO.P,IC1,3,VSS*%
%TO.N,gnd*%
X89250000Y-48767500D03*
%TO.P,IC1,4,VTSB*%
%TO.N,Net-(IC1-Pad4)*%
X89250000Y-49267500D03*
%TO.P,IC1,5,TS*%
%TO.N,Net-(IC1-Pad5)*%
X89250000Y-49767500D03*
%TO.P,IC1,6,~{PG}*%
%TO.N,Net-(IC1-Pad6)*%
X91250000Y-49767500D03*
%TO.P,IC1,7,~{EN}*%
X91250000Y-49267500D03*
%TO.P,IC1,8,~{CHG}*%
%TO.N,Net-(IC1-Pad8)*%
X91250000Y-48767500D03*
%TO.P,IC1,9,VDPM*%
%TO.N,unconnected-(IC1-Pad9)*%
X91250000Y-48267500D03*
%TO.P,IC1,10,BAT*%
%TO.N,BAT+*%
X91250000Y-47767500D03*
D17*
%TO.P,IC1,11,EP*%
%TO.N,gnd*%
X90250000Y-48767500D03*
%TD*%
D18*
%TO.P,IC2,1,S1*%
%TO.N,BAT-*%
X96350000Y-50380000D03*
D19*
%TO.P,IC2,2,VSS*%
X97300000Y-50380000D03*
%TO.P,IC2,3,VDD*%
%TO.N,Net-(C2-Pad2)*%
X97850000Y-50380000D03*
%TO.P,IC2,4,NC*%
%TO.N,unconnected-(IC2-Pad4)*%
X97850000Y-47080000D03*
%TO.P,IC2,5,VM*%
%TO.N,Net-(IC2-Pad5)*%
X97300000Y-47080000D03*
D18*
%TO.P,IC2,6,S2*%
%TO.N,gnd*%
X96350000Y-47080000D03*
D20*
%TO.P,IC2,7,EP*%
%TO.N,unconnected-(IC2-Pad7)*%
X96900000Y-48730000D03*
%TD*%
D21*
%TO.P,IC3,1,COMP*%
%TO.N,Net-(IC3-Pad1)*%
X107875000Y-46600000D03*
%TO.P,IC3,2,FB*%
%TO.N,Net-(IC3-Pad2)*%
X107225000Y-46600000D03*
%TO.P,IC3,3,EN*%
%TO.N,BAT+*%
X106575000Y-46600000D03*
%TO.P,IC3,4,PGND*%
%TO.N,gnd*%
X105925000Y-46600000D03*
%TO.P,IC3,5,SW*%
%TO.N,Net-(D1-Pad2)*%
X105925000Y-51000000D03*
%TO.P,IC3,6,IN*%
%TO.N,BAT+*%
X106575000Y-51000000D03*
%TO.P,IC3,7,FREQ*%
X107225000Y-51000000D03*
%TO.P,IC3,8,SS*%
%TO.N,Net-(C7-Pad2)*%
X107875000Y-51000000D03*
%TD*%
D22*
%TO.P,IC4,1,GND_1*%
%TO.N,gnd*%
X114088000Y-47895000D03*
%TO.P,IC4,2,DVDT*%
%TO.N,Net-(C6-Pad2)*%
X114088000Y-49165000D03*
%TO.P,IC4,3,EN/UVLO*%
%TO.N,Net-(IC4-Pad3)*%
X114088000Y-50435000D03*
%TO.P,IC4,4,IN*%
%TO.N,5V_BF*%
X114088000Y-51705000D03*
%TO.P,IC4,5,OUT*%
%TO.N,5V*%
X119512000Y-51705000D03*
%TO.P,IC4,6,~{FLT}*%
%TO.N,unconnected-(IC4-Pad6)*%
X119512000Y-50435000D03*
%TO.P,IC4,7,ILM*%
%TO.N,Net-(IC4-Pad7)*%
X119512000Y-49165000D03*
%TO.P,IC4,8,OVLO/OVCSEL*%
%TO.N,Net-(IC4-Pad8)*%
X119512000Y-47895000D03*
D23*
%TO.P,IC4,9,GND_2*%
%TO.N,gnd*%
X116800000Y-49800000D03*
%TD*%
D24*
%TO.P,J1,1,1*%
%TO.N,gnd*%
X82500000Y-47460000D03*
D25*
%TO.P,J1,2,2*%
%TO.N,Vin+*%
X82500000Y-50000000D03*
%TD*%
D24*
%TO.P,J2,1,1*%
%TO.N,gnd*%
X116900000Y-45400000D03*
D25*
%TO.P,J2,2,2*%
%TO.N,5V*%
X116900000Y-42860000D03*
%TD*%
D26*
%TO.P,L1,1*%
%TO.N,Net-(D1-Pad2)*%
X104150000Y-44800000D03*
%TO.P,L1,2*%
%TO.N,BAT+*%
X99850000Y-44800000D03*
%TD*%
D27*
%TO.P,LED1,1*%
%TO.N,Net-(IC1-Pad8)*%
X85600000Y-44800000D03*
%TO.P,LED1,2*%
%TO.N,Net-(LED1-Pad2)*%
X87500000Y-44800000D03*
%TD*%
%TO.P,LED2,1*%
%TO.N,Net-(IC1-Pad6)*%
X85600000Y-42300000D03*
%TO.P,LED2,2*%
%TO.N,Net-(LED2-Pad2)*%
X87500000Y-42300000D03*
%TD*%
D10*
%TO.P,R1,1*%
%TO.N,gnd*%
X81150000Y-53700000D03*
%TO.P,R1,2*%
%TO.N,Net-(IC1-Pad2)*%
X83050000Y-53700000D03*
%TD*%
%TO.P,R2,1*%
%TO.N,Net-(IC1-Pad4)*%
X85210000Y-53700000D03*
%TO.P,R2,2*%
%TO.N,Net-(IC1-Pad5)*%
X87110000Y-53700000D03*
%TD*%
%TO.P,R3,1*%
%TO.N,BAT+*%
X98650000Y-53700000D03*
%TO.P,R3,2*%
%TO.N,Net-(C2-Pad2)*%
X96750000Y-53700000D03*
%TD*%
%TO.P,R4,1*%
%TO.N,BAT+*%
X91250000Y-44800000D03*
%TO.P,R4,2*%
%TO.N,Net-(LED1-Pad2)*%
X89350000Y-44800000D03*
%TD*%
%TO.P,R5,1*%
%TO.N,BAT+*%
X91250000Y-42300000D03*
%TO.P,R5,2*%
%TO.N,Net-(LED2-Pad2)*%
X89350000Y-42300000D03*
%TD*%
D28*
%TO.P,R7,1*%
%TO.N,Net-(IC3-Pad1)*%
X102220000Y-49200000D03*
%TO.P,R7,2*%
%TO.N,Net-(C4-Pad2)*%
X102220000Y-51100000D03*
%TD*%
%TO.P,R8,1*%
%TO.N,5V_BF*%
X100200000Y-49200000D03*
%TO.P,R8,2*%
%TO.N,Net-(IC3-Pad2)*%
X100200000Y-51100000D03*
%TD*%
%TO.P,R9,1*%
%TO.N,Net-(IC3-Pad2)*%
X109900000Y-46200000D03*
%TO.P,R9,2*%
%TO.N,gnd*%
X109900000Y-48100000D03*
%TD*%
%TO.P,R10,1*%
%TO.N,5V_BF*%
X109900000Y-51750000D03*
%TO.P,R10,2*%
%TO.N,Net-(IC4-Pad3)*%
X109900000Y-49850000D03*
%TD*%
D10*
%TO.P,R11,1*%
%TO.N,Net-(IC4-Pad3)*%
X108850000Y-53700000D03*
%TO.P,R11,2*%
%TO.N,gnd*%
X110750000Y-53700000D03*
%TD*%
D28*
%TO.P,R12,1*%
%TO.N,Net-(IC4-Pad8)*%
X112000000Y-45750000D03*
%TO.P,R12,2*%
%TO.N,gnd*%
X112000000Y-47650000D03*
%TD*%
D10*
%TO.P,R13,1*%
%TO.N,Net-(IC4-Pad7)*%
X114650000Y-53700000D03*
%TO.P,R13,2*%
%TO.N,gnd*%
X112750000Y-53700000D03*
%TD*%
D29*
%TO.N,Vin+*%
X83600000Y-45500000D03*
%TO.N,gnd*%
X103200000Y-52500000D03*
X95200000Y-46900000D03*
X111800000Y-52600000D03*
X117200000Y-52500000D03*
%TO.N,BAT-*%
X93000000Y-46500000D03*
X93930331Y-51830331D03*
X90000000Y-51825000D03*
%TO.N,BAT+*%
X98550001Y-51895735D03*
X101600000Y-44400000D03*
X106675000Y-48289369D03*
X92000000Y-46500000D03*
%TO.N,Net-(C7-Pad2)*%
X107737764Y-52679577D03*
X104300000Y-52200000D03*
%TO.N,5V*%
X119600000Y-53100000D03*
%TO.N,5V_BF*%
X110800000Y-42300000D03*
X101600000Y-46900000D03*
X110800000Y-52374998D03*
X115750000Y-52300000D03*
%TO.N,Net-(D1-Pad2)*%
X102700000Y-46300000D03*
X105900000Y-49500000D03*
%TO.N,Net-(IC1-Pad8)*%
X89736401Y-46263599D03*
X92400000Y-48600000D03*
%TO.N,Net-(IC1-Pad6)*%
X84100000Y-42300000D03*
X91964998Y-49517501D03*
%TO.N,Net-(IC1-Pad5)*%
X88069998Y-52500000D03*
%TO.N,Net-(IC1-Pad2)*%
X84200000Y-52000000D03*
X84500000Y-46710000D03*
%TO.N,Net-(IC2-Pad5)*%
X97147624Y-46263478D03*
X95400000Y-51830332D03*
%TO.N,Net-(IC3-Pad2)*%
X100100000Y-52300000D03*
X106700000Y-45000000D03*
%TO.N,Net-(IC3-Pad1)*%
X108574998Y-45725000D03*
X102544998Y-47600000D03*
%TO.N,Net-(IC4-Pad8)*%
X119600000Y-46900000D03*
X113200000Y-46100000D03*
%TO.N,Net-(IC4-Pad7)*%
X118149498Y-47668922D03*
X113786658Y-52706671D03*
%TO.N,Net-(IC4-Pad3)*%
X108200000Y-49200000D03*
X113327531Y-50779998D03*
%TD*%
D30*
%TO.N,Vin+*%
X89250000Y-47317500D02*
X88442482Y-46509982D01*
X85409984Y-46509982D02*
X84400002Y-45500000D01*
X82800000Y-49700000D02*
X82500000Y-50000000D01*
X87200000Y-49700000D02*
X82800000Y-49700000D01*
X89250000Y-47767500D02*
X89250000Y-47317500D01*
X84400002Y-45500000D02*
X83600000Y-45500000D01*
X88442482Y-46509982D02*
X85409984Y-46509982D01*
%TO.N,gnd*%
X95035000Y-49700000D02*
X95200000Y-49535000D01*
X93500000Y-51200000D02*
X94000000Y-50700000D01*
X90619999Y-50267501D02*
X90250000Y-49897502D01*
X92732499Y-50267501D02*
X91967501Y-50267501D01*
X104489998Y-49200000D02*
X104100000Y-49200000D01*
X105925000Y-48410000D02*
X105135000Y-49200000D01*
X105185001Y-49895003D02*
X104489998Y-49200000D01*
X93500000Y-51200000D02*
X93300000Y-51200000D01*
X110750000Y-53650000D02*
X111800000Y-52600000D01*
X93300000Y-49700000D02*
X92732499Y-50267501D01*
X91967501Y-50267501D02*
X90619999Y-50267501D01*
X91400000Y-50400000D02*
X90500000Y-50400000D01*
X105135000Y-49200000D02*
X104100000Y-49200000D01*
X93300000Y-49700000D02*
X94335000Y-49700000D01*
X112750000Y-53700000D02*
X112750000Y-52150000D01*
X80700000Y-48600000D02*
X80700000Y-52750000D01*
X92100000Y-51100000D02*
X91400000Y-50400000D01*
X95200000Y-46900000D02*
X96170000Y-46900000D01*
X117200000Y-52500000D02*
X117200000Y-50200000D01*
X116800000Y-49800000D02*
X114895000Y-47895000D01*
X116800000Y-45500000D02*
X116900000Y-45400000D01*
X94000000Y-49700000D02*
X95035000Y-49700000D01*
X105100000Y-53700000D02*
X105185001Y-53614999D01*
X112000000Y-47650000D02*
X113843000Y-47650000D01*
X103100000Y-53700000D02*
X103100000Y-52600000D01*
X105925000Y-46600000D02*
X105925000Y-48410000D01*
X80700000Y-52750000D02*
X81150000Y-53200000D01*
X114376000Y-45400000D02*
X114088000Y-45688000D01*
X92850000Y-53200000D02*
X92850000Y-51850000D01*
X116900000Y-45400000D02*
X114376000Y-45400000D01*
X105185001Y-53614999D02*
X105185001Y-49895003D01*
X116800000Y-49800000D02*
X116800000Y-45500000D01*
X94000000Y-50700000D02*
X94000000Y-49700000D01*
X114895000Y-47895000D02*
X114088000Y-47895000D01*
X93200000Y-51100000D02*
X92100000Y-51100000D01*
X117200000Y-50200000D02*
X116800000Y-49800000D01*
X81840000Y-47460000D02*
X80700000Y-48600000D01*
X116500000Y-50100000D02*
X116800000Y-49800000D01*
X90250000Y-49897502D02*
X90250000Y-48767500D01*
X82500000Y-47460000D02*
X86560000Y-47460000D01*
X82500000Y-47460000D02*
X81840000Y-47460000D01*
X116500000Y-53700000D02*
X116500000Y-50100000D01*
X109900000Y-48100000D02*
X111550000Y-48100000D01*
X91967501Y-50267501D02*
X92200000Y-50500000D01*
X91835002Y-50400000D02*
X91967501Y-50267501D01*
X110750000Y-53700000D02*
X110750000Y-53650000D01*
X86560000Y-47460000D02*
X87200000Y-48100000D01*
X95200000Y-49535000D02*
X95200000Y-46900000D01*
X90250000Y-48767500D02*
X89250000Y-48767500D01*
X114088000Y-47895000D02*
X114088000Y-45688000D01*
X93300000Y-51200000D02*
X93200000Y-51100000D01*
X114088000Y-45688000D02*
X112400000Y-44000000D01*
X112750000Y-52150000D02*
X112000000Y-51400000D01*
X113843000Y-47650000D02*
X114088000Y-47895000D01*
X89250000Y-48767500D02*
X87867500Y-48767500D01*
X103100000Y-52600000D02*
X103200000Y-52500000D01*
X87867500Y-48767500D02*
X87200000Y-48100000D01*
X91400000Y-50400000D02*
X91835002Y-50400000D01*
X96170000Y-46900000D02*
X96350000Y-47080000D01*
X111550000Y-48100000D02*
X112000000Y-47650000D01*
X105100000Y-53700000D02*
X103100000Y-53700000D01*
X112750000Y-53700000D02*
X110750000Y-53700000D01*
X92850000Y-51850000D02*
X93500000Y-51200000D01*
D31*
%TO.N,Net-(C2-Pad2)*%
X95640000Y-54710000D02*
X96690001Y-53659999D01*
X97850000Y-50650000D02*
X97825001Y-50674999D01*
X91575001Y-54710000D02*
X95624999Y-54710000D01*
X97825001Y-50674999D02*
X97825001Y-52124999D01*
X97850000Y-50380000D02*
X97850000Y-50650000D01*
X90699999Y-53839999D02*
X91570000Y-54710000D01*
X97825001Y-52124999D02*
X96750000Y-53200000D01*
D30*
%TO.N,BAT-*%
X96350000Y-50380000D02*
X95620000Y-50380000D01*
X90000000Y-51825000D02*
X89180000Y-52645000D01*
X97300000Y-50380000D02*
X96350000Y-50380000D01*
X95620000Y-50380000D02*
X94169669Y-51830331D01*
X94169669Y-51830331D02*
X93930331Y-51830331D01*
X93700000Y-45800000D02*
X93000000Y-46500000D01*
X89180000Y-52645000D02*
X89180000Y-53200000D01*
X93700000Y-43600000D02*
X93700000Y-45800000D01*
%TO.N,BAT+*%
X107225000Y-51000000D02*
X107225000Y-48839369D01*
X91250000Y-42300000D02*
X91250000Y-44800000D01*
X94000000Y-48100000D02*
X94000000Y-46989998D01*
X91250000Y-47767500D02*
X92967500Y-47767500D01*
X94000000Y-46989998D02*
X96900000Y-44089998D01*
X107225000Y-48839369D02*
X106675000Y-48289369D01*
X93300000Y-48100000D02*
X93600000Y-48100000D01*
X98650000Y-43600000D02*
X99850000Y-44800000D01*
X96900000Y-44089998D02*
X96900000Y-43600000D01*
X106575000Y-48189369D02*
X106675000Y-48289369D01*
X91250000Y-44800000D02*
X91250000Y-47767500D01*
X106575000Y-46600000D02*
X106575000Y-48189369D01*
X106700000Y-53700000D02*
X106700000Y-51125000D01*
X96900000Y-43600000D02*
X98650000Y-43600000D01*
X92967500Y-47767500D02*
X93300000Y-48100000D01*
X101600000Y-44400000D02*
X100250000Y-44400000D01*
X107225000Y-51000000D02*
X106575000Y-51000000D01*
X91250000Y-44800000D02*
X91250000Y-45750000D01*
X91250000Y-45750000D02*
X92000000Y-46500000D01*
X100250000Y-44400000D02*
X99850000Y-44800000D01*
X106700000Y-51125000D02*
X106575000Y-51000000D01*
X98550001Y-51895735D02*
X98550001Y-53100001D01*
X98550001Y-53100001D02*
X98650000Y-53200000D01*
D31*
%TO.N,Net-(C4-Pad2)*%
X102300000Y-51100000D02*
X101500000Y-51900000D01*
X101500000Y-51900000D02*
X101500000Y-53700000D01*
%TO.N,Net-(C6-Pad2)*%
X112635000Y-49165000D02*
X112000000Y-49800000D01*
X114088000Y-49165000D02*
X112635000Y-49165000D01*
%TO.N,Net-(C7-Pad2)*%
X107875000Y-52542341D02*
X107875000Y-51000000D01*
X104100000Y-52000000D02*
X104300000Y-52200000D01*
X107737764Y-52679577D02*
X107875000Y-52542341D01*
X104100000Y-50800000D02*
X104100000Y-52000000D01*
D30*
%TO.N,5V*%
X119512000Y-51705000D02*
X119512000Y-53012000D01*
X119512000Y-53012000D02*
X119600000Y-53100000D01*
X118100000Y-53117000D02*
X119512000Y-51705000D01*
X118100000Y-53700000D02*
X118100000Y-53117000D01*
%TO.N,5V_BF*%
X100200000Y-49200000D02*
X101600000Y-47800000D01*
X112300000Y-42300000D02*
X112400000Y-42400000D01*
X110524998Y-52374998D02*
X109900000Y-51750000D01*
X110800000Y-52374998D02*
X110524998Y-52374998D01*
X110800000Y-42300000D02*
X110100000Y-42300000D01*
X115155000Y-51705000D02*
X115750000Y-52300000D01*
X114088000Y-51705000D02*
X115155000Y-51705000D01*
X110100000Y-42300000D02*
X108700000Y-43700000D01*
X101600000Y-47800000D02*
X101600000Y-46900000D01*
X110800000Y-42300000D02*
X112300000Y-42300000D01*
%TO.N,Net-(D1-Pad2)*%
X106375000Y-43700000D02*
X105250000Y-43700000D01*
X102700000Y-46250000D02*
X104150000Y-44800000D01*
X105925000Y-49525000D02*
X105900000Y-49500000D01*
X105925000Y-51000000D02*
X105925000Y-49525000D01*
X102700000Y-46300000D02*
X102700000Y-46250000D01*
X105250000Y-43700000D02*
X104150000Y-44800000D01*
D31*
%TO.N,Net-(IC1-Pad8)*%
X92232500Y-48767500D02*
X92400000Y-48600000D01*
X89063599Y-46263599D02*
X88700000Y-45900000D01*
X89736401Y-46263599D02*
X89063599Y-46263599D01*
X88700000Y-45900000D02*
X86700000Y-45900000D01*
X91250000Y-48767500D02*
X92232500Y-48767500D01*
X86700000Y-45900000D02*
X86400000Y-45600000D01*
X86400000Y-45600000D02*
X85600000Y-44800000D01*
%TO.N,Net-(IC1-Pad6)*%
X84100000Y-42300000D02*
X85600000Y-42300000D01*
X91250000Y-49267500D02*
X91714997Y-49267500D01*
X91714997Y-49267500D02*
X91964998Y-49517501D01*
X91250000Y-49767500D02*
X91250000Y-49267500D01*
%TO.N,Net-(IC1-Pad5)*%
X87110000Y-53200000D02*
X87369998Y-53200000D01*
X87110000Y-52490000D02*
X89250000Y-50350000D01*
X87110000Y-53200000D02*
X87110000Y-52490000D01*
X89250000Y-50350000D02*
X89250000Y-49767500D01*
X87369998Y-53200000D02*
X88069998Y-52500000D01*
%TO.N,Net-(IC1-Pad4)*%
X89250000Y-49267500D02*
X88650000Y-49267500D01*
X86260001Y-52149999D02*
X85210000Y-53200000D01*
X88500000Y-49417500D02*
X88500000Y-50230002D01*
X88650000Y-49267500D02*
X88500000Y-49417500D01*
X88500000Y-50230002D02*
X86580003Y-52149999D01*
X86580003Y-52149999D02*
X86260001Y-52149999D01*
%TO.N,Net-(IC1-Pad2)*%
X84774992Y-46984992D02*
X84500000Y-46710000D01*
X87914994Y-46984992D02*
X84774992Y-46984992D01*
X88260001Y-47329999D02*
X87914994Y-46984992D01*
X84200000Y-52000000D02*
X84200000Y-52050000D01*
X88650000Y-48267500D02*
X88260001Y-47877501D01*
X84200000Y-52050000D02*
X83050000Y-53200000D01*
X89250000Y-48267500D02*
X88650000Y-48267500D01*
X88260001Y-47877501D02*
X88260001Y-47329999D01*
%TO.N,Net-(IC2-Pad5)*%
X97147624Y-46263478D02*
X97300000Y-46415854D01*
X94750000Y-52480332D02*
X95400000Y-51830332D01*
X97300000Y-46415854D02*
X97300000Y-47080000D01*
X94750000Y-53200000D02*
X94750000Y-52480332D01*
%TO.N,Net-(IC3-Pad2)*%
X107225000Y-46275000D02*
X107200000Y-46250000D01*
X107225000Y-46600000D02*
X107225000Y-46275000D01*
X100100000Y-51200000D02*
X100200000Y-51100000D01*
X107964998Y-45000000D02*
X110100000Y-45000000D01*
X107200000Y-46250000D02*
X107200000Y-45764998D01*
X107200000Y-45764998D02*
X107964998Y-45000000D01*
X110400000Y-45300000D02*
X110400000Y-45700000D01*
X107225000Y-46600000D02*
X107225000Y-45525000D01*
X110100000Y-45000000D02*
X110400000Y-45300000D01*
X100100000Y-52300000D02*
X100100000Y-51200000D01*
X107225000Y-45525000D02*
X106700000Y-45000000D01*
%TO.N,Net-(IC3-Pad1)*%
X102544998Y-47600000D02*
X102544998Y-48955002D01*
X107875000Y-46424998D02*
X108574998Y-45725000D01*
X102544998Y-48955002D02*
X102300000Y-49200000D01*
X107875000Y-46600000D02*
X107875000Y-46424998D01*
%TO.N,Net-(IC4-Pad8)*%
X119600000Y-47807000D02*
X119512000Y-47895000D01*
X112000000Y-45750000D02*
X112850000Y-45750000D01*
X112850000Y-45750000D02*
X113200000Y-46100000D01*
X119600000Y-46900000D02*
X119600000Y-47807000D01*
%TO.N,Net-(IC4-Pad7)*%
X118149498Y-47668922D02*
X118424499Y-47943923D01*
X118499500Y-49165000D02*
X119512000Y-49165000D01*
X118424499Y-49089999D02*
X118499500Y-49165000D01*
X114650000Y-53700000D02*
X114650000Y-53570013D01*
X118424499Y-47943923D02*
X118424499Y-49089999D01*
X114650000Y-53570013D02*
X113786658Y-52706671D01*
%TO.N,Net-(IC4-Pad3)*%
X113327531Y-50779998D02*
X113743002Y-50779998D01*
X108850000Y-49850000D02*
X108200000Y-49200000D01*
X108850000Y-50900000D02*
X109900000Y-49850000D01*
X109900000Y-49850000D02*
X108850000Y-49850000D01*
X108850000Y-53700000D02*
X108850000Y-50900000D01*
X113743002Y-50779998D02*
X114088000Y-50435000D01*
%TO.N,Net-(LED1-Pad2)*%
X89350000Y-44800000D02*
X87500000Y-44800000D01*
%TO.N,Net-(LED2-Pad2)*%
X89350000Y-42300000D02*
X87500000Y-42300000D01*
%TD*%
%TA.AperFunction,Conductor*%
%TO.N,gnd*%
G36*
X83375734Y-41528002D02*
G01*
X83422227Y-41581658D01*
X83432331Y-41651932D01*
X83401251Y-41718309D01*
X83360960Y-41763056D01*
X83265473Y-41928444D01*
X83206458Y-42110072D01*
X83186496Y-42300000D01*
X83187186Y-42306565D01*
X83198882Y-42417842D01*
X83206458Y-42489928D01*
X83265473Y-42671556D01*
X83360960Y-42836944D01*
X83365378Y-42841851D01*
X83365379Y-42841852D01*
X83484325Y-42973955D01*
X83488747Y-42978866D01*
X83643248Y-43091118D01*
X83649276Y-43093802D01*
X83649278Y-43093803D01*
X83794975Y-43158671D01*
X83817712Y-43168794D01*
X83893546Y-43184913D01*
X83998056Y-43207128D01*
X83998061Y-43207128D01*
X84004513Y-43208500D01*
X84195487Y-43208500D01*
X84201939Y-43207128D01*
X84201944Y-43207128D01*
X84306454Y-43184913D01*
X84382288Y-43168794D01*
X84409441Y-43156705D01*
X84506744Y-43113383D01*
X84577111Y-43103949D01*
X84641408Y-43134056D01*
X84675975Y-43184260D01*
X84689989Y-43221641D01*
X84699385Y-43246705D01*
X84786739Y-43363261D01*
X84793919Y-43368642D01*
X84793920Y-43368643D01*
X84901372Y-43449174D01*
X84943887Y-43506033D01*
X84948913Y-43576852D01*
X84914853Y-43639145D01*
X84901372Y-43650826D01*
X84803907Y-43723872D01*
X84786739Y-43736739D01*
X84699385Y-43853295D01*
X84648255Y-43989684D01*
X84641500Y-44051866D01*
X84641500Y-44719708D01*
X84621498Y-44787829D01*
X84567842Y-44834322D01*
X84498762Y-44844254D01*
X84498735Y-44844465D01*
X84497969Y-44844368D01*
X84497568Y-44844426D01*
X84496087Y-44844131D01*
X84490870Y-44843472D01*
X84483190Y-44841500D01*
X84461743Y-44841500D01*
X84442033Y-44839949D01*
X84428679Y-44837834D01*
X84420850Y-44836594D01*
X84374861Y-44840941D01*
X84363006Y-44841500D01*
X84280224Y-44841500D01*
X84212103Y-44821498D01*
X84206163Y-44817436D01*
X84205909Y-44817251D01*
X84132132Y-44763649D01*
X84062094Y-44712763D01*
X84062093Y-44712762D01*
X84056752Y-44708882D01*
X84050724Y-44706198D01*
X84050722Y-44706197D01*
X83888319Y-44633891D01*
X83888318Y-44633891D01*
X83882288Y-44631206D01*
X83788888Y-44611353D01*
X83701944Y-44592872D01*
X83701939Y-44592872D01*
X83695487Y-44591500D01*
X83504513Y-44591500D01*
X83498061Y-44592872D01*
X83498056Y-44592872D01*
X83411112Y-44611353D01*
X83317712Y-44631206D01*
X83311682Y-44633891D01*
X83311681Y-44633891D01*
X83149278Y-44706197D01*
X83149276Y-44706198D01*
X83143248Y-44708882D01*
X82988747Y-44821134D01*
X82984326Y-44826044D01*
X82984325Y-44826045D01*
X82940177Y-44875077D01*
X82860960Y-44963056D01*
X82765473Y-45128444D01*
X82706458Y-45310072D01*
X82705768Y-45316633D01*
X82705768Y-45316635D01*
X82700706Y-45364801D01*
X82686496Y-45500000D01*
X82687186Y-45506565D01*
X82699228Y-45621134D01*
X82706458Y-45689928D01*
X82765473Y-45871556D01*
X82768776Y-45877278D01*
X82768777Y-45877279D01*
X82781245Y-45898874D01*
X82797983Y-45967870D01*
X82774762Y-46034961D01*
X82767350Y-46044386D01*
X82755672Y-46057864D01*
X82754000Y-46065548D01*
X82754000Y-47588000D01*
X82733998Y-47656121D01*
X82680342Y-47702614D01*
X82628000Y-47714000D01*
X81110116Y-47714000D01*
X81094877Y-47718475D01*
X81093672Y-47719865D01*
X81092001Y-47727548D01*
X81092001Y-48404669D01*
X81092371Y-48411490D01*
X81097895Y-48462352D01*
X81101521Y-48477604D01*
X81146676Y-48598054D01*
X81155214Y-48613649D01*
X81231715Y-48715724D01*
X81244276Y-48728285D01*
X81346351Y-48804786D01*
X81361946Y-48813324D01*
X81421540Y-48835665D01*
X81478304Y-48878307D01*
X81503004Y-48944868D01*
X81487796Y-49014217D01*
X81468404Y-49040698D01*
X81401639Y-49110564D01*
X81398725Y-49114836D01*
X81398724Y-49114837D01*
X81347528Y-49189888D01*
X81271119Y-49301899D01*
X81173602Y-49511981D01*
X81111707Y-49735169D01*
X81087095Y-49965469D01*
X81087392Y-49970622D01*
X81087392Y-49970625D01*
X81098069Y-50155797D01*
X81100427Y-50196697D01*
X81101564Y-50201743D01*
X81101565Y-50201749D01*
X81125650Y-50308619D01*
X81151346Y-50422642D01*
X81153288Y-50427424D01*
X81153289Y-50427428D01*
X81212506Y-50573261D01*
X81238484Y-50637237D01*
X81287976Y-50718000D01*
X81345423Y-50811745D01*
X81359501Y-50834719D01*
X81511147Y-51009784D01*
X81611227Y-51092872D01*
X81675382Y-51146134D01*
X81689349Y-51157730D01*
X81889322Y-51274584D01*
X82105694Y-51357209D01*
X82110760Y-51358240D01*
X82110761Y-51358240D01*
X82163846Y-51369040D01*
X82332656Y-51403385D01*
X82463324Y-51408176D01*
X82558949Y-51411683D01*
X82558953Y-51411683D01*
X82564113Y-51411872D01*
X82569233Y-51411216D01*
X82569235Y-51411216D01*
X82642270Y-51401860D01*
X82793847Y-51382442D01*
X82798795Y-51380957D01*
X82798802Y-51380956D01*
X83010747Y-51317369D01*
X83015690Y-51315886D01*
X83020324Y-51313616D01*
X83219049Y-51216262D01*
X83219052Y-51216260D01*
X83223684Y-51213991D01*
X83412243Y-51079494D01*
X83576303Y-50916005D01*
X83587897Y-50899871D01*
X83653816Y-50808134D01*
X83711458Y-50727917D01*
X83716360Y-50718000D01*
X83796506Y-50555834D01*
X83814078Y-50520280D01*
X83831284Y-50463649D01*
X83836078Y-50447871D01*
X83875019Y-50388507D01*
X83939873Y-50359620D01*
X83956636Y-50358500D01*
X85890242Y-50358500D01*
X85958363Y-50378502D01*
X86004856Y-50432158D01*
X86008219Y-50440256D01*
X86014385Y-50456705D01*
X86019765Y-50463884D01*
X86019767Y-50463887D01*
X86033556Y-50482285D01*
X86101739Y-50573261D01*
X86218295Y-50660615D01*
X86354684Y-50711745D01*
X86416866Y-50718500D01*
X86811408Y-50718500D01*
X86879529Y-50738502D01*
X86926022Y-50792158D01*
X86936126Y-50862432D01*
X86906632Y-50927012D01*
X86900503Y-50933595D01*
X86355067Y-51479031D01*
X86292755Y-51513057D01*
X86269929Y-51515874D01*
X86256641Y-51516291D01*
X86252001Y-51516437D01*
X86248046Y-51516499D01*
X86220145Y-51516499D01*
X86216155Y-51517003D01*
X86204321Y-51517935D01*
X86160112Y-51519325D01*
X86152496Y-51521538D01*
X86152494Y-51521538D01*
X86140653Y-51524978D01*
X86121294Y-51528987D01*
X86121152Y-51529005D01*
X86101204Y-51531525D01*
X86093838Y-51534441D01*
X86093832Y-51534443D01*
X86060099Y-51547799D01*
X86048869Y-51551644D01*
X86014018Y-51561769D01*
X86006408Y-51563980D01*
X85999585Y-51568015D01*
X85988967Y-51574294D01*
X85971214Y-51582991D01*
X85970598Y-51583235D01*
X85952384Y-51590447D01*
X85945969Y-51595108D01*
X85916613Y-51616436D01*
X85906696Y-51622950D01*
X85868639Y-51645457D01*
X85854318Y-51659778D01*
X85839285Y-51672618D01*
X85822894Y-51684527D01*
X85817844Y-51690631D01*
X85817839Y-51690636D01*
X85794708Y-51718597D01*
X85786718Y-51727377D01*
X85318053Y-52196042D01*
X85255741Y-52230068D01*
X85184926Y-52225003D01*
X85128090Y-52182456D01*
X85103279Y-52115936D01*
X85103648Y-52093777D01*
X85112814Y-52006565D01*
X85113504Y-52000000D01*
X85098579Y-51857999D01*
X85094232Y-51816635D01*
X85094232Y-51816633D01*
X85093542Y-51810072D01*
X85034527Y-51628444D01*
X85015281Y-51595108D01*
X84969895Y-51516499D01*
X84939040Y-51463056D01*
X84930386Y-51453444D01*
X84815675Y-51326045D01*
X84815674Y-51326044D01*
X84811253Y-51321134D01*
X84656752Y-51208882D01*
X84650724Y-51206198D01*
X84650722Y-51206197D01*
X84488319Y-51133891D01*
X84488318Y-51133891D01*
X84482288Y-51131206D01*
X84388887Y-51111353D01*
X84301944Y-51092872D01*
X84301939Y-51092872D01*
X84295487Y-51091500D01*
X84104513Y-51091500D01*
X84098061Y-51092872D01*
X84098056Y-51092872D01*
X84011113Y-51111353D01*
X83917712Y-51131206D01*
X83911682Y-51133891D01*
X83911681Y-51133891D01*
X83749278Y-51206197D01*
X83749276Y-51206198D01*
X83743248Y-51208882D01*
X83588747Y-51321134D01*
X83584326Y-51326044D01*
X83584325Y-51326045D01*
X83469615Y-51453444D01*
X83460960Y-51463056D01*
X83430105Y-51516499D01*
X83384720Y-51595108D01*
X83365473Y-51628444D01*
X83306458Y-51810072D01*
X83305768Y-51816633D01*
X83305768Y-51816635D01*
X83301421Y-51857999D01*
X83286496Y-52000000D01*
X83287186Y-52006565D01*
X83287186Y-52013170D01*
X83284497Y-52013170D01*
X83273857Y-52071268D01*
X83250428Y-52103667D01*
X82924500Y-52429595D01*
X82862188Y-52463621D01*
X82835405Y-52466500D01*
X82501866Y-52466500D01*
X82439684Y-52473255D01*
X82303295Y-52524385D01*
X82186739Y-52611739D01*
X82185608Y-52613248D01*
X82126426Y-52645565D01*
X82055611Y-52640500D01*
X82010548Y-52611539D01*
X82005724Y-52606715D01*
X81903649Y-52530214D01*
X81888054Y-52521676D01*
X81767606Y-52476522D01*
X81752351Y-52472895D01*
X81701486Y-52467369D01*
X81694672Y-52467000D01*
X81422115Y-52467000D01*
X81406876Y-52471475D01*
X81405671Y-52472865D01*
X81404000Y-52480548D01*
X81404000Y-53828000D01*
X81383998Y-53896121D01*
X81330342Y-53942614D01*
X81278000Y-53954000D01*
X80160116Y-53954000D01*
X80144877Y-53958475D01*
X80143672Y-53959865D01*
X80142001Y-53967548D01*
X80142001Y-54366000D01*
X80121999Y-54434121D01*
X80068343Y-54480614D01*
X80016001Y-54492000D01*
X79734000Y-54492000D01*
X79665879Y-54471998D01*
X79619386Y-54418342D01*
X79608000Y-54366000D01*
X79608000Y-53427885D01*
X80142000Y-53427885D01*
X80146475Y-53443124D01*
X80147865Y-53444329D01*
X80155548Y-53446000D01*
X80877885Y-53446000D01*
X80893124Y-53441525D01*
X80894329Y-53440135D01*
X80896000Y-53432452D01*
X80896000Y-52485116D01*
X80891525Y-52469877D01*
X80890135Y-52468672D01*
X80882452Y-52467001D01*
X80605331Y-52467001D01*
X80598510Y-52467371D01*
X80547648Y-52472895D01*
X80532396Y-52476521D01*
X80411946Y-52521676D01*
X80396351Y-52530214D01*
X80294276Y-52606715D01*
X80281715Y-52619276D01*
X80205214Y-52721351D01*
X80196676Y-52736946D01*
X80151522Y-52857394D01*
X80147895Y-52872649D01*
X80142369Y-52923514D01*
X80142000Y-52930328D01*
X80142000Y-53427885D01*
X79608000Y-53427885D01*
X79608000Y-47187885D01*
X81092000Y-47187885D01*
X81096475Y-47203124D01*
X81097865Y-47204329D01*
X81105548Y-47206000D01*
X82227885Y-47206000D01*
X82243124Y-47201525D01*
X82244329Y-47200135D01*
X82246000Y-47192452D01*
X82246000Y-46070116D01*
X82241525Y-46054877D01*
X82240135Y-46053672D01*
X82232452Y-46052001D01*
X81555331Y-46052001D01*
X81548510Y-46052371D01*
X81497648Y-46057895D01*
X81482396Y-46061521D01*
X81361946Y-46106676D01*
X81346351Y-46115214D01*
X81244276Y-46191715D01*
X81231715Y-46204276D01*
X81155214Y-46306351D01*
X81146676Y-46321946D01*
X81101522Y-46442394D01*
X81097895Y-46457649D01*
X81092369Y-46508514D01*
X81092000Y-46515328D01*
X81092000Y-47187885D01*
X79608000Y-47187885D01*
X79608000Y-41634000D01*
X79628002Y-41565879D01*
X79681658Y-41519386D01*
X79734000Y-41508000D01*
X83307613Y-41508000D01*
X83375734Y-41528002D01*
G37*
%TD.AperFunction*%
%TA.AperFunction,Conductor*%
G36*
X103340157Y-52051863D02*
G01*
X103382767Y-52108651D01*
X103390071Y-52165985D01*
X103386496Y-52200000D01*
X103400633Y-52334500D01*
X103402087Y-52348336D01*
X103389315Y-52418175D01*
X103372001Y-52444020D01*
X103355671Y-52462865D01*
X103354000Y-52470548D01*
X103354000Y-53427885D01*
X103358475Y-53443124D01*
X103359865Y-53444329D01*
X103367548Y-53446000D01*
X105228000Y-53446000D01*
X105296121Y-53466002D01*
X105342614Y-53519658D01*
X105354000Y-53572000D01*
X105354000Y-53828000D01*
X105333998Y-53896121D01*
X105280342Y-53942614D01*
X105228000Y-53954000D01*
X102972000Y-53954000D01*
X102903879Y-53933998D01*
X102857386Y-53880342D01*
X102846000Y-53828000D01*
X102846000Y-52475116D01*
X102841525Y-52459877D01*
X102840135Y-52458672D01*
X102832452Y-52457001D01*
X102545331Y-52457001D01*
X102538510Y-52457371D01*
X102487648Y-52462895D01*
X102472397Y-52466521D01*
X102344942Y-52514302D01*
X102274135Y-52519485D01*
X102256489Y-52514304D01*
X102215269Y-52498851D01*
X102158505Y-52456210D01*
X102133806Y-52389648D01*
X102133500Y-52380870D01*
X102133500Y-52234500D01*
X102153502Y-52166379D01*
X102207158Y-52119886D01*
X102259500Y-52108500D01*
X102993134Y-52108500D01*
X103055316Y-52101745D01*
X103118298Y-52078134D01*
X103183301Y-52053766D01*
X103183304Y-52053764D01*
X103191705Y-52050615D01*
X103198887Y-52045233D01*
X103204252Y-52042295D01*
X103273609Y-52027126D01*
X103340157Y-52051863D01*
G37*
%TD.AperFunction*%
%TA.AperFunction,Conductor*%
G36*
X112946121Y-53466002D02*
G01*
X112992614Y-53519658D01*
X113004000Y-53572000D01*
X113004000Y-53828000D01*
X112983998Y-53896121D01*
X112930342Y-53942614D01*
X112878000Y-53954000D01*
X110622000Y-53954000D01*
X110553879Y-53933998D01*
X110507386Y-53880342D01*
X110496000Y-53828000D01*
X110496000Y-53572000D01*
X110516002Y-53503879D01*
X110569658Y-53457386D01*
X110622000Y-53446000D01*
X112878000Y-53446000D01*
X112946121Y-53466002D01*
G37*
%TD.AperFunction*%
%TA.AperFunction,Conductor*%
G36*
X90333621Y-48533502D02*
G01*
X90380114Y-48587158D01*
X90391500Y-48639500D01*
X90391500Y-48965634D01*
X90391869Y-48969029D01*
X90391869Y-48969033D01*
X90395656Y-49003893D01*
X90395656Y-49031107D01*
X90392451Y-49060615D01*
X90391500Y-49069366D01*
X90391500Y-49465634D01*
X90391869Y-49469029D01*
X90391869Y-49469033D01*
X90395656Y-49503893D01*
X90395656Y-49531106D01*
X90391500Y-49569366D01*
X90391500Y-49965634D01*
X90398255Y-50027816D01*
X90449385Y-50164205D01*
X90477523Y-50201749D01*
X90478826Y-50203488D01*
X90503674Y-50269994D01*
X90504000Y-50279053D01*
X90504000Y-50507384D01*
X90508475Y-50522623D01*
X90509865Y-50523828D01*
X90517548Y-50525499D01*
X90764669Y-50525499D01*
X90771490Y-50525129D01*
X90822352Y-50519605D01*
X90837604Y-50515979D01*
X90958054Y-50470824D01*
X90973644Y-50462288D01*
X90988474Y-50451174D01*
X91054981Y-50426326D01*
X91064040Y-50426000D01*
X91648134Y-50426000D01*
X91710316Y-50419245D01*
X91721971Y-50414876D01*
X91792399Y-50409611D01*
X91863045Y-50424628D01*
X91863058Y-50424629D01*
X91869511Y-50426001D01*
X92060485Y-50426001D01*
X92066937Y-50424629D01*
X92066942Y-50424629D01*
X92153886Y-50406148D01*
X92247286Y-50386295D01*
X92253313Y-50383612D01*
X92253321Y-50383609D01*
X92348903Y-50341053D01*
X92419270Y-50331619D01*
X92483567Y-50361726D01*
X92518132Y-50411929D01*
X92531674Y-50448050D01*
X92540214Y-50463649D01*
X92616715Y-50565724D01*
X92629276Y-50578285D01*
X92731351Y-50654786D01*
X92746946Y-50663324D01*
X92867394Y-50708478D01*
X92882649Y-50712105D01*
X92933514Y-50717631D01*
X92940328Y-50718000D01*
X93604274Y-50718000D01*
X93672395Y-50738002D01*
X93718888Y-50791658D01*
X93728992Y-50861932D01*
X93699498Y-50926512D01*
X93647730Y-50960834D01*
X93648043Y-50961537D01*
X93642016Y-50964220D01*
X93642011Y-50964222D01*
X93479609Y-51036528D01*
X93479607Y-51036529D01*
X93473579Y-51039213D01*
X93468238Y-51043093D01*
X93468237Y-51043094D01*
X93423153Y-51075850D01*
X93319078Y-51151465D01*
X93314657Y-51156375D01*
X93314656Y-51156376D01*
X93210569Y-51271977D01*
X93191291Y-51293387D01*
X93154443Y-51357209D01*
X93122884Y-51411872D01*
X93095804Y-51458775D01*
X93036789Y-51640403D01*
X93036099Y-51646964D01*
X93036099Y-51646966D01*
X93018956Y-51810072D01*
X93016827Y-51830331D01*
X93017517Y-51836896D01*
X93030681Y-51962141D01*
X93036789Y-52020259D01*
X93095804Y-52201887D01*
X93099107Y-52207609D01*
X93099108Y-52207610D01*
X93150383Y-52296421D01*
X93167121Y-52365417D01*
X93143900Y-52432508D01*
X93130533Y-52443020D01*
X93131104Y-52443514D01*
X93105671Y-52472865D01*
X93104000Y-52480548D01*
X93104000Y-53828000D01*
X93083998Y-53896121D01*
X93030342Y-53942614D01*
X92978000Y-53954000D01*
X92722000Y-53954000D01*
X92653879Y-53933998D01*
X92607386Y-53880342D01*
X92596000Y-53828000D01*
X92596000Y-52485116D01*
X92591525Y-52469877D01*
X92590135Y-52468672D01*
X92582452Y-52467001D01*
X92305331Y-52467001D01*
X92298510Y-52467371D01*
X92247648Y-52472895D01*
X92232396Y-52476521D01*
X92111946Y-52521676D01*
X92096351Y-52530214D01*
X91994276Y-52606715D01*
X91981715Y-52619276D01*
X91924886Y-52695103D01*
X91868027Y-52737618D01*
X91797209Y-52742644D01*
X91734915Y-52708584D01*
X91723234Y-52695103D01*
X91658643Y-52608920D01*
X91658642Y-52608919D01*
X91653261Y-52601739D01*
X91536705Y-52514385D01*
X91400316Y-52463255D01*
X91338134Y-52456500D01*
X90902686Y-52456500D01*
X90834565Y-52436498D01*
X90788072Y-52382842D01*
X90777968Y-52312568D01*
X90793566Y-52267503D01*
X90834527Y-52196556D01*
X90893542Y-52014928D01*
X90898973Y-51963261D01*
X90912814Y-51831565D01*
X90913504Y-51825000D01*
X90894792Y-51646966D01*
X90894232Y-51641635D01*
X90894232Y-51641633D01*
X90893542Y-51635072D01*
X90834527Y-51453444D01*
X90805735Y-51403574D01*
X90779561Y-51358240D01*
X90739040Y-51288056D01*
X90724563Y-51271977D01*
X90615675Y-51151045D01*
X90615674Y-51151044D01*
X90611253Y-51146134D01*
X90503188Y-51067620D01*
X90462094Y-51037763D01*
X90462093Y-51037762D01*
X90456752Y-51033882D01*
X90450724Y-51031198D01*
X90450722Y-51031197D01*
X90288319Y-50958891D01*
X90288318Y-50958891D01*
X90282288Y-50956206D01*
X90188887Y-50936353D01*
X90101944Y-50917872D01*
X90101939Y-50917872D01*
X90095487Y-50916500D01*
X89904513Y-50916500D01*
X89898056Y-50917872D01*
X89898051Y-50917873D01*
X89896743Y-50918151D01*
X89895968Y-50918092D01*
X89891485Y-50918563D01*
X89891399Y-50917743D01*
X89825952Y-50912748D01*
X89769320Y-50869930D01*
X89744828Y-50803292D01*
X89760250Y-50733991D01*
X89764040Y-50728032D01*
X89766586Y-50725321D01*
X89774050Y-50711745D01*
X89776348Y-50707566D01*
X89787199Y-50691047D01*
X89794758Y-50681301D01*
X89799614Y-50675041D01*
X89802759Y-50667772D01*
X89802762Y-50667768D01*
X89817174Y-50634463D01*
X89822396Y-50623803D01*
X89840539Y-50590800D01*
X89890883Y-50540741D01*
X89950954Y-50525500D01*
X89977885Y-50525500D01*
X89993124Y-50521025D01*
X89994329Y-50519635D01*
X89996000Y-50511952D01*
X89996000Y-50279053D01*
X90016002Y-50210932D01*
X90021174Y-50203488D01*
X90022477Y-50201749D01*
X90050615Y-50164205D01*
X90101745Y-50027816D01*
X90108500Y-49965634D01*
X90108500Y-49569366D01*
X90104344Y-49531106D01*
X90104344Y-49503893D01*
X90108131Y-49469033D01*
X90108131Y-49469029D01*
X90108500Y-49465634D01*
X90108500Y-49069366D01*
X90101745Y-49007184D01*
X90050615Y-48870795D01*
X90029832Y-48843064D01*
X90004985Y-48776557D01*
X90020039Y-48707175D01*
X90029832Y-48691936D01*
X90033911Y-48686494D01*
X90050615Y-48664205D01*
X90056514Y-48648469D01*
X90076458Y-48595270D01*
X90119100Y-48538506D01*
X90185662Y-48513806D01*
X90194440Y-48513500D01*
X90265500Y-48513500D01*
X90333621Y-48533502D01*
G37*
%TD.AperFunction*%
%TA.AperFunction,Conductor*%
G36*
X116045166Y-41528002D02*
G01*
X116091659Y-41581658D01*
X116101763Y-41651932D01*
X116072269Y-41716512D01*
X116052698Y-41734760D01*
X115982402Y-41787540D01*
X115961655Y-41803117D01*
X115801639Y-41970564D01*
X115798725Y-41974836D01*
X115798724Y-41974837D01*
X115783152Y-41997665D01*
X115671119Y-42161899D01*
X115573602Y-42371981D01*
X115511707Y-42595169D01*
X115487095Y-42825469D01*
X115487392Y-42830622D01*
X115487392Y-42830625D01*
X115493067Y-42929041D01*
X115500427Y-43056697D01*
X115501564Y-43061743D01*
X115501565Y-43061749D01*
X115525998Y-43170166D01*
X115551346Y-43282642D01*
X115553288Y-43287424D01*
X115553289Y-43287428D01*
X115619553Y-43450615D01*
X115638484Y-43497237D01*
X115759501Y-43694719D01*
X115800046Y-43741525D01*
X115871653Y-43824191D01*
X115901135Y-43888776D01*
X115891020Y-43959049D01*
X115844519Y-44012697D01*
X115820646Y-44024670D01*
X115761944Y-44046677D01*
X115746351Y-44055214D01*
X115644276Y-44131715D01*
X115631715Y-44144276D01*
X115555214Y-44246351D01*
X115546676Y-44261946D01*
X115501522Y-44382394D01*
X115497895Y-44397649D01*
X115492369Y-44448514D01*
X115492000Y-44455328D01*
X115492000Y-45127885D01*
X115496475Y-45143124D01*
X115497865Y-45144329D01*
X115505548Y-45146000D01*
X118289884Y-45146000D01*
X118305123Y-45141525D01*
X118306328Y-45140135D01*
X118307999Y-45132452D01*
X118307999Y-44455331D01*
X118307629Y-44448510D01*
X118302105Y-44397648D01*
X118298479Y-44382396D01*
X118253324Y-44261946D01*
X118244786Y-44246351D01*
X118168285Y-44144276D01*
X118155724Y-44131715D01*
X118053649Y-44055214D01*
X118038052Y-44046675D01*
X117979415Y-44024693D01*
X117922650Y-43982052D01*
X117897950Y-43915490D01*
X117913157Y-43846141D01*
X117934703Y-43817461D01*
X117972641Y-43779654D01*
X117976303Y-43776005D01*
X118111458Y-43587917D01*
X118118705Y-43573255D01*
X118211784Y-43384922D01*
X118211785Y-43384920D01*
X118214078Y-43380280D01*
X118281408Y-43158671D01*
X118311640Y-42929041D01*
X118313327Y-42860000D01*
X118297834Y-42671556D01*
X118294773Y-42634318D01*
X118294772Y-42634312D01*
X118294349Y-42629167D01*
X118260952Y-42496206D01*
X118239184Y-42409544D01*
X118239183Y-42409540D01*
X118237925Y-42404533D01*
X118235866Y-42399797D01*
X118147630Y-42196868D01*
X118147628Y-42196865D01*
X118145570Y-42192131D01*
X118019764Y-41997665D01*
X117863887Y-41826358D01*
X117859836Y-41823159D01*
X117859832Y-41823155D01*
X117754138Y-41739684D01*
X117745524Y-41732881D01*
X117704462Y-41674965D01*
X117701230Y-41604042D01*
X117736855Y-41542631D01*
X117800026Y-41510228D01*
X117823617Y-41508000D01*
X119866000Y-41508000D01*
X119934121Y-41528002D01*
X119980614Y-41581658D01*
X119992000Y-41634000D01*
X119992000Y-45898928D01*
X119971998Y-45967049D01*
X119918342Y-46013542D01*
X119848068Y-46023646D01*
X119839803Y-46022175D01*
X119701944Y-45992872D01*
X119701939Y-45992872D01*
X119695487Y-45991500D01*
X119504513Y-45991500D01*
X119498061Y-45992872D01*
X119498056Y-45992872D01*
X119411112Y-46011353D01*
X119317712Y-46031206D01*
X119311682Y-46033891D01*
X119311681Y-46033891D01*
X119149278Y-46106197D01*
X119149276Y-46106198D01*
X119143248Y-46108882D01*
X118988747Y-46221134D01*
X118984326Y-46226044D01*
X118984325Y-46226045D01*
X118871378Y-46351486D01*
X118860960Y-46363056D01*
X118815154Y-46442394D01*
X118770307Y-46520072D01*
X118765473Y-46528444D01*
X118706458Y-46710072D01*
X118705768Y-46716633D01*
X118705768Y-46716635D01*
X118703265Y-46740452D01*
X118676252Y-46806109D01*
X118618030Y-46846739D01*
X118547085Y-46849442D01*
X118526706Y-46842389D01*
X118437817Y-46802813D01*
X118437816Y-46802813D01*
X118431786Y-46800128D01*
X118304040Y-46772975D01*
X118241568Y-46739247D01*
X118207246Y-46677097D01*
X118211974Y-46606258D01*
X118229410Y-46574165D01*
X118244787Y-46553647D01*
X118253324Y-46538054D01*
X118298478Y-46417606D01*
X118302105Y-46402351D01*
X118307631Y-46351486D01*
X118308000Y-46344672D01*
X118308000Y-45672115D01*
X118303525Y-45656876D01*
X118302135Y-45655671D01*
X118294452Y-45654000D01*
X117172115Y-45654000D01*
X117156876Y-45658475D01*
X117155671Y-45659865D01*
X117154000Y-45667548D01*
X117154000Y-46789884D01*
X117158475Y-46805123D01*
X117159865Y-46806328D01*
X117167548Y-46807999D01*
X117419170Y-46807999D01*
X117487291Y-46828001D01*
X117533784Y-46881657D01*
X117543888Y-46951931D01*
X117512806Y-47018309D01*
X117468159Y-47067895D01*
X117410458Y-47131978D01*
X117314971Y-47297366D01*
X117255956Y-47478994D01*
X117255266Y-47485555D01*
X117255266Y-47485557D01*
X117240172Y-47629170D01*
X117213159Y-47694827D01*
X117154937Y-47735457D01*
X117114862Y-47742000D01*
X117072115Y-47742000D01*
X117056876Y-47746475D01*
X117055671Y-47747865D01*
X117054000Y-47755548D01*
X117054000Y-51839884D01*
X117058475Y-51855123D01*
X117059865Y-51856328D01*
X117067548Y-51857999D01*
X118044669Y-51857999D01*
X118051488Y-51857630D01*
X118101394Y-51852209D01*
X118171277Y-51864738D01*
X118223292Y-51913060D01*
X118241000Y-51977472D01*
X118241000Y-51992550D01*
X118220998Y-52060671D01*
X118204095Y-52081645D01*
X117866145Y-52419595D01*
X117803833Y-52453621D01*
X117777050Y-52456500D01*
X117541866Y-52456500D01*
X117479684Y-52463255D01*
X117343516Y-52514302D01*
X117272711Y-52519485D01*
X117255058Y-52514302D01*
X117127606Y-52466522D01*
X117112351Y-52462895D01*
X117061486Y-52457369D01*
X117054672Y-52457000D01*
X116786940Y-52457000D01*
X116718819Y-52436998D01*
X116672326Y-52383342D01*
X116661630Y-52317829D01*
X116662814Y-52306564D01*
X116663504Y-52300000D01*
X116652532Y-52195603D01*
X116644232Y-52116635D01*
X116644232Y-52116633D01*
X116643542Y-52110072D01*
X116584527Y-51928444D01*
X116562881Y-51890952D01*
X116546000Y-51827952D01*
X116546000Y-47760116D01*
X116541525Y-47744877D01*
X116540135Y-47743672D01*
X116532452Y-47742001D01*
X115555331Y-47742001D01*
X115548509Y-47742371D01*
X115498104Y-47747845D01*
X115428221Y-47735315D01*
X115376207Y-47686994D01*
X115358499Y-47622582D01*
X115358499Y-47525331D01*
X115358129Y-47518510D01*
X115352605Y-47467648D01*
X115348979Y-47452396D01*
X115303824Y-47331946D01*
X115295286Y-47316351D01*
X115218785Y-47214276D01*
X115206224Y-47201715D01*
X115104149Y-47125214D01*
X115088554Y-47116676D01*
X114968106Y-47071522D01*
X114952851Y-47067895D01*
X114901986Y-47062369D01*
X114895172Y-47062000D01*
X114360115Y-47062000D01*
X114344876Y-47066475D01*
X114343671Y-47067865D01*
X114342000Y-47075548D01*
X114342000Y-48023000D01*
X114321998Y-48091121D01*
X114268342Y-48137614D01*
X114216000Y-48149000D01*
X112903500Y-48149000D01*
X112835379Y-48128998D01*
X112788886Y-48075342D01*
X112777500Y-48023000D01*
X112777500Y-47922115D01*
X112773025Y-47906876D01*
X112771635Y-47905671D01*
X112763952Y-47904000D01*
X111872000Y-47904000D01*
X111803879Y-47883998D01*
X111757386Y-47830342D01*
X111746000Y-47778000D01*
X111746000Y-47522000D01*
X111766002Y-47453879D01*
X111819658Y-47407386D01*
X111872000Y-47396000D01*
X113147000Y-47396000D01*
X113215121Y-47416002D01*
X113261614Y-47469658D01*
X113273000Y-47522000D01*
X113273000Y-47622885D01*
X113277475Y-47638124D01*
X113278865Y-47639329D01*
X113286548Y-47641000D01*
X113815885Y-47641000D01*
X113831124Y-47636525D01*
X113832329Y-47635135D01*
X113834000Y-47627452D01*
X113834000Y-47080116D01*
X113829525Y-47064877D01*
X113828135Y-47063672D01*
X113820452Y-47062001D01*
X113809339Y-47062001D01*
X113741218Y-47041999D01*
X113694725Y-46988343D01*
X113684621Y-46918069D01*
X113714115Y-46853489D01*
X113735278Y-46834065D01*
X113743625Y-46828001D01*
X113774833Y-46805327D01*
X113805909Y-46782749D01*
X113805911Y-46782747D01*
X113811253Y-46778866D01*
X113902886Y-46677097D01*
X113934621Y-46641852D01*
X113934622Y-46641851D01*
X113939040Y-46636944D01*
X114034527Y-46471556D01*
X114075755Y-46344669D01*
X115492001Y-46344669D01*
X115492371Y-46351490D01*
X115497895Y-46402352D01*
X115501521Y-46417604D01*
X115546676Y-46538054D01*
X115555214Y-46553649D01*
X115631715Y-46655724D01*
X115644276Y-46668285D01*
X115746351Y-46744786D01*
X115761946Y-46753324D01*
X115882394Y-46798478D01*
X115897649Y-46802105D01*
X115948514Y-46807631D01*
X115955328Y-46808000D01*
X116627885Y-46808000D01*
X116643124Y-46803525D01*
X116644329Y-46802135D01*
X116646000Y-46794452D01*
X116646000Y-45672115D01*
X116641525Y-45656876D01*
X116640135Y-45655671D01*
X116632452Y-45654000D01*
X115510116Y-45654000D01*
X115494877Y-45658475D01*
X115493672Y-45659865D01*
X115492001Y-45667548D01*
X115492001Y-46344669D01*
X114075755Y-46344669D01*
X114093542Y-46289928D01*
X114099921Y-46229241D01*
X114112814Y-46106565D01*
X114113504Y-46100000D01*
X114099617Y-45967870D01*
X114094232Y-45916635D01*
X114094232Y-45916633D01*
X114093542Y-45910072D01*
X114034527Y-45728444D01*
X113939040Y-45563056D01*
X113822740Y-45433891D01*
X113815675Y-45426045D01*
X113815674Y-45426044D01*
X113811253Y-45421134D01*
X113656752Y-45308882D01*
X113650724Y-45306198D01*
X113650722Y-45306197D01*
X113488319Y-45233891D01*
X113488318Y-45233891D01*
X113482288Y-45231206D01*
X113378716Y-45209191D01*
X113316243Y-45175462D01*
X113281921Y-45113313D01*
X113286649Y-45042474D01*
X113328925Y-44985436D01*
X113360682Y-44967963D01*
X113373050Y-44963326D01*
X113388649Y-44954786D01*
X113490724Y-44878285D01*
X113503285Y-44865724D01*
X113579786Y-44763649D01*
X113588324Y-44748054D01*
X113633478Y-44627606D01*
X113637105Y-44612351D01*
X113642631Y-44561486D01*
X113643000Y-44554672D01*
X113643000Y-44272115D01*
X113638525Y-44256876D01*
X113637135Y-44255671D01*
X113629452Y-44254000D01*
X111175116Y-44254000D01*
X111159877Y-44258475D01*
X111158672Y-44259865D01*
X111157001Y-44267548D01*
X111157001Y-44554669D01*
X111157371Y-44561490D01*
X111162894Y-44612349D01*
X111167004Y-44629635D01*
X111163299Y-44700535D01*
X111121852Y-44758177D01*
X111088649Y-44776759D01*
X111036705Y-44796232D01*
X111036704Y-44796233D01*
X111028295Y-44799385D01*
X111021110Y-44804770D01*
X111021108Y-44804771D01*
X110982523Y-44833689D01*
X110916016Y-44858537D01*
X110846634Y-44843484D01*
X110817862Y-44821958D01*
X110603647Y-44607742D01*
X110596113Y-44599463D01*
X110592000Y-44592982D01*
X110542347Y-44546355D01*
X110539506Y-44543601D01*
X110519770Y-44523865D01*
X110516573Y-44521385D01*
X110507551Y-44513680D01*
X110481100Y-44488841D01*
X110475321Y-44483414D01*
X110468375Y-44479595D01*
X110468372Y-44479593D01*
X110457566Y-44473652D01*
X110441047Y-44462801D01*
X110431304Y-44455244D01*
X110431305Y-44455244D01*
X110425041Y-44450386D01*
X110419717Y-44448082D01*
X110371909Y-44396881D01*
X110358500Y-44340319D01*
X110358500Y-43289762D01*
X110378502Y-43221641D01*
X110432158Y-43175148D01*
X110502432Y-43165044D01*
X110516786Y-43168382D01*
X110517712Y-43168794D01*
X110524168Y-43170166D01*
X110524167Y-43170166D01*
X110698056Y-43207128D01*
X110698061Y-43207128D01*
X110704513Y-43208500D01*
X110895487Y-43208500D01*
X110901940Y-43207128D01*
X110901953Y-43207127D01*
X111031867Y-43179512D01*
X111102657Y-43184913D01*
X111159290Y-43227730D01*
X111183784Y-43294367D01*
X111176046Y-43346987D01*
X111166522Y-43372391D01*
X111162895Y-43387649D01*
X111157369Y-43438514D01*
X111157000Y-43445328D01*
X111157000Y-43727885D01*
X111161475Y-43743124D01*
X111162865Y-43744329D01*
X111170548Y-43746000D01*
X113624884Y-43746000D01*
X113640123Y-43741525D01*
X113641328Y-43740135D01*
X113642999Y-43732452D01*
X113642999Y-43445331D01*
X113642629Y-43438510D01*
X113637105Y-43387648D01*
X113633479Y-43372397D01*
X113585698Y-43244942D01*
X113580515Y-43174135D01*
X113585696Y-43156489D01*
X113636745Y-43020316D01*
X113643500Y-42958134D01*
X113643500Y-41841866D01*
X113636745Y-41779684D01*
X113633973Y-41772288D01*
X113633971Y-41772282D01*
X113598712Y-41678229D01*
X113593529Y-41607422D01*
X113627450Y-41545053D01*
X113689706Y-41510924D01*
X113716694Y-41508000D01*
X115977045Y-41508000D01*
X116045166Y-41528002D01*
G37*
%TD.AperFunction*%
%TA.AperFunction,Conductor*%
G36*
X95215033Y-46810392D02*
G01*
X95243757Y-46827435D01*
X95255548Y-46830000D01*
X95518477Y-46830000D01*
X95586598Y-46850002D01*
X95633091Y-46903658D01*
X95643195Y-46973932D01*
X95613701Y-47038512D01*
X95562709Y-47073982D01*
X95548295Y-47079385D01*
X95431739Y-47166739D01*
X95426358Y-47173919D01*
X95426357Y-47173920D01*
X95347180Y-47279565D01*
X95290320Y-47322080D01*
X95277358Y-47324415D01*
X95277499Y-47324896D01*
X95244877Y-47334475D01*
X95243672Y-47335865D01*
X95242001Y-47343548D01*
X95242001Y-47374669D01*
X95242371Y-47381490D01*
X95247895Y-47432352D01*
X95251521Y-47447604D01*
X95278482Y-47519522D01*
X95286500Y-47563752D01*
X95286500Y-49740324D01*
X95266498Y-49808445D01*
X95224641Y-49848776D01*
X95220023Y-49851507D01*
X95220019Y-49851510D01*
X95213193Y-49855547D01*
X95198029Y-49870711D01*
X95182996Y-49883551D01*
X95165643Y-49896159D01*
X95147851Y-49917666D01*
X95136198Y-49931752D01*
X95128208Y-49940532D01*
X95123629Y-49945111D01*
X95061317Y-49979137D01*
X94990502Y-49974072D01*
X94960852Y-49956480D01*
X94949452Y-49954000D01*
X93592000Y-49954000D01*
X93523879Y-49933998D01*
X93477386Y-49880342D01*
X93466000Y-49828000D01*
X93466000Y-49572000D01*
X93486002Y-49503879D01*
X93539658Y-49457386D01*
X93592000Y-49446000D01*
X94944884Y-49446000D01*
X94960123Y-49441525D01*
X94961328Y-49440135D01*
X94962999Y-49432452D01*
X94962999Y-49145331D01*
X94962629Y-49138510D01*
X94957105Y-49087648D01*
X94953479Y-49072397D01*
X94905698Y-48944942D01*
X94900515Y-48874135D01*
X94905696Y-48856489D01*
X94956745Y-48720316D01*
X94963500Y-48658134D01*
X94963500Y-47541866D01*
X94956745Y-47479684D01*
X94905615Y-47343295D01*
X94830765Y-47243423D01*
X94805917Y-47176917D01*
X94820970Y-47107534D01*
X94842496Y-47078763D01*
X95081906Y-46839353D01*
X95144218Y-46805327D01*
X95215033Y-46810392D01*
G37*
%TD.AperFunction*%
%TA.AperFunction,Conductor*%
G36*
X84085247Y-47519818D02*
G01*
X84211677Y-47576108D01*
X84211685Y-47576111D01*
X84217712Y-47578794D01*
X84311112Y-47598647D01*
X84398056Y-47617128D01*
X84398061Y-47617128D01*
X84404513Y-47618500D01*
X84595487Y-47618500D01*
X84601941Y-47617128D01*
X84601943Y-47617128D01*
X84608852Y-47615659D01*
X84621020Y-47613073D01*
X84678549Y-47614278D01*
X84687283Y-47616521D01*
X84687287Y-47616522D01*
X84694962Y-47618492D01*
X84715223Y-47618492D01*
X84734932Y-47620043D01*
X84754935Y-47623211D01*
X84762827Y-47622465D01*
X84768054Y-47621971D01*
X84798946Y-47619051D01*
X84810803Y-47618492D01*
X85831000Y-47618492D01*
X85899121Y-47638494D01*
X85945614Y-47692150D01*
X85957000Y-47744492D01*
X85957000Y-47827885D01*
X85961475Y-47843124D01*
X85962865Y-47844329D01*
X85970548Y-47846000D01*
X87328000Y-47846000D01*
X87396121Y-47866002D01*
X87442614Y-47919658D01*
X87454000Y-47972000D01*
X87454000Y-48228000D01*
X87433998Y-48296121D01*
X87380342Y-48342614D01*
X87328000Y-48354000D01*
X85975116Y-48354000D01*
X85959877Y-48358475D01*
X85958672Y-48359865D01*
X85957001Y-48367548D01*
X85957001Y-48654669D01*
X85957371Y-48661490D01*
X85962895Y-48712352D01*
X85966521Y-48727603D01*
X86014302Y-48855058D01*
X86019485Y-48925865D01*
X86014302Y-48943516D01*
X86013768Y-48944942D01*
X86008223Y-48959732D01*
X85965580Y-49016496D01*
X85899018Y-49041194D01*
X85890242Y-49041500D01*
X83713804Y-49041500D01*
X83645683Y-49021498D01*
X83599190Y-48967842D01*
X83589086Y-48897568D01*
X83618580Y-48832988D01*
X83646612Y-48810372D01*
X83646462Y-48810172D01*
X83652057Y-48805979D01*
X83653295Y-48804980D01*
X83653646Y-48804788D01*
X83755724Y-48728285D01*
X83768285Y-48715724D01*
X83844786Y-48613649D01*
X83853324Y-48598054D01*
X83898478Y-48477606D01*
X83902105Y-48462351D01*
X83907631Y-48411486D01*
X83908000Y-48404672D01*
X83907999Y-47634925D01*
X83928001Y-47566804D01*
X83981657Y-47520311D01*
X84051931Y-47510207D01*
X84085247Y-47519818D01*
G37*
%TD.AperFunction*%
%TA.AperFunction,Conductor*%
G36*
X105732689Y-48117147D02*
G01*
X105766679Y-48179478D01*
X105768854Y-48219362D01*
X105761496Y-48289369D01*
X105762186Y-48295934D01*
X105781458Y-48479297D01*
X105778861Y-48479570D01*
X105774358Y-48538717D01*
X105731552Y-48595357D01*
X105682703Y-48617392D01*
X105617712Y-48631206D01*
X105611682Y-48633891D01*
X105611681Y-48633891D01*
X105550362Y-48661192D01*
X105479995Y-48670626D01*
X105415698Y-48640519D01*
X105376530Y-48575229D01*
X105373479Y-48562396D01*
X105328323Y-48441944D01*
X105323700Y-48433500D01*
X105308530Y-48364143D01*
X105333265Y-48297595D01*
X105385564Y-48258331D01*
X105385425Y-48258077D01*
X105387186Y-48257113D01*
X105389991Y-48255007D01*
X105393293Y-48253769D01*
X105393296Y-48253767D01*
X105401705Y-48250615D01*
X105518261Y-48163261D01*
X105542718Y-48130628D01*
X105599577Y-48088113D01*
X105670395Y-48083087D01*
X105732689Y-48117147D01*
G37*
%TD.AperFunction*%
%TA.AperFunction,Conductor*%
G36*
X108585032Y-47643857D02*
G01*
X108641868Y-47686404D01*
X108666679Y-47752924D01*
X108667000Y-47761913D01*
X108667000Y-47827885D01*
X108671475Y-47843124D01*
X108672865Y-47844329D01*
X108680548Y-47846000D01*
X110028000Y-47846000D01*
X110096121Y-47866002D01*
X110142614Y-47919658D01*
X110154000Y-47972000D01*
X110154000Y-48228000D01*
X110133998Y-48296121D01*
X110080342Y-48342614D01*
X110028000Y-48354000D01*
X108685116Y-48354000D01*
X108638182Y-48367781D01*
X108567185Y-48367781D01*
X108551435Y-48361992D01*
X108488319Y-48333891D01*
X108488318Y-48333891D01*
X108482288Y-48331206D01*
X108388888Y-48311353D01*
X108301944Y-48292872D01*
X108301939Y-48292872D01*
X108295487Y-48291500D01*
X108104513Y-48291500D01*
X108098061Y-48292872D01*
X108098056Y-48292872D01*
X108011112Y-48311353D01*
X107917712Y-48331206D01*
X107911682Y-48333891D01*
X107911681Y-48333891D01*
X107811007Y-48378714D01*
X107740640Y-48388148D01*
X107679444Y-48360693D01*
X107673250Y-48355569D01*
X107664469Y-48347578D01*
X107617970Y-48301079D01*
X107583944Y-48238767D01*
X107581755Y-48225155D01*
X107581147Y-48219364D01*
X107568542Y-48099441D01*
X107527600Y-47973435D01*
X107525572Y-47902469D01*
X107562235Y-47841671D01*
X107625947Y-47810345D01*
X107647433Y-47808500D01*
X108148134Y-47808500D01*
X108210316Y-47801745D01*
X108346705Y-47750615D01*
X108463261Y-47663261D01*
X108465046Y-47665642D01*
X108514217Y-47638792D01*
X108585032Y-47643857D01*
G37*
%TD.AperFunction*%
%TD*%
M02*
