%TF.GenerationSoftware,KiCad,Pcbnew,(5.1.12-1-g0a0a2da680)-1*%
%TF.CreationDate,2021-11-30T19:19:06+01:00*%
%TF.ProjectId,SolarCharger,536f6c61-7243-4686-9172-6765722e6b69,rev?*%
%TF.SameCoordinates,Original*%
%TF.FileFunction,Legend,Bot*%
%TF.FilePolarity,Positive*%
%FSLAX46Y46*%
G04 Gerber Fmt 4.6, Leading zero omitted, Abs format (unit mm)*
G04 Created by KiCad (PCBNEW (5.1.12-1-g0a0a2da680)-1) date 2021-11-30 19:19:06*
%MOMM*%
%LPD*%
G01*
G04 APERTURE LIST*
%ADD10C,0.125000*%
%ADD11C,0.150000*%
%ADD12C,0.010000*%
%ADD13C,0.200000*%
G04 APERTURE END LIST*
D10*
X115267857Y-43403571D02*
X115160714Y-43439285D01*
X114982142Y-43439285D01*
X114910714Y-43403571D01*
X114875000Y-43367857D01*
X114839285Y-43296428D01*
X114839285Y-43225000D01*
X114875000Y-43153571D01*
X114910714Y-43117857D01*
X114982142Y-43082142D01*
X115125000Y-43046428D01*
X115196428Y-43010714D01*
X115232142Y-42975000D01*
X115267857Y-42903571D01*
X115267857Y-42832142D01*
X115232142Y-42760714D01*
X115196428Y-42725000D01*
X115125000Y-42689285D01*
X114946428Y-42689285D01*
X114839285Y-42725000D01*
X114410714Y-43439285D02*
X114482142Y-43403571D01*
X114517857Y-43367857D01*
X114553571Y-43296428D01*
X114553571Y-43082142D01*
X114517857Y-43010714D01*
X114482142Y-42975000D01*
X114410714Y-42939285D01*
X114303571Y-42939285D01*
X114232142Y-42975000D01*
X114196428Y-43010714D01*
X114160714Y-43082142D01*
X114160714Y-43296428D01*
X114196428Y-43367857D01*
X114232142Y-43403571D01*
X114303571Y-43439285D01*
X114410714Y-43439285D01*
X113732142Y-43439285D02*
X113803571Y-43403571D01*
X113839285Y-43332142D01*
X113839285Y-42689285D01*
X113125000Y-43439285D02*
X113125000Y-43046428D01*
X113160714Y-42975000D01*
X113232142Y-42939285D01*
X113375000Y-42939285D01*
X113446428Y-42975000D01*
X113125000Y-43403571D02*
X113196428Y-43439285D01*
X113375000Y-43439285D01*
X113446428Y-43403571D01*
X113482142Y-43332142D01*
X113482142Y-43260714D01*
X113446428Y-43189285D01*
X113375000Y-43153571D01*
X113196428Y-43153571D01*
X113125000Y-43117857D01*
X112767857Y-43439285D02*
X112767857Y-42939285D01*
X112767857Y-43082142D02*
X112732142Y-43010714D01*
X112696428Y-42975000D01*
X112625000Y-42939285D01*
X112553571Y-42939285D01*
X111875000Y-43367857D02*
X111910714Y-43403571D01*
X112017857Y-43439285D01*
X112089285Y-43439285D01*
X112196428Y-43403571D01*
X112267857Y-43332142D01*
X112303571Y-43260714D01*
X112339285Y-43117857D01*
X112339285Y-43010714D01*
X112303571Y-42867857D01*
X112267857Y-42796428D01*
X112196428Y-42725000D01*
X112089285Y-42689285D01*
X112017857Y-42689285D01*
X111910714Y-42725000D01*
X111875000Y-42760714D01*
X111553571Y-43439285D02*
X111553571Y-42689285D01*
X111232142Y-43439285D02*
X111232142Y-43046428D01*
X111267857Y-42975000D01*
X111339285Y-42939285D01*
X111446428Y-42939285D01*
X111517857Y-42975000D01*
X111553571Y-43010714D01*
X110553571Y-43439285D02*
X110553571Y-43046428D01*
X110589285Y-42975000D01*
X110660714Y-42939285D01*
X110803571Y-42939285D01*
X110875000Y-42975000D01*
X110553571Y-43403571D02*
X110625000Y-43439285D01*
X110803571Y-43439285D01*
X110875000Y-43403571D01*
X110910714Y-43332142D01*
X110910714Y-43260714D01*
X110875000Y-43189285D01*
X110803571Y-43153571D01*
X110625000Y-43153571D01*
X110553571Y-43117857D01*
X110196428Y-43439285D02*
X110196428Y-42939285D01*
X110196428Y-43082142D02*
X110160714Y-43010714D01*
X110125000Y-42975000D01*
X110053571Y-42939285D01*
X109982142Y-42939285D01*
X109410714Y-42939285D02*
X109410714Y-43546428D01*
X109446428Y-43617857D01*
X109482142Y-43653571D01*
X109553571Y-43689285D01*
X109660714Y-43689285D01*
X109732142Y-43653571D01*
X109410714Y-43403571D02*
X109482142Y-43439285D01*
X109625000Y-43439285D01*
X109696428Y-43403571D01*
X109732142Y-43367857D01*
X109767857Y-43296428D01*
X109767857Y-43082142D01*
X109732142Y-43010714D01*
X109696428Y-42975000D01*
X109625000Y-42939285D01*
X109482142Y-42939285D01*
X109410714Y-42975000D01*
X108767857Y-43403571D02*
X108839285Y-43439285D01*
X108982142Y-43439285D01*
X109053571Y-43403571D01*
X109089285Y-43332142D01*
X109089285Y-43046428D01*
X109053571Y-42975000D01*
X108982142Y-42939285D01*
X108839285Y-42939285D01*
X108767857Y-42975000D01*
X108732142Y-43046428D01*
X108732142Y-43117857D01*
X109089285Y-43189285D01*
X108410714Y-43439285D02*
X108410714Y-42939285D01*
X108410714Y-43082142D02*
X108375000Y-43010714D01*
X108339285Y-42975000D01*
X108267857Y-42939285D01*
X108196428Y-42939285D01*
X107375000Y-43439285D02*
X107375000Y-42939285D01*
X107375000Y-43082142D02*
X107339285Y-43010714D01*
X107303571Y-42975000D01*
X107232142Y-42939285D01*
X107160714Y-42939285D01*
X106625000Y-43403571D02*
X106696428Y-43439285D01*
X106839285Y-43439285D01*
X106910714Y-43403571D01*
X106946428Y-43332142D01*
X106946428Y-43046428D01*
X106910714Y-42975000D01*
X106839285Y-42939285D01*
X106696428Y-42939285D01*
X106625000Y-42975000D01*
X106589285Y-43046428D01*
X106589285Y-43117857D01*
X106946428Y-43189285D01*
X106339285Y-42939285D02*
X106160714Y-43439285D01*
X105982142Y-42939285D01*
X104982142Y-42689285D02*
X104910714Y-42689285D01*
X104839285Y-42725000D01*
X104803571Y-42760714D01*
X104767857Y-42832142D01*
X104732142Y-42975000D01*
X104732142Y-43153571D01*
X104767857Y-43296428D01*
X104803571Y-43367857D01*
X104839285Y-43403571D01*
X104910714Y-43439285D01*
X104982142Y-43439285D01*
X105053571Y-43403571D01*
X105089285Y-43367857D01*
X105125000Y-43296428D01*
X105160714Y-43153571D01*
X105160714Y-42975000D01*
X105125000Y-42832142D01*
X105089285Y-42760714D01*
X105053571Y-42725000D01*
X104982142Y-42689285D01*
X104410714Y-43367857D02*
X104375000Y-43403571D01*
X104410714Y-43439285D01*
X104446428Y-43403571D01*
X104410714Y-43367857D01*
X104410714Y-43439285D01*
X103660714Y-43439285D02*
X104089285Y-43439285D01*
X103875000Y-43439285D02*
X103875000Y-42689285D01*
X103946428Y-42796428D01*
X104017857Y-42867857D01*
X104089285Y-42903571D01*
X102767857Y-43153571D02*
X102196428Y-43153571D01*
X101303571Y-42760714D02*
X101267857Y-42725000D01*
X101196428Y-42689285D01*
X101017857Y-42689285D01*
X100946428Y-42725000D01*
X100910714Y-42760714D01*
X100875000Y-42832142D01*
X100875000Y-42903571D01*
X100910714Y-43010714D01*
X101339285Y-43439285D01*
X100875000Y-43439285D01*
X100410714Y-42689285D02*
X100339285Y-42689285D01*
X100267857Y-42725000D01*
X100232142Y-42760714D01*
X100196428Y-42832142D01*
X100160714Y-42975000D01*
X100160714Y-43153571D01*
X100196428Y-43296428D01*
X100232142Y-43367857D01*
X100267857Y-43403571D01*
X100339285Y-43439285D01*
X100410714Y-43439285D01*
X100482142Y-43403571D01*
X100517857Y-43367857D01*
X100553571Y-43296428D01*
X100589285Y-43153571D01*
X100589285Y-42975000D01*
X100553571Y-42832142D01*
X100517857Y-42760714D01*
X100482142Y-42725000D01*
X100410714Y-42689285D01*
X99875000Y-42760714D02*
X99839285Y-42725000D01*
X99767857Y-42689285D01*
X99589285Y-42689285D01*
X99517857Y-42725000D01*
X99482142Y-42760714D01*
X99446428Y-42832142D01*
X99446428Y-42903571D01*
X99482142Y-43010714D01*
X99910714Y-43439285D01*
X99446428Y-43439285D01*
X98732142Y-43439285D02*
X99160714Y-43439285D01*
X98946428Y-43439285D02*
X98946428Y-42689285D01*
X99017857Y-42796428D01*
X99089285Y-42867857D01*
X99160714Y-42903571D01*
X115207142Y-42239285D02*
X115207142Y-41489285D01*
X114885714Y-42239285D02*
X114885714Y-41846428D01*
X114921428Y-41775000D01*
X114992857Y-41739285D01*
X115100000Y-41739285D01*
X115171428Y-41775000D01*
X115207142Y-41810714D01*
X114635714Y-41739285D02*
X114350000Y-41739285D01*
X114528571Y-41489285D02*
X114528571Y-42132142D01*
X114492857Y-42203571D01*
X114421428Y-42239285D01*
X114350000Y-42239285D01*
X114207142Y-41739285D02*
X113921428Y-41739285D01*
X114100000Y-41489285D02*
X114100000Y-42132142D01*
X114064285Y-42203571D01*
X113992857Y-42239285D01*
X113921428Y-42239285D01*
X113671428Y-41739285D02*
X113671428Y-42489285D01*
X113671428Y-41775000D02*
X113600000Y-41739285D01*
X113457142Y-41739285D01*
X113385714Y-41775000D01*
X113350000Y-41810714D01*
X113314285Y-41882142D01*
X113314285Y-42096428D01*
X113350000Y-42167857D01*
X113385714Y-42203571D01*
X113457142Y-42239285D01*
X113600000Y-42239285D01*
X113671428Y-42203571D01*
X113028571Y-42203571D02*
X112957142Y-42239285D01*
X112814285Y-42239285D01*
X112742857Y-42203571D01*
X112707142Y-42132142D01*
X112707142Y-42096428D01*
X112742857Y-42025000D01*
X112814285Y-41989285D01*
X112921428Y-41989285D01*
X112992857Y-41953571D01*
X113028571Y-41882142D01*
X113028571Y-41846428D01*
X112992857Y-41775000D01*
X112921428Y-41739285D01*
X112814285Y-41739285D01*
X112742857Y-41775000D01*
X112385714Y-42167857D02*
X112350000Y-42203571D01*
X112385714Y-42239285D01*
X112421428Y-42203571D01*
X112385714Y-42167857D01*
X112385714Y-42239285D01*
X112385714Y-41775000D02*
X112350000Y-41810714D01*
X112385714Y-41846428D01*
X112421428Y-41810714D01*
X112385714Y-41775000D01*
X112385714Y-41846428D01*
X111492857Y-41453571D02*
X112135714Y-42417857D01*
X110707142Y-41453571D02*
X111350000Y-42417857D01*
X110457142Y-42239285D02*
X110457142Y-41739285D01*
X110457142Y-41810714D02*
X110421428Y-41775000D01*
X110350000Y-41739285D01*
X110242857Y-41739285D01*
X110171428Y-41775000D01*
X110135714Y-41846428D01*
X110135714Y-42239285D01*
X110135714Y-41846428D02*
X110100000Y-41775000D01*
X110028571Y-41739285D01*
X109921428Y-41739285D01*
X109850000Y-41775000D01*
X109814285Y-41846428D01*
X109814285Y-42239285D01*
X109135714Y-42239285D02*
X109135714Y-41846428D01*
X109171428Y-41775000D01*
X109242857Y-41739285D01*
X109385714Y-41739285D01*
X109457142Y-41775000D01*
X109135714Y-42203571D02*
X109207142Y-42239285D01*
X109385714Y-42239285D01*
X109457142Y-42203571D01*
X109492857Y-42132142D01*
X109492857Y-42060714D01*
X109457142Y-41989285D01*
X109385714Y-41953571D01*
X109207142Y-41953571D01*
X109135714Y-41917857D01*
X108778571Y-42239285D02*
X108778571Y-41489285D01*
X108707142Y-41953571D02*
X108492857Y-42239285D01*
X108492857Y-41739285D02*
X108778571Y-42025000D01*
X108171428Y-42239285D02*
X108171428Y-41739285D01*
X108171428Y-41489285D02*
X108207142Y-41525000D01*
X108171428Y-41560714D01*
X108135714Y-41525000D01*
X108171428Y-41489285D01*
X108171428Y-41560714D01*
X107814285Y-41739285D02*
X107814285Y-42239285D01*
X107814285Y-41810714D02*
X107778571Y-41775000D01*
X107707142Y-41739285D01*
X107600000Y-41739285D01*
X107528571Y-41775000D01*
X107492857Y-41846428D01*
X107492857Y-42239285D01*
X106814285Y-41739285D02*
X106814285Y-42346428D01*
X106850000Y-42417857D01*
X106885714Y-42453571D01*
X106957142Y-42489285D01*
X107064285Y-42489285D01*
X107135714Y-42453571D01*
X106814285Y-42203571D02*
X106885714Y-42239285D01*
X107028571Y-42239285D01*
X107100000Y-42203571D01*
X107135714Y-42167857D01*
X107171428Y-42096428D01*
X107171428Y-41882142D01*
X107135714Y-41810714D01*
X107100000Y-41775000D01*
X107028571Y-41739285D01*
X106885714Y-41739285D01*
X106814285Y-41775000D01*
X106135714Y-42239285D02*
X106135714Y-41489285D01*
X106135714Y-42203571D02*
X106207142Y-42239285D01*
X106350000Y-42239285D01*
X106421428Y-42203571D01*
X106457142Y-42167857D01*
X106492857Y-42096428D01*
X106492857Y-41882142D01*
X106457142Y-41810714D01*
X106421428Y-41775000D01*
X106350000Y-41739285D01*
X106207142Y-41739285D01*
X106135714Y-41775000D01*
X105492857Y-42203571D02*
X105564285Y-42239285D01*
X105707142Y-42239285D01*
X105778571Y-42203571D01*
X105814285Y-42132142D01*
X105814285Y-41846428D01*
X105778571Y-41775000D01*
X105707142Y-41739285D01*
X105564285Y-41739285D01*
X105492857Y-41775000D01*
X105457142Y-41846428D01*
X105457142Y-41917857D01*
X105814285Y-41989285D01*
X105207142Y-41739285D02*
X105028571Y-42239285D01*
X104850000Y-41739285D01*
X104564285Y-42239285D02*
X104564285Y-41739285D01*
X104564285Y-41489285D02*
X104600000Y-41525000D01*
X104564285Y-41560714D01*
X104528571Y-41525000D01*
X104564285Y-41489285D01*
X104564285Y-41560714D01*
X103885714Y-42203571D02*
X103957142Y-42239285D01*
X104100000Y-42239285D01*
X104171428Y-42203571D01*
X104207142Y-42167857D01*
X104242857Y-42096428D01*
X104242857Y-41882142D01*
X104207142Y-41810714D01*
X104171428Y-41775000D01*
X104100000Y-41739285D01*
X103957142Y-41739285D01*
X103885714Y-41775000D01*
X103278571Y-42203571D02*
X103350000Y-42239285D01*
X103492857Y-42239285D01*
X103564285Y-42203571D01*
X103600000Y-42132142D01*
X103600000Y-41846428D01*
X103564285Y-41775000D01*
X103492857Y-41739285D01*
X103350000Y-41739285D01*
X103278571Y-41775000D01*
X103242857Y-41846428D01*
X103242857Y-41917857D01*
X103600000Y-41989285D01*
X102957142Y-42203571D02*
X102885714Y-42239285D01*
X102742857Y-42239285D01*
X102671428Y-42203571D01*
X102635714Y-42132142D01*
X102635714Y-42096428D01*
X102671428Y-42025000D01*
X102742857Y-41989285D01*
X102850000Y-41989285D01*
X102921428Y-41953571D01*
X102957142Y-41882142D01*
X102957142Y-41846428D01*
X102921428Y-41775000D01*
X102850000Y-41739285D01*
X102742857Y-41739285D01*
X102671428Y-41775000D01*
X102314285Y-42167857D02*
X102278571Y-42203571D01*
X102314285Y-42239285D01*
X102350000Y-42203571D01*
X102314285Y-42167857D01*
X102314285Y-42239285D01*
X101635714Y-42203571D02*
X101707142Y-42239285D01*
X101850000Y-42239285D01*
X101921428Y-42203571D01*
X101957142Y-42167857D01*
X101992857Y-42096428D01*
X101992857Y-41882142D01*
X101957142Y-41810714D01*
X101921428Y-41775000D01*
X101850000Y-41739285D01*
X101707142Y-41739285D01*
X101635714Y-41775000D01*
X101207142Y-42239285D02*
X101278571Y-42203571D01*
X101314285Y-42167857D01*
X101350000Y-42096428D01*
X101350000Y-41882142D01*
X101314285Y-41810714D01*
X101278571Y-41775000D01*
X101207142Y-41739285D01*
X101100000Y-41739285D01*
X101028571Y-41775000D01*
X100992857Y-41810714D01*
X100957142Y-41882142D01*
X100957142Y-42096428D01*
X100992857Y-42167857D01*
X101028571Y-42203571D01*
X101100000Y-42239285D01*
X101207142Y-42239285D01*
X100635714Y-42239285D02*
X100635714Y-41739285D01*
X100635714Y-41810714D02*
X100600000Y-41775000D01*
X100528571Y-41739285D01*
X100421428Y-41739285D01*
X100350000Y-41775000D01*
X100314285Y-41846428D01*
X100314285Y-42239285D01*
X100314285Y-41846428D02*
X100278571Y-41775000D01*
X100207142Y-41739285D01*
X100100000Y-41739285D01*
X100028571Y-41775000D01*
X99992857Y-41846428D01*
X99992857Y-42239285D01*
X102450000Y-50739285D02*
X102450000Y-49989285D01*
X102021428Y-50739285D01*
X102021428Y-49989285D01*
X101771428Y-49989285D02*
X101342857Y-49989285D01*
X101557142Y-50739285D02*
X101557142Y-49989285D01*
X100664285Y-50667857D02*
X100700000Y-50703571D01*
X100807142Y-50739285D01*
X100878571Y-50739285D01*
X100985714Y-50703571D01*
X101057142Y-50632142D01*
X101092857Y-50560714D01*
X101128571Y-50417857D01*
X101128571Y-50310714D01*
X101092857Y-50167857D01*
X101057142Y-50096428D01*
X100985714Y-50025000D01*
X100878571Y-49989285D01*
X100807142Y-49989285D01*
X100700000Y-50025000D01*
X100664285Y-50060714D01*
X99378571Y-50739285D02*
X99807142Y-50739285D01*
X99592857Y-50739285D02*
X99592857Y-49989285D01*
X99664285Y-50096428D01*
X99735714Y-50167857D01*
X99807142Y-50203571D01*
X98914285Y-49989285D02*
X98842857Y-49989285D01*
X98771428Y-50025000D01*
X98735714Y-50060714D01*
X98700000Y-50132142D01*
X98664285Y-50275000D01*
X98664285Y-50453571D01*
X98700000Y-50596428D01*
X98735714Y-50667857D01*
X98771428Y-50703571D01*
X98842857Y-50739285D01*
X98914285Y-50739285D01*
X98985714Y-50703571D01*
X99021428Y-50667857D01*
X99057142Y-50596428D01*
X99092857Y-50453571D01*
X99092857Y-50275000D01*
X99057142Y-50132142D01*
X99021428Y-50060714D01*
X98985714Y-50025000D01*
X98914285Y-49989285D01*
X98342857Y-50739285D02*
X98342857Y-49989285D01*
X97914285Y-50739285D02*
X98235714Y-50310714D01*
X97914285Y-49989285D02*
X98342857Y-50417857D01*
X81532142Y-49689285D02*
X81282142Y-50439285D01*
X81032142Y-49689285D01*
X80782142Y-50439285D02*
X80782142Y-49939285D01*
X80782142Y-49689285D02*
X80817857Y-49725000D01*
X80782142Y-49760714D01*
X80746428Y-49725000D01*
X80782142Y-49689285D01*
X80782142Y-49760714D01*
X80425000Y-49939285D02*
X80425000Y-50439285D01*
X80425000Y-50010714D02*
X80389285Y-49975000D01*
X80317857Y-49939285D01*
X80210714Y-49939285D01*
X80139285Y-49975000D01*
X80103571Y-50046428D01*
X80103571Y-50439285D01*
X79746428Y-50153571D02*
X79175000Y-50153571D01*
X79460714Y-50439285D02*
X79460714Y-49867857D01*
X80971428Y-47225000D02*
X81042857Y-47189285D01*
X81150000Y-47189285D01*
X81257142Y-47225000D01*
X81328571Y-47296428D01*
X81364285Y-47367857D01*
X81400000Y-47510714D01*
X81400000Y-47617857D01*
X81364285Y-47760714D01*
X81328571Y-47832142D01*
X81257142Y-47903571D01*
X81150000Y-47939285D01*
X81078571Y-47939285D01*
X80971428Y-47903571D01*
X80935714Y-47867857D01*
X80935714Y-47617857D01*
X81078571Y-47617857D01*
X80614285Y-47939285D02*
X80614285Y-47189285D01*
X80185714Y-47939285D01*
X80185714Y-47189285D01*
X79828571Y-47939285D02*
X79828571Y-47189285D01*
X79650000Y-47189285D01*
X79542857Y-47225000D01*
X79471428Y-47296428D01*
X79435714Y-47367857D01*
X79400000Y-47510714D01*
X79400000Y-47617857D01*
X79435714Y-47760714D01*
X79471428Y-47832142D01*
X79542857Y-47903571D01*
X79650000Y-47939285D01*
X79828571Y-47939285D01*
X119671428Y-45125000D02*
X119742857Y-45089285D01*
X119850000Y-45089285D01*
X119957142Y-45125000D01*
X120028571Y-45196428D01*
X120064285Y-45267857D01*
X120100000Y-45410714D01*
X120100000Y-45517857D01*
X120064285Y-45660714D01*
X120028571Y-45732142D01*
X119957142Y-45803571D01*
X119850000Y-45839285D01*
X119778571Y-45839285D01*
X119671428Y-45803571D01*
X119635714Y-45767857D01*
X119635714Y-45517857D01*
X119778571Y-45517857D01*
X119314285Y-45839285D02*
X119314285Y-45089285D01*
X118885714Y-45839285D01*
X118885714Y-45089285D01*
X118528571Y-45839285D02*
X118528571Y-45089285D01*
X118350000Y-45089285D01*
X118242857Y-45125000D01*
X118171428Y-45196428D01*
X118135714Y-45267857D01*
X118100000Y-45410714D01*
X118100000Y-45517857D01*
X118135714Y-45660714D01*
X118171428Y-45732142D01*
X118242857Y-45803571D01*
X118350000Y-45839285D01*
X118528571Y-45839285D01*
D11*
X119190476Y-42452380D02*
X119666666Y-42452380D01*
X119714285Y-42928571D01*
X119666666Y-42880952D01*
X119571428Y-42833333D01*
X119333333Y-42833333D01*
X119238095Y-42880952D01*
X119190476Y-42928571D01*
X119142857Y-43023809D01*
X119142857Y-43261904D01*
X119190476Y-43357142D01*
X119238095Y-43404761D01*
X119333333Y-43452380D01*
X119571428Y-43452380D01*
X119666666Y-43404761D01*
X119714285Y-43357142D01*
X118857142Y-42452380D02*
X118523809Y-43452380D01*
X118190476Y-42452380D01*
D12*
%TO.C,REF\u002A\u002A*%
G36*
X108608759Y-53269184D02*
G01*
X108582247Y-53282282D01*
X108549553Y-53305106D01*
X108525725Y-53329996D01*
X108509406Y-53361249D01*
X108499240Y-53403166D01*
X108493872Y-53460044D01*
X108491944Y-53536184D01*
X108491831Y-53568917D01*
X108492161Y-53640656D01*
X108493527Y-53691927D01*
X108496500Y-53727404D01*
X108501649Y-53751763D01*
X108509543Y-53769680D01*
X108517757Y-53781902D01*
X108570187Y-53833905D01*
X108631930Y-53865184D01*
X108698536Y-53874592D01*
X108765558Y-53860980D01*
X108786792Y-53851354D01*
X108837624Y-53824859D01*
X108837624Y-54240052D01*
X108800525Y-54220868D01*
X108751643Y-54206025D01*
X108691561Y-54202222D01*
X108631564Y-54209243D01*
X108586256Y-54225013D01*
X108548675Y-54255047D01*
X108516564Y-54298024D01*
X108514150Y-54302436D01*
X108503967Y-54323221D01*
X108496530Y-54344170D01*
X108491411Y-54369548D01*
X108488181Y-54403618D01*
X108486413Y-54450641D01*
X108485677Y-54514882D01*
X108485544Y-54587176D01*
X108485544Y-54817822D01*
X108623861Y-54817822D01*
X108623861Y-54392533D01*
X108662549Y-54359979D01*
X108702738Y-54333940D01*
X108740797Y-54329205D01*
X108779066Y-54341389D01*
X108799462Y-54353320D01*
X108814642Y-54370313D01*
X108825438Y-54395995D01*
X108832683Y-54433991D01*
X108837208Y-54487926D01*
X108839844Y-54561425D01*
X108840772Y-54610347D01*
X108843911Y-54811535D01*
X108909926Y-54815336D01*
X108975940Y-54819136D01*
X108975940Y-53570650D01*
X108837624Y-53570650D01*
X108834097Y-53640254D01*
X108822215Y-53688569D01*
X108800020Y-53718631D01*
X108765559Y-53733471D01*
X108730742Y-53736436D01*
X108691329Y-53733028D01*
X108665171Y-53719617D01*
X108648814Y-53701896D01*
X108635937Y-53682835D01*
X108628272Y-53661601D01*
X108624861Y-53631849D01*
X108624749Y-53587236D01*
X108625897Y-53549880D01*
X108628532Y-53493604D01*
X108632456Y-53456658D01*
X108639063Y-53433223D01*
X108649749Y-53417480D01*
X108659833Y-53408380D01*
X108701970Y-53388537D01*
X108751840Y-53385332D01*
X108780476Y-53392168D01*
X108808828Y-53416464D01*
X108827609Y-53463728D01*
X108836712Y-53533624D01*
X108837624Y-53570650D01*
X108975940Y-53570650D01*
X108975940Y-53258614D01*
X108906782Y-53258614D01*
X108865260Y-53260256D01*
X108843838Y-53266087D01*
X108837626Y-53277461D01*
X108837624Y-53277798D01*
X108834742Y-53288938D01*
X108822030Y-53287673D01*
X108796757Y-53275433D01*
X108737869Y-53256707D01*
X108671615Y-53254739D01*
X108608759Y-53269184D01*
G37*
X108608759Y-53269184D02*
X108582247Y-53282282D01*
X108549553Y-53305106D01*
X108525725Y-53329996D01*
X108509406Y-53361249D01*
X108499240Y-53403166D01*
X108493872Y-53460044D01*
X108491944Y-53536184D01*
X108491831Y-53568917D01*
X108492161Y-53640656D01*
X108493527Y-53691927D01*
X108496500Y-53727404D01*
X108501649Y-53751763D01*
X108509543Y-53769680D01*
X108517757Y-53781902D01*
X108570187Y-53833905D01*
X108631930Y-53865184D01*
X108698536Y-53874592D01*
X108765558Y-53860980D01*
X108786792Y-53851354D01*
X108837624Y-53824859D01*
X108837624Y-54240052D01*
X108800525Y-54220868D01*
X108751643Y-54206025D01*
X108691561Y-54202222D01*
X108631564Y-54209243D01*
X108586256Y-54225013D01*
X108548675Y-54255047D01*
X108516564Y-54298024D01*
X108514150Y-54302436D01*
X108503967Y-54323221D01*
X108496530Y-54344170D01*
X108491411Y-54369548D01*
X108488181Y-54403618D01*
X108486413Y-54450641D01*
X108485677Y-54514882D01*
X108485544Y-54587176D01*
X108485544Y-54817822D01*
X108623861Y-54817822D01*
X108623861Y-54392533D01*
X108662549Y-54359979D01*
X108702738Y-54333940D01*
X108740797Y-54329205D01*
X108779066Y-54341389D01*
X108799462Y-54353320D01*
X108814642Y-54370313D01*
X108825438Y-54395995D01*
X108832683Y-54433991D01*
X108837208Y-54487926D01*
X108839844Y-54561425D01*
X108840772Y-54610347D01*
X108843911Y-54811535D01*
X108909926Y-54815336D01*
X108975940Y-54819136D01*
X108975940Y-53570650D01*
X108837624Y-53570650D01*
X108834097Y-53640254D01*
X108822215Y-53688569D01*
X108800020Y-53718631D01*
X108765559Y-53733471D01*
X108730742Y-53736436D01*
X108691329Y-53733028D01*
X108665171Y-53719617D01*
X108648814Y-53701896D01*
X108635937Y-53682835D01*
X108628272Y-53661601D01*
X108624861Y-53631849D01*
X108624749Y-53587236D01*
X108625897Y-53549880D01*
X108628532Y-53493604D01*
X108632456Y-53456658D01*
X108639063Y-53433223D01*
X108649749Y-53417480D01*
X108659833Y-53408380D01*
X108701970Y-53388537D01*
X108751840Y-53385332D01*
X108780476Y-53392168D01*
X108808828Y-53416464D01*
X108827609Y-53463728D01*
X108836712Y-53533624D01*
X108837624Y-53570650D01*
X108975940Y-53570650D01*
X108975940Y-53258614D01*
X108906782Y-53258614D01*
X108865260Y-53260256D01*
X108843838Y-53266087D01*
X108837626Y-53277461D01*
X108837624Y-53277798D01*
X108834742Y-53288938D01*
X108822030Y-53287673D01*
X108796757Y-53275433D01*
X108737869Y-53256707D01*
X108671615Y-53254739D01*
X108608759Y-53269184D01*
G36*
X108084210Y-54206555D02*
G01*
X108025055Y-54222339D01*
X107980023Y-54250948D01*
X107948246Y-54288419D01*
X107938366Y-54304411D01*
X107931073Y-54321163D01*
X107925974Y-54342592D01*
X107922679Y-54372616D01*
X107920797Y-54415154D01*
X107919937Y-54474122D01*
X107919707Y-54553440D01*
X107919703Y-54574484D01*
X107919703Y-54817822D01*
X107980059Y-54817822D01*
X108018557Y-54815126D01*
X108047023Y-54808295D01*
X108054155Y-54804083D01*
X108073652Y-54796813D01*
X108093566Y-54804083D01*
X108126353Y-54813160D01*
X108173978Y-54816813D01*
X108226764Y-54815228D01*
X108275036Y-54808589D01*
X108303218Y-54800072D01*
X108357753Y-54765063D01*
X108391835Y-54716479D01*
X108407157Y-54651882D01*
X108407299Y-54650223D01*
X108405955Y-54621566D01*
X108284356Y-54621566D01*
X108273726Y-54654161D01*
X108256410Y-54672505D01*
X108221652Y-54686379D01*
X108175773Y-54691917D01*
X108128988Y-54689191D01*
X108091514Y-54678274D01*
X108081015Y-54671269D01*
X108062668Y-54638904D01*
X108058020Y-54602111D01*
X108058020Y-54553763D01*
X108127582Y-54553763D01*
X108193667Y-54558850D01*
X108243764Y-54573263D01*
X108274929Y-54595729D01*
X108284356Y-54621566D01*
X108405955Y-54621566D01*
X108403987Y-54579647D01*
X108380710Y-54523845D01*
X108336948Y-54481647D01*
X108330899Y-54477808D01*
X108304907Y-54465309D01*
X108272735Y-54457740D01*
X108227760Y-54454061D01*
X108174331Y-54453216D01*
X108058020Y-54453169D01*
X108058020Y-54404411D01*
X108062953Y-54366581D01*
X108075543Y-54341236D01*
X108077017Y-54339887D01*
X108105034Y-54328800D01*
X108147326Y-54324503D01*
X108194064Y-54326615D01*
X108235418Y-54334756D01*
X108259957Y-54346965D01*
X108273253Y-54356746D01*
X108287294Y-54358613D01*
X108306671Y-54350600D01*
X108335976Y-54330739D01*
X108379803Y-54297063D01*
X108383825Y-54293909D01*
X108381764Y-54282236D01*
X108364568Y-54262822D01*
X108338433Y-54241248D01*
X108309552Y-54223096D01*
X108300478Y-54218809D01*
X108267380Y-54210256D01*
X108218880Y-54204155D01*
X108164695Y-54201708D01*
X108162161Y-54201703D01*
X108084210Y-54206555D01*
G37*
X108084210Y-54206555D02*
X108025055Y-54222339D01*
X107980023Y-54250948D01*
X107948246Y-54288419D01*
X107938366Y-54304411D01*
X107931073Y-54321163D01*
X107925974Y-54342592D01*
X107922679Y-54372616D01*
X107920797Y-54415154D01*
X107919937Y-54474122D01*
X107919707Y-54553440D01*
X107919703Y-54574484D01*
X107919703Y-54817822D01*
X107980059Y-54817822D01*
X108018557Y-54815126D01*
X108047023Y-54808295D01*
X108054155Y-54804083D01*
X108073652Y-54796813D01*
X108093566Y-54804083D01*
X108126353Y-54813160D01*
X108173978Y-54816813D01*
X108226764Y-54815228D01*
X108275036Y-54808589D01*
X108303218Y-54800072D01*
X108357753Y-54765063D01*
X108391835Y-54716479D01*
X108407157Y-54651882D01*
X108407299Y-54650223D01*
X108405955Y-54621566D01*
X108284356Y-54621566D01*
X108273726Y-54654161D01*
X108256410Y-54672505D01*
X108221652Y-54686379D01*
X108175773Y-54691917D01*
X108128988Y-54689191D01*
X108091514Y-54678274D01*
X108081015Y-54671269D01*
X108062668Y-54638904D01*
X108058020Y-54602111D01*
X108058020Y-54553763D01*
X108127582Y-54553763D01*
X108193667Y-54558850D01*
X108243764Y-54573263D01*
X108274929Y-54595729D01*
X108284356Y-54621566D01*
X108405955Y-54621566D01*
X108403987Y-54579647D01*
X108380710Y-54523845D01*
X108336948Y-54481647D01*
X108330899Y-54477808D01*
X108304907Y-54465309D01*
X108272735Y-54457740D01*
X108227760Y-54454061D01*
X108174331Y-54453216D01*
X108058020Y-54453169D01*
X108058020Y-54404411D01*
X108062953Y-54366581D01*
X108075543Y-54341236D01*
X108077017Y-54339887D01*
X108105034Y-54328800D01*
X108147326Y-54324503D01*
X108194064Y-54326615D01*
X108235418Y-54334756D01*
X108259957Y-54346965D01*
X108273253Y-54356746D01*
X108287294Y-54358613D01*
X108306671Y-54350600D01*
X108335976Y-54330739D01*
X108379803Y-54297063D01*
X108383825Y-54293909D01*
X108381764Y-54282236D01*
X108364568Y-54262822D01*
X108338433Y-54241248D01*
X108309552Y-54223096D01*
X108300478Y-54218809D01*
X108267380Y-54210256D01*
X108218880Y-54204155D01*
X108164695Y-54201708D01*
X108162161Y-54201703D01*
X108084210Y-54206555D01*
G36*
X107693356Y-54203020D02*
G01*
X107674539Y-54208660D01*
X107668473Y-54221053D01*
X107668218Y-54226647D01*
X107667129Y-54242230D01*
X107659632Y-54244676D01*
X107639381Y-54233993D01*
X107627351Y-54226694D01*
X107589400Y-54211063D01*
X107544072Y-54203334D01*
X107496544Y-54202740D01*
X107451995Y-54208513D01*
X107415602Y-54219884D01*
X107392543Y-54236088D01*
X107387996Y-54256355D01*
X107390291Y-54261843D01*
X107407020Y-54284626D01*
X107432963Y-54312647D01*
X107437655Y-54317177D01*
X107462383Y-54338005D01*
X107483718Y-54344735D01*
X107513555Y-54340038D01*
X107525508Y-54336917D01*
X107562705Y-54329421D01*
X107588859Y-54332792D01*
X107610946Y-54344681D01*
X107631178Y-54360635D01*
X107646079Y-54380700D01*
X107656434Y-54408702D01*
X107663029Y-54448467D01*
X107666649Y-54503823D01*
X107668078Y-54578594D01*
X107668218Y-54623740D01*
X107668218Y-54817822D01*
X107793960Y-54817822D01*
X107793960Y-54201683D01*
X107731089Y-54201683D01*
X107693356Y-54203020D01*
G37*
X107693356Y-54203020D02*
X107674539Y-54208660D01*
X107668473Y-54221053D01*
X107668218Y-54226647D01*
X107667129Y-54242230D01*
X107659632Y-54244676D01*
X107639381Y-54233993D01*
X107627351Y-54226694D01*
X107589400Y-54211063D01*
X107544072Y-54203334D01*
X107496544Y-54202740D01*
X107451995Y-54208513D01*
X107415602Y-54219884D01*
X107392543Y-54236088D01*
X107387996Y-54256355D01*
X107390291Y-54261843D01*
X107407020Y-54284626D01*
X107432963Y-54312647D01*
X107437655Y-54317177D01*
X107462383Y-54338005D01*
X107483718Y-54344735D01*
X107513555Y-54340038D01*
X107525508Y-54336917D01*
X107562705Y-54329421D01*
X107588859Y-54332792D01*
X107610946Y-54344681D01*
X107631178Y-54360635D01*
X107646079Y-54380700D01*
X107656434Y-54408702D01*
X107663029Y-54448467D01*
X107666649Y-54503823D01*
X107668078Y-54578594D01*
X107668218Y-54623740D01*
X107668218Y-54817822D01*
X107793960Y-54817822D01*
X107793960Y-54201683D01*
X107731089Y-54201683D01*
X107693356Y-54203020D01*
G36*
X106901188Y-54817822D02*
G01*
X106970346Y-54817822D01*
X107010488Y-54816645D01*
X107031394Y-54811772D01*
X107038922Y-54801186D01*
X107039505Y-54794029D01*
X107040774Y-54779676D01*
X107048779Y-54776923D01*
X107069815Y-54785771D01*
X107086173Y-54794029D01*
X107148977Y-54813597D01*
X107217248Y-54814729D01*
X107272752Y-54800135D01*
X107324438Y-54764877D01*
X107363838Y-54712835D01*
X107385413Y-54651450D01*
X107385962Y-54648018D01*
X107389167Y-54610571D01*
X107390761Y-54556813D01*
X107390633Y-54516155D01*
X107253279Y-54516155D01*
X107250097Y-54570194D01*
X107242859Y-54614735D01*
X107233060Y-54639888D01*
X107195989Y-54674260D01*
X107151974Y-54686582D01*
X107106584Y-54676618D01*
X107067797Y-54646895D01*
X107053108Y-54626905D01*
X107044519Y-54603050D01*
X107040496Y-54568230D01*
X107039505Y-54515930D01*
X107041278Y-54464139D01*
X107045963Y-54418634D01*
X107052603Y-54388181D01*
X107053710Y-54385452D01*
X107080491Y-54353000D01*
X107119579Y-54335183D01*
X107163315Y-54332306D01*
X107204038Y-54344674D01*
X107234087Y-54372593D01*
X107237204Y-54378148D01*
X107246961Y-54412022D01*
X107252277Y-54460728D01*
X107253279Y-54516155D01*
X107390633Y-54516155D01*
X107390568Y-54495540D01*
X107389664Y-54462563D01*
X107383514Y-54380981D01*
X107370733Y-54319730D01*
X107349471Y-54274449D01*
X107317878Y-54240779D01*
X107287207Y-54221014D01*
X107244354Y-54207120D01*
X107191056Y-54202354D01*
X107136480Y-54206236D01*
X107089792Y-54218282D01*
X107065124Y-54232693D01*
X107039505Y-54255878D01*
X107039505Y-53962773D01*
X106901188Y-53962773D01*
X106901188Y-54817822D01*
G37*
X106901188Y-54817822D02*
X106970346Y-54817822D01*
X107010488Y-54816645D01*
X107031394Y-54811772D01*
X107038922Y-54801186D01*
X107039505Y-54794029D01*
X107040774Y-54779676D01*
X107048779Y-54776923D01*
X107069815Y-54785771D01*
X107086173Y-54794029D01*
X107148977Y-54813597D01*
X107217248Y-54814729D01*
X107272752Y-54800135D01*
X107324438Y-54764877D01*
X107363838Y-54712835D01*
X107385413Y-54651450D01*
X107385962Y-54648018D01*
X107389167Y-54610571D01*
X107390761Y-54556813D01*
X107390633Y-54516155D01*
X107253279Y-54516155D01*
X107250097Y-54570194D01*
X107242859Y-54614735D01*
X107233060Y-54639888D01*
X107195989Y-54674260D01*
X107151974Y-54686582D01*
X107106584Y-54676618D01*
X107067797Y-54646895D01*
X107053108Y-54626905D01*
X107044519Y-54603050D01*
X107040496Y-54568230D01*
X107039505Y-54515930D01*
X107041278Y-54464139D01*
X107045963Y-54418634D01*
X107052603Y-54388181D01*
X107053710Y-54385452D01*
X107080491Y-54353000D01*
X107119579Y-54335183D01*
X107163315Y-54332306D01*
X107204038Y-54344674D01*
X107234087Y-54372593D01*
X107237204Y-54378148D01*
X107246961Y-54412022D01*
X107252277Y-54460728D01*
X107253279Y-54516155D01*
X107390633Y-54516155D01*
X107390568Y-54495540D01*
X107389664Y-54462563D01*
X107383514Y-54380981D01*
X107370733Y-54319730D01*
X107349471Y-54274449D01*
X107317878Y-54240779D01*
X107287207Y-54221014D01*
X107244354Y-54207120D01*
X107191056Y-54202354D01*
X107136480Y-54206236D01*
X107089792Y-54218282D01*
X107065124Y-54232693D01*
X107039505Y-54255878D01*
X107039505Y-53962773D01*
X106901188Y-53962773D01*
X106901188Y-54817822D01*
G36*
X106418476Y-54204237D02*
G01*
X106368745Y-54207971D01*
X106238709Y-54597773D01*
X106218322Y-54528614D01*
X106206054Y-54485874D01*
X106189915Y-54428115D01*
X106172488Y-54364625D01*
X106163274Y-54330570D01*
X106128612Y-54201683D01*
X105985609Y-54201683D01*
X106028354Y-54336857D01*
X106049404Y-54403342D01*
X106074833Y-54483539D01*
X106101390Y-54567193D01*
X106125098Y-54641782D01*
X106179098Y-54811535D01*
X106237402Y-54815328D01*
X106295705Y-54819122D01*
X106327321Y-54714734D01*
X106346818Y-54649889D01*
X106368096Y-54578400D01*
X106386692Y-54515263D01*
X106387426Y-54512750D01*
X106401316Y-54469969D01*
X106413571Y-54440779D01*
X106422154Y-54429741D01*
X106423918Y-54431018D01*
X106430109Y-54448130D01*
X106441872Y-54484787D01*
X106457775Y-54536378D01*
X106476386Y-54598294D01*
X106486457Y-54632352D01*
X106540993Y-54817822D01*
X106656736Y-54817822D01*
X106749263Y-54525471D01*
X106775256Y-54443462D01*
X106798934Y-54368987D01*
X106819180Y-54305544D01*
X106834874Y-54256632D01*
X106844898Y-54225749D01*
X106847945Y-54216726D01*
X106845533Y-54207487D01*
X106826592Y-54203441D01*
X106787177Y-54203846D01*
X106781007Y-54204152D01*
X106707914Y-54207971D01*
X106660043Y-54384010D01*
X106642447Y-54448211D01*
X106626723Y-54504649D01*
X106614254Y-54548422D01*
X106606426Y-54574630D01*
X106604980Y-54578903D01*
X106598986Y-54573990D01*
X106586899Y-54548532D01*
X106570107Y-54505997D01*
X106549997Y-54449850D01*
X106532997Y-54399130D01*
X106468206Y-54200504D01*
X106418476Y-54204237D01*
G37*
X106418476Y-54204237D02*
X106368745Y-54207971D01*
X106238709Y-54597773D01*
X106218322Y-54528614D01*
X106206054Y-54485874D01*
X106189915Y-54428115D01*
X106172488Y-54364625D01*
X106163274Y-54330570D01*
X106128612Y-54201683D01*
X105985609Y-54201683D01*
X106028354Y-54336857D01*
X106049404Y-54403342D01*
X106074833Y-54483539D01*
X106101390Y-54567193D01*
X106125098Y-54641782D01*
X106179098Y-54811535D01*
X106237402Y-54815328D01*
X106295705Y-54819122D01*
X106327321Y-54714734D01*
X106346818Y-54649889D01*
X106368096Y-54578400D01*
X106386692Y-54515263D01*
X106387426Y-54512750D01*
X106401316Y-54469969D01*
X106413571Y-54440779D01*
X106422154Y-54429741D01*
X106423918Y-54431018D01*
X106430109Y-54448130D01*
X106441872Y-54484787D01*
X106457775Y-54536378D01*
X106476386Y-54598294D01*
X106486457Y-54632352D01*
X106540993Y-54817822D01*
X106656736Y-54817822D01*
X106749263Y-54525471D01*
X106775256Y-54443462D01*
X106798934Y-54368987D01*
X106819180Y-54305544D01*
X106834874Y-54256632D01*
X106844898Y-54225749D01*
X106847945Y-54216726D01*
X106845533Y-54207487D01*
X106826592Y-54203441D01*
X106787177Y-54203846D01*
X106781007Y-54204152D01*
X106707914Y-54207971D01*
X106660043Y-54384010D01*
X106642447Y-54448211D01*
X106626723Y-54504649D01*
X106614254Y-54548422D01*
X106606426Y-54574630D01*
X106604980Y-54578903D01*
X106598986Y-54573990D01*
X106586899Y-54548532D01*
X106570107Y-54505997D01*
X106549997Y-54449850D01*
X106532997Y-54399130D01*
X106468206Y-54200504D01*
X106418476Y-54204237D01*
G36*
X105661589Y-54205417D02*
G01*
X105608589Y-54218290D01*
X105593269Y-54225110D01*
X105563572Y-54242974D01*
X105540780Y-54263093D01*
X105523917Y-54288962D01*
X105512002Y-54324073D01*
X105504058Y-54371920D01*
X105499106Y-54435996D01*
X105496169Y-54519794D01*
X105495053Y-54575768D01*
X105490948Y-54817822D01*
X105561068Y-54817822D01*
X105603607Y-54816038D01*
X105625524Y-54809942D01*
X105631188Y-54799706D01*
X105634179Y-54788637D01*
X105647549Y-54790754D01*
X105665767Y-54799629D01*
X105711376Y-54813233D01*
X105769993Y-54816899D01*
X105831646Y-54810903D01*
X105886362Y-54795521D01*
X105891270Y-54793386D01*
X105941277Y-54758255D01*
X105974244Y-54709419D01*
X105989413Y-54652333D01*
X105988254Y-54631824D01*
X105864492Y-54631824D01*
X105853587Y-54659425D01*
X105821255Y-54679204D01*
X105769090Y-54689819D01*
X105741213Y-54691228D01*
X105694753Y-54687620D01*
X105663871Y-54673597D01*
X105656336Y-54666931D01*
X105635924Y-54630666D01*
X105631188Y-54597773D01*
X105631188Y-54553763D01*
X105692487Y-54553763D01*
X105763744Y-54557395D01*
X105813724Y-54568818D01*
X105845304Y-54588824D01*
X105852374Y-54597743D01*
X105864492Y-54631824D01*
X105988254Y-54631824D01*
X105986029Y-54592456D01*
X105963337Y-54535244D01*
X105932376Y-54496580D01*
X105913624Y-54479864D01*
X105895267Y-54468878D01*
X105871381Y-54462180D01*
X105836043Y-54458326D01*
X105783331Y-54455873D01*
X105762423Y-54455168D01*
X105631188Y-54450879D01*
X105631380Y-54411158D01*
X105636463Y-54369405D01*
X105654838Y-54344158D01*
X105691961Y-54328030D01*
X105692957Y-54327742D01*
X105745590Y-54321400D01*
X105797094Y-54329684D01*
X105835370Y-54349827D01*
X105850728Y-54359773D01*
X105867270Y-54358397D01*
X105892725Y-54343987D01*
X105907672Y-54333817D01*
X105936909Y-54312088D01*
X105955020Y-54295800D01*
X105957926Y-54291137D01*
X105945960Y-54267005D01*
X105910604Y-54238185D01*
X105895247Y-54228461D01*
X105851099Y-54211714D01*
X105791602Y-54202227D01*
X105725513Y-54200095D01*
X105661589Y-54205417D01*
G37*
X105661589Y-54205417D02*
X105608589Y-54218290D01*
X105593269Y-54225110D01*
X105563572Y-54242974D01*
X105540780Y-54263093D01*
X105523917Y-54288962D01*
X105512002Y-54324073D01*
X105504058Y-54371920D01*
X105499106Y-54435996D01*
X105496169Y-54519794D01*
X105495053Y-54575768D01*
X105490948Y-54817822D01*
X105561068Y-54817822D01*
X105603607Y-54816038D01*
X105625524Y-54809942D01*
X105631188Y-54799706D01*
X105634179Y-54788637D01*
X105647549Y-54790754D01*
X105665767Y-54799629D01*
X105711376Y-54813233D01*
X105769993Y-54816899D01*
X105831646Y-54810903D01*
X105886362Y-54795521D01*
X105891270Y-54793386D01*
X105941277Y-54758255D01*
X105974244Y-54709419D01*
X105989413Y-54652333D01*
X105988254Y-54631824D01*
X105864492Y-54631824D01*
X105853587Y-54659425D01*
X105821255Y-54679204D01*
X105769090Y-54689819D01*
X105741213Y-54691228D01*
X105694753Y-54687620D01*
X105663871Y-54673597D01*
X105656336Y-54666931D01*
X105635924Y-54630666D01*
X105631188Y-54597773D01*
X105631188Y-54553763D01*
X105692487Y-54553763D01*
X105763744Y-54557395D01*
X105813724Y-54568818D01*
X105845304Y-54588824D01*
X105852374Y-54597743D01*
X105864492Y-54631824D01*
X105988254Y-54631824D01*
X105986029Y-54592456D01*
X105963337Y-54535244D01*
X105932376Y-54496580D01*
X105913624Y-54479864D01*
X105895267Y-54468878D01*
X105871381Y-54462180D01*
X105836043Y-54458326D01*
X105783331Y-54455873D01*
X105762423Y-54455168D01*
X105631188Y-54450879D01*
X105631380Y-54411158D01*
X105636463Y-54369405D01*
X105654838Y-54344158D01*
X105691961Y-54328030D01*
X105692957Y-54327742D01*
X105745590Y-54321400D01*
X105797094Y-54329684D01*
X105835370Y-54349827D01*
X105850728Y-54359773D01*
X105867270Y-54358397D01*
X105892725Y-54343987D01*
X105907672Y-54333817D01*
X105936909Y-54312088D01*
X105955020Y-54295800D01*
X105957926Y-54291137D01*
X105945960Y-54267005D01*
X105910604Y-54238185D01*
X105895247Y-54228461D01*
X105851099Y-54211714D01*
X105791602Y-54202227D01*
X105725513Y-54200095D01*
X105661589Y-54205417D01*
G36*
X105064745Y-54201486D02*
G01*
X105016405Y-54211015D01*
X104988886Y-54225125D01*
X104959936Y-54248568D01*
X105001124Y-54300571D01*
X105026518Y-54332064D01*
X105043762Y-54347428D01*
X105060898Y-54349776D01*
X105085973Y-54342217D01*
X105097743Y-54337941D01*
X105145730Y-54331631D01*
X105189676Y-54345156D01*
X105221940Y-54375710D01*
X105227181Y-54385452D01*
X105232888Y-54411258D01*
X105237294Y-54458817D01*
X105240189Y-54524758D01*
X105241369Y-54605710D01*
X105241386Y-54617226D01*
X105241386Y-54817822D01*
X105379703Y-54817822D01*
X105379703Y-54201683D01*
X105310544Y-54201683D01*
X105270667Y-54202725D01*
X105249893Y-54207358D01*
X105242211Y-54217849D01*
X105241386Y-54227745D01*
X105241386Y-54253806D01*
X105208255Y-54227745D01*
X105170265Y-54209965D01*
X105119230Y-54201174D01*
X105064745Y-54201486D01*
G37*
X105064745Y-54201486D02*
X105016405Y-54211015D01*
X104988886Y-54225125D01*
X104959936Y-54248568D01*
X105001124Y-54300571D01*
X105026518Y-54332064D01*
X105043762Y-54347428D01*
X105060898Y-54349776D01*
X105085973Y-54342217D01*
X105097743Y-54337941D01*
X105145730Y-54331631D01*
X105189676Y-54345156D01*
X105221940Y-54375710D01*
X105227181Y-54385452D01*
X105232888Y-54411258D01*
X105237294Y-54458817D01*
X105240189Y-54524758D01*
X105241369Y-54605710D01*
X105241386Y-54617226D01*
X105241386Y-54817822D01*
X105379703Y-54817822D01*
X105379703Y-54201683D01*
X105310544Y-54201683D01*
X105270667Y-54202725D01*
X105249893Y-54207358D01*
X105242211Y-54217849D01*
X105241386Y-54227745D01*
X105241386Y-54253806D01*
X105208255Y-54227745D01*
X105170265Y-54209965D01*
X105119230Y-54201174D01*
X105064745Y-54201486D01*
G36*
X104667419Y-54204970D02*
G01*
X104607315Y-54220597D01*
X104556979Y-54252848D01*
X104532607Y-54276940D01*
X104492655Y-54333895D01*
X104469758Y-54399965D01*
X104461892Y-54481182D01*
X104461852Y-54487748D01*
X104461782Y-54553763D01*
X104841736Y-54553763D01*
X104833637Y-54588342D01*
X104819013Y-54619659D01*
X104793419Y-54652291D01*
X104788065Y-54657500D01*
X104742057Y-54685694D01*
X104689590Y-54690475D01*
X104629197Y-54671926D01*
X104618960Y-54666931D01*
X104587561Y-54651745D01*
X104566530Y-54643094D01*
X104562861Y-54642293D01*
X104550052Y-54650063D01*
X104525622Y-54669072D01*
X104513221Y-54679460D01*
X104487524Y-54703321D01*
X104479085Y-54719077D01*
X104484942Y-54733571D01*
X104488072Y-54737534D01*
X104509275Y-54754879D01*
X104544262Y-54775959D01*
X104568663Y-54788265D01*
X104637928Y-54809946D01*
X104714612Y-54816971D01*
X104787235Y-54808647D01*
X104807574Y-54802686D01*
X104870524Y-54768952D01*
X104917185Y-54717045D01*
X104947827Y-54646459D01*
X104962718Y-54556692D01*
X104964353Y-54509753D01*
X104959579Y-54441413D01*
X104839010Y-54441413D01*
X104827348Y-54446465D01*
X104796002Y-54450429D01*
X104750429Y-54452768D01*
X104719554Y-54453169D01*
X104664019Y-54452783D01*
X104628967Y-54450975D01*
X104609738Y-54446773D01*
X104601670Y-54439203D01*
X104600099Y-54428218D01*
X104610879Y-54394381D01*
X104638020Y-54360940D01*
X104673723Y-54335272D01*
X104709440Y-54324772D01*
X104757952Y-54334086D01*
X104799947Y-54361013D01*
X104829064Y-54399827D01*
X104839010Y-54441413D01*
X104959579Y-54441413D01*
X104957401Y-54410236D01*
X104935945Y-54330949D01*
X104899530Y-54271263D01*
X104847703Y-54230549D01*
X104780010Y-54208179D01*
X104743338Y-54203871D01*
X104667419Y-54204970D01*
G37*
X104667419Y-54204970D02*
X104607315Y-54220597D01*
X104556979Y-54252848D01*
X104532607Y-54276940D01*
X104492655Y-54333895D01*
X104469758Y-54399965D01*
X104461892Y-54481182D01*
X104461852Y-54487748D01*
X104461782Y-54553763D01*
X104841736Y-54553763D01*
X104833637Y-54588342D01*
X104819013Y-54619659D01*
X104793419Y-54652291D01*
X104788065Y-54657500D01*
X104742057Y-54685694D01*
X104689590Y-54690475D01*
X104629197Y-54671926D01*
X104618960Y-54666931D01*
X104587561Y-54651745D01*
X104566530Y-54643094D01*
X104562861Y-54642293D01*
X104550052Y-54650063D01*
X104525622Y-54669072D01*
X104513221Y-54679460D01*
X104487524Y-54703321D01*
X104479085Y-54719077D01*
X104484942Y-54733571D01*
X104488072Y-54737534D01*
X104509275Y-54754879D01*
X104544262Y-54775959D01*
X104568663Y-54788265D01*
X104637928Y-54809946D01*
X104714612Y-54816971D01*
X104787235Y-54808647D01*
X104807574Y-54802686D01*
X104870524Y-54768952D01*
X104917185Y-54717045D01*
X104947827Y-54646459D01*
X104962718Y-54556692D01*
X104964353Y-54509753D01*
X104959579Y-54441413D01*
X104839010Y-54441413D01*
X104827348Y-54446465D01*
X104796002Y-54450429D01*
X104750429Y-54452768D01*
X104719554Y-54453169D01*
X104664019Y-54452783D01*
X104628967Y-54450975D01*
X104609738Y-54446773D01*
X104601670Y-54439203D01*
X104600099Y-54428218D01*
X104610879Y-54394381D01*
X104638020Y-54360940D01*
X104673723Y-54335272D01*
X104709440Y-54324772D01*
X104757952Y-54334086D01*
X104799947Y-54361013D01*
X104829064Y-54399827D01*
X104839010Y-54441413D01*
X104959579Y-54441413D01*
X104957401Y-54410236D01*
X104935945Y-54330949D01*
X104899530Y-54271263D01*
X104847703Y-54230549D01*
X104780010Y-54208179D01*
X104743338Y-54203871D01*
X104667419Y-54204970D01*
G36*
X109238261Y-53265148D02*
G01*
X109172479Y-53294231D01*
X109122540Y-53342793D01*
X109088374Y-53410908D01*
X109069907Y-53498651D01*
X109068583Y-53512351D01*
X109067546Y-53608939D01*
X109080993Y-53693602D01*
X109108108Y-53762221D01*
X109122627Y-53784294D01*
X109173201Y-53831011D01*
X109237609Y-53861268D01*
X109309666Y-53873824D01*
X109383185Y-53867439D01*
X109439072Y-53847772D01*
X109487132Y-53814629D01*
X109526412Y-53771175D01*
X109527092Y-53770158D01*
X109543044Y-53743338D01*
X109553410Y-53716368D01*
X109559688Y-53682332D01*
X109563373Y-53634310D01*
X109564997Y-53594931D01*
X109565672Y-53559219D01*
X109439955Y-53559219D01*
X109438726Y-53594770D01*
X109434266Y-53642094D01*
X109426397Y-53672465D01*
X109412207Y-53694072D01*
X109398917Y-53706694D01*
X109351802Y-53733122D01*
X109302505Y-53736653D01*
X109256593Y-53717639D01*
X109233638Y-53696331D01*
X109217096Y-53674859D01*
X109207421Y-53654313D01*
X109203174Y-53627574D01*
X109202920Y-53587523D01*
X109204228Y-53550638D01*
X109207043Y-53497947D01*
X109211505Y-53463772D01*
X109219548Y-53441480D01*
X109233103Y-53424442D01*
X109243845Y-53414703D01*
X109288777Y-53389123D01*
X109337249Y-53387847D01*
X109377894Y-53402999D01*
X109412567Y-53434642D01*
X109433224Y-53486620D01*
X109439955Y-53559219D01*
X109565672Y-53559219D01*
X109566479Y-53516621D01*
X109563948Y-53458056D01*
X109556362Y-53414007D01*
X109542681Y-53379248D01*
X109521865Y-53348551D01*
X109514147Y-53339436D01*
X109465889Y-53294021D01*
X109414128Y-53267493D01*
X109350828Y-53256379D01*
X109319961Y-53255471D01*
X109238261Y-53265148D01*
G37*
X109238261Y-53265148D02*
X109172479Y-53294231D01*
X109122540Y-53342793D01*
X109088374Y-53410908D01*
X109069907Y-53498651D01*
X109068583Y-53512351D01*
X109067546Y-53608939D01*
X109080993Y-53693602D01*
X109108108Y-53762221D01*
X109122627Y-53784294D01*
X109173201Y-53831011D01*
X109237609Y-53861268D01*
X109309666Y-53873824D01*
X109383185Y-53867439D01*
X109439072Y-53847772D01*
X109487132Y-53814629D01*
X109526412Y-53771175D01*
X109527092Y-53770158D01*
X109543044Y-53743338D01*
X109553410Y-53716368D01*
X109559688Y-53682332D01*
X109563373Y-53634310D01*
X109564997Y-53594931D01*
X109565672Y-53559219D01*
X109439955Y-53559219D01*
X109438726Y-53594770D01*
X109434266Y-53642094D01*
X109426397Y-53672465D01*
X109412207Y-53694072D01*
X109398917Y-53706694D01*
X109351802Y-53733122D01*
X109302505Y-53736653D01*
X109256593Y-53717639D01*
X109233638Y-53696331D01*
X109217096Y-53674859D01*
X109207421Y-53654313D01*
X109203174Y-53627574D01*
X109202920Y-53587523D01*
X109204228Y-53550638D01*
X109207043Y-53497947D01*
X109211505Y-53463772D01*
X109219548Y-53441480D01*
X109233103Y-53424442D01*
X109243845Y-53414703D01*
X109288777Y-53389123D01*
X109337249Y-53387847D01*
X109377894Y-53402999D01*
X109412567Y-53434642D01*
X109433224Y-53486620D01*
X109439955Y-53559219D01*
X109565672Y-53559219D01*
X109566479Y-53516621D01*
X109563948Y-53458056D01*
X109556362Y-53414007D01*
X109542681Y-53379248D01*
X109521865Y-53348551D01*
X109514147Y-53339436D01*
X109465889Y-53294021D01*
X109414128Y-53267493D01*
X109350828Y-53256379D01*
X109319961Y-53255471D01*
X109238261Y-53265148D01*
G36*
X108056699Y-53272614D02*
G01*
X108044168Y-53278514D01*
X108000799Y-53310283D01*
X107959790Y-53356646D01*
X107929168Y-53407696D01*
X107920459Y-53431166D01*
X107912512Y-53473091D01*
X107907774Y-53523757D01*
X107907199Y-53544679D01*
X107907129Y-53610693D01*
X108287083Y-53610693D01*
X108278983Y-53645273D01*
X108259104Y-53686170D01*
X108224347Y-53721514D01*
X108182998Y-53744282D01*
X108156649Y-53749010D01*
X108120916Y-53743273D01*
X108078282Y-53728882D01*
X108063799Y-53722262D01*
X108010240Y-53695513D01*
X107964533Y-53730376D01*
X107938158Y-53753955D01*
X107924124Y-53773417D01*
X107923414Y-53779129D01*
X107935951Y-53792973D01*
X107963428Y-53814012D01*
X107988366Y-53830425D01*
X108055664Y-53859930D01*
X108131110Y-53873284D01*
X108205888Y-53869812D01*
X108265495Y-53851663D01*
X108326941Y-53812784D01*
X108370608Y-53761595D01*
X108397926Y-53695367D01*
X108410322Y-53611371D01*
X108411421Y-53572936D01*
X108407022Y-53484861D01*
X108406482Y-53482299D01*
X108280582Y-53482299D01*
X108277115Y-53490558D01*
X108262863Y-53495113D01*
X108233470Y-53497065D01*
X108184575Y-53497517D01*
X108165748Y-53497525D01*
X108108467Y-53496843D01*
X108072141Y-53494364D01*
X108052604Y-53489443D01*
X108045690Y-53481434D01*
X108045445Y-53478862D01*
X108053336Y-53458423D01*
X108073085Y-53429789D01*
X108081575Y-53419763D01*
X108113094Y-53391408D01*
X108145949Y-53380259D01*
X108163651Y-53379327D01*
X108211539Y-53390981D01*
X108251699Y-53422285D01*
X108277173Y-53467752D01*
X108277625Y-53469233D01*
X108280582Y-53482299D01*
X108406482Y-53482299D01*
X108392392Y-53415510D01*
X108366038Y-53360025D01*
X108333807Y-53320639D01*
X108274217Y-53277931D01*
X108204168Y-53255109D01*
X108129661Y-53253046D01*
X108056699Y-53272614D01*
G37*
X108056699Y-53272614D02*
X108044168Y-53278514D01*
X108000799Y-53310283D01*
X107959790Y-53356646D01*
X107929168Y-53407696D01*
X107920459Y-53431166D01*
X107912512Y-53473091D01*
X107907774Y-53523757D01*
X107907199Y-53544679D01*
X107907129Y-53610693D01*
X108287083Y-53610693D01*
X108278983Y-53645273D01*
X108259104Y-53686170D01*
X108224347Y-53721514D01*
X108182998Y-53744282D01*
X108156649Y-53749010D01*
X108120916Y-53743273D01*
X108078282Y-53728882D01*
X108063799Y-53722262D01*
X108010240Y-53695513D01*
X107964533Y-53730376D01*
X107938158Y-53753955D01*
X107924124Y-53773417D01*
X107923414Y-53779129D01*
X107935951Y-53792973D01*
X107963428Y-53814012D01*
X107988366Y-53830425D01*
X108055664Y-53859930D01*
X108131110Y-53873284D01*
X108205888Y-53869812D01*
X108265495Y-53851663D01*
X108326941Y-53812784D01*
X108370608Y-53761595D01*
X108397926Y-53695367D01*
X108410322Y-53611371D01*
X108411421Y-53572936D01*
X108407022Y-53484861D01*
X108406482Y-53482299D01*
X108280582Y-53482299D01*
X108277115Y-53490558D01*
X108262863Y-53495113D01*
X108233470Y-53497065D01*
X108184575Y-53497517D01*
X108165748Y-53497525D01*
X108108467Y-53496843D01*
X108072141Y-53494364D01*
X108052604Y-53489443D01*
X108045690Y-53481434D01*
X108045445Y-53478862D01*
X108053336Y-53458423D01*
X108073085Y-53429789D01*
X108081575Y-53419763D01*
X108113094Y-53391408D01*
X108145949Y-53380259D01*
X108163651Y-53379327D01*
X108211539Y-53390981D01*
X108251699Y-53422285D01*
X108277173Y-53467752D01*
X108277625Y-53469233D01*
X108280582Y-53482299D01*
X108406482Y-53482299D01*
X108392392Y-53415510D01*
X108366038Y-53360025D01*
X108333807Y-53320639D01*
X108274217Y-53277931D01*
X108204168Y-53255109D01*
X108129661Y-53253046D01*
X108056699Y-53272614D01*
G36*
X106685983Y-53256452D02*
G01*
X106638366Y-53265482D01*
X106588966Y-53284370D01*
X106583688Y-53286777D01*
X106546226Y-53306476D01*
X106520283Y-53324781D01*
X106511897Y-53336508D01*
X106519883Y-53355632D01*
X106539280Y-53383850D01*
X106547890Y-53394384D01*
X106583372Y-53435847D01*
X106629115Y-53408858D01*
X106672650Y-53390878D01*
X106722950Y-53381267D01*
X106771188Y-53380660D01*
X106808533Y-53389691D01*
X106817495Y-53395327D01*
X106834563Y-53421171D01*
X106836637Y-53450941D01*
X106823866Y-53474197D01*
X106816312Y-53478708D01*
X106793675Y-53484309D01*
X106753885Y-53490892D01*
X106704834Y-53497183D01*
X106695785Y-53498170D01*
X106617004Y-53511798D01*
X106559864Y-53534946D01*
X106521970Y-53569752D01*
X106500921Y-53618354D01*
X106494365Y-53677718D01*
X106503423Y-53745198D01*
X106532836Y-53798188D01*
X106582722Y-53836783D01*
X106653200Y-53861081D01*
X106731435Y-53870667D01*
X106795234Y-53870552D01*
X106846984Y-53861845D01*
X106882327Y-53849825D01*
X106926983Y-53828880D01*
X106968253Y-53804574D01*
X106982921Y-53793876D01*
X107020643Y-53763084D01*
X106975148Y-53717049D01*
X106929653Y-53671013D01*
X106877928Y-53705243D01*
X106826048Y-53730952D01*
X106770649Y-53744399D01*
X106717395Y-53745818D01*
X106671951Y-53735443D01*
X106639984Y-53713507D01*
X106629662Y-53694998D01*
X106631211Y-53665314D01*
X106656860Y-53642615D01*
X106706540Y-53626940D01*
X106760969Y-53619695D01*
X106844736Y-53605873D01*
X106906967Y-53579796D01*
X106948493Y-53540699D01*
X106970147Y-53487820D01*
X106973147Y-53425126D01*
X106958329Y-53359642D01*
X106924546Y-53310144D01*
X106871495Y-53276408D01*
X106798874Y-53258207D01*
X106745072Y-53254639D01*
X106685983Y-53256452D01*
G37*
X106685983Y-53256452D02*
X106638366Y-53265482D01*
X106588966Y-53284370D01*
X106583688Y-53286777D01*
X106546226Y-53306476D01*
X106520283Y-53324781D01*
X106511897Y-53336508D01*
X106519883Y-53355632D01*
X106539280Y-53383850D01*
X106547890Y-53394384D01*
X106583372Y-53435847D01*
X106629115Y-53408858D01*
X106672650Y-53390878D01*
X106722950Y-53381267D01*
X106771188Y-53380660D01*
X106808533Y-53389691D01*
X106817495Y-53395327D01*
X106834563Y-53421171D01*
X106836637Y-53450941D01*
X106823866Y-53474197D01*
X106816312Y-53478708D01*
X106793675Y-53484309D01*
X106753885Y-53490892D01*
X106704834Y-53497183D01*
X106695785Y-53498170D01*
X106617004Y-53511798D01*
X106559864Y-53534946D01*
X106521970Y-53569752D01*
X106500921Y-53618354D01*
X106494365Y-53677718D01*
X106503423Y-53745198D01*
X106532836Y-53798188D01*
X106582722Y-53836783D01*
X106653200Y-53861081D01*
X106731435Y-53870667D01*
X106795234Y-53870552D01*
X106846984Y-53861845D01*
X106882327Y-53849825D01*
X106926983Y-53828880D01*
X106968253Y-53804574D01*
X106982921Y-53793876D01*
X107020643Y-53763084D01*
X106975148Y-53717049D01*
X106929653Y-53671013D01*
X106877928Y-53705243D01*
X106826048Y-53730952D01*
X106770649Y-53744399D01*
X106717395Y-53745818D01*
X106671951Y-53735443D01*
X106639984Y-53713507D01*
X106629662Y-53694998D01*
X106631211Y-53665314D01*
X106656860Y-53642615D01*
X106706540Y-53626940D01*
X106760969Y-53619695D01*
X106844736Y-53605873D01*
X106906967Y-53579796D01*
X106948493Y-53540699D01*
X106970147Y-53487820D01*
X106973147Y-53425126D01*
X106958329Y-53359642D01*
X106924546Y-53310144D01*
X106871495Y-53276408D01*
X106798874Y-53258207D01*
X106745072Y-53254639D01*
X106685983Y-53256452D01*
G36*
X106089238Y-53266055D02*
G01*
X106025637Y-53300692D01*
X105975877Y-53355372D01*
X105952432Y-53399842D01*
X105942366Y-53439121D01*
X105935844Y-53495116D01*
X105933049Y-53559621D01*
X105934164Y-53624429D01*
X105939374Y-53681334D01*
X105945459Y-53711727D01*
X105965986Y-53753306D01*
X106001537Y-53797468D01*
X106044381Y-53836087D01*
X106086789Y-53861034D01*
X106087823Y-53861430D01*
X106140447Y-53872331D01*
X106202812Y-53872601D01*
X106262076Y-53862676D01*
X106284960Y-53854722D01*
X106343898Y-53821300D01*
X106386110Y-53777511D01*
X106413844Y-53719538D01*
X106429349Y-53643565D01*
X106432857Y-53603771D01*
X106432410Y-53553766D01*
X106297624Y-53553766D01*
X106293083Y-53626732D01*
X106280014Y-53682334D01*
X106259244Y-53717861D01*
X106244448Y-53728020D01*
X106206536Y-53735104D01*
X106161473Y-53733007D01*
X106122513Y-53722812D01*
X106112296Y-53717204D01*
X106085341Y-53684538D01*
X106067549Y-53634545D01*
X106059976Y-53573705D01*
X106063675Y-53508497D01*
X106071943Y-53469253D01*
X106095680Y-53423805D01*
X106133151Y-53395396D01*
X106178280Y-53385573D01*
X106224989Y-53395887D01*
X106260868Y-53421112D01*
X106279723Y-53441925D01*
X106290728Y-53462439D01*
X106295974Y-53490203D01*
X106297551Y-53532762D01*
X106297624Y-53553766D01*
X106432410Y-53553766D01*
X106431906Y-53497580D01*
X106414612Y-53410501D01*
X106380971Y-53342530D01*
X106330982Y-53293664D01*
X106264644Y-53263899D01*
X106250399Y-53260448D01*
X106164790Y-53252345D01*
X106089238Y-53266055D01*
G37*
X106089238Y-53266055D02*
X106025637Y-53300692D01*
X105975877Y-53355372D01*
X105952432Y-53399842D01*
X105942366Y-53439121D01*
X105935844Y-53495116D01*
X105933049Y-53559621D01*
X105934164Y-53624429D01*
X105939374Y-53681334D01*
X105945459Y-53711727D01*
X105965986Y-53753306D01*
X106001537Y-53797468D01*
X106044381Y-53836087D01*
X106086789Y-53861034D01*
X106087823Y-53861430D01*
X106140447Y-53872331D01*
X106202812Y-53872601D01*
X106262076Y-53862676D01*
X106284960Y-53854722D01*
X106343898Y-53821300D01*
X106386110Y-53777511D01*
X106413844Y-53719538D01*
X106429349Y-53643565D01*
X106432857Y-53603771D01*
X106432410Y-53553766D01*
X106297624Y-53553766D01*
X106293083Y-53626732D01*
X106280014Y-53682334D01*
X106259244Y-53717861D01*
X106244448Y-53728020D01*
X106206536Y-53735104D01*
X106161473Y-53733007D01*
X106122513Y-53722812D01*
X106112296Y-53717204D01*
X106085341Y-53684538D01*
X106067549Y-53634545D01*
X106059976Y-53573705D01*
X106063675Y-53508497D01*
X106071943Y-53469253D01*
X106095680Y-53423805D01*
X106133151Y-53395396D01*
X106178280Y-53385573D01*
X106224989Y-53395887D01*
X106260868Y-53421112D01*
X106279723Y-53441925D01*
X106290728Y-53462439D01*
X106295974Y-53490203D01*
X106297551Y-53532762D01*
X106297624Y-53553766D01*
X106432410Y-53553766D01*
X106431906Y-53497580D01*
X106414612Y-53410501D01*
X106380971Y-53342530D01*
X106330982Y-53293664D01*
X106264644Y-53263899D01*
X106250399Y-53260448D01*
X106164790Y-53252345D01*
X106089238Y-53266055D01*
G36*
X105706633Y-53454342D02*
G01*
X105705445Y-53546563D01*
X105701103Y-53616610D01*
X105692442Y-53667381D01*
X105678296Y-53701772D01*
X105657500Y-53722679D01*
X105628890Y-53733000D01*
X105593465Y-53735636D01*
X105556364Y-53732682D01*
X105528182Y-53721889D01*
X105507757Y-53700360D01*
X105493921Y-53665199D01*
X105485509Y-53613510D01*
X105481357Y-53542394D01*
X105480297Y-53454342D01*
X105480297Y-53258614D01*
X105341980Y-53258614D01*
X105341980Y-53862179D01*
X105411138Y-53862179D01*
X105452830Y-53860489D01*
X105474299Y-53854556D01*
X105480297Y-53843293D01*
X105483909Y-53833261D01*
X105498286Y-53835383D01*
X105527264Y-53849580D01*
X105593681Y-53871480D01*
X105664125Y-53869928D01*
X105731623Y-53846147D01*
X105763767Y-53827362D01*
X105788285Y-53807022D01*
X105806196Y-53781573D01*
X105818521Y-53747458D01*
X105826277Y-53701121D01*
X105830484Y-53639007D01*
X105832160Y-53557561D01*
X105832376Y-53494578D01*
X105832376Y-53258614D01*
X105706633Y-53258614D01*
X105706633Y-53454342D01*
G37*
X105706633Y-53454342D02*
X105705445Y-53546563D01*
X105701103Y-53616610D01*
X105692442Y-53667381D01*
X105678296Y-53701772D01*
X105657500Y-53722679D01*
X105628890Y-53733000D01*
X105593465Y-53735636D01*
X105556364Y-53732682D01*
X105528182Y-53721889D01*
X105507757Y-53700360D01*
X105493921Y-53665199D01*
X105485509Y-53613510D01*
X105481357Y-53542394D01*
X105480297Y-53454342D01*
X105480297Y-53258614D01*
X105341980Y-53258614D01*
X105341980Y-53862179D01*
X105411138Y-53862179D01*
X105452830Y-53860489D01*
X105474299Y-53854556D01*
X105480297Y-53843293D01*
X105483909Y-53833261D01*
X105498286Y-53835383D01*
X105527264Y-53849580D01*
X105593681Y-53871480D01*
X105664125Y-53869928D01*
X105731623Y-53846147D01*
X105763767Y-53827362D01*
X105788285Y-53807022D01*
X105806196Y-53781573D01*
X105818521Y-53747458D01*
X105826277Y-53701121D01*
X105830484Y-53639007D01*
X105832160Y-53557561D01*
X105832376Y-53494578D01*
X105832376Y-53258614D01*
X105706633Y-53258614D01*
X105706633Y-53454342D01*
G36*
X104482774Y-53263880D02*
G01*
X104409920Y-53294830D01*
X104386973Y-53309895D01*
X104357646Y-53333048D01*
X104339236Y-53351253D01*
X104336039Y-53357183D01*
X104345065Y-53370340D01*
X104368163Y-53392667D01*
X104386656Y-53408250D01*
X104437272Y-53448926D01*
X104477240Y-53415295D01*
X104508126Y-53393584D01*
X104538241Y-53386090D01*
X104572708Y-53387920D01*
X104627439Y-53401528D01*
X104665114Y-53429772D01*
X104688009Y-53475433D01*
X104698403Y-53541289D01*
X104698405Y-53541331D01*
X104697506Y-53614939D01*
X104683537Y-53668946D01*
X104655672Y-53705716D01*
X104636675Y-53718168D01*
X104586224Y-53733673D01*
X104532337Y-53733683D01*
X104485454Y-53718638D01*
X104474356Y-53711287D01*
X104446524Y-53692511D01*
X104424764Y-53689434D01*
X104401296Y-53703409D01*
X104375351Y-53728510D01*
X104334284Y-53770880D01*
X104379879Y-53808464D01*
X104450326Y-53850882D01*
X104529767Y-53871785D01*
X104612785Y-53870272D01*
X104667306Y-53856411D01*
X104731030Y-53822135D01*
X104781995Y-53768212D01*
X104805149Y-53730149D01*
X104823901Y-53675536D01*
X104833285Y-53606369D01*
X104833357Y-53531407D01*
X104824176Y-53459409D01*
X104805801Y-53399137D01*
X104802907Y-53392958D01*
X104760048Y-53332351D01*
X104702021Y-53288224D01*
X104633409Y-53261493D01*
X104558799Y-53253073D01*
X104482774Y-53263880D01*
G37*
X104482774Y-53263880D02*
X104409920Y-53294830D01*
X104386973Y-53309895D01*
X104357646Y-53333048D01*
X104339236Y-53351253D01*
X104336039Y-53357183D01*
X104345065Y-53370340D01*
X104368163Y-53392667D01*
X104386656Y-53408250D01*
X104437272Y-53448926D01*
X104477240Y-53415295D01*
X104508126Y-53393584D01*
X104538241Y-53386090D01*
X104572708Y-53387920D01*
X104627439Y-53401528D01*
X104665114Y-53429772D01*
X104688009Y-53475433D01*
X104698403Y-53541289D01*
X104698405Y-53541331D01*
X104697506Y-53614939D01*
X104683537Y-53668946D01*
X104655672Y-53705716D01*
X104636675Y-53718168D01*
X104586224Y-53733673D01*
X104532337Y-53733683D01*
X104485454Y-53718638D01*
X104474356Y-53711287D01*
X104446524Y-53692511D01*
X104424764Y-53689434D01*
X104401296Y-53703409D01*
X104375351Y-53728510D01*
X104334284Y-53770880D01*
X104379879Y-53808464D01*
X104450326Y-53850882D01*
X104529767Y-53871785D01*
X104612785Y-53870272D01*
X104667306Y-53856411D01*
X104731030Y-53822135D01*
X104781995Y-53768212D01*
X104805149Y-53730149D01*
X104823901Y-53675536D01*
X104833285Y-53606369D01*
X104833357Y-53531407D01*
X104824176Y-53459409D01*
X104805801Y-53399137D01*
X104802907Y-53392958D01*
X104760048Y-53332351D01*
X104702021Y-53288224D01*
X104633409Y-53261493D01*
X104558799Y-53253073D01*
X104482774Y-53263880D01*
G36*
X104022102Y-53256457D02*
G01*
X103989904Y-53264279D01*
X103928175Y-53292921D01*
X103875390Y-53336667D01*
X103838859Y-53389117D01*
X103833840Y-53400893D01*
X103826955Y-53431740D01*
X103822136Y-53477371D01*
X103820495Y-53523492D01*
X103820495Y-53610693D01*
X104002822Y-53610693D01*
X104078021Y-53610978D01*
X104130997Y-53612704D01*
X104164675Y-53617181D01*
X104181980Y-53625720D01*
X104185837Y-53639630D01*
X104179171Y-53660222D01*
X104167230Y-53684315D01*
X104133920Y-53724525D01*
X104087632Y-53744558D01*
X104031056Y-53743905D01*
X103966969Y-53722101D01*
X103911583Y-53695193D01*
X103865625Y-53731532D01*
X103819667Y-53767872D01*
X103862904Y-53807819D01*
X103920626Y-53845563D01*
X103991614Y-53868320D01*
X104067971Y-53874688D01*
X104141801Y-53863268D01*
X104153713Y-53859393D01*
X104218601Y-53825506D01*
X104266870Y-53774986D01*
X104299535Y-53706325D01*
X104317615Y-53618014D01*
X104317825Y-53616121D01*
X104319444Y-53519878D01*
X104312900Y-53485542D01*
X104185148Y-53485542D01*
X104173416Y-53490822D01*
X104141562Y-53494867D01*
X104094603Y-53497176D01*
X104064846Y-53497525D01*
X104009352Y-53497306D01*
X103974654Y-53495916D01*
X103956399Y-53492251D01*
X103950234Y-53485210D01*
X103951805Y-53473690D01*
X103953122Y-53469233D01*
X103975618Y-53427355D01*
X104010997Y-53393604D01*
X104042220Y-53378773D01*
X104083699Y-53379668D01*
X104125731Y-53398164D01*
X104160988Y-53428786D01*
X104182146Y-53466062D01*
X104185148Y-53485542D01*
X104312900Y-53485542D01*
X104303310Y-53435229D01*
X104271302Y-53364191D01*
X104225299Y-53308779D01*
X104167179Y-53271009D01*
X104098820Y-53252896D01*
X104022102Y-53256457D01*
G37*
X104022102Y-53256457D02*
X103989904Y-53264279D01*
X103928175Y-53292921D01*
X103875390Y-53336667D01*
X103838859Y-53389117D01*
X103833840Y-53400893D01*
X103826955Y-53431740D01*
X103822136Y-53477371D01*
X103820495Y-53523492D01*
X103820495Y-53610693D01*
X104002822Y-53610693D01*
X104078021Y-53610978D01*
X104130997Y-53612704D01*
X104164675Y-53617181D01*
X104181980Y-53625720D01*
X104185837Y-53639630D01*
X104179171Y-53660222D01*
X104167230Y-53684315D01*
X104133920Y-53724525D01*
X104087632Y-53744558D01*
X104031056Y-53743905D01*
X103966969Y-53722101D01*
X103911583Y-53695193D01*
X103865625Y-53731532D01*
X103819667Y-53767872D01*
X103862904Y-53807819D01*
X103920626Y-53845563D01*
X103991614Y-53868320D01*
X104067971Y-53874688D01*
X104141801Y-53863268D01*
X104153713Y-53859393D01*
X104218601Y-53825506D01*
X104266870Y-53774986D01*
X104299535Y-53706325D01*
X104317615Y-53618014D01*
X104317825Y-53616121D01*
X104319444Y-53519878D01*
X104312900Y-53485542D01*
X104185148Y-53485542D01*
X104173416Y-53490822D01*
X104141562Y-53494867D01*
X104094603Y-53497176D01*
X104064846Y-53497525D01*
X104009352Y-53497306D01*
X103974654Y-53495916D01*
X103956399Y-53492251D01*
X103950234Y-53485210D01*
X103951805Y-53473690D01*
X103953122Y-53469233D01*
X103975618Y-53427355D01*
X104010997Y-53393604D01*
X104042220Y-53378773D01*
X104083699Y-53379668D01*
X104125731Y-53398164D01*
X104160988Y-53428786D01*
X104182146Y-53466062D01*
X104185148Y-53485542D01*
X104312900Y-53485542D01*
X104303310Y-53435229D01*
X104271302Y-53364191D01*
X104225299Y-53308779D01*
X104167179Y-53271009D01*
X104098820Y-53252896D01*
X104022102Y-53256457D01*
G36*
X107454012Y-53269002D02*
G01*
X107422717Y-53283950D01*
X107392409Y-53305541D01*
X107369318Y-53330391D01*
X107352500Y-53362087D01*
X107341006Y-53404214D01*
X107333891Y-53460358D01*
X107330207Y-53534106D01*
X107329008Y-53629044D01*
X107328989Y-53638985D01*
X107328713Y-53862179D01*
X107467030Y-53862179D01*
X107467030Y-53656418D01*
X107467128Y-53580189D01*
X107467809Y-53524939D01*
X107469651Y-53486501D01*
X107473233Y-53460706D01*
X107479132Y-53443384D01*
X107487927Y-53430368D01*
X107500180Y-53417507D01*
X107543047Y-53389873D01*
X107589843Y-53384745D01*
X107634424Y-53402217D01*
X107649928Y-53415221D01*
X107661310Y-53427447D01*
X107669481Y-53440540D01*
X107674974Y-53458615D01*
X107678320Y-53485787D01*
X107680051Y-53526170D01*
X107680697Y-53583879D01*
X107680792Y-53654132D01*
X107680792Y-53862179D01*
X107819109Y-53862179D01*
X107819109Y-53258614D01*
X107749950Y-53258614D01*
X107708428Y-53260256D01*
X107687006Y-53266087D01*
X107680795Y-53277461D01*
X107680792Y-53277798D01*
X107677910Y-53288938D01*
X107665199Y-53287674D01*
X107639926Y-53275434D01*
X107582605Y-53257424D01*
X107517037Y-53255421D01*
X107454012Y-53269002D01*
G37*
X107454012Y-53269002D02*
X107422717Y-53283950D01*
X107392409Y-53305541D01*
X107369318Y-53330391D01*
X107352500Y-53362087D01*
X107341006Y-53404214D01*
X107333891Y-53460358D01*
X107330207Y-53534106D01*
X107329008Y-53629044D01*
X107328989Y-53638985D01*
X107328713Y-53862179D01*
X107467030Y-53862179D01*
X107467030Y-53656418D01*
X107467128Y-53580189D01*
X107467809Y-53524939D01*
X107469651Y-53486501D01*
X107473233Y-53460706D01*
X107479132Y-53443384D01*
X107487927Y-53430368D01*
X107500180Y-53417507D01*
X107543047Y-53389873D01*
X107589843Y-53384745D01*
X107634424Y-53402217D01*
X107649928Y-53415221D01*
X107661310Y-53427447D01*
X107669481Y-53440540D01*
X107674974Y-53458615D01*
X107678320Y-53485787D01*
X107680051Y-53526170D01*
X107680697Y-53583879D01*
X107680792Y-53654132D01*
X107680792Y-53862179D01*
X107819109Y-53862179D01*
X107819109Y-53258614D01*
X107749950Y-53258614D01*
X107708428Y-53260256D01*
X107687006Y-53266087D01*
X107680795Y-53277461D01*
X107680792Y-53277798D01*
X107677910Y-53288938D01*
X107665199Y-53287674D01*
X107639926Y-53275434D01*
X107582605Y-53257424D01*
X107517037Y-53255421D01*
X107454012Y-53269002D01*
G36*
X104900540Y-53258030D02*
G01*
X104857289Y-53271245D01*
X104829442Y-53287941D01*
X104820371Y-53301145D01*
X104822868Y-53316797D01*
X104839069Y-53341385D01*
X104852768Y-53358800D01*
X104881008Y-53390283D01*
X104902225Y-53403529D01*
X104920312Y-53402664D01*
X104973965Y-53389010D01*
X105013370Y-53389630D01*
X105045368Y-53405104D01*
X105056110Y-53414161D01*
X105090495Y-53446027D01*
X105090495Y-53862179D01*
X105228812Y-53862179D01*
X105228812Y-53258614D01*
X105159653Y-53258614D01*
X105118131Y-53260256D01*
X105096709Y-53266087D01*
X105090498Y-53277461D01*
X105090495Y-53277798D01*
X105087561Y-53289713D01*
X105074296Y-53288159D01*
X105055916Y-53279563D01*
X105017954Y-53263568D01*
X104987128Y-53253945D01*
X104947464Y-53251478D01*
X104900540Y-53258030D01*
G37*
X104900540Y-53258030D02*
X104857289Y-53271245D01*
X104829442Y-53287941D01*
X104820371Y-53301145D01*
X104822868Y-53316797D01*
X104839069Y-53341385D01*
X104852768Y-53358800D01*
X104881008Y-53390283D01*
X104902225Y-53403529D01*
X104920312Y-53402664D01*
X104973965Y-53389010D01*
X105013370Y-53389630D01*
X105045368Y-53405104D01*
X105056110Y-53414161D01*
X105090495Y-53446027D01*
X105090495Y-53862179D01*
X105228812Y-53862179D01*
X105228812Y-53258614D01*
X105159653Y-53258614D01*
X105118131Y-53260256D01*
X105096709Y-53266087D01*
X105090498Y-53277461D01*
X105090495Y-53277798D01*
X105087561Y-53289713D01*
X105074296Y-53288159D01*
X105055916Y-53279563D01*
X105017954Y-53263568D01*
X104987128Y-53253945D01*
X104947464Y-53251478D01*
X104900540Y-53258030D01*
G36*
X106323036Y-49090018D02*
G01*
X106266188Y-49391570D01*
X105846662Y-49564512D01*
X105595016Y-49393395D01*
X105524542Y-49345750D01*
X105460837Y-49303210D01*
X105406874Y-49267715D01*
X105365627Y-49241210D01*
X105340066Y-49225636D01*
X105333105Y-49222278D01*
X105320565Y-49230914D01*
X105293769Y-49254792D01*
X105255720Y-49290859D01*
X105209421Y-49336067D01*
X105157877Y-49387364D01*
X105104091Y-49441701D01*
X105051065Y-49496028D01*
X105001805Y-49547295D01*
X104959313Y-49592451D01*
X104926593Y-49628446D01*
X104906649Y-49652230D01*
X104901881Y-49660190D01*
X104908743Y-49674865D01*
X104927980Y-49707014D01*
X104957570Y-49753492D01*
X104995490Y-49811156D01*
X105039718Y-49876860D01*
X105065346Y-49914336D01*
X105112059Y-49982768D01*
X105153568Y-50044520D01*
X105187860Y-50096519D01*
X105212920Y-50135692D01*
X105226736Y-50158965D01*
X105228812Y-50163855D01*
X105224105Y-50177755D01*
X105211277Y-50210150D01*
X105192262Y-50256485D01*
X105168997Y-50312206D01*
X105143416Y-50372758D01*
X105117455Y-50433586D01*
X105093050Y-50490136D01*
X105072137Y-50537852D01*
X105056651Y-50572181D01*
X105048528Y-50588568D01*
X105048048Y-50589212D01*
X105035293Y-50592341D01*
X105001323Y-50599321D01*
X104949660Y-50609467D01*
X104883824Y-50622092D01*
X104807336Y-50636509D01*
X104762710Y-50644823D01*
X104680979Y-50660384D01*
X104607157Y-50675192D01*
X104544979Y-50688436D01*
X104498178Y-50699305D01*
X104470491Y-50706989D01*
X104464926Y-50709427D01*
X104459474Y-50725930D01*
X104455076Y-50763200D01*
X104451728Y-50816880D01*
X104449426Y-50882612D01*
X104448168Y-50956037D01*
X104447952Y-51032796D01*
X104448773Y-51108532D01*
X104450629Y-51178886D01*
X104453518Y-51239500D01*
X104457435Y-51286016D01*
X104462378Y-51314075D01*
X104465343Y-51319916D01*
X104483066Y-51326917D01*
X104520619Y-51336927D01*
X104573036Y-51348769D01*
X104635348Y-51361267D01*
X104657100Y-51365310D01*
X104761976Y-51384520D01*
X104844820Y-51399991D01*
X104908370Y-51412337D01*
X104955363Y-51422173D01*
X104988537Y-51430114D01*
X105010629Y-51436776D01*
X105024376Y-51442773D01*
X105032516Y-51448719D01*
X105033655Y-51449894D01*
X105045023Y-51468826D01*
X105062365Y-51505669D01*
X105083950Y-51555913D01*
X105108046Y-51615046D01*
X105132921Y-51678556D01*
X105156843Y-51741932D01*
X105178081Y-51800662D01*
X105194903Y-51850235D01*
X105205578Y-51886139D01*
X105208373Y-51903862D01*
X105208140Y-51904483D01*
X105198669Y-51918970D01*
X105177182Y-51950844D01*
X105145937Y-51996789D01*
X105107193Y-52053485D01*
X105063207Y-52117617D01*
X105050681Y-52135842D01*
X105006016Y-52201914D01*
X104966712Y-52262200D01*
X104934912Y-52313235D01*
X104912755Y-52351560D01*
X104902383Y-52373711D01*
X104901881Y-52376432D01*
X104910595Y-52390736D01*
X104934675Y-52419072D01*
X104971024Y-52458396D01*
X105016547Y-52505661D01*
X105068148Y-52557823D01*
X105122733Y-52611835D01*
X105177206Y-52664653D01*
X105228471Y-52713231D01*
X105273433Y-52754523D01*
X105308996Y-52785485D01*
X105332065Y-52803070D01*
X105338446Y-52805941D01*
X105353301Y-52799178D01*
X105383714Y-52780939D01*
X105424732Y-52754297D01*
X105456291Y-52732852D01*
X105513475Y-52693503D01*
X105581194Y-52647171D01*
X105649120Y-52600913D01*
X105685639Y-52576155D01*
X105809248Y-52492547D01*
X105913009Y-52548650D01*
X105960280Y-52573228D01*
X106000477Y-52592331D01*
X106027674Y-52603227D01*
X106034598Y-52604743D01*
X106042923Y-52593549D01*
X106059346Y-52561917D01*
X106082643Y-52512765D01*
X106111586Y-52449010D01*
X106144950Y-52373571D01*
X106181509Y-52289364D01*
X106220036Y-52199308D01*
X106259306Y-52106321D01*
X106298092Y-52013320D01*
X106335170Y-51923223D01*
X106369311Y-51838948D01*
X106399292Y-51763413D01*
X106423884Y-51699534D01*
X106441864Y-51650231D01*
X106452003Y-51618421D01*
X106453634Y-51607496D01*
X106440709Y-51593561D01*
X106412411Y-51570940D01*
X106374654Y-51544333D01*
X106371485Y-51542228D01*
X106273900Y-51464114D01*
X106195214Y-51372982D01*
X106136109Y-51271745D01*
X106097268Y-51163318D01*
X106079372Y-51050614D01*
X106083103Y-50936548D01*
X106109143Y-50824034D01*
X106158175Y-50715985D01*
X106172600Y-50692345D01*
X106247631Y-50596887D01*
X106336270Y-50520232D01*
X106435451Y-50462780D01*
X106542105Y-50424929D01*
X106653164Y-50407078D01*
X106765561Y-50409625D01*
X106876227Y-50432970D01*
X106982094Y-50477510D01*
X107080095Y-50543645D01*
X107110410Y-50570487D01*
X107187562Y-50654512D01*
X107243782Y-50742966D01*
X107282347Y-50842115D01*
X107303826Y-50940303D01*
X107309128Y-51050697D01*
X107291448Y-51161640D01*
X107252581Y-51269381D01*
X107194323Y-51370169D01*
X107118469Y-51460256D01*
X107026817Y-51535892D01*
X107014772Y-51543864D01*
X106976611Y-51569974D01*
X106947601Y-51592595D01*
X106933732Y-51607039D01*
X106933531Y-51607496D01*
X106936508Y-51623121D01*
X106948311Y-51658582D01*
X106967714Y-51710962D01*
X106993488Y-51777345D01*
X107024409Y-51854814D01*
X107059249Y-51940450D01*
X107096783Y-52031337D01*
X107135783Y-52124559D01*
X107175023Y-52217197D01*
X107213276Y-52306335D01*
X107249317Y-52389055D01*
X107281917Y-52462441D01*
X107309852Y-52523575D01*
X107331895Y-52569541D01*
X107346818Y-52597421D01*
X107352828Y-52604743D01*
X107371191Y-52599041D01*
X107405552Y-52583749D01*
X107449984Y-52561599D01*
X107474417Y-52548650D01*
X107578178Y-52492547D01*
X107701787Y-52576155D01*
X107764886Y-52618987D01*
X107833970Y-52666122D01*
X107898707Y-52710503D01*
X107931134Y-52732852D01*
X107976741Y-52763477D01*
X108015360Y-52787747D01*
X108041952Y-52802587D01*
X108050590Y-52805724D01*
X108063161Y-52797261D01*
X108090984Y-52773636D01*
X108131361Y-52737302D01*
X108181595Y-52690711D01*
X108238988Y-52636317D01*
X108275286Y-52601392D01*
X108338790Y-52538996D01*
X108393673Y-52483188D01*
X108437714Y-52436354D01*
X108468695Y-52400882D01*
X108484398Y-52379161D01*
X108485905Y-52374752D01*
X108478914Y-52357985D01*
X108459594Y-52324082D01*
X108430091Y-52276476D01*
X108392545Y-52218599D01*
X108349100Y-52153884D01*
X108336745Y-52135842D01*
X108291727Y-52070267D01*
X108251340Y-52011228D01*
X108217840Y-51962042D01*
X108193486Y-51926028D01*
X108180536Y-51906502D01*
X108179285Y-51904483D01*
X108181156Y-51888922D01*
X108191087Y-51854709D01*
X108207347Y-51806355D01*
X108228205Y-51748371D01*
X108251927Y-51685270D01*
X108276784Y-51621563D01*
X108301042Y-51561761D01*
X108322971Y-51510376D01*
X108340838Y-51471919D01*
X108352913Y-51450902D01*
X108353771Y-51449894D01*
X108361154Y-51443888D01*
X108373625Y-51437948D01*
X108393920Y-51431460D01*
X108424778Y-51423809D01*
X108468934Y-51414380D01*
X108529126Y-51402559D01*
X108608093Y-51387729D01*
X108708570Y-51369277D01*
X108730325Y-51365310D01*
X108794802Y-51352853D01*
X108851011Y-51340666D01*
X108893987Y-51329926D01*
X108918760Y-51321809D01*
X108922082Y-51319916D01*
X108927556Y-51303138D01*
X108932006Y-51265645D01*
X108935428Y-51211794D01*
X108937819Y-51145944D01*
X108939177Y-51072453D01*
X108939499Y-50995680D01*
X108938781Y-50919983D01*
X108937021Y-50849720D01*
X108934216Y-50789250D01*
X108930362Y-50742930D01*
X108925457Y-50715119D01*
X108922500Y-50709427D01*
X108906037Y-50703686D01*
X108868551Y-50694345D01*
X108813775Y-50682215D01*
X108745445Y-50668107D01*
X108667294Y-50652830D01*
X108624716Y-50644823D01*
X108543929Y-50629721D01*
X108471887Y-50616040D01*
X108412111Y-50604467D01*
X108368121Y-50595687D01*
X108343439Y-50590387D01*
X108339377Y-50589212D01*
X108332511Y-50575965D01*
X108317998Y-50544057D01*
X108297771Y-50498047D01*
X108273766Y-50442492D01*
X108247918Y-50381953D01*
X108222160Y-50320986D01*
X108198427Y-50264151D01*
X108178654Y-50216006D01*
X108164776Y-50181110D01*
X108158726Y-50164021D01*
X108158614Y-50163274D01*
X108165472Y-50149793D01*
X108184698Y-50118770D01*
X108214272Y-50073289D01*
X108252173Y-50016432D01*
X108296380Y-49951283D01*
X108322079Y-49913862D01*
X108368907Y-49845247D01*
X108410499Y-49782952D01*
X108444825Y-49730129D01*
X108469857Y-49689927D01*
X108483565Y-49665500D01*
X108485544Y-49660024D01*
X108477034Y-49647278D01*
X108453507Y-49620063D01*
X108417968Y-49581428D01*
X108373423Y-49534423D01*
X108322877Y-49482095D01*
X108269336Y-49427495D01*
X108215805Y-49373670D01*
X108165289Y-49323670D01*
X108120794Y-49280543D01*
X108085325Y-49247339D01*
X108061887Y-49227106D01*
X108054046Y-49222278D01*
X108041280Y-49229067D01*
X108010744Y-49248142D01*
X107965410Y-49277561D01*
X107908244Y-49315381D01*
X107842216Y-49359661D01*
X107792410Y-49393395D01*
X107540764Y-49564512D01*
X107331001Y-49478041D01*
X107121237Y-49391570D01*
X107064389Y-49090018D01*
X107007540Y-48788466D01*
X106379885Y-48788466D01*
X106323036Y-49090018D01*
G37*
X106323036Y-49090018D02*
X106266188Y-49391570D01*
X105846662Y-49564512D01*
X105595016Y-49393395D01*
X105524542Y-49345750D01*
X105460837Y-49303210D01*
X105406874Y-49267715D01*
X105365627Y-49241210D01*
X105340066Y-49225636D01*
X105333105Y-49222278D01*
X105320565Y-49230914D01*
X105293769Y-49254792D01*
X105255720Y-49290859D01*
X105209421Y-49336067D01*
X105157877Y-49387364D01*
X105104091Y-49441701D01*
X105051065Y-49496028D01*
X105001805Y-49547295D01*
X104959313Y-49592451D01*
X104926593Y-49628446D01*
X104906649Y-49652230D01*
X104901881Y-49660190D01*
X104908743Y-49674865D01*
X104927980Y-49707014D01*
X104957570Y-49753492D01*
X104995490Y-49811156D01*
X105039718Y-49876860D01*
X105065346Y-49914336D01*
X105112059Y-49982768D01*
X105153568Y-50044520D01*
X105187860Y-50096519D01*
X105212920Y-50135692D01*
X105226736Y-50158965D01*
X105228812Y-50163855D01*
X105224105Y-50177755D01*
X105211277Y-50210150D01*
X105192262Y-50256485D01*
X105168997Y-50312206D01*
X105143416Y-50372758D01*
X105117455Y-50433586D01*
X105093050Y-50490136D01*
X105072137Y-50537852D01*
X105056651Y-50572181D01*
X105048528Y-50588568D01*
X105048048Y-50589212D01*
X105035293Y-50592341D01*
X105001323Y-50599321D01*
X104949660Y-50609467D01*
X104883824Y-50622092D01*
X104807336Y-50636509D01*
X104762710Y-50644823D01*
X104680979Y-50660384D01*
X104607157Y-50675192D01*
X104544979Y-50688436D01*
X104498178Y-50699305D01*
X104470491Y-50706989D01*
X104464926Y-50709427D01*
X104459474Y-50725930D01*
X104455076Y-50763200D01*
X104451728Y-50816880D01*
X104449426Y-50882612D01*
X104448168Y-50956037D01*
X104447952Y-51032796D01*
X104448773Y-51108532D01*
X104450629Y-51178886D01*
X104453518Y-51239500D01*
X104457435Y-51286016D01*
X104462378Y-51314075D01*
X104465343Y-51319916D01*
X104483066Y-51326917D01*
X104520619Y-51336927D01*
X104573036Y-51348769D01*
X104635348Y-51361267D01*
X104657100Y-51365310D01*
X104761976Y-51384520D01*
X104844820Y-51399991D01*
X104908370Y-51412337D01*
X104955363Y-51422173D01*
X104988537Y-51430114D01*
X105010629Y-51436776D01*
X105024376Y-51442773D01*
X105032516Y-51448719D01*
X105033655Y-51449894D01*
X105045023Y-51468826D01*
X105062365Y-51505669D01*
X105083950Y-51555913D01*
X105108046Y-51615046D01*
X105132921Y-51678556D01*
X105156843Y-51741932D01*
X105178081Y-51800662D01*
X105194903Y-51850235D01*
X105205578Y-51886139D01*
X105208373Y-51903862D01*
X105208140Y-51904483D01*
X105198669Y-51918970D01*
X105177182Y-51950844D01*
X105145937Y-51996789D01*
X105107193Y-52053485D01*
X105063207Y-52117617D01*
X105050681Y-52135842D01*
X105006016Y-52201914D01*
X104966712Y-52262200D01*
X104934912Y-52313235D01*
X104912755Y-52351560D01*
X104902383Y-52373711D01*
X104901881Y-52376432D01*
X104910595Y-52390736D01*
X104934675Y-52419072D01*
X104971024Y-52458396D01*
X105016547Y-52505661D01*
X105068148Y-52557823D01*
X105122733Y-52611835D01*
X105177206Y-52664653D01*
X105228471Y-52713231D01*
X105273433Y-52754523D01*
X105308996Y-52785485D01*
X105332065Y-52803070D01*
X105338446Y-52805941D01*
X105353301Y-52799178D01*
X105383714Y-52780939D01*
X105424732Y-52754297D01*
X105456291Y-52732852D01*
X105513475Y-52693503D01*
X105581194Y-52647171D01*
X105649120Y-52600913D01*
X105685639Y-52576155D01*
X105809248Y-52492547D01*
X105913009Y-52548650D01*
X105960280Y-52573228D01*
X106000477Y-52592331D01*
X106027674Y-52603227D01*
X106034598Y-52604743D01*
X106042923Y-52593549D01*
X106059346Y-52561917D01*
X106082643Y-52512765D01*
X106111586Y-52449010D01*
X106144950Y-52373571D01*
X106181509Y-52289364D01*
X106220036Y-52199308D01*
X106259306Y-52106321D01*
X106298092Y-52013320D01*
X106335170Y-51923223D01*
X106369311Y-51838948D01*
X106399292Y-51763413D01*
X106423884Y-51699534D01*
X106441864Y-51650231D01*
X106452003Y-51618421D01*
X106453634Y-51607496D01*
X106440709Y-51593561D01*
X106412411Y-51570940D01*
X106374654Y-51544333D01*
X106371485Y-51542228D01*
X106273900Y-51464114D01*
X106195214Y-51372982D01*
X106136109Y-51271745D01*
X106097268Y-51163318D01*
X106079372Y-51050614D01*
X106083103Y-50936548D01*
X106109143Y-50824034D01*
X106158175Y-50715985D01*
X106172600Y-50692345D01*
X106247631Y-50596887D01*
X106336270Y-50520232D01*
X106435451Y-50462780D01*
X106542105Y-50424929D01*
X106653164Y-50407078D01*
X106765561Y-50409625D01*
X106876227Y-50432970D01*
X106982094Y-50477510D01*
X107080095Y-50543645D01*
X107110410Y-50570487D01*
X107187562Y-50654512D01*
X107243782Y-50742966D01*
X107282347Y-50842115D01*
X107303826Y-50940303D01*
X107309128Y-51050697D01*
X107291448Y-51161640D01*
X107252581Y-51269381D01*
X107194323Y-51370169D01*
X107118469Y-51460256D01*
X107026817Y-51535892D01*
X107014772Y-51543864D01*
X106976611Y-51569974D01*
X106947601Y-51592595D01*
X106933732Y-51607039D01*
X106933531Y-51607496D01*
X106936508Y-51623121D01*
X106948311Y-51658582D01*
X106967714Y-51710962D01*
X106993488Y-51777345D01*
X107024409Y-51854814D01*
X107059249Y-51940450D01*
X107096783Y-52031337D01*
X107135783Y-52124559D01*
X107175023Y-52217197D01*
X107213276Y-52306335D01*
X107249317Y-52389055D01*
X107281917Y-52462441D01*
X107309852Y-52523575D01*
X107331895Y-52569541D01*
X107346818Y-52597421D01*
X107352828Y-52604743D01*
X107371191Y-52599041D01*
X107405552Y-52583749D01*
X107449984Y-52561599D01*
X107474417Y-52548650D01*
X107578178Y-52492547D01*
X107701787Y-52576155D01*
X107764886Y-52618987D01*
X107833970Y-52666122D01*
X107898707Y-52710503D01*
X107931134Y-52732852D01*
X107976741Y-52763477D01*
X108015360Y-52787747D01*
X108041952Y-52802587D01*
X108050590Y-52805724D01*
X108063161Y-52797261D01*
X108090984Y-52773636D01*
X108131361Y-52737302D01*
X108181595Y-52690711D01*
X108238988Y-52636317D01*
X108275286Y-52601392D01*
X108338790Y-52538996D01*
X108393673Y-52483188D01*
X108437714Y-52436354D01*
X108468695Y-52400882D01*
X108484398Y-52379161D01*
X108485905Y-52374752D01*
X108478914Y-52357985D01*
X108459594Y-52324082D01*
X108430091Y-52276476D01*
X108392545Y-52218599D01*
X108349100Y-52153884D01*
X108336745Y-52135842D01*
X108291727Y-52070267D01*
X108251340Y-52011228D01*
X108217840Y-51962042D01*
X108193486Y-51926028D01*
X108180536Y-51906502D01*
X108179285Y-51904483D01*
X108181156Y-51888922D01*
X108191087Y-51854709D01*
X108207347Y-51806355D01*
X108228205Y-51748371D01*
X108251927Y-51685270D01*
X108276784Y-51621563D01*
X108301042Y-51561761D01*
X108322971Y-51510376D01*
X108340838Y-51471919D01*
X108352913Y-51450902D01*
X108353771Y-51449894D01*
X108361154Y-51443888D01*
X108373625Y-51437948D01*
X108393920Y-51431460D01*
X108424778Y-51423809D01*
X108468934Y-51414380D01*
X108529126Y-51402559D01*
X108608093Y-51387729D01*
X108708570Y-51369277D01*
X108730325Y-51365310D01*
X108794802Y-51352853D01*
X108851011Y-51340666D01*
X108893987Y-51329926D01*
X108918760Y-51321809D01*
X108922082Y-51319916D01*
X108927556Y-51303138D01*
X108932006Y-51265645D01*
X108935428Y-51211794D01*
X108937819Y-51145944D01*
X108939177Y-51072453D01*
X108939499Y-50995680D01*
X108938781Y-50919983D01*
X108937021Y-50849720D01*
X108934216Y-50789250D01*
X108930362Y-50742930D01*
X108925457Y-50715119D01*
X108922500Y-50709427D01*
X108906037Y-50703686D01*
X108868551Y-50694345D01*
X108813775Y-50682215D01*
X108745445Y-50668107D01*
X108667294Y-50652830D01*
X108624716Y-50644823D01*
X108543929Y-50629721D01*
X108471887Y-50616040D01*
X108412111Y-50604467D01*
X108368121Y-50595687D01*
X108343439Y-50590387D01*
X108339377Y-50589212D01*
X108332511Y-50575965D01*
X108317998Y-50544057D01*
X108297771Y-50498047D01*
X108273766Y-50442492D01*
X108247918Y-50381953D01*
X108222160Y-50320986D01*
X108198427Y-50264151D01*
X108178654Y-50216006D01*
X108164776Y-50181110D01*
X108158726Y-50164021D01*
X108158614Y-50163274D01*
X108165472Y-50149793D01*
X108184698Y-50118770D01*
X108214272Y-50073289D01*
X108252173Y-50016432D01*
X108296380Y-49951283D01*
X108322079Y-49913862D01*
X108368907Y-49845247D01*
X108410499Y-49782952D01*
X108444825Y-49730129D01*
X108469857Y-49689927D01*
X108483565Y-49665500D01*
X108485544Y-49660024D01*
X108477034Y-49647278D01*
X108453507Y-49620063D01*
X108417968Y-49581428D01*
X108373423Y-49534423D01*
X108322877Y-49482095D01*
X108269336Y-49427495D01*
X108215805Y-49373670D01*
X108165289Y-49323670D01*
X108120794Y-49280543D01*
X108085325Y-49247339D01*
X108061887Y-49227106D01*
X108054046Y-49222278D01*
X108041280Y-49229067D01*
X108010744Y-49248142D01*
X107965410Y-49277561D01*
X107908244Y-49315381D01*
X107842216Y-49359661D01*
X107792410Y-49393395D01*
X107540764Y-49564512D01*
X107331001Y-49478041D01*
X107121237Y-49391570D01*
X107064389Y-49090018D01*
X107007540Y-48788466D01*
X106379885Y-48788466D01*
X106323036Y-49090018D01*
%TO.C,G\u002A\u002A\u002A*%
G36*
X109650356Y-52015875D02*
G01*
X109645296Y-54772834D01*
X120333539Y-54772834D01*
X120328478Y-52015875D01*
X120323670Y-49396500D01*
X120185834Y-49396500D01*
X120185834Y-54582334D01*
X109793000Y-54582334D01*
X109793000Y-49396500D01*
X120185834Y-49396500D01*
X120323670Y-49396500D01*
X120323417Y-49258917D01*
X109655417Y-49258917D01*
X109650356Y-52015875D01*
G37*
X109650356Y-52015875D02*
X109645296Y-54772834D01*
X120333539Y-54772834D01*
X120328478Y-52015875D01*
X120323670Y-49396500D01*
X120185834Y-49396500D01*
X120185834Y-54582334D01*
X109793000Y-54582334D01*
X109793000Y-49396500D01*
X120185834Y-49396500D01*
X120323670Y-49396500D01*
X120323417Y-49258917D01*
X109655417Y-49258917D01*
X109650356Y-52015875D01*
G36*
X114417917Y-49746922D02*
G01*
X114292143Y-49747905D01*
X114197588Y-49750791D01*
X114123138Y-49757071D01*
X114057681Y-49768236D01*
X113990104Y-49785779D01*
X113909293Y-49811190D01*
X113888750Y-49817946D01*
X113784403Y-49855653D01*
X113680766Y-49898612D01*
X113593728Y-49940019D01*
X113560667Y-49958457D01*
X113508399Y-49994729D01*
X113439469Y-50048937D01*
X113360342Y-50115237D01*
X113277487Y-50187781D01*
X113197367Y-50260723D01*
X113126451Y-50328218D01*
X113071203Y-50384419D01*
X113038091Y-50423481D01*
X113031500Y-50436884D01*
X113020616Y-50463699D01*
X112992081Y-50514498D01*
X112952125Y-50578206D01*
X112895082Y-50665430D01*
X112856431Y-50725499D01*
X112831236Y-50766582D01*
X112814559Y-50796850D01*
X112801465Y-50824471D01*
X112796463Y-50835834D01*
X112770299Y-50895013D01*
X112744571Y-50952250D01*
X112696222Y-51071606D01*
X112644748Y-51221039D01*
X112593749Y-51388828D01*
X112546823Y-51563253D01*
X112513767Y-51703667D01*
X112486388Y-51824459D01*
X112455877Y-51951259D01*
X112424037Y-52077410D01*
X112392672Y-52196257D01*
X112363584Y-52301144D01*
X112338575Y-52385414D01*
X112319449Y-52442412D01*
X112308007Y-52465482D01*
X112307385Y-52465667D01*
X112292245Y-52448617D01*
X112290667Y-52436128D01*
X112285179Y-52410757D01*
X112269390Y-52348353D01*
X112244310Y-52252679D01*
X112210951Y-52127495D01*
X112170324Y-51976563D01*
X112123441Y-51803645D01*
X112071311Y-51612502D01*
X112014948Y-51406896D01*
X111973435Y-51256086D01*
X111902086Y-50998225D01*
X111840719Y-50778549D01*
X111788497Y-50594318D01*
X111744585Y-50442789D01*
X111708144Y-50321220D01*
X111678341Y-50226870D01*
X111654337Y-50156997D01*
X111635298Y-50108859D01*
X111620387Y-50079713D01*
X111611256Y-50068542D01*
X111595412Y-50058131D01*
X111572850Y-50049857D01*
X111538948Y-50043480D01*
X111489082Y-50038757D01*
X111418628Y-50035447D01*
X111322962Y-50033309D01*
X111197463Y-50032102D01*
X111037505Y-50031583D01*
X110901906Y-50031500D01*
X110716390Y-50031609D01*
X110568560Y-50032122D01*
X110453772Y-50033318D01*
X110367377Y-50035474D01*
X110304729Y-50038868D01*
X110261182Y-50043780D01*
X110232090Y-50050488D01*
X110212806Y-50059269D01*
X110198684Y-50070402D01*
X110195167Y-50073833D01*
X110160130Y-50137542D01*
X110152834Y-50195863D01*
X110159474Y-50224253D01*
X110178642Y-50289340D01*
X110209209Y-50387752D01*
X110250049Y-50516116D01*
X110300031Y-50671059D01*
X110358029Y-50849208D01*
X110422913Y-51047191D01*
X110493556Y-51261634D01*
X110568830Y-51489165D01*
X110647606Y-51726411D01*
X110728756Y-51969999D01*
X110811153Y-52216557D01*
X110893666Y-52462711D01*
X110975170Y-52705090D01*
X111054535Y-52940319D01*
X111130632Y-53165027D01*
X111202335Y-53375840D01*
X111268515Y-53569385D01*
X111328043Y-53742291D01*
X111379791Y-53891184D01*
X111422632Y-54012690D01*
X111455437Y-54103439D01*
X111477077Y-54160056D01*
X111484325Y-54176414D01*
X111517274Y-54215971D01*
X111540394Y-54230593D01*
X111568788Y-54233591D01*
X111634538Y-54236347D01*
X111732669Y-54238779D01*
X111858203Y-54240809D01*
X112006164Y-54242354D01*
X112171577Y-54243333D01*
X112345315Y-54243667D01*
X112546911Y-54243559D01*
X112710427Y-54243099D01*
X112840117Y-54242075D01*
X112940234Y-54240282D01*
X113015033Y-54237510D01*
X113068766Y-54233550D01*
X113105687Y-54228195D01*
X113130050Y-54221235D01*
X113146108Y-54212463D01*
X113155883Y-54203951D01*
X113179124Y-54167512D01*
X113209825Y-54101254D01*
X113243302Y-54015912D01*
X113264350Y-53955243D01*
X113294672Y-53866279D01*
X113321928Y-53792097D01*
X113342521Y-53742171D01*
X113351049Y-53726727D01*
X113381955Y-53721735D01*
X113435234Y-53739824D01*
X113438374Y-53741348D01*
X113612588Y-53823416D01*
X113762726Y-53885642D01*
X113899490Y-53932319D01*
X113952250Y-53947435D01*
X114048981Y-53976468D01*
X114145426Y-54009959D01*
X114222041Y-54041079D01*
X114227417Y-54043588D01*
X114275124Y-54062734D01*
X114350545Y-54089099D01*
X114444531Y-54119892D01*
X114547932Y-54152320D01*
X114651598Y-54183591D01*
X114746379Y-54210913D01*
X114823125Y-54231494D01*
X114872685Y-54242541D01*
X114883102Y-54243667D01*
X114899134Y-54226209D01*
X114921287Y-54183342D01*
X114924904Y-54174875D01*
X114977052Y-54047927D01*
X115023433Y-53932315D01*
X115061656Y-53834231D01*
X115089329Y-53759863D01*
X115104061Y-53715403D01*
X115105834Y-53706603D01*
X115113384Y-53673376D01*
X115133643Y-53613071D01*
X115163024Y-53534428D01*
X115197941Y-53446183D01*
X115234805Y-53357075D01*
X115270029Y-53275843D01*
X115300028Y-53211224D01*
X115321214Y-53171957D01*
X115328503Y-53164167D01*
X115357070Y-53171411D01*
X115414368Y-53190716D01*
X115489810Y-53218446D01*
X115519067Y-53229671D01*
X115621459Y-53268516D01*
X115731649Y-53308954D01*
X115826820Y-53342620D01*
X115831965Y-53344382D01*
X115976012Y-53393589D01*
X115996006Y-53342378D01*
X116020202Y-53280383D01*
X116036868Y-53237660D01*
X116046873Y-53196171D01*
X116028472Y-53173480D01*
X116010409Y-53165252D01*
X115973514Y-53150930D01*
X115905979Y-53125088D01*
X115816775Y-53091146D01*
X115714871Y-53052524D01*
X115693593Y-53044477D01*
X115424102Y-52942604D01*
X115473635Y-52899927D01*
X115503903Y-52872526D01*
X115559268Y-52821140D01*
X115634168Y-52750979D01*
X115723044Y-52667254D01*
X115820336Y-52575176D01*
X115835364Y-52560917D01*
X115931425Y-52470694D01*
X116018320Y-52390883D01*
X116090983Y-52325994D01*
X116144344Y-52280536D01*
X116173335Y-52259020D01*
X116175815Y-52257974D01*
X116198437Y-52269056D01*
X116201926Y-52289724D01*
X116207400Y-52319079D01*
X116223926Y-52383474D01*
X116249973Y-52477527D01*
X116284009Y-52595857D01*
X116324504Y-52733083D01*
X116369928Y-52883824D01*
X116384427Y-52931334D01*
X116461472Y-53182834D01*
X116527257Y-53396904D01*
X116582820Y-53576623D01*
X116629198Y-53725067D01*
X116667430Y-53845315D01*
X116698555Y-53940444D01*
X116723609Y-54013532D01*
X116743632Y-54067656D01*
X116759662Y-54105895D01*
X116772736Y-54131325D01*
X116783893Y-54147026D01*
X116794172Y-54156074D01*
X116798404Y-54158592D01*
X116832527Y-54165426D01*
X116904584Y-54171161D01*
X117010188Y-54175627D01*
X117144951Y-54178656D01*
X117304484Y-54180079D01*
X117358692Y-54180167D01*
X117529485Y-54180309D01*
X117663193Y-54179361D01*
X117765055Y-54175260D01*
X117840307Y-54165946D01*
X117894188Y-54149355D01*
X117931934Y-54123428D01*
X117958785Y-54086100D01*
X117979977Y-54035312D01*
X118000748Y-53969001D01*
X118014899Y-53921854D01*
X118033803Y-53859613D01*
X118063066Y-53762991D01*
X118100827Y-53638140D01*
X118145227Y-53491213D01*
X118194407Y-53328361D01*
X118246508Y-53155736D01*
X118285753Y-53025640D01*
X118503084Y-52305029D01*
X118496733Y-53199205D01*
X118495236Y-53417134D01*
X118494235Y-53596677D01*
X118493887Y-53741779D01*
X118494347Y-53856389D01*
X118495772Y-53944450D01*
X118498317Y-54009910D01*
X118502138Y-54056715D01*
X118507391Y-54088810D01*
X118514232Y-54110142D01*
X118522817Y-54124657D01*
X118533301Y-54136300D01*
X118533775Y-54136774D01*
X118548464Y-54149724D01*
X118566910Y-54159806D01*
X118594184Y-54167378D01*
X118635358Y-54172799D01*
X118695503Y-54176427D01*
X118779692Y-54178619D01*
X118892996Y-54179733D01*
X119040487Y-54180127D01*
X119148667Y-54180167D01*
X119319489Y-54180022D01*
X119453039Y-54179356D01*
X119554378Y-54177820D01*
X119628566Y-54175064D01*
X119680665Y-54170739D01*
X119715735Y-54164496D01*
X119738838Y-54155987D01*
X119755034Y-54144863D01*
X119762500Y-54137833D01*
X119769696Y-54129897D01*
X119776026Y-54119645D01*
X119781547Y-54104474D01*
X119786313Y-54081780D01*
X119790380Y-54048958D01*
X119793804Y-54003405D01*
X119794443Y-53989667D01*
X119614334Y-53989667D01*
X118680759Y-53989667D01*
X118684266Y-52640292D01*
X118684926Y-52367808D01*
X118685333Y-52134609D01*
X118685408Y-51937651D01*
X118685074Y-51773885D01*
X118684256Y-51640264D01*
X118682874Y-51533743D01*
X118680854Y-51451273D01*
X118678116Y-51389809D01*
X118674585Y-51346304D01*
X118670183Y-51317710D01*
X118664833Y-51300981D01*
X118658458Y-51293070D01*
X118650981Y-51290931D01*
X118650129Y-51290917D01*
X118640867Y-51296363D01*
X118628850Y-51314469D01*
X118613204Y-51347888D01*
X118593053Y-51399274D01*
X118567523Y-51471279D01*
X118535739Y-51566556D01*
X118496828Y-51687758D01*
X118449915Y-51837539D01*
X118394125Y-52018550D01*
X118328583Y-52233446D01*
X118252416Y-52484880D01*
X118207096Y-52635000D01*
X117801709Y-53979084D01*
X117354661Y-53984792D01*
X116907613Y-53990501D01*
X116833740Y-53751959D01*
X116771784Y-53551343D01*
X116709398Y-53348299D01*
X116647828Y-53146967D01*
X116588321Y-52951491D01*
X116532124Y-52766009D01*
X116480484Y-52594665D01*
X116434647Y-52441600D01*
X116395861Y-52310954D01*
X116365373Y-52206869D01*
X116344428Y-52133486D01*
X116334274Y-52094948D01*
X116333501Y-52090433D01*
X116349556Y-52058774D01*
X116362348Y-52048677D01*
X116427741Y-52003362D01*
X116491935Y-51947527D01*
X116545757Y-51890557D01*
X116554567Y-51878034D01*
X116223450Y-51878034D01*
X116050933Y-52041028D01*
X115971654Y-52115911D01*
X115872559Y-52209482D01*
X115764623Y-52311377D01*
X115658823Y-52411234D01*
X115626075Y-52442137D01*
X115521279Y-52539026D01*
X115443693Y-52606081D01*
X115391761Y-52644527D01*
X115363928Y-52655587D01*
X115359036Y-52652334D01*
X115350522Y-52618991D01*
X115341167Y-52555702D01*
X115332712Y-52474775D01*
X115331088Y-52455084D01*
X115322224Y-52351639D01*
X115310588Y-52229025D01*
X115298372Y-52110111D01*
X115295598Y-52084667D01*
X115274932Y-51890775D01*
X115260415Y-51738296D01*
X115252013Y-51626765D01*
X115249692Y-51555715D01*
X115253418Y-51524680D01*
X115254591Y-51523385D01*
X115277737Y-51527868D01*
X115333611Y-51545394D01*
X115415487Y-51573657D01*
X115516638Y-51610351D01*
X115604834Y-51643435D01*
X115729093Y-51690667D01*
X115851347Y-51737103D01*
X115961068Y-51778745D01*
X116047731Y-51811599D01*
X116082683Y-51824826D01*
X116223450Y-51878034D01*
X116554567Y-51878034D01*
X116580035Y-51841834D01*
X116587500Y-51818358D01*
X116582580Y-51795357D01*
X116563460Y-51773942D01*
X116523598Y-51750159D01*
X116456454Y-51720052D01*
X116362878Y-51682554D01*
X116260278Y-51643078D01*
X116160609Y-51605833D01*
X116077247Y-51575763D01*
X116034795Y-51561317D01*
X115976195Y-51539659D01*
X115938695Y-51520551D01*
X115931334Y-51512472D01*
X115938640Y-51484968D01*
X115957953Y-51428654D01*
X115985366Y-51353948D01*
X116016969Y-51271268D01*
X116048855Y-51191030D01*
X116077117Y-51123654D01*
X116077627Y-51122489D01*
X116107509Y-51052011D01*
X116134141Y-50985507D01*
X116138712Y-50973417D01*
X116198503Y-50814123D01*
X116246519Y-50690698D01*
X116284591Y-50598923D01*
X116314550Y-50534579D01*
X116338225Y-50493449D01*
X116356053Y-50472463D01*
X116374674Y-50447210D01*
X116063758Y-50447210D01*
X116061890Y-50474511D01*
X116046456Y-50533489D01*
X116019786Y-50616591D01*
X115984210Y-50716258D01*
X115965835Y-50764710D01*
X115918357Y-50887654D01*
X115869287Y-51014693D01*
X115823951Y-51132044D01*
X115787673Y-51225923D01*
X115783005Y-51238000D01*
X115751822Y-51317874D01*
X115726514Y-51381214D01*
X115710801Y-51418783D01*
X115707731Y-51424984D01*
X115685838Y-51422874D01*
X115637771Y-51408256D01*
X115575991Y-51385923D01*
X115512963Y-51360667D01*
X115461147Y-51337278D01*
X115433007Y-51320550D01*
X115431518Y-51318785D01*
X115429672Y-51288870D01*
X115437898Y-51233468D01*
X115446421Y-51196156D01*
X115458763Y-51137496D01*
X115271107Y-51137496D01*
X115250169Y-51197561D01*
X115229230Y-51257625D01*
X115120657Y-51216371D01*
X115050693Y-51194543D01*
X115004238Y-51189859D01*
X114992759Y-51194442D01*
X114986448Y-51224886D01*
X114986861Y-51296259D01*
X114993936Y-51407705D01*
X115007609Y-51558368D01*
X115027819Y-51747391D01*
X115042361Y-51873000D01*
X115056099Y-51994724D01*
X115069942Y-52127597D01*
X115083331Y-52265022D01*
X115095704Y-52400398D01*
X115106500Y-52527126D01*
X115115159Y-52638606D01*
X115121121Y-52728240D01*
X115123823Y-52789429D01*
X115122707Y-52815571D01*
X115122474Y-52815916D01*
X115098720Y-52814378D01*
X115046393Y-52799941D01*
X114976153Y-52775612D01*
X114965654Y-52771648D01*
X114892136Y-52744173D01*
X114806163Y-52712892D01*
X114717163Y-52681123D01*
X114634564Y-52652184D01*
X114567795Y-52629394D01*
X114526284Y-52616070D01*
X114517707Y-52613981D01*
X114506728Y-52631502D01*
X114485225Y-52676504D01*
X114469306Y-52712647D01*
X114445645Y-52774638D01*
X114444342Y-52813411D01*
X114471083Y-52838739D01*
X114531552Y-52860400D01*
X114559898Y-52868414D01*
X114614394Y-52888097D01*
X114649258Y-52909093D01*
X114652507Y-52913010D01*
X114650291Y-52927350D01*
X114626943Y-52923618D01*
X114587520Y-52911549D01*
X114521526Y-52891437D01*
X114442898Y-52867532D01*
X114439084Y-52866373D01*
X114278140Y-52800394D01*
X114146733Y-52710334D01*
X114048625Y-52599073D01*
X114016204Y-52542572D01*
X113986541Y-52476694D01*
X113971256Y-52421867D01*
X113967560Y-52360641D01*
X113972667Y-52275562D01*
X113972972Y-52271921D01*
X113986725Y-52139834D01*
X114004360Y-52017009D01*
X114024263Y-51912252D01*
X114044818Y-51834369D01*
X114059677Y-51798917D01*
X114083361Y-51746189D01*
X114099446Y-51693818D01*
X114144002Y-51556385D01*
X114211002Y-51417730D01*
X114294103Y-51287012D01*
X114386964Y-51173390D01*
X114483242Y-51086024D01*
X114548024Y-51045996D01*
X114626870Y-51019181D01*
X114719504Y-51010743D01*
X114832290Y-51021118D01*
X114971589Y-51050742D01*
X115087929Y-51083063D01*
X115271107Y-51137496D01*
X115458763Y-51137496D01*
X115460819Y-51127726D01*
X115459962Y-51085833D01*
X115446980Y-51061071D01*
X115417517Y-51042617D01*
X115356438Y-51015454D01*
X115272619Y-50983216D01*
X115174937Y-50949540D01*
X115173436Y-50949050D01*
X115056818Y-50912585D01*
X114965741Y-50888829D01*
X114886271Y-50875205D01*
X114804472Y-50869132D01*
X114735417Y-50867985D01*
X114601956Y-50874400D01*
X114496156Y-50897349D01*
X114405062Y-50941430D01*
X114315720Y-51011239D01*
X114305636Y-51020507D01*
X114243846Y-51090050D01*
X114175748Y-51185665D01*
X114109690Y-51293710D01*
X114054017Y-51400539D01*
X114017232Y-51492000D01*
X113993780Y-51564163D01*
X113972306Y-51625033D01*
X113962068Y-51650750D01*
X113944038Y-51698027D01*
X113920452Y-51768939D01*
X113894811Y-51851709D01*
X113870615Y-51934557D01*
X113851365Y-52005706D01*
X113840563Y-52053377D01*
X113839388Y-52063500D01*
X113837519Y-52098733D01*
X113832808Y-52163524D01*
X113826187Y-52245268D01*
X113824540Y-52264584D01*
X113824740Y-52423112D01*
X113857271Y-52564438D01*
X113925684Y-52702285D01*
X113945790Y-52733340D01*
X114021832Y-52814703D01*
X114139195Y-52894600D01*
X114296876Y-52972533D01*
X114493874Y-53048004D01*
X114717737Y-53117307D01*
X114739947Y-53104093D01*
X114764206Y-53062636D01*
X114769614Y-53048954D01*
X114792292Y-53000318D01*
X114814127Y-52974789D01*
X114818209Y-52973667D01*
X114851433Y-52980992D01*
X114905848Y-52999546D01*
X114968901Y-53024198D01*
X115028040Y-53049815D01*
X115070710Y-53071266D01*
X115084667Y-53082593D01*
X115077435Y-53106542D01*
X115057681Y-53161956D01*
X115028321Y-53240882D01*
X114992269Y-53335367D01*
X114987666Y-53347284D01*
X114943259Y-53463421D01*
X114897718Y-53584752D01*
X114856932Y-53695475D01*
X114831112Y-53767417D01*
X114801829Y-53850028D01*
X114776459Y-53920421D01*
X114759368Y-53966524D01*
X114756516Y-53973792D01*
X114726005Y-54007247D01*
X114684640Y-54002625D01*
X114670859Y-53992414D01*
X114641955Y-53977849D01*
X114583887Y-53956154D01*
X114508260Y-53931602D01*
X114494171Y-53927356D01*
X114412215Y-53901080D01*
X114341527Y-53875106D01*
X114296072Y-53854611D01*
X114293087Y-53852835D01*
X114254971Y-53835312D01*
X114186778Y-53809776D01*
X114099084Y-53780023D01*
X114026334Y-53757060D01*
X113902065Y-53717692D01*
X113796448Y-53680290D01*
X113692110Y-53638174D01*
X113571678Y-53584665D01*
X113539500Y-53569870D01*
X113505265Y-53550730D01*
X113181314Y-53550730D01*
X113103559Y-53786073D01*
X113072224Y-53879975D01*
X113045276Y-53958989D01*
X113025690Y-54014503D01*
X113016640Y-54037583D01*
X112994022Y-54041343D01*
X112934170Y-54044451D01*
X112842176Y-54046828D01*
X112723136Y-54048396D01*
X112582143Y-54049077D01*
X112424291Y-54048791D01*
X112328760Y-54048167D01*
X111650045Y-54042584D01*
X111007314Y-52148167D01*
X110915018Y-51875967D01*
X110826688Y-51615144D01*
X110743263Y-51368490D01*
X110665681Y-51138794D01*
X110594881Y-50928847D01*
X110531803Y-50741440D01*
X110477386Y-50579364D01*
X110432567Y-50445408D01*
X110398287Y-50342363D01*
X110375484Y-50273020D01*
X110365098Y-50240169D01*
X110364542Y-50237875D01*
X110384775Y-50233642D01*
X110441810Y-50229848D01*
X110530117Y-50226649D01*
X110644165Y-50224202D01*
X110778425Y-50222661D01*
X110920125Y-50222181D01*
X111475750Y-50222362D01*
X111739642Y-51179973D01*
X111799251Y-51397160D01*
X111860309Y-51621241D01*
X111920841Y-51844855D01*
X111978871Y-52060643D01*
X112032423Y-52261245D01*
X112079520Y-52439302D01*
X112118188Y-52587454D01*
X112133124Y-52645584D01*
X112180553Y-52828755D01*
X112220098Y-52971520D01*
X112253492Y-53074700D01*
X112282472Y-53139114D01*
X112308771Y-53165581D01*
X112334125Y-53154923D01*
X112360268Y-53107958D01*
X112388935Y-53025508D01*
X112421861Y-52908391D01*
X112451020Y-52795842D01*
X112531389Y-52480433D01*
X112560343Y-52626508D01*
X112613089Y-52814910D01*
X112696160Y-52993374D01*
X112812882Y-53167417D01*
X112966579Y-53342555D01*
X113029662Y-53405073D01*
X113181314Y-53550730D01*
X113505265Y-53550730D01*
X113381944Y-53481785D01*
X113226803Y-53367063D01*
X113082393Y-53233889D01*
X112957030Y-53090448D01*
X112859026Y-52944927D01*
X112815652Y-52857250D01*
X112764199Y-52730018D01*
X112728065Y-52627253D01*
X112704138Y-52535310D01*
X112689306Y-52440544D01*
X112680457Y-52329310D01*
X112676680Y-52247817D01*
X112674148Y-52089454D01*
X112678880Y-51943903D01*
X112690389Y-51824926D01*
X112692072Y-51813900D01*
X112705572Y-51749022D01*
X112728567Y-51658763D01*
X112758542Y-51551237D01*
X112792979Y-51434555D01*
X112829363Y-51316830D01*
X112865177Y-51206174D01*
X112897904Y-51110699D01*
X112925028Y-51038519D01*
X112944033Y-50997745D01*
X112946225Y-50994584D01*
X112964883Y-50959082D01*
X112979039Y-50920500D01*
X113003028Y-50867712D01*
X113040209Y-50808697D01*
X113045129Y-50802086D01*
X113077184Y-50756266D01*
X113094179Y-50724718D01*
X113095000Y-50720782D01*
X113108337Y-50690573D01*
X113143823Y-50637834D01*
X113194675Y-50570935D01*
X113254108Y-50498250D01*
X113315339Y-50428148D01*
X113371583Y-50369002D01*
X113405501Y-50337631D01*
X113472265Y-50281421D01*
X113536988Y-50226855D01*
X113569983Y-50198991D01*
X113664163Y-50134780D01*
X113789559Y-50072013D01*
X113935185Y-50015486D01*
X114090057Y-49969992D01*
X114100417Y-49967475D01*
X114177850Y-49955649D01*
X114284814Y-49948210D01*
X114408734Y-49945169D01*
X114537034Y-49946539D01*
X114657139Y-49952330D01*
X114756473Y-49962555D01*
X114782197Y-49966836D01*
X114844850Y-49981851D01*
X114934950Y-50007452D01*
X115040084Y-50039955D01*
X115140200Y-50073057D01*
X115254486Y-50112146D01*
X115393347Y-50159626D01*
X115541300Y-50210203D01*
X115682861Y-50258583D01*
X115719667Y-50271160D01*
X115829469Y-50309825D01*
X115923695Y-50345193D01*
X115995672Y-50374582D01*
X116038723Y-50395308D01*
X116048075Y-50403173D01*
X116058738Y-50438262D01*
X116063758Y-50447210D01*
X116374674Y-50447210D01*
X116390346Y-50425957D01*
X116410408Y-50371921D01*
X116424011Y-50328293D01*
X116450801Y-50310140D01*
X116500853Y-50306667D01*
X116578247Y-50306667D01*
X116857614Y-51285625D01*
X116916261Y-51491841D01*
X116973420Y-51694155D01*
X117027593Y-51887180D01*
X117077287Y-52065528D01*
X117121003Y-52223812D01*
X117157246Y-52356644D01*
X117184521Y-52458636D01*
X117199238Y-52515855D01*
X117233744Y-52647365D01*
X117263637Y-52739824D01*
X117290648Y-52792852D01*
X117316509Y-52806072D01*
X117342950Y-52779103D01*
X117371705Y-52711569D01*
X117404503Y-52603089D01*
X117440663Y-52463059D01*
X117464073Y-52371766D01*
X117497526Y-52246063D01*
X117539299Y-52092204D01*
X117587664Y-51916441D01*
X117640897Y-51725030D01*
X117697272Y-51524223D01*
X117755064Y-51320275D01*
X117781566Y-51227417D01*
X118041949Y-50317250D01*
X118828142Y-50311701D01*
X119614334Y-50306152D01*
X119614334Y-53989667D01*
X119794443Y-53989667D01*
X119796639Y-53942517D01*
X119798942Y-53863689D01*
X119800767Y-53764318D01*
X119802171Y-53641800D01*
X119803208Y-53493531D01*
X119803933Y-53316907D01*
X119804403Y-53109324D01*
X119804673Y-52868177D01*
X119804797Y-52590864D01*
X119804832Y-52274780D01*
X119804834Y-52148167D01*
X119804818Y-51817157D01*
X119804732Y-51525877D01*
X119804523Y-51271722D01*
X119804133Y-51052089D01*
X119803508Y-50864373D01*
X119802592Y-50705971D01*
X119801330Y-50574278D01*
X119799666Y-50466691D01*
X119797546Y-50380605D01*
X119794913Y-50313417D01*
X119791712Y-50262523D01*
X119787888Y-50225318D01*
X119783386Y-50199199D01*
X119778149Y-50181562D01*
X119772124Y-50169802D01*
X119765253Y-50161317D01*
X119762501Y-50158500D01*
X119750672Y-50148044D01*
X119735433Y-50139466D01*
X119712781Y-50132583D01*
X119678713Y-50127206D01*
X119629227Y-50123152D01*
X119560320Y-50120233D01*
X119467988Y-50118264D01*
X119348230Y-50117059D01*
X119197041Y-50116432D01*
X119010420Y-50116197D01*
X118850942Y-50116167D01*
X118639528Y-50116660D01*
X118449597Y-50118087D01*
X118284622Y-50120369D01*
X118148075Y-50123430D01*
X118043428Y-50127191D01*
X117974152Y-50131575D01*
X117943720Y-50136502D01*
X117943679Y-50136525D01*
X117908089Y-50170538D01*
X117881938Y-50215900D01*
X117869604Y-50252430D01*
X117847733Y-50323377D01*
X117817735Y-50423793D01*
X117781017Y-50548731D01*
X117738985Y-50693244D01*
X117693048Y-50852385D01*
X117644612Y-51021206D01*
X117595086Y-51194760D01*
X117545877Y-51368100D01*
X117498392Y-51536279D01*
X117454038Y-51694350D01*
X117414224Y-51837365D01*
X117380357Y-51960377D01*
X117353844Y-52058439D01*
X117336093Y-52126604D01*
X117328510Y-52159924D01*
X117328334Y-52161793D01*
X117323856Y-52187484D01*
X117318697Y-52187919D01*
X117311162Y-52166261D01*
X117293224Y-52107806D01*
X117266029Y-52016488D01*
X117230725Y-51896237D01*
X117188462Y-51750984D01*
X117140385Y-51584660D01*
X117087643Y-51401198D01*
X117031384Y-51204528D01*
X117022585Y-51173683D01*
X116945110Y-50904090D01*
X116878033Y-50675136D01*
X116821373Y-50486885D01*
X116775149Y-50339398D01*
X116739380Y-50232738D01*
X116714087Y-50166965D01*
X116700093Y-50142625D01*
X116668644Y-50131634D01*
X116606432Y-50123748D01*
X116510124Y-50118748D01*
X116376387Y-50116409D01*
X116302740Y-50116167D01*
X116165685Y-50115624D01*
X116061746Y-50113381D01*
X115981711Y-50108516D01*
X115916370Y-50100109D01*
X115856512Y-50087238D01*
X115792926Y-50068983D01*
X115775160Y-50063404D01*
X115683666Y-50034916D01*
X115595561Y-50008408D01*
X115528102Y-49989057D01*
X115521417Y-49987249D01*
X115441654Y-49961956D01*
X115360034Y-49930397D01*
X115349250Y-49925646D01*
X115288327Y-49902296D01*
X115202388Y-49874507D01*
X115107649Y-49847441D01*
X115084667Y-49841437D01*
X114990454Y-49816976D01*
X114900965Y-49793103D01*
X114832314Y-49774134D01*
X114820084Y-49770601D01*
X114764590Y-49760973D01*
X114675717Y-49753462D01*
X114562389Y-49748592D01*
X114433529Y-49746890D01*
X114417917Y-49746922D01*
G37*
X114417917Y-49746922D02*
X114292143Y-49747905D01*
X114197588Y-49750791D01*
X114123138Y-49757071D01*
X114057681Y-49768236D01*
X113990104Y-49785779D01*
X113909293Y-49811190D01*
X113888750Y-49817946D01*
X113784403Y-49855653D01*
X113680766Y-49898612D01*
X113593728Y-49940019D01*
X113560667Y-49958457D01*
X113508399Y-49994729D01*
X113439469Y-50048937D01*
X113360342Y-50115237D01*
X113277487Y-50187781D01*
X113197367Y-50260723D01*
X113126451Y-50328218D01*
X113071203Y-50384419D01*
X113038091Y-50423481D01*
X113031500Y-50436884D01*
X113020616Y-50463699D01*
X112992081Y-50514498D01*
X112952125Y-50578206D01*
X112895082Y-50665430D01*
X112856431Y-50725499D01*
X112831236Y-50766582D01*
X112814559Y-50796850D01*
X112801465Y-50824471D01*
X112796463Y-50835834D01*
X112770299Y-50895013D01*
X112744571Y-50952250D01*
X112696222Y-51071606D01*
X112644748Y-51221039D01*
X112593749Y-51388828D01*
X112546823Y-51563253D01*
X112513767Y-51703667D01*
X112486388Y-51824459D01*
X112455877Y-51951259D01*
X112424037Y-52077410D01*
X112392672Y-52196257D01*
X112363584Y-52301144D01*
X112338575Y-52385414D01*
X112319449Y-52442412D01*
X112308007Y-52465482D01*
X112307385Y-52465667D01*
X112292245Y-52448617D01*
X112290667Y-52436128D01*
X112285179Y-52410757D01*
X112269390Y-52348353D01*
X112244310Y-52252679D01*
X112210951Y-52127495D01*
X112170324Y-51976563D01*
X112123441Y-51803645D01*
X112071311Y-51612502D01*
X112014948Y-51406896D01*
X111973435Y-51256086D01*
X111902086Y-50998225D01*
X111840719Y-50778549D01*
X111788497Y-50594318D01*
X111744585Y-50442789D01*
X111708144Y-50321220D01*
X111678341Y-50226870D01*
X111654337Y-50156997D01*
X111635298Y-50108859D01*
X111620387Y-50079713D01*
X111611256Y-50068542D01*
X111595412Y-50058131D01*
X111572850Y-50049857D01*
X111538948Y-50043480D01*
X111489082Y-50038757D01*
X111418628Y-50035447D01*
X111322962Y-50033309D01*
X111197463Y-50032102D01*
X111037505Y-50031583D01*
X110901906Y-50031500D01*
X110716390Y-50031609D01*
X110568560Y-50032122D01*
X110453772Y-50033318D01*
X110367377Y-50035474D01*
X110304729Y-50038868D01*
X110261182Y-50043780D01*
X110232090Y-50050488D01*
X110212806Y-50059269D01*
X110198684Y-50070402D01*
X110195167Y-50073833D01*
X110160130Y-50137542D01*
X110152834Y-50195863D01*
X110159474Y-50224253D01*
X110178642Y-50289340D01*
X110209209Y-50387752D01*
X110250049Y-50516116D01*
X110300031Y-50671059D01*
X110358029Y-50849208D01*
X110422913Y-51047191D01*
X110493556Y-51261634D01*
X110568830Y-51489165D01*
X110647606Y-51726411D01*
X110728756Y-51969999D01*
X110811153Y-52216557D01*
X110893666Y-52462711D01*
X110975170Y-52705090D01*
X111054535Y-52940319D01*
X111130632Y-53165027D01*
X111202335Y-53375840D01*
X111268515Y-53569385D01*
X111328043Y-53742291D01*
X111379791Y-53891184D01*
X111422632Y-54012690D01*
X111455437Y-54103439D01*
X111477077Y-54160056D01*
X111484325Y-54176414D01*
X111517274Y-54215971D01*
X111540394Y-54230593D01*
X111568788Y-54233591D01*
X111634538Y-54236347D01*
X111732669Y-54238779D01*
X111858203Y-54240809D01*
X112006164Y-54242354D01*
X112171577Y-54243333D01*
X112345315Y-54243667D01*
X112546911Y-54243559D01*
X112710427Y-54243099D01*
X112840117Y-54242075D01*
X112940234Y-54240282D01*
X113015033Y-54237510D01*
X113068766Y-54233550D01*
X113105687Y-54228195D01*
X113130050Y-54221235D01*
X113146108Y-54212463D01*
X113155883Y-54203951D01*
X113179124Y-54167512D01*
X113209825Y-54101254D01*
X113243302Y-54015912D01*
X113264350Y-53955243D01*
X113294672Y-53866279D01*
X113321928Y-53792097D01*
X113342521Y-53742171D01*
X113351049Y-53726727D01*
X113381955Y-53721735D01*
X113435234Y-53739824D01*
X113438374Y-53741348D01*
X113612588Y-53823416D01*
X113762726Y-53885642D01*
X113899490Y-53932319D01*
X113952250Y-53947435D01*
X114048981Y-53976468D01*
X114145426Y-54009959D01*
X114222041Y-54041079D01*
X114227417Y-54043588D01*
X114275124Y-54062734D01*
X114350545Y-54089099D01*
X114444531Y-54119892D01*
X114547932Y-54152320D01*
X114651598Y-54183591D01*
X114746379Y-54210913D01*
X114823125Y-54231494D01*
X114872685Y-54242541D01*
X114883102Y-54243667D01*
X114899134Y-54226209D01*
X114921287Y-54183342D01*
X114924904Y-54174875D01*
X114977052Y-54047927D01*
X115023433Y-53932315D01*
X115061656Y-53834231D01*
X115089329Y-53759863D01*
X115104061Y-53715403D01*
X115105834Y-53706603D01*
X115113384Y-53673376D01*
X115133643Y-53613071D01*
X115163024Y-53534428D01*
X115197941Y-53446183D01*
X115234805Y-53357075D01*
X115270029Y-53275843D01*
X115300028Y-53211224D01*
X115321214Y-53171957D01*
X115328503Y-53164167D01*
X115357070Y-53171411D01*
X115414368Y-53190716D01*
X115489810Y-53218446D01*
X115519067Y-53229671D01*
X115621459Y-53268516D01*
X115731649Y-53308954D01*
X115826820Y-53342620D01*
X115831965Y-53344382D01*
X115976012Y-53393589D01*
X115996006Y-53342378D01*
X116020202Y-53280383D01*
X116036868Y-53237660D01*
X116046873Y-53196171D01*
X116028472Y-53173480D01*
X116010409Y-53165252D01*
X115973514Y-53150930D01*
X115905979Y-53125088D01*
X115816775Y-53091146D01*
X115714871Y-53052524D01*
X115693593Y-53044477D01*
X115424102Y-52942604D01*
X115473635Y-52899927D01*
X115503903Y-52872526D01*
X115559268Y-52821140D01*
X115634168Y-52750979D01*
X115723044Y-52667254D01*
X115820336Y-52575176D01*
X115835364Y-52560917D01*
X115931425Y-52470694D01*
X116018320Y-52390883D01*
X116090983Y-52325994D01*
X116144344Y-52280536D01*
X116173335Y-52259020D01*
X116175815Y-52257974D01*
X116198437Y-52269056D01*
X116201926Y-52289724D01*
X116207400Y-52319079D01*
X116223926Y-52383474D01*
X116249973Y-52477527D01*
X116284009Y-52595857D01*
X116324504Y-52733083D01*
X116369928Y-52883824D01*
X116384427Y-52931334D01*
X116461472Y-53182834D01*
X116527257Y-53396904D01*
X116582820Y-53576623D01*
X116629198Y-53725067D01*
X116667430Y-53845315D01*
X116698555Y-53940444D01*
X116723609Y-54013532D01*
X116743632Y-54067656D01*
X116759662Y-54105895D01*
X116772736Y-54131325D01*
X116783893Y-54147026D01*
X116794172Y-54156074D01*
X116798404Y-54158592D01*
X116832527Y-54165426D01*
X116904584Y-54171161D01*
X117010188Y-54175627D01*
X117144951Y-54178656D01*
X117304484Y-54180079D01*
X117358692Y-54180167D01*
X117529485Y-54180309D01*
X117663193Y-54179361D01*
X117765055Y-54175260D01*
X117840307Y-54165946D01*
X117894188Y-54149355D01*
X117931934Y-54123428D01*
X117958785Y-54086100D01*
X117979977Y-54035312D01*
X118000748Y-53969001D01*
X118014899Y-53921854D01*
X118033803Y-53859613D01*
X118063066Y-53762991D01*
X118100827Y-53638140D01*
X118145227Y-53491213D01*
X118194407Y-53328361D01*
X118246508Y-53155736D01*
X118285753Y-53025640D01*
X118503084Y-52305029D01*
X118496733Y-53199205D01*
X118495236Y-53417134D01*
X118494235Y-53596677D01*
X118493887Y-53741779D01*
X118494347Y-53856389D01*
X118495772Y-53944450D01*
X118498317Y-54009910D01*
X118502138Y-54056715D01*
X118507391Y-54088810D01*
X118514232Y-54110142D01*
X118522817Y-54124657D01*
X118533301Y-54136300D01*
X118533775Y-54136774D01*
X118548464Y-54149724D01*
X118566910Y-54159806D01*
X118594184Y-54167378D01*
X118635358Y-54172799D01*
X118695503Y-54176427D01*
X118779692Y-54178619D01*
X118892996Y-54179733D01*
X119040487Y-54180127D01*
X119148667Y-54180167D01*
X119319489Y-54180022D01*
X119453039Y-54179356D01*
X119554378Y-54177820D01*
X119628566Y-54175064D01*
X119680665Y-54170739D01*
X119715735Y-54164496D01*
X119738838Y-54155987D01*
X119755034Y-54144863D01*
X119762500Y-54137833D01*
X119769696Y-54129897D01*
X119776026Y-54119645D01*
X119781547Y-54104474D01*
X119786313Y-54081780D01*
X119790380Y-54048958D01*
X119793804Y-54003405D01*
X119794443Y-53989667D01*
X119614334Y-53989667D01*
X118680759Y-53989667D01*
X118684266Y-52640292D01*
X118684926Y-52367808D01*
X118685333Y-52134609D01*
X118685408Y-51937651D01*
X118685074Y-51773885D01*
X118684256Y-51640264D01*
X118682874Y-51533743D01*
X118680854Y-51451273D01*
X118678116Y-51389809D01*
X118674585Y-51346304D01*
X118670183Y-51317710D01*
X118664833Y-51300981D01*
X118658458Y-51293070D01*
X118650981Y-51290931D01*
X118650129Y-51290917D01*
X118640867Y-51296363D01*
X118628850Y-51314469D01*
X118613204Y-51347888D01*
X118593053Y-51399274D01*
X118567523Y-51471279D01*
X118535739Y-51566556D01*
X118496828Y-51687758D01*
X118449915Y-51837539D01*
X118394125Y-52018550D01*
X118328583Y-52233446D01*
X118252416Y-52484880D01*
X118207096Y-52635000D01*
X117801709Y-53979084D01*
X117354661Y-53984792D01*
X116907613Y-53990501D01*
X116833740Y-53751959D01*
X116771784Y-53551343D01*
X116709398Y-53348299D01*
X116647828Y-53146967D01*
X116588321Y-52951491D01*
X116532124Y-52766009D01*
X116480484Y-52594665D01*
X116434647Y-52441600D01*
X116395861Y-52310954D01*
X116365373Y-52206869D01*
X116344428Y-52133486D01*
X116334274Y-52094948D01*
X116333501Y-52090433D01*
X116349556Y-52058774D01*
X116362348Y-52048677D01*
X116427741Y-52003362D01*
X116491935Y-51947527D01*
X116545757Y-51890557D01*
X116554567Y-51878034D01*
X116223450Y-51878034D01*
X116050933Y-52041028D01*
X115971654Y-52115911D01*
X115872559Y-52209482D01*
X115764623Y-52311377D01*
X115658823Y-52411234D01*
X115626075Y-52442137D01*
X115521279Y-52539026D01*
X115443693Y-52606081D01*
X115391761Y-52644527D01*
X115363928Y-52655587D01*
X115359036Y-52652334D01*
X115350522Y-52618991D01*
X115341167Y-52555702D01*
X115332712Y-52474775D01*
X115331088Y-52455084D01*
X115322224Y-52351639D01*
X115310588Y-52229025D01*
X115298372Y-52110111D01*
X115295598Y-52084667D01*
X115274932Y-51890775D01*
X115260415Y-51738296D01*
X115252013Y-51626765D01*
X115249692Y-51555715D01*
X115253418Y-51524680D01*
X115254591Y-51523385D01*
X115277737Y-51527868D01*
X115333611Y-51545394D01*
X115415487Y-51573657D01*
X115516638Y-51610351D01*
X115604834Y-51643435D01*
X115729093Y-51690667D01*
X115851347Y-51737103D01*
X115961068Y-51778745D01*
X116047731Y-51811599D01*
X116082683Y-51824826D01*
X116223450Y-51878034D01*
X116554567Y-51878034D01*
X116580035Y-51841834D01*
X116587500Y-51818358D01*
X116582580Y-51795357D01*
X116563460Y-51773942D01*
X116523598Y-51750159D01*
X116456454Y-51720052D01*
X116362878Y-51682554D01*
X116260278Y-51643078D01*
X116160609Y-51605833D01*
X116077247Y-51575763D01*
X116034795Y-51561317D01*
X115976195Y-51539659D01*
X115938695Y-51520551D01*
X115931334Y-51512472D01*
X115938640Y-51484968D01*
X115957953Y-51428654D01*
X115985366Y-51353948D01*
X116016969Y-51271268D01*
X116048855Y-51191030D01*
X116077117Y-51123654D01*
X116077627Y-51122489D01*
X116107509Y-51052011D01*
X116134141Y-50985507D01*
X116138712Y-50973417D01*
X116198503Y-50814123D01*
X116246519Y-50690698D01*
X116284591Y-50598923D01*
X116314550Y-50534579D01*
X116338225Y-50493449D01*
X116356053Y-50472463D01*
X116374674Y-50447210D01*
X116063758Y-50447210D01*
X116061890Y-50474511D01*
X116046456Y-50533489D01*
X116019786Y-50616591D01*
X115984210Y-50716258D01*
X115965835Y-50764710D01*
X115918357Y-50887654D01*
X115869287Y-51014693D01*
X115823951Y-51132044D01*
X115787673Y-51225923D01*
X115783005Y-51238000D01*
X115751822Y-51317874D01*
X115726514Y-51381214D01*
X115710801Y-51418783D01*
X115707731Y-51424984D01*
X115685838Y-51422874D01*
X115637771Y-51408256D01*
X115575991Y-51385923D01*
X115512963Y-51360667D01*
X115461147Y-51337278D01*
X115433007Y-51320550D01*
X115431518Y-51318785D01*
X115429672Y-51288870D01*
X115437898Y-51233468D01*
X115446421Y-51196156D01*
X115458763Y-51137496D01*
X115271107Y-51137496D01*
X115250169Y-51197561D01*
X115229230Y-51257625D01*
X115120657Y-51216371D01*
X115050693Y-51194543D01*
X115004238Y-51189859D01*
X114992759Y-51194442D01*
X114986448Y-51224886D01*
X114986861Y-51296259D01*
X114993936Y-51407705D01*
X115007609Y-51558368D01*
X115027819Y-51747391D01*
X115042361Y-51873000D01*
X115056099Y-51994724D01*
X115069942Y-52127597D01*
X115083331Y-52265022D01*
X115095704Y-52400398D01*
X115106500Y-52527126D01*
X115115159Y-52638606D01*
X115121121Y-52728240D01*
X115123823Y-52789429D01*
X115122707Y-52815571D01*
X115122474Y-52815916D01*
X115098720Y-52814378D01*
X115046393Y-52799941D01*
X114976153Y-52775612D01*
X114965654Y-52771648D01*
X114892136Y-52744173D01*
X114806163Y-52712892D01*
X114717163Y-52681123D01*
X114634564Y-52652184D01*
X114567795Y-52629394D01*
X114526284Y-52616070D01*
X114517707Y-52613981D01*
X114506728Y-52631502D01*
X114485225Y-52676504D01*
X114469306Y-52712647D01*
X114445645Y-52774638D01*
X114444342Y-52813411D01*
X114471083Y-52838739D01*
X114531552Y-52860400D01*
X114559898Y-52868414D01*
X114614394Y-52888097D01*
X114649258Y-52909093D01*
X114652507Y-52913010D01*
X114650291Y-52927350D01*
X114626943Y-52923618D01*
X114587520Y-52911549D01*
X114521526Y-52891437D01*
X114442898Y-52867532D01*
X114439084Y-52866373D01*
X114278140Y-52800394D01*
X114146733Y-52710334D01*
X114048625Y-52599073D01*
X114016204Y-52542572D01*
X113986541Y-52476694D01*
X113971256Y-52421867D01*
X113967560Y-52360641D01*
X113972667Y-52275562D01*
X113972972Y-52271921D01*
X113986725Y-52139834D01*
X114004360Y-52017009D01*
X114024263Y-51912252D01*
X114044818Y-51834369D01*
X114059677Y-51798917D01*
X114083361Y-51746189D01*
X114099446Y-51693818D01*
X114144002Y-51556385D01*
X114211002Y-51417730D01*
X114294103Y-51287012D01*
X114386964Y-51173390D01*
X114483242Y-51086024D01*
X114548024Y-51045996D01*
X114626870Y-51019181D01*
X114719504Y-51010743D01*
X114832290Y-51021118D01*
X114971589Y-51050742D01*
X115087929Y-51083063D01*
X115271107Y-51137496D01*
X115458763Y-51137496D01*
X115460819Y-51127726D01*
X115459962Y-51085833D01*
X115446980Y-51061071D01*
X115417517Y-51042617D01*
X115356438Y-51015454D01*
X115272619Y-50983216D01*
X115174937Y-50949540D01*
X115173436Y-50949050D01*
X115056818Y-50912585D01*
X114965741Y-50888829D01*
X114886271Y-50875205D01*
X114804472Y-50869132D01*
X114735417Y-50867985D01*
X114601956Y-50874400D01*
X114496156Y-50897349D01*
X114405062Y-50941430D01*
X114315720Y-51011239D01*
X114305636Y-51020507D01*
X114243846Y-51090050D01*
X114175748Y-51185665D01*
X114109690Y-51293710D01*
X114054017Y-51400539D01*
X114017232Y-51492000D01*
X113993780Y-51564163D01*
X113972306Y-51625033D01*
X113962068Y-51650750D01*
X113944038Y-51698027D01*
X113920452Y-51768939D01*
X113894811Y-51851709D01*
X113870615Y-51934557D01*
X113851365Y-52005706D01*
X113840563Y-52053377D01*
X113839388Y-52063500D01*
X113837519Y-52098733D01*
X113832808Y-52163524D01*
X113826187Y-52245268D01*
X113824540Y-52264584D01*
X113824740Y-52423112D01*
X113857271Y-52564438D01*
X113925684Y-52702285D01*
X113945790Y-52733340D01*
X114021832Y-52814703D01*
X114139195Y-52894600D01*
X114296876Y-52972533D01*
X114493874Y-53048004D01*
X114717737Y-53117307D01*
X114739947Y-53104093D01*
X114764206Y-53062636D01*
X114769614Y-53048954D01*
X114792292Y-53000318D01*
X114814127Y-52974789D01*
X114818209Y-52973667D01*
X114851433Y-52980992D01*
X114905848Y-52999546D01*
X114968901Y-53024198D01*
X115028040Y-53049815D01*
X115070710Y-53071266D01*
X115084667Y-53082593D01*
X115077435Y-53106542D01*
X115057681Y-53161956D01*
X115028321Y-53240882D01*
X114992269Y-53335367D01*
X114987666Y-53347284D01*
X114943259Y-53463421D01*
X114897718Y-53584752D01*
X114856932Y-53695475D01*
X114831112Y-53767417D01*
X114801829Y-53850028D01*
X114776459Y-53920421D01*
X114759368Y-53966524D01*
X114756516Y-53973792D01*
X114726005Y-54007247D01*
X114684640Y-54002625D01*
X114670859Y-53992414D01*
X114641955Y-53977849D01*
X114583887Y-53956154D01*
X114508260Y-53931602D01*
X114494171Y-53927356D01*
X114412215Y-53901080D01*
X114341527Y-53875106D01*
X114296072Y-53854611D01*
X114293087Y-53852835D01*
X114254971Y-53835312D01*
X114186778Y-53809776D01*
X114099084Y-53780023D01*
X114026334Y-53757060D01*
X113902065Y-53717692D01*
X113796448Y-53680290D01*
X113692110Y-53638174D01*
X113571678Y-53584665D01*
X113539500Y-53569870D01*
X113505265Y-53550730D01*
X113181314Y-53550730D01*
X113103559Y-53786073D01*
X113072224Y-53879975D01*
X113045276Y-53958989D01*
X113025690Y-54014503D01*
X113016640Y-54037583D01*
X112994022Y-54041343D01*
X112934170Y-54044451D01*
X112842176Y-54046828D01*
X112723136Y-54048396D01*
X112582143Y-54049077D01*
X112424291Y-54048791D01*
X112328760Y-54048167D01*
X111650045Y-54042584D01*
X111007314Y-52148167D01*
X110915018Y-51875967D01*
X110826688Y-51615144D01*
X110743263Y-51368490D01*
X110665681Y-51138794D01*
X110594881Y-50928847D01*
X110531803Y-50741440D01*
X110477386Y-50579364D01*
X110432567Y-50445408D01*
X110398287Y-50342363D01*
X110375484Y-50273020D01*
X110365098Y-50240169D01*
X110364542Y-50237875D01*
X110384775Y-50233642D01*
X110441810Y-50229848D01*
X110530117Y-50226649D01*
X110644165Y-50224202D01*
X110778425Y-50222661D01*
X110920125Y-50222181D01*
X111475750Y-50222362D01*
X111739642Y-51179973D01*
X111799251Y-51397160D01*
X111860309Y-51621241D01*
X111920841Y-51844855D01*
X111978871Y-52060643D01*
X112032423Y-52261245D01*
X112079520Y-52439302D01*
X112118188Y-52587454D01*
X112133124Y-52645584D01*
X112180553Y-52828755D01*
X112220098Y-52971520D01*
X112253492Y-53074700D01*
X112282472Y-53139114D01*
X112308771Y-53165581D01*
X112334125Y-53154923D01*
X112360268Y-53107958D01*
X112388935Y-53025508D01*
X112421861Y-52908391D01*
X112451020Y-52795842D01*
X112531389Y-52480433D01*
X112560343Y-52626508D01*
X112613089Y-52814910D01*
X112696160Y-52993374D01*
X112812882Y-53167417D01*
X112966579Y-53342555D01*
X113029662Y-53405073D01*
X113181314Y-53550730D01*
X113505265Y-53550730D01*
X113381944Y-53481785D01*
X113226803Y-53367063D01*
X113082393Y-53233889D01*
X112957030Y-53090448D01*
X112859026Y-52944927D01*
X112815652Y-52857250D01*
X112764199Y-52730018D01*
X112728065Y-52627253D01*
X112704138Y-52535310D01*
X112689306Y-52440544D01*
X112680457Y-52329310D01*
X112676680Y-52247817D01*
X112674148Y-52089454D01*
X112678880Y-51943903D01*
X112690389Y-51824926D01*
X112692072Y-51813900D01*
X112705572Y-51749022D01*
X112728567Y-51658763D01*
X112758542Y-51551237D01*
X112792979Y-51434555D01*
X112829363Y-51316830D01*
X112865177Y-51206174D01*
X112897904Y-51110699D01*
X112925028Y-51038519D01*
X112944033Y-50997745D01*
X112946225Y-50994584D01*
X112964883Y-50959082D01*
X112979039Y-50920500D01*
X113003028Y-50867712D01*
X113040209Y-50808697D01*
X113045129Y-50802086D01*
X113077184Y-50756266D01*
X113094179Y-50724718D01*
X113095000Y-50720782D01*
X113108337Y-50690573D01*
X113143823Y-50637834D01*
X113194675Y-50570935D01*
X113254108Y-50498250D01*
X113315339Y-50428148D01*
X113371583Y-50369002D01*
X113405501Y-50337631D01*
X113472265Y-50281421D01*
X113536988Y-50226855D01*
X113569983Y-50198991D01*
X113664163Y-50134780D01*
X113789559Y-50072013D01*
X113935185Y-50015486D01*
X114090057Y-49969992D01*
X114100417Y-49967475D01*
X114177850Y-49955649D01*
X114284814Y-49948210D01*
X114408734Y-49945169D01*
X114537034Y-49946539D01*
X114657139Y-49952330D01*
X114756473Y-49962555D01*
X114782197Y-49966836D01*
X114844850Y-49981851D01*
X114934950Y-50007452D01*
X115040084Y-50039955D01*
X115140200Y-50073057D01*
X115254486Y-50112146D01*
X115393347Y-50159626D01*
X115541300Y-50210203D01*
X115682861Y-50258583D01*
X115719667Y-50271160D01*
X115829469Y-50309825D01*
X115923695Y-50345193D01*
X115995672Y-50374582D01*
X116038723Y-50395308D01*
X116048075Y-50403173D01*
X116058738Y-50438262D01*
X116063758Y-50447210D01*
X116374674Y-50447210D01*
X116390346Y-50425957D01*
X116410408Y-50371921D01*
X116424011Y-50328293D01*
X116450801Y-50310140D01*
X116500853Y-50306667D01*
X116578247Y-50306667D01*
X116857614Y-51285625D01*
X116916261Y-51491841D01*
X116973420Y-51694155D01*
X117027593Y-51887180D01*
X117077287Y-52065528D01*
X117121003Y-52223812D01*
X117157246Y-52356644D01*
X117184521Y-52458636D01*
X117199238Y-52515855D01*
X117233744Y-52647365D01*
X117263637Y-52739824D01*
X117290648Y-52792852D01*
X117316509Y-52806072D01*
X117342950Y-52779103D01*
X117371705Y-52711569D01*
X117404503Y-52603089D01*
X117440663Y-52463059D01*
X117464073Y-52371766D01*
X117497526Y-52246063D01*
X117539299Y-52092204D01*
X117587664Y-51916441D01*
X117640897Y-51725030D01*
X117697272Y-51524223D01*
X117755064Y-51320275D01*
X117781566Y-51227417D01*
X118041949Y-50317250D01*
X118828142Y-50311701D01*
X119614334Y-50306152D01*
X119614334Y-53989667D01*
X119794443Y-53989667D01*
X119796639Y-53942517D01*
X119798942Y-53863689D01*
X119800767Y-53764318D01*
X119802171Y-53641800D01*
X119803208Y-53493531D01*
X119803933Y-53316907D01*
X119804403Y-53109324D01*
X119804673Y-52868177D01*
X119804797Y-52590864D01*
X119804832Y-52274780D01*
X119804834Y-52148167D01*
X119804818Y-51817157D01*
X119804732Y-51525877D01*
X119804523Y-51271722D01*
X119804133Y-51052089D01*
X119803508Y-50864373D01*
X119802592Y-50705971D01*
X119801330Y-50574278D01*
X119799666Y-50466691D01*
X119797546Y-50380605D01*
X119794913Y-50313417D01*
X119791712Y-50262523D01*
X119787888Y-50225318D01*
X119783386Y-50199199D01*
X119778149Y-50181562D01*
X119772124Y-50169802D01*
X119765253Y-50161317D01*
X119762501Y-50158500D01*
X119750672Y-50148044D01*
X119735433Y-50139466D01*
X119712781Y-50132583D01*
X119678713Y-50127206D01*
X119629227Y-50123152D01*
X119560320Y-50120233D01*
X119467988Y-50118264D01*
X119348230Y-50117059D01*
X119197041Y-50116432D01*
X119010420Y-50116197D01*
X118850942Y-50116167D01*
X118639528Y-50116660D01*
X118449597Y-50118087D01*
X118284622Y-50120369D01*
X118148075Y-50123430D01*
X118043428Y-50127191D01*
X117974152Y-50131575D01*
X117943720Y-50136502D01*
X117943679Y-50136525D01*
X117908089Y-50170538D01*
X117881938Y-50215900D01*
X117869604Y-50252430D01*
X117847733Y-50323377D01*
X117817735Y-50423793D01*
X117781017Y-50548731D01*
X117738985Y-50693244D01*
X117693048Y-50852385D01*
X117644612Y-51021206D01*
X117595086Y-51194760D01*
X117545877Y-51368100D01*
X117498392Y-51536279D01*
X117454038Y-51694350D01*
X117414224Y-51837365D01*
X117380357Y-51960377D01*
X117353844Y-52058439D01*
X117336093Y-52126604D01*
X117328510Y-52159924D01*
X117328334Y-52161793D01*
X117323856Y-52187484D01*
X117318697Y-52187919D01*
X117311162Y-52166261D01*
X117293224Y-52107806D01*
X117266029Y-52016488D01*
X117230725Y-51896237D01*
X117188462Y-51750984D01*
X117140385Y-51584660D01*
X117087643Y-51401198D01*
X117031384Y-51204528D01*
X117022585Y-51173683D01*
X116945110Y-50904090D01*
X116878033Y-50675136D01*
X116821373Y-50486885D01*
X116775149Y-50339398D01*
X116739380Y-50232738D01*
X116714087Y-50166965D01*
X116700093Y-50142625D01*
X116668644Y-50131634D01*
X116606432Y-50123748D01*
X116510124Y-50118748D01*
X116376387Y-50116409D01*
X116302740Y-50116167D01*
X116165685Y-50115624D01*
X116061746Y-50113381D01*
X115981711Y-50108516D01*
X115916370Y-50100109D01*
X115856512Y-50087238D01*
X115792926Y-50068983D01*
X115775160Y-50063404D01*
X115683666Y-50034916D01*
X115595561Y-50008408D01*
X115528102Y-49989057D01*
X115521417Y-49987249D01*
X115441654Y-49961956D01*
X115360034Y-49930397D01*
X115349250Y-49925646D01*
X115288327Y-49902296D01*
X115202388Y-49874507D01*
X115107649Y-49847441D01*
X115084667Y-49841437D01*
X114990454Y-49816976D01*
X114900965Y-49793103D01*
X114832314Y-49774134D01*
X114820084Y-49770601D01*
X114764590Y-49760973D01*
X114675717Y-49753462D01*
X114562389Y-49748592D01*
X114433529Y-49746890D01*
X114417917Y-49746922D01*
D13*
%TO.C,RT1*%
X100100000Y-49725000D02*
X100100000Y-48675000D01*
%TD*%
M02*
