M48
; DRILL file {KiCad (5.1.12-1-g0a0a2da680)-1} date 11/30/21 19:19:04
; FORMAT={-:-/ absolute / metric / decimal}
; #@! TF.CreationDate,2021-11-30T19:19:04+01:00
; #@! TF.GenerationSoftware,Kicad,Pcbnew,(5.1.12-1-g0a0a2da680)-1
FMAT,2
METRIC
T1C0.400
T2C1.200
%
G90
G05
T1
X83.6Y-45.5
X84.1Y-42.3
X84.2Y-52.0
X84.5Y-46.71
X88.07Y-52.5
X89.736Y-46.264
X90.0Y-51.825
X91.965Y-49.518
X92.0Y-46.5
X92.4Y-48.6
X93.0Y-46.5
X93.93Y-51.83
X95.2Y-46.9
X95.4Y-51.83
X97.148Y-46.263
X98.55Y-51.896
X100.1Y-52.3
X101.6Y-44.4
X101.6Y-46.9
X102.545Y-47.6
X102.7Y-46.3
X103.2Y-52.5
X104.3Y-52.2
X105.9Y-49.5
X106.675Y-48.289
X106.7Y-45.0
X107.738Y-52.68
X108.2Y-49.2
X108.575Y-45.725
X110.8Y-42.3
X110.8Y-52.375
X111.8Y-52.6
X113.2Y-46.1
X113.328Y-50.78
X113.787Y-52.707
X115.75Y-52.3
X117.2Y-52.5
X118.149Y-47.669
X119.6Y-46.9
X119.6Y-53.1
T2
X82.5Y-47.46
X82.5Y-50.0
X116.9Y-42.86
X116.9Y-45.4
T0
M30
