%TF.GenerationSoftware,KiCad,Pcbnew,(5.1.12-1-g0a0a2da680)-1*%
%TF.CreationDate,2021-11-30T19:19:06+01:00*%
%TF.ProjectId,SolarCharger,536f6c61-7243-4686-9172-6765722e6b69,rev?*%
%TF.SameCoordinates,Original*%
%TF.FileFunction,Copper,L1,Top*%
%TF.FilePolarity,Positive*%
%FSLAX46Y46*%
G04 Gerber Fmt 4.6, Leading zero omitted, Abs format (unit mm)*
G04 Created by KiCad (PCBNEW (5.1.12-1-g0a0a2da680)-1) date 2021-11-30 19:19:06*
%MOMM*%
%LPD*%
G01*
G04 APERTURE LIST*
%TA.AperFunction,SMDPad,CuDef*%
%ADD10R,1.000000X1.450000*%
%TD*%
%TA.AperFunction,SMDPad,CuDef*%
%ADD11R,1.450000X1.000000*%
%TD*%
%TA.AperFunction,SMDPad,CuDef*%
%ADD12R,0.900000X1.400000*%
%TD*%
%TA.AperFunction,SMDPad,CuDef*%
%ADD13R,2.010000X6.000000*%
%TD*%
%TA.AperFunction,ComponentPad*%
%ADD14C,1.800000*%
%TD*%
%TA.AperFunction,ComponentPad*%
%ADD15R,1.800000X1.800000*%
%TD*%
%TA.AperFunction,SMDPad,CuDef*%
%ADD16R,2.400000X3.100000*%
%TD*%
%TA.AperFunction,SMDPad,CuDef*%
%ADD17R,1.525000X0.650000*%
%TD*%
%TA.AperFunction,SMDPad,CuDef*%
%ADD18R,0.450000X1.400000*%
%TD*%
%TA.AperFunction,SMDPad,CuDef*%
%ADD19R,2.210000X2.400000*%
%TD*%
%TA.AperFunction,SMDPad,CuDef*%
%ADD20R,1.200000X0.500000*%
%TD*%
%TA.AperFunction,SMDPad,CuDef*%
%ADD21R,0.400000X0.500000*%
%TD*%
%TA.AperFunction,SMDPad,CuDef*%
%ADD22R,0.940000X2.500000*%
%TD*%
%TA.AperFunction,SMDPad,CuDef*%
%ADD23R,0.700000X0.300000*%
%TD*%
%TA.AperFunction,SMDPad,CuDef*%
%ADD24R,2.000000X3.500000*%
%TD*%
%TA.AperFunction,SMDPad,CuDef*%
%ADD25R,1.250000X1.400000*%
%TD*%
%TA.AperFunction,SMDPad,CuDef*%
%ADD26R,2.300000X1.400000*%
%TD*%
%TA.AperFunction,SMDPad,CuDef*%
%ADD27R,1.470000X1.020000*%
%TD*%
%TA.AperFunction,SMDPad,CuDef*%
%ADD28R,1.020000X1.470000*%
%TD*%
%TA.AperFunction,ViaPad*%
%ADD29C,0.800000*%
%TD*%
%TA.AperFunction,Conductor*%
%ADD30C,0.300000*%
%TD*%
%TA.AperFunction,Conductor*%
%ADD31C,0.250000*%
%TD*%
%TA.AperFunction,Conductor*%
%ADD32C,0.254000*%
%TD*%
%TA.AperFunction,Conductor*%
%ADD33C,0.100000*%
%TD*%
G04 APERTURE END LIST*
D10*
%TO.P,R13,2*%
%TO.N,gnd*%
X112750000Y-53700000D03*
%TO.P,R13,1*%
%TO.N,Net-(IC4-Pad7)*%
X114650000Y-53700000D03*
%TD*%
D11*
%TO.P,R12,2*%
%TO.N,gnd*%
X112000000Y-47650000D03*
%TO.P,R12,1*%
%TO.N,Net-(IC4-Pad8)*%
X112000000Y-45750000D03*
%TD*%
D10*
%TO.P,R11,2*%
%TO.N,gnd*%
X110750000Y-53700000D03*
%TO.P,R11,1*%
%TO.N,Net-(IC4-Pad3)*%
X108850000Y-53700000D03*
%TD*%
D11*
%TO.P,R10,2*%
%TO.N,Net-(IC4-Pad3)*%
X109900000Y-49850000D03*
%TO.P,R10,1*%
%TO.N,5V_BF*%
X109900000Y-51750000D03*
%TD*%
%TO.P,R9,2*%
%TO.N,gnd*%
X109900000Y-48100000D03*
%TO.P,R9,1*%
%TO.N,Net-(IC3-Pad2)*%
X109900000Y-46200000D03*
%TD*%
%TO.P,R8,2*%
%TO.N,Net-(IC3-Pad2)*%
X100200000Y-51100000D03*
%TO.P,R8,1*%
%TO.N,5V_BF*%
X100200000Y-49200000D03*
%TD*%
%TO.P,R7,2*%
%TO.N,Net-(C4-Pad2)*%
X102300000Y-51100000D03*
%TO.P,R7,1*%
%TO.N,Net-(IC3-Pad1)*%
X102300000Y-49200000D03*
%TD*%
D10*
%TO.P,R6,2*%
%TO.N,gnd*%
X92850000Y-53700000D03*
%TO.P,R6,1*%
%TO.N,Net-(IC2-Pad5)*%
X94750000Y-53700000D03*
%TD*%
%TO.P,R5,2*%
%TO.N,Net-(LED2-Pad2)*%
X89350000Y-42300000D03*
%TO.P,R5,1*%
%TO.N,BAT+*%
X91250000Y-42300000D03*
%TD*%
%TO.P,R4,2*%
%TO.N,Net-(LED1-Pad2)*%
X89350000Y-44800000D03*
%TO.P,R4,1*%
%TO.N,BAT+*%
X91250000Y-44800000D03*
%TD*%
%TO.P,R3,2*%
%TO.N,Net-(C2-Pad2)*%
X96750000Y-53700000D03*
%TO.P,R3,1*%
%TO.N,BAT+*%
X98650000Y-53700000D03*
%TD*%
%TO.P,R2,2*%
%TO.N,Net-(IC1-Pad5)*%
X87110000Y-53700000D03*
%TO.P,R2,1*%
%TO.N,Net-(IC1-Pad4)*%
X85210000Y-53700000D03*
%TD*%
%TO.P,R1,2*%
%TO.N,Net-(IC1-Pad2)*%
X83050000Y-53700000D03*
%TO.P,R1,1*%
%TO.N,gnd*%
X81150000Y-53700000D03*
%TD*%
D12*
%TO.P,LED2,2*%
%TO.N,Net-(LED2-Pad2)*%
X87500000Y-42300000D03*
%TO.P,LED2,1*%
%TO.N,Net-(IC1-Pad6)*%
X85600000Y-42300000D03*
%TD*%
%TO.P,LED1,2*%
%TO.N,Net-(LED1-Pad2)*%
X87500000Y-44800000D03*
%TO.P,LED1,1*%
%TO.N,Net-(IC1-Pad8)*%
X85600000Y-44800000D03*
%TD*%
D13*
%TO.P,L1,2*%
%TO.N,BAT+*%
X99850000Y-44800000D03*
%TO.P,L1,1*%
%TO.N,Net-(D1-Pad2)*%
X104150000Y-44800000D03*
%TD*%
D14*
%TO.P,J2,2*%
%TO.N,5V*%
X116900000Y-42860000D03*
D15*
%TO.P,J2,1*%
%TO.N,gnd*%
X116900000Y-45400000D03*
%TD*%
D14*
%TO.P,J1,2*%
%TO.N,Vin+*%
X82500000Y-50000000D03*
D15*
%TO.P,J1,1*%
%TO.N,gnd*%
X82500000Y-47460000D03*
%TD*%
D16*
%TO.P,IC4,9*%
%TO.N,gnd*%
X116800000Y-49800000D03*
D17*
%TO.P,IC4,8*%
%TO.N,Net-(IC4-Pad8)*%
X119512000Y-47895000D03*
%TO.P,IC4,7*%
%TO.N,Net-(IC4-Pad7)*%
X119512000Y-49165000D03*
%TO.P,IC4,6*%
%TO.N,Net-(IC4-Pad6)*%
X119512000Y-50435000D03*
%TO.P,IC4,5*%
%TO.N,5V*%
X119512000Y-51705000D03*
%TO.P,IC4,4*%
%TO.N,5V_BF*%
X114088000Y-51705000D03*
%TO.P,IC4,3*%
%TO.N,Net-(IC4-Pad3)*%
X114088000Y-50435000D03*
%TO.P,IC4,2*%
%TO.N,Net-(C6-Pad2)*%
X114088000Y-49165000D03*
%TO.P,IC4,1*%
%TO.N,gnd*%
X114088000Y-47895000D03*
%TD*%
D18*
%TO.P,IC3,8*%
%TO.N,Net-(C7-Pad2)*%
X107875000Y-51000000D03*
%TO.P,IC3,7*%
%TO.N,BAT+*%
X107225000Y-51000000D03*
%TO.P,IC3,6*%
X106575000Y-51000000D03*
%TO.P,IC3,5*%
%TO.N,Net-(D1-Pad2)*%
X105925000Y-51000000D03*
%TO.P,IC3,4*%
%TO.N,gnd*%
X105925000Y-46600000D03*
%TO.P,IC3,3*%
%TO.N,BAT+*%
X106575000Y-46600000D03*
%TO.P,IC3,2*%
%TO.N,Net-(IC3-Pad2)*%
X107225000Y-46600000D03*
%TO.P,IC3,1*%
%TO.N,Net-(IC3-Pad1)*%
X107875000Y-46600000D03*
%TD*%
D19*
%TO.P,IC2,7*%
%TO.N,Net-(IC2-Pad7)*%
X96900000Y-48730000D03*
D20*
%TO.P,IC2,6*%
%TO.N,gnd*%
X96350000Y-47080000D03*
D21*
%TO.P,IC2,5*%
%TO.N,Net-(IC2-Pad5)*%
X97300000Y-47080000D03*
%TO.P,IC2,4*%
%TO.N,Net-(IC2-Pad4)*%
X97850000Y-47080000D03*
%TO.P,IC2,3*%
%TO.N,Net-(C2-Pad2)*%
X97850000Y-50380000D03*
%TO.P,IC2,2*%
%TO.N,BAT-*%
X97300000Y-50380000D03*
D20*
%TO.P,IC2,1*%
X96350000Y-50380000D03*
%TD*%
D22*
%TO.P,IC1,11*%
%TO.N,gnd*%
X90250000Y-48767500D03*
D23*
%TO.P,IC1,10*%
%TO.N,BAT+*%
X91250000Y-47767500D03*
%TO.P,IC1,9*%
%TO.N,Net-(IC1-Pad9)*%
X91250000Y-48267500D03*
%TO.P,IC1,8*%
%TO.N,Net-(IC1-Pad8)*%
X91250000Y-48767500D03*
%TO.P,IC1,7*%
%TO.N,Net-(IC1-Pad6)*%
X91250000Y-49267500D03*
%TO.P,IC1,6*%
X91250000Y-49767500D03*
%TO.P,IC1,5*%
%TO.N,Net-(IC1-Pad5)*%
X89250000Y-49767500D03*
%TO.P,IC1,4*%
%TO.N,Net-(IC1-Pad4)*%
X89250000Y-49267500D03*
%TO.P,IC1,3*%
%TO.N,gnd*%
X89250000Y-48767500D03*
%TO.P,IC1,2*%
%TO.N,Net-(IC1-Pad2)*%
X89250000Y-48267500D03*
%TO.P,IC1,1*%
%TO.N,Vin+*%
X89250000Y-47767500D03*
%TD*%
D24*
%TO.P,H2,1*%
%TO.N,BAT-*%
X93700000Y-43600000D03*
%TD*%
%TO.P,H1,1*%
%TO.N,BAT+*%
X96900000Y-43600000D03*
%TD*%
D25*
%TO.P,D1,2*%
%TO.N,Net-(D1-Pad2)*%
X106375000Y-43700000D03*
D26*
%TO.P,D1,1*%
%TO.N,5V_BF*%
X108700000Y-43700000D03*
%TD*%
D27*
%TO.P,C9,2*%
%TO.N,5V_BF*%
X112400000Y-42400000D03*
%TO.P,C9,1*%
%TO.N,gnd*%
X112400000Y-44000000D03*
%TD*%
D28*
%TO.P,C8,2*%
%TO.N,5V*%
X118100000Y-53700000D03*
%TO.P,C8,1*%
%TO.N,gnd*%
X116500000Y-53700000D03*
%TD*%
D27*
%TO.P,C7,2*%
%TO.N,Net-(C7-Pad2)*%
X104100000Y-50800000D03*
%TO.P,C7,1*%
%TO.N,gnd*%
X104100000Y-49200000D03*
%TD*%
%TO.P,C6,2*%
%TO.N,Net-(C6-Pad2)*%
X112000000Y-49800000D03*
%TO.P,C6,1*%
%TO.N,gnd*%
X112000000Y-51400000D03*
%TD*%
D28*
%TO.P,C5,2*%
%TO.N,BAT+*%
X106700000Y-53700000D03*
%TO.P,C5,1*%
%TO.N,gnd*%
X105100000Y-53700000D03*
%TD*%
%TO.P,C4,2*%
%TO.N,Net-(C4-Pad2)*%
X101500000Y-53700000D03*
%TO.P,C4,1*%
%TO.N,gnd*%
X103100000Y-53700000D03*
%TD*%
D27*
%TO.P,C3,2*%
%TO.N,gnd*%
X94000000Y-49700000D03*
%TO.P,C3,1*%
%TO.N,BAT+*%
X94000000Y-48100000D03*
%TD*%
D28*
%TO.P,C2,2*%
%TO.N,Net-(C2-Pad2)*%
X90780000Y-53700000D03*
%TO.P,C2,1*%
%TO.N,BAT-*%
X89180000Y-53700000D03*
%TD*%
D27*
%TO.P,C1,2*%
%TO.N,Vin+*%
X87200000Y-49700000D03*
%TO.P,C1,1*%
%TO.N,gnd*%
X87200000Y-48100000D03*
%TD*%
D29*
%TO.N,Vin+*%
X83600000Y-45500000D03*
%TO.N,gnd*%
X95200000Y-46900000D03*
X103200000Y-52500000D03*
X111800000Y-52600000D03*
X117200000Y-52500000D03*
%TO.N,BAT-*%
X93930331Y-51830331D03*
X90000000Y-51825000D03*
X93000000Y-46500000D03*
%TO.N,BAT+*%
X92000000Y-46500000D03*
X98550001Y-51895735D03*
X106675000Y-48289369D03*
X101600000Y-44400000D03*
%TO.N,Net-(C7-Pad2)*%
X104300000Y-52200000D03*
X107737764Y-52679577D03*
%TO.N,5V*%
X119600000Y-53100000D03*
%TO.N,5V_BF*%
X115750000Y-52300000D03*
X110800000Y-52374998D03*
X110800000Y-42300000D03*
X101600000Y-46900000D03*
%TO.N,Net-(D1-Pad2)*%
X105900000Y-49500000D03*
X102700000Y-46300000D03*
%TO.N,Net-(IC1-Pad8)*%
X92400000Y-48600000D03*
X89736401Y-46263599D03*
%TO.N,Net-(IC1-Pad6)*%
X91964998Y-49517501D03*
X84100000Y-42300000D03*
%TO.N,Net-(IC1-Pad5)*%
X88069998Y-52500000D03*
%TO.N,Net-(IC1-Pad2)*%
X84500000Y-46710000D03*
X84200000Y-52000000D03*
%TO.N,Net-(IC2-Pad5)*%
X95400000Y-51830332D03*
X97147624Y-46263478D03*
%TO.N,Net-(IC3-Pad2)*%
X106700000Y-45000000D03*
X100100000Y-52300000D03*
%TO.N,Net-(IC3-Pad1)*%
X108574998Y-45725000D03*
X102544998Y-47600000D03*
%TO.N,Net-(IC4-Pad8)*%
X113200000Y-46100000D03*
X119600000Y-46900000D03*
%TO.N,Net-(IC4-Pad7)*%
X113786658Y-52706671D03*
X118149498Y-47668922D03*
%TO.N,Net-(IC4-Pad3)*%
X108200000Y-49200000D03*
X113327531Y-50779998D03*
%TD*%
D30*
%TO.N,Vin+*%
X82800000Y-49700000D02*
X82500000Y-50000000D01*
X87200000Y-49700000D02*
X82800000Y-49700000D01*
X84400002Y-45500000D02*
X83600000Y-45500000D01*
X85409984Y-46509982D02*
X84400002Y-45500000D01*
X89250000Y-47317500D02*
X88442482Y-46509982D01*
X88442482Y-46509982D02*
X85409984Y-46509982D01*
X89250000Y-47767500D02*
X89250000Y-47317500D01*
%TO.N,gnd*%
X86560000Y-47460000D02*
X87200000Y-48100000D01*
X82500000Y-47460000D02*
X86560000Y-47460000D01*
X90250000Y-48767500D02*
X89250000Y-48767500D01*
X87867500Y-48767500D02*
X87200000Y-48100000D01*
X89250000Y-48767500D02*
X87867500Y-48767500D01*
X80700000Y-48600000D02*
X80700000Y-52750000D01*
X81840000Y-47460000D02*
X80700000Y-48600000D01*
X80700000Y-52750000D02*
X81150000Y-53200000D01*
X82500000Y-47460000D02*
X81840000Y-47460000D01*
X96170000Y-46900000D02*
X96350000Y-47080000D01*
X95200000Y-46900000D02*
X96170000Y-46900000D01*
X93300000Y-49700000D02*
X94335000Y-49700000D01*
X90250000Y-49897502D02*
X90250000Y-48767500D01*
X90619999Y-50267501D02*
X90250000Y-49897502D01*
X93300000Y-49700000D02*
X92732499Y-50267501D01*
X95200000Y-49535000D02*
X95200000Y-46900000D01*
X95035000Y-49700000D02*
X95200000Y-49535000D01*
X94000000Y-49700000D02*
X95035000Y-49700000D01*
X92850000Y-53200000D02*
X92850000Y-51850000D01*
X94000000Y-50700000D02*
X94000000Y-49700000D01*
X105135000Y-49200000D02*
X104100000Y-49200000D01*
X105925000Y-48410000D02*
X105135000Y-49200000D01*
X105925000Y-46600000D02*
X105925000Y-48410000D01*
X105100000Y-53700000D02*
X103100000Y-53700000D01*
X103100000Y-52600000D02*
X103200000Y-52500000D01*
X103100000Y-53700000D02*
X103100000Y-52600000D01*
X104489998Y-49200000D02*
X104100000Y-49200000D01*
X105185001Y-49895003D02*
X104489998Y-49200000D01*
X105185001Y-53614999D02*
X105185001Y-49895003D01*
X105100000Y-53700000D02*
X105185001Y-53614999D01*
X112750000Y-52150000D02*
X112000000Y-51400000D01*
X112750000Y-53700000D02*
X112750000Y-52150000D01*
X112750000Y-53700000D02*
X110750000Y-53700000D01*
X111550000Y-48100000D02*
X112000000Y-47650000D01*
X109900000Y-48100000D02*
X111550000Y-48100000D01*
X113843000Y-47650000D02*
X114088000Y-47895000D01*
X112000000Y-47650000D02*
X113843000Y-47650000D01*
X114088000Y-45688000D02*
X112400000Y-44000000D01*
X114088000Y-47895000D02*
X114088000Y-45688000D01*
X114376000Y-45400000D02*
X114088000Y-45688000D01*
X116900000Y-45400000D02*
X114376000Y-45400000D01*
X116800000Y-45500000D02*
X116900000Y-45400000D01*
X116800000Y-49800000D02*
X116800000Y-45500000D01*
X114895000Y-47895000D02*
X114088000Y-47895000D01*
X116800000Y-49800000D02*
X114895000Y-47895000D01*
X116500000Y-50100000D02*
X116800000Y-49800000D01*
X116500000Y-53700000D02*
X116500000Y-50100000D01*
X110750000Y-53650000D02*
X111800000Y-52600000D01*
X110750000Y-53700000D02*
X110750000Y-53650000D01*
X117200000Y-50200000D02*
X116800000Y-49800000D01*
X117200000Y-52500000D02*
X117200000Y-50200000D01*
X93500000Y-51200000D02*
X93300000Y-51200000D01*
X92850000Y-51850000D02*
X93500000Y-51200000D01*
X93500000Y-51200000D02*
X94000000Y-50700000D01*
X93300000Y-51200000D02*
X93200000Y-51100000D01*
X93200000Y-51100000D02*
X92100000Y-51100000D01*
X92100000Y-51100000D02*
X91400000Y-50400000D01*
X91400000Y-50400000D02*
X90500000Y-50400000D01*
X91835002Y-50400000D02*
X91967501Y-50267501D01*
X91400000Y-50400000D02*
X91835002Y-50400000D01*
X91967501Y-50267501D02*
X90619999Y-50267501D01*
X92732499Y-50267501D02*
X91967501Y-50267501D01*
X91967501Y-50267501D02*
X92200000Y-50500000D01*
D31*
%TO.N,Net-(C2-Pad2)*%
X90780000Y-53200000D02*
X90780000Y-53380000D01*
X95699999Y-54250001D02*
X96750000Y-53200000D01*
X91650001Y-54250001D02*
X95699999Y-54250001D01*
X90780000Y-53380000D02*
X91650001Y-54250001D01*
X97825001Y-52124999D02*
X96750000Y-53200000D01*
X97825001Y-50674999D02*
X97825001Y-52124999D01*
X97850000Y-50650000D02*
X97825001Y-50674999D01*
X97850000Y-50380000D02*
X97850000Y-50650000D01*
D30*
%TO.N,BAT-*%
X96350000Y-50380000D02*
X95620000Y-50380000D01*
X94169669Y-51830331D02*
X93930331Y-51830331D01*
X95620000Y-50380000D02*
X94169669Y-51830331D01*
X89180000Y-52645000D02*
X89180000Y-53200000D01*
X90000000Y-51825000D02*
X89180000Y-52645000D01*
X93700000Y-43600000D02*
X93700000Y-45800000D01*
X93700000Y-45800000D02*
X93000000Y-46500000D01*
X97300000Y-50380000D02*
X96350000Y-50380000D01*
%TO.N,BAT+*%
X91250000Y-42300000D02*
X91250000Y-44800000D01*
X91250000Y-44800000D02*
X91250000Y-47767500D01*
X92967500Y-47767500D02*
X93300000Y-48100000D01*
X91250000Y-47767500D02*
X92967500Y-47767500D01*
X93300000Y-48100000D02*
X93600000Y-48100000D01*
X98650000Y-43600000D02*
X99850000Y-44800000D01*
X96900000Y-43600000D02*
X98650000Y-43600000D01*
X96900000Y-44089998D02*
X96900000Y-43600000D01*
X94000000Y-46989998D02*
X96900000Y-44089998D01*
X94000000Y-48100000D02*
X94000000Y-46989998D01*
X91250000Y-45750000D02*
X92000000Y-46500000D01*
X91250000Y-44800000D02*
X91250000Y-45750000D01*
X98550001Y-53100001D02*
X98650000Y-53200000D01*
X98550001Y-51895735D02*
X98550001Y-53100001D01*
X106575000Y-48189369D02*
X106675000Y-48289369D01*
X106575000Y-46600000D02*
X106575000Y-48189369D01*
X100250000Y-44400000D02*
X99850000Y-44800000D01*
X101600000Y-44400000D02*
X100250000Y-44400000D01*
X107225000Y-51000000D02*
X106575000Y-51000000D01*
X107225000Y-48839369D02*
X106675000Y-48289369D01*
X107225000Y-51000000D02*
X107225000Y-48839369D01*
X106700000Y-51125000D02*
X106575000Y-51000000D01*
X106700000Y-53700000D02*
X106700000Y-51125000D01*
D31*
%TO.N,Net-(C4-Pad2)*%
X101500000Y-51900000D02*
X101500000Y-53700000D01*
X102300000Y-51100000D02*
X101500000Y-51900000D01*
%TO.N,Net-(C6-Pad2)*%
X112635000Y-49165000D02*
X112000000Y-49800000D01*
X114088000Y-49165000D02*
X112635000Y-49165000D01*
%TO.N,Net-(C7-Pad2)*%
X104100000Y-52000000D02*
X104300000Y-52200000D01*
X104100000Y-50800000D02*
X104100000Y-52000000D01*
X107875000Y-52542341D02*
X107875000Y-51000000D01*
X107737764Y-52679577D02*
X107875000Y-52542341D01*
D30*
%TO.N,5V*%
X118100000Y-53117000D02*
X119512000Y-51705000D01*
X118100000Y-53700000D02*
X118100000Y-53117000D01*
X119512000Y-53012000D02*
X119600000Y-53100000D01*
X119512000Y-51705000D02*
X119512000Y-53012000D01*
%TO.N,5V_BF*%
X115155000Y-51705000D02*
X115750000Y-52300000D01*
X114088000Y-51705000D02*
X115155000Y-51705000D01*
X110524998Y-52374998D02*
X109900000Y-51750000D01*
X110800000Y-52374998D02*
X110524998Y-52374998D01*
X112300000Y-42300000D02*
X112400000Y-42400000D01*
X110800000Y-42300000D02*
X112300000Y-42300000D01*
X110100000Y-42300000D02*
X108700000Y-43700000D01*
X110800000Y-42300000D02*
X110100000Y-42300000D01*
X101600000Y-47800000D02*
X101600000Y-46900000D01*
X100200000Y-49200000D02*
X101600000Y-47800000D01*
%TO.N,Net-(D1-Pad2)*%
X105250000Y-43700000D02*
X104150000Y-44800000D01*
X106375000Y-43700000D02*
X105250000Y-43700000D01*
X105925000Y-49525000D02*
X105900000Y-49500000D01*
X105925000Y-51000000D02*
X105925000Y-49525000D01*
X102700000Y-46250000D02*
X104150000Y-44800000D01*
X102700000Y-46300000D02*
X102700000Y-46250000D01*
D31*
%TO.N,Net-(IC1-Pad8)*%
X92232500Y-48767500D02*
X92400000Y-48600000D01*
X91250000Y-48767500D02*
X92232500Y-48767500D01*
X89736401Y-46263599D02*
X89063599Y-46263599D01*
X89063599Y-46263599D02*
X88700000Y-45900000D01*
X86400000Y-45600000D02*
X85600000Y-44800000D01*
X86700000Y-45900000D02*
X86400000Y-45600000D01*
X88700000Y-45900000D02*
X86700000Y-45900000D01*
%TO.N,Net-(IC1-Pad6)*%
X91250000Y-49767500D02*
X91250000Y-49267500D01*
X91714997Y-49267500D02*
X91964998Y-49517501D01*
X91250000Y-49267500D02*
X91714997Y-49267500D01*
X84100000Y-42300000D02*
X85600000Y-42300000D01*
%TO.N,Net-(IC1-Pad5)*%
X87110000Y-53200000D02*
X87110000Y-52490000D01*
X89250000Y-50350000D02*
X89250000Y-49767500D01*
X87110000Y-52490000D02*
X89250000Y-50350000D01*
X87369998Y-53200000D02*
X88069998Y-52500000D01*
X87110000Y-53200000D02*
X87369998Y-53200000D01*
%TO.N,Net-(IC1-Pad4)*%
X88650000Y-49267500D02*
X88500000Y-49417500D01*
X89250000Y-49267500D02*
X88650000Y-49267500D01*
X86260001Y-52149999D02*
X85210000Y-53200000D01*
X86580003Y-52149999D02*
X86260001Y-52149999D01*
X88500000Y-50230002D02*
X86580003Y-52149999D01*
X88500000Y-49417500D02*
X88500000Y-50230002D01*
%TO.N,Net-(IC1-Pad2)*%
X87914994Y-46984992D02*
X84774992Y-46984992D01*
X88260001Y-47329999D02*
X87914994Y-46984992D01*
X88260001Y-47877501D02*
X88260001Y-47329999D01*
X88650000Y-48267500D02*
X88260001Y-47877501D01*
X84774992Y-46984992D02*
X84500000Y-46710000D01*
X89250000Y-48267500D02*
X88650000Y-48267500D01*
X84200000Y-52050000D02*
X83050000Y-53200000D01*
X84200000Y-52000000D02*
X84200000Y-52050000D01*
%TO.N,Net-(IC2-Pad5)*%
X94750000Y-52480332D02*
X95400000Y-51830332D01*
X94750000Y-53200000D02*
X94750000Y-52480332D01*
X97300000Y-46415854D02*
X97300000Y-47080000D01*
X97147624Y-46263478D02*
X97300000Y-46415854D01*
%TO.N,Net-(IC3-Pad2)*%
X107225000Y-46275000D02*
X107200000Y-46250000D01*
X107225000Y-46600000D02*
X107225000Y-46275000D01*
X107200000Y-45764998D02*
X107964998Y-45000000D01*
X107200000Y-46250000D02*
X107200000Y-45764998D01*
X107964998Y-45000000D02*
X110100000Y-45000000D01*
X110100000Y-45000000D02*
X110400000Y-45300000D01*
X110400000Y-45300000D02*
X110400000Y-45700000D01*
X107225000Y-45525000D02*
X106700000Y-45000000D01*
X107225000Y-46600000D02*
X107225000Y-45525000D01*
X100100000Y-51200000D02*
X100200000Y-51100000D01*
X100100000Y-52300000D02*
X100100000Y-51200000D01*
%TO.N,Net-(IC3-Pad1)*%
X107875000Y-46424998D02*
X108574998Y-45725000D01*
X107875000Y-46600000D02*
X107875000Y-46424998D01*
X102544998Y-48955002D02*
X102300000Y-49200000D01*
X102544998Y-47600000D02*
X102544998Y-48955002D01*
%TO.N,Net-(IC4-Pad8)*%
X112850000Y-45750000D02*
X113200000Y-46100000D01*
X112000000Y-45750000D02*
X112850000Y-45750000D01*
X119600000Y-47807000D02*
X119512000Y-47895000D01*
X119600000Y-46900000D02*
X119600000Y-47807000D01*
%TO.N,Net-(IC4-Pad7)*%
X114650000Y-53570013D02*
X113786658Y-52706671D01*
X114650000Y-53700000D02*
X114650000Y-53570013D01*
X118499500Y-49165000D02*
X119512000Y-49165000D01*
X118424499Y-49089999D02*
X118499500Y-49165000D01*
X118424499Y-47943923D02*
X118424499Y-49089999D01*
X118149498Y-47668922D02*
X118424499Y-47943923D01*
%TO.N,Net-(IC4-Pad3)*%
X108850000Y-50900000D02*
X109900000Y-49850000D01*
X108850000Y-53700000D02*
X108850000Y-50900000D01*
X108850000Y-49850000D02*
X108200000Y-49200000D01*
X109900000Y-49850000D02*
X108850000Y-49850000D01*
X113743002Y-50779998D02*
X114088000Y-50435000D01*
X113327531Y-50779998D02*
X113743002Y-50779998D01*
%TO.N,Net-(LED1-Pad2)*%
X89350000Y-44800000D02*
X87500000Y-44800000D01*
%TO.N,Net-(LED2-Pad2)*%
X89350000Y-42300000D02*
X87500000Y-42300000D01*
%TD*%
D32*
%TO.N,gnd*%
X83182795Y-41809744D02*
X83104774Y-41998102D01*
X83065000Y-42198061D01*
X83065000Y-42401939D01*
X83104774Y-42601898D01*
X83182795Y-42790256D01*
X83296063Y-42959774D01*
X83440226Y-43103937D01*
X83609744Y-43217205D01*
X83798102Y-43295226D01*
X83998061Y-43335000D01*
X84201939Y-43335000D01*
X84401898Y-43295226D01*
X84556550Y-43231166D01*
X84560498Y-43244180D01*
X84619463Y-43354494D01*
X84698815Y-43451185D01*
X84795506Y-43530537D01*
X84831918Y-43550000D01*
X84795506Y-43569463D01*
X84698815Y-43648815D01*
X84619463Y-43745506D01*
X84560498Y-43855820D01*
X84524188Y-43975518D01*
X84511928Y-44100000D01*
X84511928Y-44722226D01*
X84438563Y-44715000D01*
X84438555Y-44715000D01*
X84400002Y-44711203D01*
X84361449Y-44715000D01*
X84278711Y-44715000D01*
X84259774Y-44696063D01*
X84090256Y-44582795D01*
X83901898Y-44504774D01*
X83701939Y-44465000D01*
X83498061Y-44465000D01*
X83298102Y-44504774D01*
X83109744Y-44582795D01*
X82940226Y-44696063D01*
X82796063Y-44840226D01*
X82682795Y-45009744D01*
X82604774Y-45198102D01*
X82565000Y-45398061D01*
X82565000Y-45601939D01*
X82604774Y-45801898D01*
X82682795Y-45990256D01*
X82697895Y-46012855D01*
X82627000Y-46083750D01*
X82627000Y-47333000D01*
X82647000Y-47333000D01*
X82647000Y-47587000D01*
X82627000Y-47587000D01*
X82627000Y-47607000D01*
X82373000Y-47607000D01*
X82373000Y-47587000D01*
X81123750Y-47587000D01*
X80965000Y-47745750D01*
X80961928Y-48360000D01*
X80974188Y-48484482D01*
X81010498Y-48604180D01*
X81069463Y-48714494D01*
X81148815Y-48811185D01*
X81245506Y-48890537D01*
X81355820Y-48949502D01*
X81374127Y-48955056D01*
X81307688Y-49021495D01*
X81139701Y-49272905D01*
X81023989Y-49552257D01*
X80965000Y-49848816D01*
X80965000Y-50151184D01*
X81023989Y-50447743D01*
X81139701Y-50727095D01*
X81307688Y-50978505D01*
X81521495Y-51192312D01*
X81772905Y-51360299D01*
X82052257Y-51476011D01*
X82348816Y-51535000D01*
X82651184Y-51535000D01*
X82947743Y-51476011D01*
X83227095Y-51360299D01*
X83478505Y-51192312D01*
X83692312Y-50978505D01*
X83860299Y-50727095D01*
X83960579Y-50485000D01*
X85891972Y-50485000D01*
X85934463Y-50564494D01*
X86013815Y-50661185D01*
X86110506Y-50740537D01*
X86220820Y-50799502D01*
X86340518Y-50835812D01*
X86465000Y-50848072D01*
X86807129Y-50848072D01*
X86268082Y-51387119D01*
X86260001Y-51386323D01*
X86222676Y-51389999D01*
X86222668Y-51389999D01*
X86111015Y-51400996D01*
X85967754Y-51444453D01*
X85835725Y-51515025D01*
X85720000Y-51609998D01*
X85696202Y-51638996D01*
X85235000Y-52100198D01*
X85235000Y-51898061D01*
X85195226Y-51698102D01*
X85117205Y-51509744D01*
X85003937Y-51340226D01*
X84859774Y-51196063D01*
X84690256Y-51082795D01*
X84501898Y-51004774D01*
X84301939Y-50965000D01*
X84098061Y-50965000D01*
X83898102Y-51004774D01*
X83709744Y-51082795D01*
X83540226Y-51196063D01*
X83396063Y-51340226D01*
X83282795Y-51509744D01*
X83204774Y-51698102D01*
X83165000Y-51898061D01*
X83165000Y-52010198D01*
X82838271Y-52336928D01*
X82550000Y-52336928D01*
X82425518Y-52349188D01*
X82305820Y-52385498D01*
X82195506Y-52444463D01*
X82100000Y-52522842D01*
X82004494Y-52444463D01*
X81894180Y-52385498D01*
X81774482Y-52349188D01*
X81650000Y-52336928D01*
X81435750Y-52340000D01*
X81277000Y-52498750D01*
X81277000Y-53573000D01*
X81297000Y-53573000D01*
X81297000Y-53827000D01*
X81277000Y-53827000D01*
X81277000Y-53847000D01*
X81023000Y-53847000D01*
X81023000Y-53827000D01*
X80173750Y-53827000D01*
X80015000Y-53985750D01*
X80012522Y-54340000D01*
X79760000Y-54340000D01*
X79760000Y-52975000D01*
X80011928Y-52975000D01*
X80015000Y-53414250D01*
X80173750Y-53573000D01*
X81023000Y-53573000D01*
X81023000Y-52498750D01*
X80864250Y-52340000D01*
X80650000Y-52336928D01*
X80525518Y-52349188D01*
X80405820Y-52385498D01*
X80295506Y-52444463D01*
X80198815Y-52523815D01*
X80119463Y-52620506D01*
X80060498Y-52730820D01*
X80024188Y-52850518D01*
X80011928Y-52975000D01*
X79760000Y-52975000D01*
X79760000Y-46560000D01*
X80961928Y-46560000D01*
X80965000Y-47174250D01*
X81123750Y-47333000D01*
X82373000Y-47333000D01*
X82373000Y-46083750D01*
X82214250Y-45925000D01*
X81600000Y-45921928D01*
X81475518Y-45934188D01*
X81355820Y-45970498D01*
X81245506Y-46029463D01*
X81148815Y-46108815D01*
X81069463Y-46205506D01*
X81010498Y-46315820D01*
X80974188Y-46435518D01*
X80961928Y-46560000D01*
X79760000Y-46560000D01*
X79760000Y-41660000D01*
X83282850Y-41660000D01*
X83182795Y-41809744D01*
%TA.AperFunction,Conductor*%
D33*
G36*
X83182795Y-41809744D02*
G01*
X83104774Y-41998102D01*
X83065000Y-42198061D01*
X83065000Y-42401939D01*
X83104774Y-42601898D01*
X83182795Y-42790256D01*
X83296063Y-42959774D01*
X83440226Y-43103937D01*
X83609744Y-43217205D01*
X83798102Y-43295226D01*
X83998061Y-43335000D01*
X84201939Y-43335000D01*
X84401898Y-43295226D01*
X84556550Y-43231166D01*
X84560498Y-43244180D01*
X84619463Y-43354494D01*
X84698815Y-43451185D01*
X84795506Y-43530537D01*
X84831918Y-43550000D01*
X84795506Y-43569463D01*
X84698815Y-43648815D01*
X84619463Y-43745506D01*
X84560498Y-43855820D01*
X84524188Y-43975518D01*
X84511928Y-44100000D01*
X84511928Y-44722226D01*
X84438563Y-44715000D01*
X84438555Y-44715000D01*
X84400002Y-44711203D01*
X84361449Y-44715000D01*
X84278711Y-44715000D01*
X84259774Y-44696063D01*
X84090256Y-44582795D01*
X83901898Y-44504774D01*
X83701939Y-44465000D01*
X83498061Y-44465000D01*
X83298102Y-44504774D01*
X83109744Y-44582795D01*
X82940226Y-44696063D01*
X82796063Y-44840226D01*
X82682795Y-45009744D01*
X82604774Y-45198102D01*
X82565000Y-45398061D01*
X82565000Y-45601939D01*
X82604774Y-45801898D01*
X82682795Y-45990256D01*
X82697895Y-46012855D01*
X82627000Y-46083750D01*
X82627000Y-47333000D01*
X82647000Y-47333000D01*
X82647000Y-47587000D01*
X82627000Y-47587000D01*
X82627000Y-47607000D01*
X82373000Y-47607000D01*
X82373000Y-47587000D01*
X81123750Y-47587000D01*
X80965000Y-47745750D01*
X80961928Y-48360000D01*
X80974188Y-48484482D01*
X81010498Y-48604180D01*
X81069463Y-48714494D01*
X81148815Y-48811185D01*
X81245506Y-48890537D01*
X81355820Y-48949502D01*
X81374127Y-48955056D01*
X81307688Y-49021495D01*
X81139701Y-49272905D01*
X81023989Y-49552257D01*
X80965000Y-49848816D01*
X80965000Y-50151184D01*
X81023989Y-50447743D01*
X81139701Y-50727095D01*
X81307688Y-50978505D01*
X81521495Y-51192312D01*
X81772905Y-51360299D01*
X82052257Y-51476011D01*
X82348816Y-51535000D01*
X82651184Y-51535000D01*
X82947743Y-51476011D01*
X83227095Y-51360299D01*
X83478505Y-51192312D01*
X83692312Y-50978505D01*
X83860299Y-50727095D01*
X83960579Y-50485000D01*
X85891972Y-50485000D01*
X85934463Y-50564494D01*
X86013815Y-50661185D01*
X86110506Y-50740537D01*
X86220820Y-50799502D01*
X86340518Y-50835812D01*
X86465000Y-50848072D01*
X86807129Y-50848072D01*
X86268082Y-51387119D01*
X86260001Y-51386323D01*
X86222676Y-51389999D01*
X86222668Y-51389999D01*
X86111015Y-51400996D01*
X85967754Y-51444453D01*
X85835725Y-51515025D01*
X85720000Y-51609998D01*
X85696202Y-51638996D01*
X85235000Y-52100198D01*
X85235000Y-51898061D01*
X85195226Y-51698102D01*
X85117205Y-51509744D01*
X85003937Y-51340226D01*
X84859774Y-51196063D01*
X84690256Y-51082795D01*
X84501898Y-51004774D01*
X84301939Y-50965000D01*
X84098061Y-50965000D01*
X83898102Y-51004774D01*
X83709744Y-51082795D01*
X83540226Y-51196063D01*
X83396063Y-51340226D01*
X83282795Y-51509744D01*
X83204774Y-51698102D01*
X83165000Y-51898061D01*
X83165000Y-52010198D01*
X82838271Y-52336928D01*
X82550000Y-52336928D01*
X82425518Y-52349188D01*
X82305820Y-52385498D01*
X82195506Y-52444463D01*
X82100000Y-52522842D01*
X82004494Y-52444463D01*
X81894180Y-52385498D01*
X81774482Y-52349188D01*
X81650000Y-52336928D01*
X81435750Y-52340000D01*
X81277000Y-52498750D01*
X81277000Y-53573000D01*
X81297000Y-53573000D01*
X81297000Y-53827000D01*
X81277000Y-53827000D01*
X81277000Y-53847000D01*
X81023000Y-53847000D01*
X81023000Y-53827000D01*
X80173750Y-53827000D01*
X80015000Y-53985750D01*
X80012522Y-54340000D01*
X79760000Y-54340000D01*
X79760000Y-52975000D01*
X80011928Y-52975000D01*
X80015000Y-53414250D01*
X80173750Y-53573000D01*
X81023000Y-53573000D01*
X81023000Y-52498750D01*
X80864250Y-52340000D01*
X80650000Y-52336928D01*
X80525518Y-52349188D01*
X80405820Y-52385498D01*
X80295506Y-52444463D01*
X80198815Y-52523815D01*
X80119463Y-52620506D01*
X80060498Y-52730820D01*
X80024188Y-52850518D01*
X80011928Y-52975000D01*
X79760000Y-52975000D01*
X79760000Y-46560000D01*
X80961928Y-46560000D01*
X80965000Y-47174250D01*
X81123750Y-47333000D01*
X82373000Y-47333000D01*
X82373000Y-46083750D01*
X82214250Y-45925000D01*
X81600000Y-45921928D01*
X81475518Y-45934188D01*
X81355820Y-45970498D01*
X81245506Y-46029463D01*
X81148815Y-46108815D01*
X81069463Y-46205506D01*
X81010498Y-46315820D01*
X80974188Y-46435518D01*
X80961928Y-46560000D01*
X79760000Y-46560000D01*
X79760000Y-41660000D01*
X83282850Y-41660000D01*
X83182795Y-41809744D01*
G37*
%TD.AperFunction*%
D32*
X111773750Y-53573000D02*
X112623000Y-53573000D01*
X112623000Y-53553000D01*
X112877000Y-53553000D01*
X112877000Y-53573000D01*
X112897000Y-53573000D01*
X112897000Y-53827000D01*
X112877000Y-53827000D01*
X112877000Y-53847000D01*
X112623000Y-53847000D01*
X112623000Y-53827000D01*
X111773750Y-53827000D01*
X111750000Y-53850750D01*
X111726250Y-53827000D01*
X110877000Y-53827000D01*
X110877000Y-53847000D01*
X110623000Y-53847000D01*
X110623000Y-53827000D01*
X110603000Y-53827000D01*
X110603000Y-53573000D01*
X110623000Y-53573000D01*
X110623000Y-53553000D01*
X110877000Y-53553000D01*
X110877000Y-53573000D01*
X111726250Y-53573000D01*
X111750000Y-53549250D01*
X111773750Y-53573000D01*
%TA.AperFunction,Conductor*%
D33*
G36*
X111773750Y-53573000D02*
G01*
X112623000Y-53573000D01*
X112623000Y-53553000D01*
X112877000Y-53553000D01*
X112877000Y-53573000D01*
X112897000Y-53573000D01*
X112897000Y-53827000D01*
X112877000Y-53827000D01*
X112877000Y-53847000D01*
X112623000Y-53847000D01*
X112623000Y-53827000D01*
X111773750Y-53827000D01*
X111750000Y-53850750D01*
X111726250Y-53827000D01*
X110877000Y-53827000D01*
X110877000Y-53847000D01*
X110623000Y-53847000D01*
X110623000Y-53827000D01*
X110603000Y-53827000D01*
X110603000Y-53573000D01*
X110623000Y-53573000D01*
X110623000Y-53553000D01*
X110877000Y-53553000D01*
X110877000Y-53573000D01*
X111726250Y-53573000D01*
X111750000Y-53549250D01*
X111773750Y-53573000D01*
G37*
%TD.AperFunction*%
D32*
X103265000Y-52301939D02*
X103289689Y-52426061D01*
X103227000Y-52488750D01*
X103227000Y-53573000D01*
X104086250Y-53573000D01*
X104100000Y-53559250D01*
X104113750Y-53573000D01*
X104973000Y-53573000D01*
X104973000Y-53553000D01*
X105227000Y-53553000D01*
X105227000Y-53573000D01*
X105247000Y-53573000D01*
X105247000Y-53827000D01*
X105227000Y-53827000D01*
X105227000Y-53847000D01*
X104973000Y-53847000D01*
X104973000Y-53827000D01*
X104113750Y-53827000D01*
X104100000Y-53840750D01*
X104086250Y-53827000D01*
X103227000Y-53827000D01*
X103227000Y-53847000D01*
X102973000Y-53847000D01*
X102973000Y-53827000D01*
X102953000Y-53827000D01*
X102953000Y-53573000D01*
X102973000Y-53573000D01*
X102973000Y-52488750D01*
X102814250Y-52330000D01*
X102590000Y-52326928D01*
X102465518Y-52339188D01*
X102345820Y-52375498D01*
X102300000Y-52399990D01*
X102260000Y-52378609D01*
X102260000Y-52238072D01*
X103025000Y-52238072D01*
X103149482Y-52225812D01*
X103265000Y-52190770D01*
X103265000Y-52301939D01*
%TA.AperFunction,Conductor*%
D33*
G36*
X103265000Y-52301939D02*
G01*
X103289689Y-52426061D01*
X103227000Y-52488750D01*
X103227000Y-53573000D01*
X104086250Y-53573000D01*
X104100000Y-53559250D01*
X104113750Y-53573000D01*
X104973000Y-53573000D01*
X104973000Y-53553000D01*
X105227000Y-53553000D01*
X105227000Y-53573000D01*
X105247000Y-53573000D01*
X105247000Y-53827000D01*
X105227000Y-53827000D01*
X105227000Y-53847000D01*
X104973000Y-53847000D01*
X104973000Y-53827000D01*
X104113750Y-53827000D01*
X104100000Y-53840750D01*
X104086250Y-53827000D01*
X103227000Y-53827000D01*
X103227000Y-53847000D01*
X102973000Y-53847000D01*
X102973000Y-53827000D01*
X102953000Y-53827000D01*
X102953000Y-53573000D01*
X102973000Y-53573000D01*
X102973000Y-52488750D01*
X102814250Y-52330000D01*
X102590000Y-52326928D01*
X102465518Y-52339188D01*
X102345820Y-52375498D01*
X102300000Y-52399990D01*
X102260000Y-52378609D01*
X102260000Y-52238072D01*
X103025000Y-52238072D01*
X103149482Y-52225812D01*
X103265000Y-52190770D01*
X103265000Y-52301939D01*
G37*
%TD.AperFunction*%
D32*
X116627000Y-53573000D02*
X116647000Y-53573000D01*
X116647000Y-53827000D01*
X116627000Y-53827000D01*
X116627000Y-53847000D01*
X116373000Y-53847000D01*
X116373000Y-53827000D01*
X116353000Y-53827000D01*
X116353000Y-53573000D01*
X116373000Y-53573000D01*
X116373000Y-53553000D01*
X116627000Y-53553000D01*
X116627000Y-53573000D01*
%TA.AperFunction,Conductor*%
D33*
G36*
X116627000Y-53573000D02*
G01*
X116647000Y-53573000D01*
X116647000Y-53827000D01*
X116627000Y-53827000D01*
X116627000Y-53847000D01*
X116373000Y-53847000D01*
X116373000Y-53827000D01*
X116353000Y-53827000D01*
X116353000Y-53573000D01*
X116373000Y-53573000D01*
X116373000Y-53553000D01*
X116627000Y-53553000D01*
X116627000Y-53573000D01*
G37*
%TD.AperFunction*%
D32*
X90261928Y-48917500D02*
X90271777Y-49017500D01*
X90261928Y-49117500D01*
X90261928Y-49417500D01*
X90271777Y-49517500D01*
X90261928Y-49617500D01*
X90261928Y-49917500D01*
X90274188Y-50041982D01*
X90310498Y-50161680D01*
X90369463Y-50271994D01*
X90377000Y-50281178D01*
X90377000Y-50493750D01*
X90535750Y-50652500D01*
X90720000Y-50655572D01*
X90844482Y-50643312D01*
X90964180Y-50607002D01*
X91060397Y-50555572D01*
X91600000Y-50555572D01*
X91724482Y-50543312D01*
X91761068Y-50532214D01*
X91863059Y-50552501D01*
X92066937Y-50552501D01*
X92266896Y-50512727D01*
X92455254Y-50434706D01*
X92624772Y-50321438D01*
X92636726Y-50309484D01*
X92639188Y-50334482D01*
X92675498Y-50454180D01*
X92734463Y-50564494D01*
X92813815Y-50661185D01*
X92910506Y-50740537D01*
X93020820Y-50799502D01*
X93140518Y-50835812D01*
X93265000Y-50848072D01*
X93602703Y-50845763D01*
X93440075Y-50913126D01*
X93270557Y-51026394D01*
X93126394Y-51170557D01*
X93013126Y-51340075D01*
X92935105Y-51528433D01*
X92895331Y-51728392D01*
X92895331Y-51932270D01*
X92935105Y-52132229D01*
X93013126Y-52320587D01*
X93070018Y-52405732D01*
X92977000Y-52498750D01*
X92977000Y-53490001D01*
X92723000Y-53490001D01*
X92723000Y-52498750D01*
X92564250Y-52340000D01*
X92350000Y-52336928D01*
X92225518Y-52349188D01*
X92105820Y-52385498D01*
X91995506Y-52444463D01*
X91898815Y-52523815D01*
X91823350Y-52615769D01*
X91820537Y-52610506D01*
X91741185Y-52513815D01*
X91644494Y-52434463D01*
X91534180Y-52375498D01*
X91414482Y-52339188D01*
X91290000Y-52326928D01*
X90909406Y-52326928D01*
X90917205Y-52315256D01*
X90995226Y-52126898D01*
X91035000Y-51926939D01*
X91035000Y-51723061D01*
X90995226Y-51523102D01*
X90917205Y-51334744D01*
X90803937Y-51165226D01*
X90659774Y-51021063D01*
X90490256Y-50907795D01*
X90301898Y-50829774D01*
X90101939Y-50790000D01*
X89898061Y-50790000D01*
X89867000Y-50796178D01*
X89884974Y-50774277D01*
X89949938Y-50652739D01*
X89964250Y-50652500D01*
X90123000Y-50493750D01*
X90123000Y-50281178D01*
X90130537Y-50271994D01*
X90189502Y-50161680D01*
X90225812Y-50041982D01*
X90238072Y-49917500D01*
X90238072Y-49617500D01*
X90228223Y-49517500D01*
X90238072Y-49417500D01*
X90238072Y-49117500D01*
X90227741Y-49012607D01*
X90235000Y-48949250D01*
X90202753Y-48917003D01*
X90189502Y-48873320D01*
X90132939Y-48767500D01*
X90189502Y-48661680D01*
X90201994Y-48620500D01*
X90261928Y-48620500D01*
X90261928Y-48917500D01*
%TA.AperFunction,Conductor*%
D33*
G36*
X90261928Y-48917500D02*
G01*
X90271777Y-49017500D01*
X90261928Y-49117500D01*
X90261928Y-49417500D01*
X90271777Y-49517500D01*
X90261928Y-49617500D01*
X90261928Y-49917500D01*
X90274188Y-50041982D01*
X90310498Y-50161680D01*
X90369463Y-50271994D01*
X90377000Y-50281178D01*
X90377000Y-50493750D01*
X90535750Y-50652500D01*
X90720000Y-50655572D01*
X90844482Y-50643312D01*
X90964180Y-50607002D01*
X91060397Y-50555572D01*
X91600000Y-50555572D01*
X91724482Y-50543312D01*
X91761068Y-50532214D01*
X91863059Y-50552501D01*
X92066937Y-50552501D01*
X92266896Y-50512727D01*
X92455254Y-50434706D01*
X92624772Y-50321438D01*
X92636726Y-50309484D01*
X92639188Y-50334482D01*
X92675498Y-50454180D01*
X92734463Y-50564494D01*
X92813815Y-50661185D01*
X92910506Y-50740537D01*
X93020820Y-50799502D01*
X93140518Y-50835812D01*
X93265000Y-50848072D01*
X93602703Y-50845763D01*
X93440075Y-50913126D01*
X93270557Y-51026394D01*
X93126394Y-51170557D01*
X93013126Y-51340075D01*
X92935105Y-51528433D01*
X92895331Y-51728392D01*
X92895331Y-51932270D01*
X92935105Y-52132229D01*
X93013126Y-52320587D01*
X93070018Y-52405732D01*
X92977000Y-52498750D01*
X92977000Y-53490001D01*
X92723000Y-53490001D01*
X92723000Y-52498750D01*
X92564250Y-52340000D01*
X92350000Y-52336928D01*
X92225518Y-52349188D01*
X92105820Y-52385498D01*
X91995506Y-52444463D01*
X91898815Y-52523815D01*
X91823350Y-52615769D01*
X91820537Y-52610506D01*
X91741185Y-52513815D01*
X91644494Y-52434463D01*
X91534180Y-52375498D01*
X91414482Y-52339188D01*
X91290000Y-52326928D01*
X90909406Y-52326928D01*
X90917205Y-52315256D01*
X90995226Y-52126898D01*
X91035000Y-51926939D01*
X91035000Y-51723061D01*
X90995226Y-51523102D01*
X90917205Y-51334744D01*
X90803937Y-51165226D01*
X90659774Y-51021063D01*
X90490256Y-50907795D01*
X90301898Y-50829774D01*
X90101939Y-50790000D01*
X89898061Y-50790000D01*
X89867000Y-50796178D01*
X89884974Y-50774277D01*
X89949938Y-50652739D01*
X89964250Y-50652500D01*
X90123000Y-50493750D01*
X90123000Y-50281178D01*
X90130537Y-50271994D01*
X90189502Y-50161680D01*
X90225812Y-50041982D01*
X90238072Y-49917500D01*
X90238072Y-49617500D01*
X90228223Y-49517500D01*
X90238072Y-49417500D01*
X90238072Y-49117500D01*
X90227741Y-49012607D01*
X90235000Y-48949250D01*
X90202753Y-48917003D01*
X90189502Y-48873320D01*
X90132939Y-48767500D01*
X90189502Y-48661680D01*
X90201994Y-48620500D01*
X90261928Y-48620500D01*
X90261928Y-48917500D01*
G37*
%TD.AperFunction*%
D32*
X111872998Y-52462935D02*
X111830916Y-52497471D01*
X111835000Y-52476937D01*
X111835000Y-52424250D01*
X111872998Y-52386252D01*
X111872998Y-52462935D01*
%TA.AperFunction,Conductor*%
D33*
G36*
X111872998Y-52462935D02*
G01*
X111830916Y-52497471D01*
X111835000Y-52476937D01*
X111835000Y-52424250D01*
X111872998Y-52386252D01*
X111872998Y-52462935D01*
G37*
%TD.AperFunction*%
D32*
X115921495Y-41667688D02*
X115707688Y-41881495D01*
X115539701Y-42132905D01*
X115423989Y-42412257D01*
X115365000Y-42708816D01*
X115365000Y-43011184D01*
X115423989Y-43307743D01*
X115539701Y-43587095D01*
X115707688Y-43838505D01*
X115774127Y-43904944D01*
X115755820Y-43910498D01*
X115645506Y-43969463D01*
X115548815Y-44048815D01*
X115469463Y-44145506D01*
X115410498Y-44255820D01*
X115374188Y-44375518D01*
X115361928Y-44500000D01*
X115365000Y-45114250D01*
X115523750Y-45273000D01*
X116773000Y-45273000D01*
X116773000Y-45253000D01*
X117027000Y-45253000D01*
X117027000Y-45273000D01*
X118276250Y-45273000D01*
X118435000Y-45114250D01*
X118438072Y-44500000D01*
X118425812Y-44375518D01*
X118389502Y-44255820D01*
X118330537Y-44145506D01*
X118251185Y-44048815D01*
X118154494Y-43969463D01*
X118044180Y-43910498D01*
X118025873Y-43904944D01*
X118092312Y-43838505D01*
X118260299Y-43587095D01*
X118376011Y-43307743D01*
X118435000Y-43011184D01*
X118435000Y-42708816D01*
X118376011Y-42412257D01*
X118260299Y-42132905D01*
X118092312Y-41881495D01*
X117878505Y-41667688D01*
X117866999Y-41660000D01*
X119840000Y-41660000D01*
X119840000Y-45892462D01*
X119701939Y-45865000D01*
X119498061Y-45865000D01*
X119298102Y-45904774D01*
X119109744Y-45982795D01*
X118940226Y-46096063D01*
X118796063Y-46240226D01*
X118682795Y-46409744D01*
X118604774Y-46598102D01*
X118579207Y-46726637D01*
X118451396Y-46673696D01*
X118332875Y-46650121D01*
X118389502Y-46544180D01*
X118425812Y-46424482D01*
X118438072Y-46300000D01*
X118435000Y-45685750D01*
X118276250Y-45527000D01*
X117027000Y-45527000D01*
X117027000Y-46776250D01*
X117185750Y-46935000D01*
X117418545Y-46936164D01*
X117345561Y-47009148D01*
X117232293Y-47178666D01*
X117154272Y-47367024D01*
X117114498Y-47566983D01*
X117114498Y-47614903D01*
X117085750Y-47615000D01*
X116927000Y-47773750D01*
X116927000Y-49673000D01*
X116947000Y-49673000D01*
X116947000Y-49927000D01*
X116927000Y-49927000D01*
X116927000Y-51826250D01*
X117085750Y-51985000D01*
X118000000Y-51988072D01*
X118111428Y-51977098D01*
X118111428Y-51995415D01*
X117779915Y-52326928D01*
X117590000Y-52326928D01*
X117465518Y-52339188D01*
X117345820Y-52375498D01*
X117300000Y-52399990D01*
X117254180Y-52375498D01*
X117134482Y-52339188D01*
X117010000Y-52326928D01*
X116785750Y-52330000D01*
X116785000Y-52330750D01*
X116785000Y-52198061D01*
X116745226Y-51998102D01*
X116673000Y-51823734D01*
X116673000Y-49927000D01*
X116653000Y-49927000D01*
X116653000Y-49673000D01*
X116673000Y-49673000D01*
X116673000Y-47773750D01*
X116514250Y-47615000D01*
X115600000Y-47611928D01*
X115475518Y-47624188D01*
X115468404Y-47626346D01*
X115485500Y-47609250D01*
X115488572Y-47570000D01*
X115476312Y-47445518D01*
X115440002Y-47325820D01*
X115381037Y-47215506D01*
X115301685Y-47118815D01*
X115204994Y-47039463D01*
X115094680Y-46980498D01*
X114974982Y-46944188D01*
X114850500Y-46931928D01*
X114373750Y-46935000D01*
X114215000Y-47093750D01*
X114215000Y-47768000D01*
X114235000Y-47768000D01*
X114235000Y-48022000D01*
X114215000Y-48022000D01*
X114215000Y-48042000D01*
X113961000Y-48042000D01*
X113961000Y-48022000D01*
X113941000Y-48022000D01*
X113941000Y-47768000D01*
X113961000Y-47768000D01*
X113961000Y-47093750D01*
X113806670Y-46939420D01*
X113859774Y-46903937D01*
X114003937Y-46759774D01*
X114117205Y-46590256D01*
X114195226Y-46401898D01*
X114215494Y-46300000D01*
X115361928Y-46300000D01*
X115374188Y-46424482D01*
X115410498Y-46544180D01*
X115469463Y-46654494D01*
X115548815Y-46751185D01*
X115645506Y-46830537D01*
X115755820Y-46889502D01*
X115875518Y-46925812D01*
X116000000Y-46938072D01*
X116614250Y-46935000D01*
X116773000Y-46776250D01*
X116773000Y-45527000D01*
X115523750Y-45527000D01*
X115365000Y-45685750D01*
X115361928Y-46300000D01*
X114215494Y-46300000D01*
X114235000Y-46201939D01*
X114235000Y-45998061D01*
X114195226Y-45798102D01*
X114117205Y-45609744D01*
X114003937Y-45440226D01*
X113859774Y-45296063D01*
X113690256Y-45182795D01*
X113501898Y-45104774D01*
X113405274Y-45085554D01*
X113489494Y-45040537D01*
X113586185Y-44961185D01*
X113665537Y-44864494D01*
X113724502Y-44754180D01*
X113760812Y-44634482D01*
X113773072Y-44510000D01*
X113770000Y-44285750D01*
X113611250Y-44127000D01*
X112527000Y-44127000D01*
X112527000Y-44147000D01*
X112273000Y-44147000D01*
X112273000Y-44127000D01*
X111188750Y-44127000D01*
X111030000Y-44285750D01*
X111026928Y-44510000D01*
X111039188Y-44634482D01*
X111045710Y-44655981D01*
X111030820Y-44660498D01*
X110920506Y-44719463D01*
X110906093Y-44731292D01*
X110663804Y-44489003D01*
X110640001Y-44459999D01*
X110524276Y-44365026D01*
X110488072Y-44345674D01*
X110488072Y-43291071D01*
X110498102Y-43295226D01*
X110698061Y-43335000D01*
X110901939Y-43335000D01*
X111057853Y-43303987D01*
X111039188Y-43365518D01*
X111026928Y-43490000D01*
X111030000Y-43714250D01*
X111188750Y-43873000D01*
X112273000Y-43873000D01*
X112273000Y-43853000D01*
X112527000Y-43853000D01*
X112527000Y-43873000D01*
X113611250Y-43873000D01*
X113770000Y-43714250D01*
X113773072Y-43490000D01*
X113760812Y-43365518D01*
X113724502Y-43245820D01*
X113700010Y-43200000D01*
X113724502Y-43154180D01*
X113760812Y-43034482D01*
X113773072Y-42910000D01*
X113773072Y-41890000D01*
X113760812Y-41765518D01*
X113728803Y-41660000D01*
X115933001Y-41660000D01*
X115921495Y-41667688D01*
%TA.AperFunction,Conductor*%
D33*
G36*
X115921495Y-41667688D02*
G01*
X115707688Y-41881495D01*
X115539701Y-42132905D01*
X115423989Y-42412257D01*
X115365000Y-42708816D01*
X115365000Y-43011184D01*
X115423989Y-43307743D01*
X115539701Y-43587095D01*
X115707688Y-43838505D01*
X115774127Y-43904944D01*
X115755820Y-43910498D01*
X115645506Y-43969463D01*
X115548815Y-44048815D01*
X115469463Y-44145506D01*
X115410498Y-44255820D01*
X115374188Y-44375518D01*
X115361928Y-44500000D01*
X115365000Y-45114250D01*
X115523750Y-45273000D01*
X116773000Y-45273000D01*
X116773000Y-45253000D01*
X117027000Y-45253000D01*
X117027000Y-45273000D01*
X118276250Y-45273000D01*
X118435000Y-45114250D01*
X118438072Y-44500000D01*
X118425812Y-44375518D01*
X118389502Y-44255820D01*
X118330537Y-44145506D01*
X118251185Y-44048815D01*
X118154494Y-43969463D01*
X118044180Y-43910498D01*
X118025873Y-43904944D01*
X118092312Y-43838505D01*
X118260299Y-43587095D01*
X118376011Y-43307743D01*
X118435000Y-43011184D01*
X118435000Y-42708816D01*
X118376011Y-42412257D01*
X118260299Y-42132905D01*
X118092312Y-41881495D01*
X117878505Y-41667688D01*
X117866999Y-41660000D01*
X119840000Y-41660000D01*
X119840000Y-45892462D01*
X119701939Y-45865000D01*
X119498061Y-45865000D01*
X119298102Y-45904774D01*
X119109744Y-45982795D01*
X118940226Y-46096063D01*
X118796063Y-46240226D01*
X118682795Y-46409744D01*
X118604774Y-46598102D01*
X118579207Y-46726637D01*
X118451396Y-46673696D01*
X118332875Y-46650121D01*
X118389502Y-46544180D01*
X118425812Y-46424482D01*
X118438072Y-46300000D01*
X118435000Y-45685750D01*
X118276250Y-45527000D01*
X117027000Y-45527000D01*
X117027000Y-46776250D01*
X117185750Y-46935000D01*
X117418545Y-46936164D01*
X117345561Y-47009148D01*
X117232293Y-47178666D01*
X117154272Y-47367024D01*
X117114498Y-47566983D01*
X117114498Y-47614903D01*
X117085750Y-47615000D01*
X116927000Y-47773750D01*
X116927000Y-49673000D01*
X116947000Y-49673000D01*
X116947000Y-49927000D01*
X116927000Y-49927000D01*
X116927000Y-51826250D01*
X117085750Y-51985000D01*
X118000000Y-51988072D01*
X118111428Y-51977098D01*
X118111428Y-51995415D01*
X117779915Y-52326928D01*
X117590000Y-52326928D01*
X117465518Y-52339188D01*
X117345820Y-52375498D01*
X117300000Y-52399990D01*
X117254180Y-52375498D01*
X117134482Y-52339188D01*
X117010000Y-52326928D01*
X116785750Y-52330000D01*
X116785000Y-52330750D01*
X116785000Y-52198061D01*
X116745226Y-51998102D01*
X116673000Y-51823734D01*
X116673000Y-49927000D01*
X116653000Y-49927000D01*
X116653000Y-49673000D01*
X116673000Y-49673000D01*
X116673000Y-47773750D01*
X116514250Y-47615000D01*
X115600000Y-47611928D01*
X115475518Y-47624188D01*
X115468404Y-47626346D01*
X115485500Y-47609250D01*
X115488572Y-47570000D01*
X115476312Y-47445518D01*
X115440002Y-47325820D01*
X115381037Y-47215506D01*
X115301685Y-47118815D01*
X115204994Y-47039463D01*
X115094680Y-46980498D01*
X114974982Y-46944188D01*
X114850500Y-46931928D01*
X114373750Y-46935000D01*
X114215000Y-47093750D01*
X114215000Y-47768000D01*
X114235000Y-47768000D01*
X114235000Y-48022000D01*
X114215000Y-48022000D01*
X114215000Y-48042000D01*
X113961000Y-48042000D01*
X113961000Y-48022000D01*
X113941000Y-48022000D01*
X113941000Y-47768000D01*
X113961000Y-47768000D01*
X113961000Y-47093750D01*
X113806670Y-46939420D01*
X113859774Y-46903937D01*
X114003937Y-46759774D01*
X114117205Y-46590256D01*
X114195226Y-46401898D01*
X114215494Y-46300000D01*
X115361928Y-46300000D01*
X115374188Y-46424482D01*
X115410498Y-46544180D01*
X115469463Y-46654494D01*
X115548815Y-46751185D01*
X115645506Y-46830537D01*
X115755820Y-46889502D01*
X115875518Y-46925812D01*
X116000000Y-46938072D01*
X116614250Y-46935000D01*
X116773000Y-46776250D01*
X116773000Y-45527000D01*
X115523750Y-45527000D01*
X115365000Y-45685750D01*
X115361928Y-46300000D01*
X114215494Y-46300000D01*
X114235000Y-46201939D01*
X114235000Y-45998061D01*
X114195226Y-45798102D01*
X114117205Y-45609744D01*
X114003937Y-45440226D01*
X113859774Y-45296063D01*
X113690256Y-45182795D01*
X113501898Y-45104774D01*
X113405274Y-45085554D01*
X113489494Y-45040537D01*
X113586185Y-44961185D01*
X113665537Y-44864494D01*
X113724502Y-44754180D01*
X113760812Y-44634482D01*
X113773072Y-44510000D01*
X113770000Y-44285750D01*
X113611250Y-44127000D01*
X112527000Y-44127000D01*
X112527000Y-44147000D01*
X112273000Y-44147000D01*
X112273000Y-44127000D01*
X111188750Y-44127000D01*
X111030000Y-44285750D01*
X111026928Y-44510000D01*
X111039188Y-44634482D01*
X111045710Y-44655981D01*
X111030820Y-44660498D01*
X110920506Y-44719463D01*
X110906093Y-44731292D01*
X110663804Y-44489003D01*
X110640001Y-44459999D01*
X110524276Y-44365026D01*
X110488072Y-44345674D01*
X110488072Y-43291071D01*
X110498102Y-43295226D01*
X110698061Y-43335000D01*
X110901939Y-43335000D01*
X111057853Y-43303987D01*
X111039188Y-43365518D01*
X111026928Y-43490000D01*
X111030000Y-43714250D01*
X111188750Y-43873000D01*
X112273000Y-43873000D01*
X112273000Y-43853000D01*
X112527000Y-43853000D01*
X112527000Y-43873000D01*
X113611250Y-43873000D01*
X113770000Y-43714250D01*
X113773072Y-43490000D01*
X113760812Y-43365518D01*
X113724502Y-43245820D01*
X113700010Y-43200000D01*
X113724502Y-43154180D01*
X113760812Y-43034482D01*
X113773072Y-42910000D01*
X113773072Y-41890000D01*
X113760812Y-41765518D01*
X113728803Y-41660000D01*
X115933001Y-41660000D01*
X115921495Y-41667688D01*
G37*
%TD.AperFunction*%
D32*
X112127000Y-51273000D02*
X112147000Y-51273000D01*
X112147000Y-51527000D01*
X112127000Y-51527000D01*
X112127000Y-51547000D01*
X111873000Y-51547000D01*
X111873000Y-51527000D01*
X111853000Y-51527000D01*
X111853000Y-51273000D01*
X111873000Y-51273000D01*
X111873000Y-51253000D01*
X112127000Y-51253000D01*
X112127000Y-51273000D01*
%TA.AperFunction,Conductor*%
D33*
G36*
X112127000Y-51273000D02*
G01*
X112147000Y-51273000D01*
X112147000Y-51527000D01*
X112127000Y-51527000D01*
X112127000Y-51547000D01*
X111873000Y-51547000D01*
X111873000Y-51527000D01*
X111853000Y-51527000D01*
X111853000Y-51273000D01*
X111873000Y-51273000D01*
X111873000Y-51253000D01*
X112127000Y-51253000D01*
X112127000Y-51273000D01*
G37*
%TD.AperFunction*%
D32*
X94127000Y-49573000D02*
X94147000Y-49573000D01*
X94147000Y-49827000D01*
X94127000Y-49827000D01*
X94127000Y-49847000D01*
X93873000Y-49847000D01*
X93873000Y-49827000D01*
X93853000Y-49827000D01*
X93853000Y-49573000D01*
X93873000Y-49573000D01*
X93873000Y-49553000D01*
X94127000Y-49553000D01*
X94127000Y-49573000D01*
%TA.AperFunction,Conductor*%
D33*
G36*
X94127000Y-49573000D02*
G01*
X94147000Y-49573000D01*
X94147000Y-49827000D01*
X94127000Y-49827000D01*
X94127000Y-49847000D01*
X93873000Y-49847000D01*
X93873000Y-49827000D01*
X93853000Y-49827000D01*
X93853000Y-49573000D01*
X93873000Y-49573000D01*
X93873000Y-49553000D01*
X94127000Y-49553000D01*
X94127000Y-49573000D01*
G37*
%TD.AperFunction*%
D32*
X104227000Y-49073000D02*
X104247000Y-49073000D01*
X104247000Y-49327000D01*
X104227000Y-49327000D01*
X104227000Y-49347000D01*
X103973000Y-49347000D01*
X103973000Y-49327000D01*
X103953000Y-49327000D01*
X103953000Y-49073000D01*
X103973000Y-49073000D01*
X103973000Y-49053000D01*
X104227000Y-49053000D01*
X104227000Y-49073000D01*
%TA.AperFunction,Conductor*%
D33*
G36*
X104227000Y-49073000D02*
G01*
X104247000Y-49073000D01*
X104247000Y-49327000D01*
X104227000Y-49327000D01*
X104227000Y-49347000D01*
X103973000Y-49347000D01*
X103973000Y-49327000D01*
X103953000Y-49327000D01*
X103953000Y-49073000D01*
X103973000Y-49073000D01*
X103973000Y-49053000D01*
X104227000Y-49053000D01*
X104227000Y-49073000D01*
G37*
%TD.AperFunction*%
D32*
X84009744Y-47627205D02*
X84198102Y-47705226D01*
X84398061Y-47745000D01*
X84601939Y-47745000D01*
X84646913Y-47736054D01*
X84737659Y-47744992D01*
X84737668Y-47744992D01*
X84774991Y-47748668D01*
X84812314Y-47744992D01*
X85829051Y-47744992D01*
X85830000Y-47814250D01*
X85988750Y-47973000D01*
X87073000Y-47973000D01*
X87073000Y-47953000D01*
X87327000Y-47953000D01*
X87327000Y-47973000D01*
X87347000Y-47973000D01*
X87347000Y-48227000D01*
X87327000Y-48227000D01*
X87327000Y-48247000D01*
X87073000Y-48247000D01*
X87073000Y-48227000D01*
X85988750Y-48227000D01*
X85830000Y-48385750D01*
X85826928Y-48610000D01*
X85839188Y-48734482D01*
X85875498Y-48854180D01*
X85899990Y-48900000D01*
X85891972Y-48915000D01*
X83708728Y-48915000D01*
X83754494Y-48890537D01*
X83851185Y-48811185D01*
X83930537Y-48714494D01*
X83989502Y-48604180D01*
X84025812Y-48484482D01*
X84038072Y-48360000D01*
X84035000Y-47745750D01*
X83876252Y-47587002D01*
X83949576Y-47587002D01*
X84009744Y-47627205D01*
%TA.AperFunction,Conductor*%
D33*
G36*
X84009744Y-47627205D02*
G01*
X84198102Y-47705226D01*
X84398061Y-47745000D01*
X84601939Y-47745000D01*
X84646913Y-47736054D01*
X84737659Y-47744992D01*
X84737668Y-47744992D01*
X84774991Y-47748668D01*
X84812314Y-47744992D01*
X85829051Y-47744992D01*
X85830000Y-47814250D01*
X85988750Y-47973000D01*
X87073000Y-47973000D01*
X87073000Y-47953000D01*
X87327000Y-47953000D01*
X87327000Y-47973000D01*
X87347000Y-47973000D01*
X87347000Y-48227000D01*
X87327000Y-48227000D01*
X87327000Y-48247000D01*
X87073000Y-48247000D01*
X87073000Y-48227000D01*
X85988750Y-48227000D01*
X85830000Y-48385750D01*
X85826928Y-48610000D01*
X85839188Y-48734482D01*
X85875498Y-48854180D01*
X85899990Y-48900000D01*
X85891972Y-48915000D01*
X83708728Y-48915000D01*
X83754494Y-48890537D01*
X83851185Y-48811185D01*
X83930537Y-48714494D01*
X83989502Y-48604180D01*
X84025812Y-48484482D01*
X84038072Y-48360000D01*
X84035000Y-47745750D01*
X83876252Y-47587002D01*
X83949576Y-47587002D01*
X84009744Y-47627205D01*
G37*
%TD.AperFunction*%
D32*
X108540000Y-47814250D02*
X108698750Y-47973000D01*
X109773000Y-47973000D01*
X109773000Y-47953000D01*
X110027000Y-47953000D01*
X110027000Y-47973000D01*
X110047000Y-47973000D01*
X110047000Y-48227000D01*
X110027000Y-48227000D01*
X110027000Y-48247000D01*
X109773000Y-48247000D01*
X109773000Y-48227000D01*
X108698750Y-48227000D01*
X108656809Y-48268941D01*
X108501898Y-48204774D01*
X108301939Y-48165000D01*
X108098061Y-48165000D01*
X107898102Y-48204774D01*
X107759235Y-48262295D01*
X107752815Y-48257026D01*
X107710000Y-48214211D01*
X107710000Y-48187430D01*
X107670226Y-47987471D01*
X107649754Y-47938048D01*
X107650000Y-47938072D01*
X108100000Y-47938072D01*
X108224482Y-47925812D01*
X108344180Y-47889502D01*
X108454494Y-47830537D01*
X108539236Y-47760991D01*
X108540000Y-47814250D01*
%TA.AperFunction,Conductor*%
D33*
G36*
X108540000Y-47814250D02*
G01*
X108698750Y-47973000D01*
X109773000Y-47973000D01*
X109773000Y-47953000D01*
X110027000Y-47953000D01*
X110027000Y-47973000D01*
X110047000Y-47973000D01*
X110047000Y-48227000D01*
X110027000Y-48227000D01*
X110027000Y-48247000D01*
X109773000Y-48247000D01*
X109773000Y-48227000D01*
X108698750Y-48227000D01*
X108656809Y-48268941D01*
X108501898Y-48204774D01*
X108301939Y-48165000D01*
X108098061Y-48165000D01*
X107898102Y-48204774D01*
X107759235Y-48262295D01*
X107752815Y-48257026D01*
X107710000Y-48214211D01*
X107710000Y-48187430D01*
X107670226Y-47987471D01*
X107649754Y-47938048D01*
X107650000Y-47938072D01*
X108100000Y-47938072D01*
X108224482Y-47925812D01*
X108344180Y-47889502D01*
X108454494Y-47830537D01*
X108539236Y-47760991D01*
X108540000Y-47814250D01*
G37*
%TD.AperFunction*%
D32*
X112127000Y-47523000D02*
X112147000Y-47523000D01*
X112147000Y-47777000D01*
X112127000Y-47777000D01*
X112127000Y-47797000D01*
X111873000Y-47797000D01*
X111873000Y-47777000D01*
X111853000Y-47777000D01*
X111853000Y-47523000D01*
X111873000Y-47523000D01*
X111873000Y-47503000D01*
X112127000Y-47503000D01*
X112127000Y-47523000D01*
%TA.AperFunction,Conductor*%
D33*
G36*
X112127000Y-47523000D02*
G01*
X112147000Y-47523000D01*
X112147000Y-47777000D01*
X112127000Y-47777000D01*
X112127000Y-47797000D01*
X111873000Y-47797000D01*
X111873000Y-47777000D01*
X111853000Y-47777000D01*
X111853000Y-47523000D01*
X111873000Y-47523000D01*
X111873000Y-47503000D01*
X112127000Y-47503000D01*
X112127000Y-47523000D01*
G37*
%TD.AperFunction*%
D32*
X95273750Y-46957000D02*
X95519947Y-46957000D01*
X95440506Y-46999463D01*
X95343815Y-47078815D01*
X95264463Y-47175506D01*
X95245465Y-47211048D01*
X95186185Y-47138815D01*
X95089494Y-47059463D01*
X95057691Y-47042464D01*
X95208453Y-46891703D01*
X95273750Y-46957000D01*
%TA.AperFunction,Conductor*%
D33*
G36*
X95273750Y-46957000D02*
G01*
X95519947Y-46957000D01*
X95440506Y-46999463D01*
X95343815Y-47078815D01*
X95264463Y-47175506D01*
X95245465Y-47211048D01*
X95186185Y-47138815D01*
X95089494Y-47059463D01*
X95057691Y-47042464D01*
X95208453Y-46891703D01*
X95273750Y-46957000D01*
G37*
%TD.AperFunction*%
%TD*%
M02*
