%TF.GenerationSoftware,KiCad,Pcbnew,(5.1.12-1-g0a0a2da680)-1*%
%TF.CreationDate,2021-11-30T19:19:06+01:00*%
%TF.ProjectId,SolarCharger,536f6c61-7243-4686-9172-6765722e6b69,rev?*%
%TF.SameCoordinates,Original*%
%TF.FileFunction,Paste,Top*%
%TF.FilePolarity,Positive*%
%FSLAX46Y46*%
G04 Gerber Fmt 4.6, Leading zero omitted, Abs format (unit mm)*
G04 Created by KiCad (PCBNEW (5.1.12-1-g0a0a2da680)-1) date 2021-11-30 19:19:06*
%MOMM*%
%LPD*%
G01*
G04 APERTURE LIST*
%ADD10R,1.000000X1.450000*%
%ADD11R,1.450000X1.000000*%
%ADD12R,0.900000X1.400000*%
%ADD13R,2.010000X6.000000*%
%ADD14R,2.400000X3.100000*%
%ADD15R,1.525000X0.650000*%
%ADD16R,0.450000X1.400000*%
%ADD17R,2.210000X2.400000*%
%ADD18R,1.200000X0.500000*%
%ADD19R,0.400000X0.500000*%
%ADD20R,0.940000X2.500000*%
%ADD21R,0.700000X0.300000*%
%ADD22R,2.000000X3.500000*%
%ADD23R,1.250000X1.400000*%
%ADD24R,2.300000X1.400000*%
%ADD25R,1.470000X1.020000*%
%ADD26R,1.020000X1.470000*%
G04 APERTURE END LIST*
D10*
%TO.C,R13*%
X112750000Y-53700000D03*
X114650000Y-53700000D03*
%TD*%
D11*
%TO.C,R12*%
X112000000Y-47650000D03*
X112000000Y-45750000D03*
%TD*%
D10*
%TO.C,R11*%
X110750000Y-53700000D03*
X108850000Y-53700000D03*
%TD*%
D11*
%TO.C,R10*%
X109900000Y-49850000D03*
X109900000Y-51750000D03*
%TD*%
%TO.C,R9*%
X109900000Y-48100000D03*
X109900000Y-46200000D03*
%TD*%
%TO.C,R8*%
X100200000Y-51100000D03*
X100200000Y-49200000D03*
%TD*%
%TO.C,R7*%
X102300000Y-51100000D03*
X102300000Y-49200000D03*
%TD*%
D10*
%TO.C,R6*%
X92850000Y-53700000D03*
X94750000Y-53700000D03*
%TD*%
%TO.C,R5*%
X89350000Y-42300000D03*
X91250000Y-42300000D03*
%TD*%
%TO.C,R4*%
X89350000Y-44800000D03*
X91250000Y-44800000D03*
%TD*%
%TO.C,R3*%
X96750000Y-53700000D03*
X98650000Y-53700000D03*
%TD*%
%TO.C,R2*%
X87110000Y-53700000D03*
X85210000Y-53700000D03*
%TD*%
%TO.C,R1*%
X83050000Y-53700000D03*
X81150000Y-53700000D03*
%TD*%
D12*
%TO.C,LED2*%
X87500000Y-42300000D03*
X85600000Y-42300000D03*
%TD*%
%TO.C,LED1*%
X87500000Y-44800000D03*
X85600000Y-44800000D03*
%TD*%
D13*
%TO.C,L1*%
X99850000Y-44800000D03*
X104150000Y-44800000D03*
%TD*%
D14*
%TO.C,IC4*%
X116800000Y-49800000D03*
D15*
X119512000Y-47895000D03*
X119512000Y-49165000D03*
X119512000Y-50435000D03*
X119512000Y-51705000D03*
X114088000Y-51705000D03*
X114088000Y-50435000D03*
X114088000Y-49165000D03*
X114088000Y-47895000D03*
%TD*%
D16*
%TO.C,IC3*%
X107875000Y-51000000D03*
X107225000Y-51000000D03*
X106575000Y-51000000D03*
X105925000Y-51000000D03*
X105925000Y-46600000D03*
X106575000Y-46600000D03*
X107225000Y-46600000D03*
X107875000Y-46600000D03*
%TD*%
D17*
%TO.C,IC2*%
X96900000Y-48730000D03*
D18*
X96350000Y-47080000D03*
D19*
X97300000Y-47080000D03*
X97850000Y-47080000D03*
X97850000Y-50380000D03*
X97300000Y-50380000D03*
D18*
X96350000Y-50380000D03*
%TD*%
D20*
%TO.C,IC1*%
X90250000Y-48767500D03*
D21*
X91250000Y-47767500D03*
X91250000Y-48267500D03*
X91250000Y-48767500D03*
X91250000Y-49267500D03*
X91250000Y-49767500D03*
X89250000Y-49767500D03*
X89250000Y-49267500D03*
X89250000Y-48767500D03*
X89250000Y-48267500D03*
X89250000Y-47767500D03*
%TD*%
D22*
%TO.C,H2*%
X93700000Y-43600000D03*
%TD*%
%TO.C,H1*%
X96900000Y-43600000D03*
%TD*%
D23*
%TO.C,D1*%
X106375000Y-43700000D03*
D24*
X108700000Y-43700000D03*
%TD*%
D25*
%TO.C,C9*%
X112400000Y-42400000D03*
X112400000Y-44000000D03*
%TD*%
D26*
%TO.C,C8*%
X118100000Y-53700000D03*
X116500000Y-53700000D03*
%TD*%
D25*
%TO.C,C7*%
X104100000Y-50800000D03*
X104100000Y-49200000D03*
%TD*%
%TO.C,C6*%
X112000000Y-49800000D03*
X112000000Y-51400000D03*
%TD*%
D26*
%TO.C,C5*%
X106700000Y-53700000D03*
X105100000Y-53700000D03*
%TD*%
%TO.C,C4*%
X101500000Y-53700000D03*
X103100000Y-53700000D03*
%TD*%
D25*
%TO.C,C3*%
X94000000Y-49700000D03*
X94000000Y-48100000D03*
%TD*%
D26*
%TO.C,C2*%
X90780000Y-53700000D03*
X89180000Y-53700000D03*
%TD*%
D25*
%TO.C,C1*%
X87200000Y-49700000D03*
X87200000Y-48100000D03*
%TD*%
M02*
