%TF.GenerationSoftware,KiCad,Pcbnew,(5.1.12-1-g0a0a2da680)-1*%
%TF.CreationDate,2021-11-30T19:19:06+01:00*%
%TF.ProjectId,SolarCharger,536f6c61-7243-4686-9172-6765722e6b69,rev?*%
%TF.SameCoordinates,Original*%
%TF.FileFunction,Copper,L2,Inr*%
%TF.FilePolarity,Positive*%
%FSLAX46Y46*%
G04 Gerber Fmt 4.6, Leading zero omitted, Abs format (unit mm)*
G04 Created by KiCad (PCBNEW (5.1.12-1-g0a0a2da680)-1) date 2021-11-30 19:19:06*
%MOMM*%
%LPD*%
G01*
G04 APERTURE LIST*
%TA.AperFunction,ComponentPad*%
%ADD10C,1.800000*%
%TD*%
%TA.AperFunction,ComponentPad*%
%ADD11R,1.800000X1.800000*%
%TD*%
%TA.AperFunction,ViaPad*%
%ADD12C,0.800000*%
%TD*%
%TA.AperFunction,Conductor*%
%ADD13C,0.300000*%
%TD*%
G04 APERTURE END LIST*
D10*
%TO.N,5V*%
%TO.C,J2*%
X116900000Y-42860000D03*
D11*
%TO.N,gnd*%
X116900000Y-45400000D03*
%TD*%
D10*
%TO.N,Vin+*%
%TO.C,J1*%
X82500000Y-50000000D03*
D11*
%TO.N,gnd*%
X82500000Y-47460000D03*
%TD*%
D12*
%TO.N,Vin+*%
X83600000Y-45500000D03*
%TO.N,gnd*%
X95200000Y-46900000D03*
X103200000Y-52500000D03*
X111800000Y-52600000D03*
X117200000Y-52500000D03*
%TO.N,BAT-*%
X93930331Y-51830331D03*
X90000000Y-51825000D03*
X93000000Y-46500000D03*
%TO.N,BAT+*%
X92000000Y-46500000D03*
X98550001Y-51895735D03*
X106675000Y-48289369D03*
X101600000Y-44400000D03*
%TO.N,Net-(C7-Pad2)*%
X104300000Y-52200000D03*
X107737764Y-52679577D03*
%TO.N,5V*%
X119600000Y-53100000D03*
%TO.N,5V_BF*%
X115750000Y-52300000D03*
X110800000Y-52374998D03*
X110800000Y-42300000D03*
X101600000Y-46900000D03*
%TO.N,Net-(D1-Pad2)*%
X105900000Y-49500000D03*
X102700000Y-46300000D03*
%TO.N,Net-(IC1-Pad8)*%
X92400000Y-48600000D03*
X89736401Y-46263599D03*
%TO.N,Net-(IC1-Pad6)*%
X91964998Y-49517501D03*
X84100000Y-42300000D03*
%TO.N,Net-(IC1-Pad5)*%
X88069998Y-52500000D03*
%TO.N,Net-(IC1-Pad2)*%
X84500000Y-46710000D03*
X84200000Y-52000000D03*
%TO.N,Net-(IC2-Pad5)*%
X95400000Y-51830332D03*
X97147624Y-46263478D03*
%TO.N,Net-(IC3-Pad2)*%
X106700000Y-45000000D03*
X100100000Y-52300000D03*
%TO.N,Net-(IC3-Pad1)*%
X108574998Y-45725000D03*
X102544998Y-47600000D03*
%TO.N,Net-(IC4-Pad8)*%
X113200000Y-46100000D03*
X119600000Y-46900000D03*
%TO.N,Net-(IC4-Pad7)*%
X113786658Y-52706671D03*
X118149498Y-47668922D03*
%TO.N,Net-(IC4-Pad3)*%
X108200000Y-49200000D03*
X113327531Y-50779998D03*
%TD*%
D13*
%TO.N,BAT-*%
X93930331Y-47430331D02*
X93930331Y-51830331D01*
X93000000Y-46500000D02*
X93930331Y-47430331D01*
%TO.N,BAT+*%
X91214997Y-47285003D02*
X91214997Y-50614997D01*
X92000000Y-46500000D02*
X91214997Y-47285003D01*
X97865404Y-52580332D02*
X98550001Y-51895735D01*
X93180332Y-52580332D02*
X97865404Y-52580332D01*
X91214997Y-50614997D02*
X93180332Y-52580332D01*
X106675000Y-48289369D02*
X102885631Y-44500000D01*
X102885631Y-44500000D02*
X101800000Y-44500000D01*
X101700000Y-44400000D02*
X101600000Y-44400000D01*
X101800000Y-44500000D02*
X101700000Y-44400000D01*
%TO.N,5V*%
X115649999Y-44110001D02*
X116900000Y-42860000D01*
X115200000Y-44560000D02*
X115649999Y-44110001D01*
X119600000Y-51600000D02*
X115200000Y-47200000D01*
X115200000Y-47200000D02*
X115200000Y-44560000D01*
X119600000Y-53100000D02*
X119600000Y-51600000D01*
%TD*%
M02*
